<svg xmlns="http://www.w3.org/2000/svg" width="23" height="22" viewBox="0 0 23 22" fill="none">
  <path d="M9.33325 21.25V19.25H22.3333V21.25H9.33325ZM10.3333 18.25C10.3333 16.9 10.7583 15.7208 11.6083 14.7125C12.4583 13.7042 13.5333 13.0833 14.8333 12.85V12.225C14.8333 11.9417 14.9291 11.7042 15.1208 11.5125C15.3124 11.3208 15.5499 11.225 15.8333 11.225C16.1166 11.225 16.3541 11.3208 16.5458 11.5125C16.7374 11.7042 16.8333 11.9417 16.8333 12.225V12.85C18.1166 13.0833 19.1874 13.7042 20.0458 14.7125C20.9041 15.7208 21.3333 16.9 21.3333 18.25H10.3333ZM12.9583 16.225H18.6583C18.3416 15.775 17.9374 15.4125 17.4458 15.1375C16.9541 14.8625 16.4166 14.725 15.8333 14.725C15.2333 14.725 14.6833 14.8625 14.1833 15.1375C13.6833 15.4125 13.2749 15.775 12.9583 16.225ZM0.333252 12.25V1.25H6.33325V2.7L13.3333 0.75L21.3333 3.25V4.25C21.3333 5.08333 21.0416 5.79167 20.4583 6.375C19.8749 6.95833 19.1666 7.25 18.3333 7.25H16.3333V7.85C16.3333 8.26667 16.2124 8.64583 15.9708 8.9875C15.7291 9.32917 15.4166 9.575 15.0333 9.725L8.28325 12.25H0.333252ZM2.33325 10.25H4.33325V3.25H2.33325V10.25ZM6.33325 10.25H7.93325L13.7333 8.125C13.9166 8.05833 14.0624 7.94583 14.1708 7.7875C14.2791 7.62917 14.3333 7.45 14.3333 7.25H12.5583L9.63325 8.2L9.03325 6.3L12.1583 5.25H18.3333C18.4833 5.25 18.6708 5.19583 18.8958 5.0875C19.1208 4.97917 19.2333 4.85 19.2333 4.7L13.2833 2.85L6.33325 4.75V10.25Z" fill="white"/>
</svg>