<svg xmlns="http://www.w3.org/2000/svg" width="21" height="20" viewBox="0 0 21 20" fill="none">
  <path d="M2.66663 19.5C2.11663 19.5 1.64579 19.3042 1.25413 18.9125C0.862459 18.5208 0.666626 18.05 0.666626 17.5V6.5C0.666626 5.95 0.862459 5.47917 1.25413 5.0875C1.64579 4.69583 2.11663 4.5 2.66663 4.5H6.66663V2.5C6.66663 1.95 6.86246 1.47917 7.25413 1.0875C7.64579 0.695833 8.11663 0.5 8.66663 0.5H12.6666C13.2166 0.5 13.6875 0.695833 14.0791 1.0875C14.4708 1.47917 14.6666 1.95 14.6666 2.5V4.5H18.6666C19.2166 4.5 19.6875 4.69583 20.0791 5.0875C20.4708 5.47917 20.6666 5.95 20.6666 6.5V17.5C20.6666 18.05 20.4708 18.5208 20.0791 18.9125C19.6875 19.3042 19.2166 19.5 18.6666 19.5H2.66663ZM8.66663 4.5H12.6666V2.5H8.66663V4.5ZM4.66663 6.5H2.66663V17.5H4.66663V6.5ZM14.6666 17.5V6.5H6.66663V17.5H14.6666ZM16.6666 6.5V17.5H18.6666V6.5H16.6666Z" fill="white"/>
</svg>