<svg xmlns="http://www.w3.org/2000/svg" width="22" height="22" viewBox="0 0 22 22" fill="none">
  <path d="M4.04165 10.5L3.74165 9C3.54165 8.91667 3.35415 8.82917 3.17915 8.7375C3.00415 8.64583 2.82498 8.53333 2.64165 8.4L1.19165 8.85L0.19165 7.15L1.34165 6.15C1.30832 5.93333 1.29165 5.71667 1.29165 5.5C1.29165 5.28333 1.30832 5.06667 1.34165 4.85L0.19165 3.85L1.19165 2.15L2.64165 2.6C2.82498 2.46667 3.00415 2.35417 3.17915 2.2625C3.35415 2.17083 3.54165 2.08333 3.74165 2L4.04165 0.5H6.04165L6.34165 2C6.54165 2.08333 6.72915 2.17083 6.90415 2.2625C7.07915 2.35417 7.25832 2.46667 7.44165 2.6L8.89165 2.15L9.89165 3.85L8.74165 4.85C8.77498 5.06667 8.79165 5.28333 8.79165 5.5C8.79165 5.71667 8.77498 5.93333 8.74165 6.15L9.89165 7.15L8.89165 8.85L7.44165 8.4C7.25832 8.53333 7.07915 8.64583 6.90415 8.7375C6.72915 8.82917 6.54165 8.91667 6.34165 9L6.04165 10.5H4.04165ZM5.04165 7.5C5.59165 7.5 6.06248 7.30417 6.45415 6.9125C6.84582 6.52083 7.04165 6.05 7.04165 5.5C7.04165 4.95 6.84582 4.47917 6.45415 4.0875C6.06248 3.69583 5.59165 3.5 5.04165 3.5C4.49165 3.5 4.02082 3.69583 3.62915 4.0875C3.23748 4.47917 3.04165 4.95 3.04165 5.5C3.04165 6.05 3.23748 6.52083 3.62915 6.9125C4.02082 7.30417 4.49165 7.5 5.04165 7.5ZM12.9917 21.5L12.5417 19.4C12.2583 19.3 11.9958 19.1792 11.7542 19.0375C11.5125 18.8958 11.275 18.7333 11.0417 18.55L9.04165 19.2L7.64165 16.8L9.24165 15.4C9.20832 15.1 9.19165 14.8 9.19165 14.5C9.19165 14.2 9.20832 13.9 9.24165 13.6L7.64165 12.2L9.04165 9.8L11.0417 10.45C11.275 10.2667 11.5125 10.1042 11.7542 9.9625C11.9958 9.82083 12.2583 9.7 12.5417 9.6L12.9917 7.5H15.7917L16.2417 9.6C16.525 9.7 16.7875 9.82083 17.0292 9.9625C17.2708 10.1042 17.5083 10.2667 17.7417 10.45L19.7417 9.8L21.1417 12.2L19.5417 13.6C19.575 13.9 19.5917 14.2 19.5917 14.5C19.5917 14.8 19.575 15.1 19.5417 15.4L21.1417 16.8L19.7417 19.2L17.7417 18.55C17.5083 18.7333 17.2708 18.8958 17.0292 19.0375C16.7875 19.1792 16.525 19.3 16.2417 19.4L15.7917 21.5H12.9917ZM14.3917 17.5C15.225 17.5 15.9333 17.2083 16.5167 16.625C17.1 16.0417 17.3917 15.3333 17.3917 14.5C17.3917 13.6667 17.1 12.9583 16.5167 12.375C15.9333 11.7917 15.225 11.5 14.3917 11.5C13.5583 11.5 12.85 11.7917 12.2667 12.375C11.6833 12.9583 11.3917 13.6667 11.3917 14.5C11.3917 15.3333 11.6833 16.0417 12.2667 16.625C12.85 17.2083 13.5583 17.5 14.3917 17.5Z" fill="white"/>
</svg>