<svg xmlns="http://www.w3.org/2000/svg" width="25" height="24" viewBox="0 0 25 24" fill="none">
  <path d="M6.33325 23.5C5.49992 23.5 4.79159 23.2083 4.20825 22.625C3.62492 22.0417 3.33325 21.3333 3.33325 20.5C3.33325 19.6667 3.62492 18.9583 4.20825 18.375C4.79159 17.7917 5.49992 17.5 6.33325 17.5C6.56659 17.5 6.78325 17.525 6.98325 17.575C7.18325 17.625 7.37492 17.6917 7.55825 17.775L8.98325 16C8.51659 15.4833 8.19159 14.9 8.00825 14.25C7.82492 13.6 7.78325 12.95 7.88325 12.3L5.85825 11.625C5.57492 12.0417 5.21659 12.375 4.78325 12.625C4.34992 12.875 3.86659 13 3.33325 13C2.49992 13 1.79159 12.7083 1.20825 12.125C0.624919 11.5417 0.333252 10.8333 0.333252 10C0.333252 9.16667 0.624919 8.45833 1.20825 7.875C1.79159 7.29167 2.49992 7 3.33325 7C4.16659 7 4.87492 7.29167 5.45825 7.875C6.04159 8.45833 6.33325 9.16667 6.33325 10V10.2L8.35825 10.9C8.69159 10.3 9.13742 9.79167 9.69575 9.375C10.2541 8.95833 10.8833 8.69167 11.5833 8.575V6.4C10.9333 6.21667 10.3958 5.8625 9.97075 5.3375C9.54575 4.8125 9.33325 4.2 9.33325 3.5C9.33325 2.66667 9.62492 1.95833 10.2083 1.375C10.7916 0.791667 11.4999 0.5 12.3333 0.5C13.1666 0.5 13.8749 0.791667 14.4583 1.375C15.0416 1.95833 15.3333 2.66667 15.3333 3.5C15.3333 4.2 15.1166 4.8125 14.6833 5.3375C14.2499 5.8625 13.7166 6.21667 13.0833 6.4V8.575C13.7833 8.69167 14.4124 8.95833 14.9708 9.375C15.5291 9.79167 15.9749 10.3 16.3083 10.9L18.3333 10.2V10C18.3333 9.16667 18.6249 8.45833 19.2083 7.875C19.7916 7.29167 20.4999 7 21.3333 7C22.1666 7 22.8749 7.29167 23.4583 7.875C24.0416 8.45833 24.3333 9.16667 24.3333 10C24.3333 10.8333 24.0416 11.5417 23.4583 12.125C22.8749 12.7083 22.1666 13 21.3333 13C20.7999 13 20.3124 12.875 19.8708 12.625C19.4291 12.375 19.0749 12.0417 18.8083 11.625L16.7833 12.3C16.8833 12.95 16.8416 13.5958 16.6583 14.2375C16.4749 14.8792 16.1499 15.4667 15.6833 16L17.1083 17.75C17.2916 17.6667 17.4833 17.6042 17.6833 17.5625C17.8833 17.5208 18.0999 17.5 18.3333 17.5C19.1666 17.5 19.8749 17.7917 20.4583 18.375C21.0416 18.9583 21.3333 19.6667 21.3333 20.5C21.3333 21.3333 21.0416 22.0417 20.4583 22.625C19.8749 23.2083 19.1666 23.5 18.3333 23.5C17.4999 23.5 16.7916 23.2083 16.2083 22.625C15.6249 22.0417 15.3333 21.3333 15.3333 20.5C15.3333 20.1667 15.3874 19.8458 15.4958 19.5375C15.6041 19.2292 15.7499 18.95 15.9333 18.7L14.5083 16.925C13.8249 17.3083 13.0958 17.5 12.3208 17.5C11.5458 17.5 10.8166 17.3083 10.1333 16.925L8.73325 18.7C8.91658 18.95 9.06242 19.2292 9.17075 19.5375C9.27909 19.8458 9.33325 20.1667 9.33325 20.5C9.33325 21.3333 9.04158 22.0417 8.45825 22.625C7.87492 23.2083 7.16659 23.5 6.33325 23.5ZM3.33325 11C3.61659 11 3.85409 10.9042 4.04575 10.7125C4.23742 10.5208 4.33325 10.2833 4.33325 10C4.33325 9.71667 4.23742 9.47917 4.04575 9.2875C3.85409 9.09583 3.61659 9 3.33325 9C3.04992 9 2.81242 9.09583 2.62075 9.2875C2.42909 9.47917 2.33325 9.71667 2.33325 10C2.33325 10.2833 2.42909 10.5208 2.62075 10.7125C2.81242 10.9042 3.04992 11 3.33325 11ZM6.33325 21.5C6.61659 21.5 6.85409 21.4042 7.04575 21.2125C7.23742 21.0208 7.33325 20.7833 7.33325 20.5C7.33325 20.2167 7.23742 19.9792 7.04575 19.7875C6.85409 19.5958 6.61659 19.5 6.33325 19.5C6.04992 19.5 5.81242 19.5958 5.62075 19.7875C5.42909 19.9792 5.33325 20.2167 5.33325 20.5C5.33325 20.7833 5.42909 21.0208 5.62075 21.2125C5.81242 21.4042 6.04992 21.5 6.33325 21.5ZM12.3333 4.5C12.6166 4.5 12.8541 4.40417 13.0458 4.2125C13.2374 4.02083 13.3333 3.78333 13.3333 3.5C13.3333 3.21667 13.2374 2.97917 13.0458 2.7875C12.8541 2.59583 12.6166 2.5 12.3333 2.5C12.0499 2.5 11.8124 2.59583 11.6208 2.7875C11.4291 2.97917 11.3333 3.21667 11.3333 3.5C11.3333 3.78333 11.4291 4.02083 11.6208 4.2125C11.8124 4.40417 12.0499 4.5 12.3333 4.5ZM12.3333 15.5C13.0333 15.5 13.6249 15.2583 14.1083 14.775C14.5916 14.2917 14.8333 13.7 14.8333 13C14.8333 12.3 14.5916 11.7083 14.1083 11.225C13.6249 10.7417 13.0333 10.5 12.3333 10.5C11.6333 10.5 11.0416 10.7417 10.5583 11.225C10.0749 11.7083 9.83325 12.3 9.83325 13C9.83325 13.7 10.0749 14.2917 10.5583 14.775C11.0416 15.2583 11.6333 15.5 12.3333 15.5ZM18.3333 21.5C18.6166 21.5 18.8541 21.4042 19.0458 21.2125C19.2374 21.0208 19.3333 20.7833 19.3333 20.5C19.3333 20.2167 19.2374 19.9792 19.0458 19.7875C18.8541 19.5958 18.6166 19.5 18.3333 19.5C18.0499 19.5 17.8124 19.5958 17.6208 19.7875C17.4291 19.9792 17.3333 20.2167 17.3333 20.5C17.3333 20.7833 17.4291 21.0208 17.6208 21.2125C17.8124 21.4042 18.0499 21.5 18.3333 21.5ZM21.3333 11C21.6166 11 21.8541 10.9042 22.0458 10.7125C22.2374 10.5208 22.3333 10.2833 22.3333 10C22.3333 9.71667 22.2374 9.47917 22.0458 9.2875C21.8541 9.09583 21.6166 9 21.3333 9C21.0499 9 20.8124 9.09583 20.6208 9.2875C20.4291 9.47917 20.3333 9.71667 20.3333 10C20.3333 10.2833 20.4291 10.5208 20.6208 10.7125C20.8124 10.9042 21.0499 11 21.3333 11Z" fill="white"/>
</svg>