<svg xmlns="http://www.w3.org/2000/svg" width="17" height="20" viewBox="0 0 17 20" fill="none">
  <path d="M4.66663 16H12.6666V14H4.66663V16ZM4.66663 12H12.6666V10H4.66663V12ZM2.66663 20C2.11663 20 1.64579 19.8042 1.25413 19.4125C0.862459 19.0208 0.666626 18.55 0.666626 18V2C0.666626 1.45 0.862459 0.979167 1.25413 0.5875C1.64579 0.195833 2.11663 0 2.66663 0H10.6666L16.6666 6V18C16.6666 18.55 16.4708 19.0208 16.0791 19.4125C15.6875 19.8042 15.2166 20 14.6666 20H2.66663ZM9.66663 7V2H2.66663V18H14.6666V7H9.66663Z" fill="white"/>
</svg>