<svg xmlns="http://www.w3.org/2000/svg" width="20" height="22" viewBox="0 0 20 22" fill="none">
  <path d="M0 5V0H5V2H2V5H0ZM18 5V2H15V0H20V5H18ZM0 22V17H2V20H5V22H0ZM15 22V20H18V17H20V22H15ZM5 17H15V5H5V17ZM5 19C4.45 19 3.97917 18.8042 3.5875 18.4125C3.19583 18.0208 3 17.55 3 17V5C3 4.45 3.19583 3.97917 3.5875 3.5875C3.97917 3.19583 4.45 3 5 3H15C15.55 3 16.0208 3.19583 16.4125 3.5875C16.8042 3.97917 17 4.45 17 5V17C17 17.55 16.8042 18.0208 16.4125 18.4125C16.0208 18.8042 15.55 19 15 19H5ZM7 9H13V7H7V9ZM7 12H13V10H7V12ZM7 15H13V13H7V15Z" fill="white"/>
</svg>