<!DOCTYPE svg PUBLIC "-//W3C//DTD SVG 1.1//EN" "http://www.w3.org/Graphics/SVG/1.1/DTD/svg11.dtd">
<!-- Uploaded to: SVG Repo, www.svgrepo.com, Transformed by: SVG Repo Mixer Tools -->
<svg width="256px" height="256px" viewBox="0 0 1024.00 1024.00" class="icon" version="1.1" xmlns="http://www.w3.org/2000/svg" fill="#4C36F1" stroke="#4C36F1" stroke-width="0.01024">
<g id="SVGRepo_bgCarrier" stroke-width="0"/>
<g id="SVGRepo_tracerCarrier" stroke-linecap="round" stroke-linejoin="round"/>
<g id="SVGRepo_iconCarrier">
<path d="M691.96218 161.524053c-0.015358-20.840162-16.920729-37.723007-37.760891-37.707648l-289.898795 0.422864c-20.840162 0.014334-37.721983 16.920729-37.706625 37.760891l0.439247 189.523221c0.014334 20.840162 16.920729 37.723007 37.760891 37.707649l12.73099-0.01843-0.286688-170.831171c-0.017406-24.990993 12.185259-45.257779 27.255827-45.268018l209.644616-0.40853c15.070568-0.011263 27.301902 20.239141 27.320332 45.22911l0.286688 170.893628 12.94703-0.01843c20.840162-0.014334 37.721983-16.920729 37.706625-37.76089l-0.439247-189.524246z" fill="#BED3F4"/>
<path d="M364.823652 401.381477h-0.047099c-27.491321 0-49.880621-22.365751-49.891884-49.844785l-0.439247-189.507863c-0.012287-27.527157 22.342202-49.92772 49.844785-49.940007l289.885485-0.42696c27.51487 0 49.904171 22.353464 49.940007 49.844785l0.439247 189.52015c0.012287 27.527157-22.342202 49.916457-49.844786 49.92772l-12.932695 0.023549h-0.023549a12.122802 12.122802 0 0 1-8.578112-3.547762 12.123826 12.123826 0 0 1-3.571312-8.578111l-0.296926-170.891581c-0.012287-19.90945-9.123842-33.103236-15.151455-33.103236l-209.631306 0.403411c-6.038876 0-15.151455 13.217336-15.140192 33.115523l0.296927 170.808645c0.012287 6.715664-5.422497 12.16171-12.125874 12.173997l-12.732014 0.022525z m289.399139-265.420769l-289.897771 0.426961c-14.119379 0.012287-25.593038 11.497208-25.580751 25.6043l0.439246 189.507863c0.012287 14.107092 11.484922 25.569488 25.580751 25.580751h0.59283l-0.273377-158.682772c-0.012287-32.201193 17.299566-57.426656 39.403202-57.438942l209.631306-0.403411c22.140496 0 39.474875 25.20089 39.487161 57.379557l0.273378 158.718608h0.794535c14.119379-0.012287 25.593038-11.484922 25.580751-25.593038l-0.439247-189.52015c-0.011263-14.106068-11.496184-25.579727-25.592014-25.579727z" fill="#4C36F1"/>
<path d="M113.288816 891.055658c-20.840162 0.014334-37.746556-16.867487-37.760891-37.707649l-0.439247-522.597213c-0.014334-20.840162 16.867487-37.746556 37.707649-37.760891l792.91113-0.422865c20.840162-0.014334 37.746556 16.867487 37.760891 37.707649l0.439246 522.597213c0.014334 20.840162-16.867487 37.746556-37.707648 37.760891l-792.91113 0.422865z" fill="#DCE5F7"/>
<path d="M113.297007 903.199962h-0.059386c-27.479034 0-49.844785-22.365751-49.857072-49.844786l-0.439246-522.594141c-0.012287-13.324844 5.161406-25.854128 14.582174-35.28616 9.408482-9.420769 21.938791-14.618011 35.262611-14.629274l792.902939-0.42696c27.51487 0 49.916457 22.365751 49.92772 49.844785l0.439247 522.594142c0.012287 13.336106-5.172669 25.865391-14.582175 35.298447-9.420769 9.420769-21.950054 14.618011-35.262611 14.629273l-792.914201 0.414674z m792.427856-598.482474l-792.914202 0.42696c-6.845697 0-13.265458 2.669269-18.094101 7.498936-4.828643 4.84093-7.486649 11.259667-7.475387 18.094101l0.439247 522.594142c0.012287 14.095829 11.473659 25.569488 25.557201 25.569488v12.149423l0.035836-12.149423 792.914202-0.415697c6.834435 0 13.253172-2.669269 18.081815-7.510199 4.828643-4.828643 7.486649-11.259667 7.486649-18.094102l-0.439246-522.594141c-0.011263-14.096853-11.483898-25.569488-25.592014-25.569488z" fill="#4C36F1"/>
<path d="M113.288816 557.98269c-20.840162 0.014334-37.746556-16.867487-37.760891-37.707649l-0.439247-189.523221c-0.014334-20.840162 16.867487-37.746556 37.707649-37.760891l792.91113-0.422865c20.840162-0.014334 37.746556 16.867487 37.760891 37.707649l0.439246 189.523222c0.014334 20.840162-16.867487 37.746556-37.707648 37.76089l-792.91113 0.422865z" fill="#FFFFFF"/>
<path d="M113.297007 570.137233h-0.035836c-27.491321 0-49.868335-22.365751-49.880622-49.844786l-0.439246-189.520149c-0.012287-13.336106 5.161406-25.865391 14.582174-35.298447 9.408482-9.420769 21.938791-14.618011 35.262611-14.629274l792.902939-0.42696c27.51487 0 49.916457 22.365751 49.92772 49.844786l0.439247 189.507863c0.012287 27.527157-22.342202 49.92772-49.844786 49.940006l-792.914201 0.426961z m792.427856-265.419745l-792.914202 0.42696c-6.845697 0-13.265458 2.669269-18.094101 7.498936-4.828643 4.84093-7.486649 11.259667-7.475387 18.094101l0.439247 189.52015c0.012287 14.107092 11.484922 25.580751 25.580751 25.580751l792.926488-0.42696c14.107092-0.012287 25.580751-11.497208 25.569488-25.6043l-0.439247-189.507864c-0.012287-14.10914-11.484922-25.581775-25.593037-25.581774z" fill="#4C36F1"/>
<path d="M509.497624 557.98269m-46.057433 0a46.057434 46.057434 0 1 0 92.114867 0 46.057434 46.057434 0 1 0-92.114867 0Z" fill="#FFFFFF"/>
<path d="M509.528341 616.196714l-0.936855-0.012287c-15.554866-0.248804-30.066393-6.537508-40.8991-17.69069-10.82042-11.164446-16.646328-25.877678-16.397523-41.420257 0.498632-31.596077 26.612827-57.295599 58.197642-57.295599 32.996752 0.509895 58.707537 27.028525 58.209928 59.110947-0.497608 31.597101-26.600541 57.307886-58.174092 57.307886z m0.487369-92.119987c-18.924472 0-34.135313 14.973299-34.419953 33.376614-0.14232 9.053194 3.250836 17.619019 9.550803 24.121715 6.299966 6.501672 14.771594 10.168205 23.824787 10.310525l0.558018 12.16171v-12.149424c18.391028 0 33.589582-14.985586 33.874222-33.387876 0.28464-18.686931-14.688659-34.135313-33.376614-34.43224h-0.011263z" fill="#4C36F1"/>
<path d="M269.212216 590.193098c0 7.647399-6.199626 13.847025-13.847025 13.847026-7.647399 0-13.847025-6.199626-13.847025-13.847026v-64.420816c0-7.647399 6.199626-13.847025 13.847025-13.847026 7.647399 0 13.847025 6.199626 13.847025 13.847026v64.420816zM777.478106 590.193098c0 7.647399-6.199626 13.847025-13.847025 13.847026-7.647399 0-13.847025-6.199626-13.847025-13.847026v-64.420816c0-7.647399 6.199626-13.847025 13.847025-13.847026 7.647399 0 13.847025 6.199626 13.847025 13.847026v64.420816z" fill="#4C36F1"/>
</g>
</svg>