<!DOCTYPE svg PUBLIC "-//W3C//DTD SVG 1.1//EN" "http://www.w3.org/Graphics/SVG/1.1/DTD/svg11.dtd">
<!-- Uploaded to: SVG Repo, www.svgrepo.com, Transformed by: SVG Repo Mixer Tools -->
<svg fill="#4C36F1" height="256px" width="256px" version="1.1" id="Layer_1" xmlns="http://www.w3.org/2000/svg" xmlns:xlink="http://www.w3.org/1999/xlink" viewBox="0 0 512.00 512.00" xml:space="preserve" stroke="#4C36F1" stroke-width="0.00512">
<g id="SVGRepo_bgCarrier" stroke-width="0"/>
<g id="SVGRepo_tracerCarrier" stroke-linecap="round" stroke-linejoin="round" stroke="#CCCCCC" stroke-width="46.08"/>
<g id="SVGRepo_iconCarrier"> <g> <g> <path d="M475.919,96.215H328.734V58.989c0-14.842-12.075-26.917-26.917-26.917h-91.633c-14.842,0-26.917,12.075-26.917,26.917 v37.226H36.081C16.186,96.215,0,112.401,0,132.295v311.553c0,19.895,16.186,36.081,36.081,36.081h439.839 c19.895,0,36.081-16.186,36.081-36.081V132.295C512,112.401,495.814,96.215,475.919,96.215z M383.714,113.396h19.472v46.962 h-19.472V113.396z M200.447,58.989c0-5.369,4.367-9.736,9.736-9.736h91.633c5.369,0,9.736,4.367,9.736,9.736v37.226H200.447 V58.989z M108.814,113.396h19.472v46.962h-19.472V113.396z M91.633,162.586c-5.458,3.032-9.163,8.852-9.163,15.526v27.49 c0,6.674,3.705,12.494,9.163,15.526v241.619H36.081c-10.421,0-18.899-8.478-18.899-18.899V132.295 c0-10.421,8.478-18.899,18.899-18.899h55.553V162.586z M100.224,206.174c-0.001,0-0.001,0-0.002,0 c-0.315-0.001-0.57-0.257-0.57-0.573v-27.49c0-0.312,0.25-0.562,0.559-0.57c0.005,0,0.009,0.001,0.014,0.001 c0.023,0,0.044-0.003,0.066-0.003h36.587c0.316,0,0.573,0.257,0.573,0.573v27.49c0,0.316-0.257,0.573-0.573,0.573h-36.642 C100.232,206.174,100.228,206.174,100.224,206.174z M403.186,462.747h-19.472V251.418c0-4.744-3.846-8.591-8.591-8.591 s-8.591,3.846-8.591,8.591v211.329H145.468v-69.227c1.038-0.06,2.074-0.188,3.107-0.373c-2.349,13.051,5.679,25.986,18.714,29.48 c2.223,0.596,4.48,0.89,6.721,0.89c4.471,0,8.884-1.173,12.86-3.468c5.34-3.083,9.305-7.869,11.362-13.61 c4.79,4.052,10.71,6.095,16.641,6.095c6.607,0,13.216-2.515,18.246-7.545c4.874-4.874,7.559-11.354,7.559-18.246 c0-6.165-2.161-11.991-6.103-16.642c5.739-2.057,10.523-6.023,13.605-11.361c3.447-5.969,4.362-12.924,2.577-19.581 c-3.492-13.035-16.425-21.065-29.476-18.715c2.347-13.05-5.68-25.984-18.715-29.476c-6.657-1.783-13.611-0.868-19.581,2.577 c-5.34,3.082-9.305,7.869-11.362,13.61c-7.402-6.261-17.516-7.693-26.157-4.277v-51.459c0-4.744-3.846-8.591-8.591-8.591 c-4.744,0-8.591,3.846-8.591,8.591v211.329h-19.471V223.356h28.063c9.79,0,17.754-7.964,17.754-17.754v-27.49 c0-6.674-3.705-12.494-9.163-15.526v-49.19h221.065v49.19c-5.458,3.032-9.163,8.852-9.163,15.526v27.49 c0,9.79,7.964,17.754,17.754,17.754h28.063V462.747z M220.97,380.644c1.629,1.629,2.526,3.795,2.526,6.098 s-0.897,4.468-2.526,6.097c-3.363,3.362-8.833,3.363-12.192,0.003c-0.199-0.204-1.906-2.076-7.079-11.093 c1.584-1.066,3.09-2.293,4.489-3.692c1.4-1.4,2.626-2.906,3.692-4.49C218.678,378.61,220.642,380.323,220.97,380.644z M211.924,343.574c8.738-5.084,11.212-5.938,11.676-6.067c4.591-1.234,9.331,1.504,10.562,6.098 c0.596,2.224,0.29,4.548-0.861,6.543c-1.151,1.994-3.011,3.421-5.232,4.017c-0.467,0.119-3.042,0.616-13.165,0.583 C214.644,350.904,213.651,347.105,211.924,343.574z M204.218,318.119c-0.125,0.448-0.978,2.927-6.07,11.68 c-3.531-1.725-7.33-2.718-11.172-2.978c-0.031-10.419,0.514-12.892,0.583-13.161c0.597-2.226,2.023-4.085,4.017-5.237 c1.994-1.152,4.319-1.456,6.544-0.86C202.713,308.793,205.447,313.531,204.218,318.119z M194.04,347.685 c5.024,5.025,5.024,13.199,0,18.224c-5.025,5.025-13.199,5.025-18.224,0c-5.024-5.025-5.024-13.199,0-18.224 c2.512-2.512,5.812-3.768,9.112-3.768S191.527,345.173,194.04,347.685z M182.88,386.772c0.034,10.123-0.464,12.695-0.584,13.161 c-0.597,2.226-2.023,4.085-4.017,5.237c-1.995,1.151-4.319,1.456-6.544,0.86c-4.593-1.23-7.327-5.968-6.099-10.556 c0.132-0.471,0.989-2.948,6.07-11.681C175.237,385.519,179.037,386.512,182.88,386.772z M163.667,335.535 c-1.4,1.4-2.626,2.906-3.692,4.49c-8.765-5.021-10.743-6.737-11.09-7.076c-3.362-3.363-3.362-8.832,0-12.195 c3.362-3.363,8.831-3.363,12.192-0.003c0.34,0.347,2.055,2.323,7.08,11.092C166.573,332.909,165.067,334.137,163.667,335.535z M154.953,358.847c0.26,3.842,1.253,7.64,2.978,11.171c-8.988,5.223-11.409,5.995-11.675,6.07 c-0.261,0.07-0.525,0.103-0.788,0.148v-17.194C147.463,358.925,150.479,358.833,154.953,358.847z M412.349,205.602 c0,0.312-0.25,0.562-0.559,0.57c-0.005,0-0.009-0.001-0.014-0.001c-0.023,0-0.044,0.003-0.066,0.003h-36.587 c-0.316,0-0.573-0.257-0.573-0.573v-27.49c0-0.312,0.25-0.562,0.559-0.57c0.005,0,0.009,0.001,0.014,0.001 c0.023,0,0.044-0.003,0.066-0.003h36.587c0.316,0,0.573,0.257,0.573,0.573V205.602z M494.819,443.848 c0,10.421-8.478,18.899-18.899,18.899h-55.553V221.128c5.458-3.032,9.163-8.852,9.163-15.526v-27.49 c0-6.674-3.705-12.494-9.163-15.526v-49.19h55.553c10.421,0,18.899,8.478,18.899,18.899V443.848z"/> </g> </g> <g> <g> <path d="M340.288,249.601c-21.213-21.214-55.729-21.214-76.942,0c-21.214,21.213-21.214,55.73,0,76.943 c10.607,10.607,24.539,15.91,38.471,15.91c13.932,0,27.865-5.303,38.471-15.91C361.502,305.331,361.502,270.814,340.288,249.601z M264.674,290.183h22.883l-17.422,17.422C266.839,302.259,265.016,296.257,264.674,290.183z M299.706,325.214 c-6.074-0.342-12.075-2.165-17.422-5.461l17.422-17.422V325.214z M267.786,273.001c1.803-4.085,4.365-7.911,7.706-11.253 c7.258-7.257,16.791-10.886,26.324-10.886c6.787,0,13.567,1.849,19.533,5.527l-16.612,16.612H267.786z M328.139,314.394 c-3.341,3.341-7.169,5.903-11.253,7.706V285.15l16.612-16.612C342.342,282.883,340.562,301.971,328.139,314.394z"/> </g> </g> <g> <g> <path d="M237.831,169.266c-5.706-5.708-13.281-8.871-21.326-8.908c-8.088-0.079-15.656,3.077-21.347,8.768 c-3.829,3.829-6.492,8.517-7.813,13.636c-5.119,1.321-9.807,3.984-13.636,7.813c-5.692,5.692-8.806,13.272-8.768,21.347 c0.037,8.045,3.2,15.62,8.908,21.326c8.616,8.616,23.294,12.357,38.148,12.356c9.961,0,20.001-1.683,28.339-4.705 c2.394-0.868,4.28-2.754,5.149-5.149C253.012,214.985,252.227,183.66,237.831,169.266z M230.581,225.999 c-16.653,4.701-37.035,2.653-44.584-4.899c-2.483-2.482-3.86-5.771-3.876-9.256c-0.016-3.456,1.312-6.695,3.736-9.12 c2.41-2.41,5.626-3.735,9.061-3.735c0.021,0,0.041,0,0.062,0c2.278,0,4.463-0.905,6.074-2.516 c1.617-1.617,2.523-3.812,2.516-6.099c-0.01-3.449,1.316-6.681,3.735-9.099c2.425-2.425,5.658-3.768,9.12-3.736 c3.485,0.016,6.773,1.393,9.256,3.876C233.234,188.966,235.282,209.348,230.581,225.999z"/> </g> </g> </g>
</svg>