<svg width="16" height="17" viewBox="0 0 16 17" fill="none" xmlns="http://www.w3.org/2000/svg">
<g id="Airplane">
<path id="Vector" d="M15 9V11C15 11.1326 14.9473 11.2598 14.8536 11.3536C14.7598 11.4473 14.6326 11.5 14.5 11.5C14.467 11.5001 14.4341 11.4967 14.4019 11.49L9.75 10.5625V12.0456L10.8538 13.1488C10.9469 13.242 10.9994 13.3682 11 13.5V15C11.0001 15.0819 10.9801 15.1627 10.9418 15.2351C10.9034 15.3075 10.8478 15.3693 10.7799 15.4152C10.712 15.4611 10.6338 15.4895 10.5523 15.4981C10.4708 15.5067 10.3885 15.4951 10.3125 15.4644L8 14.5387L5.6875 15.4644C5.61153 15.4951 5.52918 15.5067 5.44768 15.4981C5.36618 15.4895 5.28804 15.4611 5.22013 15.4152C5.15223 15.3693 5.09663 15.3075 5.05825 15.2351C5.01986 15.1627 4.99986 15.0819 5 15V13.5C4.99995 13.4343 5.01284 13.3693 5.03793 13.3086C5.06303 13.2479 5.09983 13.1927 5.14625 13.1462L6.25 12.0431V10.5625L1.59813 11.49C1.56585 11.4967 1.53297 11.5001 1.5 11.5C1.36739 11.5 1.24021 11.4473 1.14645 11.3536C1.05268 11.2598 1 11.1326 1 11V9C0.999934 8.90711 1.02574 8.81604 1.07454 8.737C1.12333 8.65795 1.19318 8.59407 1.27625 8.5525L6.25 6.06625V3.25C6.25 2.78587 6.43437 2.34075 6.76256 2.01256C7.09075 1.68437 7.53587 1.5 8 1.5C8.46413 1.5 8.90925 1.68437 9.23744 2.01256C9.56563 2.34075 9.75 2.78587 9.75 3.25V6.06625L14.7238 8.5525C14.8068 8.59407 14.8767 8.65795 14.9255 8.737C14.9743 8.81604 15.0001 8.90711 15 9Z" fill="#4C36F1"/>
</g>
</svg>
