<svg xmlns="http://www.w3.org/2000/svg" width="24" height="24" viewBox="0 0 24 24" fill="none">
  <g clip-path="url(#clip0_1644_10342)">
    <path d="M23.5889 12.2859L15.2591 8.12097V3.30971C15.2591 2.44539 14.9158 1.61647 14.3046 1.0053C13.6934 0.394132 12.8645 0.0507812 12.0002 0.0507812C11.1359 0.0507813 10.3069 0.394132 9.69577 1.0053C9.08461 1.61647 8.74126 2.44539 8.74126 3.30971V8.12097L0.411436 12.2859C0.303047 12.34 0.211884 12.4232 0.148178 12.5263C0.0844725 12.6293 0.050745 12.7481 0.0507813 12.8692V16.3454C0.0508266 16.4419 0.0722717 16.5371 0.11357 16.6242C0.154868 16.7114 0.214991 16.7883 0.289602 16.8494C0.364213 16.9105 0.451454 16.9543 0.545033 16.9776C0.638612 17.0009 0.736197 17.0031 0.830751 16.9842L8.74126 15.4025V17.813L7.19435 19.361C7.07208 19.4831 7.00331 19.6488 7.00316 19.8216V23.2978C7.00316 23.4043 7.02928 23.5092 7.07922 23.6033C7.12916 23.6974 7.2014 23.7779 7.28963 23.8376C7.37785 23.8973 7.47936 23.9345 7.58528 23.9458C7.6912 23.9572 7.7983 23.9425 7.89719 23.9029L12.0002 22.2615L16.1032 23.9029C16.2021 23.9425 16.3092 23.9572 16.4151 23.9458C16.521 23.9345 16.6225 23.8973 16.7107 23.8376C16.799 23.7779 16.8712 23.6974 16.9212 23.6033C16.9711 23.5092 16.9972 23.4043 16.9972 23.2978V19.8216C16.9971 19.6488 16.9283 19.4831 16.806 19.361L15.2591 17.813V15.4025L23.1696 16.9842C23.2642 17.0031 23.3618 17.0009 23.4553 16.9776C23.5489 16.9543 23.6362 16.9105 23.7108 16.8494C23.7854 16.7883 23.8455 16.7114 23.8868 16.6242C23.9281 16.5371 23.9495 16.4419 23.9496 16.3454V12.8692C23.9496 12.7481 23.9159 12.6293 23.8522 12.5263C23.7885 12.4232 23.6973 12.34 23.5889 12.2859ZM22.646 15.5502L14.7355 13.9686C14.641 13.9496 14.5434 13.9519 14.4498 13.9752C14.3562 13.9985 14.269 14.0423 14.1944 14.1034C14.1198 14.1645 14.0596 14.2414 14.0183 14.3285C13.977 14.4157 13.9556 14.5109 13.9555 14.6073V18.0835C13.9557 18.2563 14.0245 18.422 14.1467 18.5441L15.6936 20.0921V22.3353L12.2424 20.9546C12.0869 20.8924 11.9134 20.8924 11.7579 20.9546L8.30673 22.3353V20.0921L9.85364 18.5441C9.97591 18.422 10.0447 18.2563 10.0448 18.0835V14.6073C10.0448 14.5109 10.0233 14.4157 9.98204 14.3285C9.94074 14.2414 9.88062 14.1645 9.80601 14.1034C9.7314 14.0423 9.64416 13.9985 9.55058 13.9752C9.457 13.9519 9.35941 13.9496 9.26486 13.9686L1.35435 15.5502V13.269L9.68417 9.10408C9.79207 9.05022 9.8829 8.96748 9.94658 8.86507C10.0102 8.76266 10.0443 8.64459 10.0448 8.524V3.30971C10.0448 2.79112 10.2508 2.29376 10.6175 1.92706C10.9842 1.56036 11.4816 1.35435 12.0002 1.35435C12.5188 1.35435 13.0161 1.56036 13.3828 1.92706C13.7495 2.29376 13.9555 2.79112 13.9555 3.30971V8.524C13.9555 8.64514 13.9892 8.7639 14.0529 8.86694C14.1166 8.96998 14.2078 9.05323 14.3162 9.10734L22.646 13.2723V15.5502Z" fill="#FFFFFF"/>
  </g>
  <defs>
    <clipPath id="clip0_1644_10342">
      <rect width="24" height="24" fill="white"/>
    </clipPath>
  </defs>
</svg>