<svg width="16" height="16" viewBox="0 0 16 16" fill="none" xmlns="http://www.w3.org/2000/svg">
<path d="M4.12502 7.37511H3.75002C3.5511 7.37511 3.36033 7.29985 3.21967 7.16589C3.07902 7.03194 3 6.85025 3 6.66081V3.0893C3 2.89986 3.07902 2.71817 3.21967 2.58421C3.36033 2.45026 3.5511 2.375 3.75002 2.375H9.75015C9.94906 2.375 10.1398 2.45026 10.2805 2.58421C10.4211 2.71817 10.5002 2.89986 10.5002 3.0893V6.66081C10.5002 6.85025 10.4211 7.03194 10.2805 7.16589C10.1398 7.29985 9.94906 7.37511 9.75015 7.37511H9.37514" stroke="#9193A1" stroke-linecap="round" stroke-linejoin="round"/>
<path d="M6.62502 13.6251H6.25002C6.0511 13.6251 5.86033 13.5499 5.71967 13.4159C5.57902 13.2819 5.5 13.1003 5.5 12.9108V9.3393C5.5 9.14986 5.57902 8.96817 5.71967 8.83421C5.86033 8.70026 6.0511 8.625 6.25002 8.625H12.2501C12.4491 8.625 12.6398 8.70026 12.7805 8.83421C12.9211 8.96817 13.0002 9.14986 13.0002 9.3393V12.9108C13.0002 13.1003 12.9211 13.2819 12.7805 13.4159C12.6398 13.5499 12.4491 13.6251 12.2501 13.6251H11.8751" stroke="#9193A1" stroke-linecap="round" stroke-linejoin="round"/>
</svg>
