<svg width="16" height="17" viewBox="0 0 16 17" fill="none" xmlns="http://www.w3.org/2000/svg">
<g id="Airplane" opacity="0.5">
<path id="Vector" d="M14.6675 8.66438L9.875 6.26813V3.5C9.875 3.00272 9.67746 2.52581 9.32583 2.17417C8.9742 1.82254 8.49728 1.625 8 1.625C7.50272 1.625 7.02581 1.82254 6.67417 2.17417C6.32254 2.52581 6.125 3.00272 6.125 3.5V6.26813L1.3325 8.66438C1.27014 8.69551 1.21769 8.7434 1.18104 8.80269C1.14438 8.86197 1.12498 8.9303 1.125 9V11C1.12503 11.0555 1.13736 11.1103 1.16113 11.1604C1.18489 11.2106 1.21948 11.2548 1.2624 11.2899C1.30533 11.3251 1.35552 11.3503 1.40936 11.3637C1.4632 11.3771 1.51935 11.3784 1.57375 11.3675L6.125 10.4575V11.8444L5.235 12.735C5.16465 12.8053 5.12509 12.9006 5.125 13V15C5.125 15.0613 5.14003 15.1216 5.16876 15.1758C5.19749 15.2299 5.23906 15.2762 5.28982 15.3105C5.34057 15.3449 5.39898 15.3663 5.45992 15.3728C5.52086 15.3794 5.58248 15.3709 5.63938 15.3481L8 14.4038L10.3606 15.3481C10.4175 15.3709 10.4791 15.3794 10.5401 15.3728C10.601 15.3663 10.6594 15.3449 10.7102 15.3105C10.7609 15.2762 10.8025 15.2299 10.8312 15.1758C10.86 15.1216 10.875 15.0613 10.875 15V13C10.8749 12.9006 10.8353 12.8053 10.765 12.735L9.875 11.8444V10.4575L14.4263 11.3675C14.4807 11.3784 14.5368 11.3771 14.5906 11.3637C14.6445 11.3503 14.6947 11.3251 14.7376 11.2899C14.7805 11.2548 14.8151 11.2106 14.8389 11.1604C14.8626 11.1103 14.875 11.0555 14.875 11V9C14.875 8.9303 14.8556 8.86197 14.819 8.80269C14.7823 8.7434 14.7299 8.69551 14.6675 8.66438ZM14.125 10.5425L9.57375 9.6325C9.51935 9.62159 9.4632 9.62288 9.40936 9.63629C9.35552 9.6497 9.30533 9.6749 9.2624 9.71005C9.21948 9.7452 9.18489 9.78945 9.16113 9.83959C9.13736 9.88973 9.12503 9.94452 9.125 10V12C9.12509 12.0994 9.16465 12.1947 9.235 12.265L10.125 13.1556V14.4462L8.13937 13.6519C8.04991 13.6161 7.95009 13.6161 7.86062 13.6519L5.875 14.4462V13.1556L6.765 12.265C6.83535 12.1947 6.87491 12.0994 6.875 12V10C6.87497 9.94452 6.86264 9.88973 6.83887 9.83959C6.81511 9.78945 6.78052 9.7452 6.7376 9.71005C6.69467 9.6749 6.64448 9.6497 6.59064 9.63629C6.5368 9.62288 6.48065 9.62159 6.42625 9.6325L1.875 10.5425V9.23L6.6675 6.83375C6.72958 6.80276 6.78184 6.75516 6.81847 6.69623C6.85511 6.63731 6.87467 6.56938 6.875 6.5V3.5C6.875 3.20163 6.99353 2.91548 7.2045 2.7045C7.41548 2.49353 7.70163 2.375 8 2.375C8.29837 2.375 8.58452 2.49353 8.7955 2.7045C9.00647 2.91548 9.125 3.20163 9.125 3.5V6.5C9.12498 6.5697 9.14438 6.63803 9.18104 6.69731C9.21769 6.7566 9.27014 6.80449 9.3325 6.83563L14.125 9.23188V10.5425Z" fill="#222222"/>
</g>
</svg>
