<svg width="24" height="24" viewBox="0 0 24 24" fill="none" xmlns="http://www.w3.org/2000/svg">
<path d="M3.28745 17.8516H20.7124V18.9995H3.28745V17.8516ZM19.249 6.66504C18.3999 6.43133 17.4973 6.4479 16.7075 6.71167L16.6751 6.72244L14.3118 7.83235L7.41516 5.12293C7.11409 5.00339 6.7851 4.96981 6.46566 5.02602C6.14623 5.08222 5.84919 5.22595 5.60838 5.44083L4.68507 6.25867C4.58767 6.34496 4.51118 6.45182 4.46128 6.57132C4.41139 6.69082 4.38936 6.81989 4.39684 6.94895C4.40432 7.07801 4.44112 7.20374 4.50449 7.31683C4.56787 7.42992 4.6562 7.52745 4.76294 7.60219L9.03811 10.5961L7.39824 11.445L6.09954 10.2724C5.85123 10.0486 5.54282 9.90047 5.21137 9.84574C4.87991 9.79101 4.53952 9.83203 4.23108 9.96386L3.52483 10.2665C3.41444 10.3137 3.31516 10.3831 3.23323 10.4701C3.15131 10.5572 3.08852 10.6601 3.04881 10.7723C3.00911 10.8845 2.99336 11.0036 3.00254 11.1222C3.01173 11.2407 3.04566 11.3561 3.1022 11.461L5.74574 16.3694L20.1424 9.35717C21.0044 8.95622 21.1095 8.31524 20.92 7.84839C20.7099 7.33081 20.1007 6.89951 19.249 6.66504ZM19.6447 8.31997L19.6392 8.32249L6.24221 14.8478L4.27552 11.1959L4.69299 11.017C4.7958 10.9731 4.90927 10.9594 5.01976 10.9776C5.13025 10.9959 5.23305 11.0453 5.31582 11.1199L7.21571 12.8353L11.2572 10.7432L5.73137 6.87346L6.38375 6.29562C6.46402 6.224 6.56303 6.1761 6.66951 6.15736C6.77598 6.13863 6.88564 6.14981 6.986 6.18965L14.3532 9.08393L17.1103 7.78909C17.6714 7.6094 18.3396 7.6038 18.9495 7.77427C19.4517 7.91468 19.7184 8.11865 19.8088 8.22563C19.7577 8.26288 19.7027 8.29455 19.6447 8.32008L19.6447 8.31997Z" fill="#4C36F1"/>
</svg>
