<svg width="16" height="16" viewBox="0 0 16 16" fill="none" xmlns="http://www.w3.org/2000/svg">
<g id="airplay">
<path id="Vector" d="M13.3337 2.66699H0.666992V11.3337H13.3337V2.66699ZM12.3593 10.467H1.64135V3.53366H12.3593V10.467Z" fill="#9193A1"/>
<path id="Vector_2" d="M14.373 4.66699V12.4214H3.33301V13.3337H15.333V4.66699H14.373Z" fill="#9193A1"/>
<path id="Vector_3" d="M7.00033 9.04424C8.195 9.04424 9.16699 7.97949 9.16699 6.67073C9.16699 5.36197 8.195 4.29721 7.00033 4.29721C5.80565 4.29721 4.83366 5.36194 4.83366 6.67073C4.83366 7.97952 5.80565 9.04424 7.00033 9.04424ZM7.00033 5.26691C7.66405 5.26691 8.20403 5.89667 8.20403 6.67073C8.20403 7.44479 7.66405 8.07455 7.00033 8.07455C6.3366 8.07455 5.79662 7.44479 5.79662 6.67073C5.79662 5.89667 6.3366 5.26691 7.00033 5.26691ZM2.66699 4H3.62996V9.33333H2.66699V4ZM10.3707 4H11.3337V9.33333H10.3707V4Z" fill="#9193A1"/>
</g>
</svg>
