<svg width="16" height="16" viewBox="0 0 16 16" fill="none" xmlns="http://www.w3.org/2000/svg">
<g id="airplay">
<g id="Group 1">
<path id="Vector" d="M4.12502 7.37499H3.75002C3.5511 7.37499 3.36033 7.29973 3.21967 7.16577C3.07902 7.03182 3 6.85013 3 6.66069V3.08918C3 2.89973 3.07902 2.71805 3.21967 2.58409C3.36033 2.45013 3.5511 2.37488 3.75002 2.37488H9.75015C9.94906 2.37488 10.1398 2.45013 10.2805 2.58409C10.4211 2.71805 10.5002 2.89973 10.5002 3.08918V6.66069C10.5002 6.85013 10.4211 7.03182 10.2805 7.16577C10.1398 7.29973 9.94906 7.37499 9.75015 7.37499H9.37514" stroke="#9193A1" stroke-linecap="round" stroke-linejoin="round"/>
<path id="Vector_2" d="M6.62502 13.6252H6.25002C6.0511 13.6252 5.86033 13.5499 5.71967 13.416C5.57902 13.282 5.5 13.1003 5.5 12.9109V9.33936C5.5 9.14992 5.57902 8.96823 5.71967 8.83428C5.86033 8.70032 6.0511 8.62506 6.25002 8.62506H12.2501C12.4491 8.62506 12.6398 8.70032 12.7805 8.83428C12.9211 8.96823 13.0002 9.14992 13.0002 9.33936V12.9109C13.0002 13.1003 12.9211 13.282 12.7805 13.416C12.6398 13.5499 12.4491 13.6252 12.2501 13.6252H11.8751" stroke="#9193A1" stroke-linecap="round" stroke-linejoin="round"/>
</g>
</g>
</svg>
