<svg width="16" height="16" viewBox="0 0 16 16" fill="none" xmlns="http://www.w3.org/2000/svg">
<path d="M1.77567 8.92382C1.34309 9.14779 1.26886 9.35544 1.28294 9.58004V10.4682C1.28294 10.6356 1.36869 10.7808 1.51555 10.9031V11.4195C1.51555 11.4335 1.51555 11.4476 1.51811 11.4614C1.39397 11.5276 1.27974 11.637 1.27974 11.7765V12.3844C1.27981 12.3959 1.28088 12.4074 1.28294 12.4187V13.3146C1.28294 13.4745 1.36165 13.6137 1.49667 13.7324V14.3048C1.54147 15.4906 5.46987 15.4845 5.82054 14.476H12.0059C12.2694 14.4757 12.5221 14.3708 12.7085 14.1845C12.8948 13.9981 12.9997 13.7454 13 13.4819V2.9941C12.9997 2.73055 12.8948 2.4779 12.7085 2.29154C12.5221 2.10518 12.2694 2.00034 12.0059 2H4.97138C4.70783 2.00034 4.45517 2.10518 4.26882 2.29154C4.08246 2.4779 3.97762 2.73055 3.97728 2.9941V4.76441C1.54307 4.23584 -0.0183135 7.2303 1.77567 8.92382ZM2.09563 9.2041C2.10415 9.20097 2.1124 9.19712 2.12026 9.19258C2.88144 9.70995 4.01439 9.70451 4.77173 9.18426C5.06801 9.28985 5.26094 9.44246 5.25166 9.52469C5.25166 9.70387 4.61847 10.0533 3.45767 10.0533C2.34199 10.0533 1.71392 9.73074 1.66593 9.54645C1.66593 9.53621 1.66593 9.51445 1.66593 9.50613C1.68448 9.42519 1.81951 9.30776 2.09563 9.2025V9.2041ZM5.87845 7.14295C5.87845 7.08152 5.87525 7.02105 5.87077 6.9609H8.29667V9.77458H5.63912C5.6372 9.73938 5.64456 9.50326 5.63336 9.4751C5.61545 9.3068 5.50122 9.09339 5.11536 8.9123C5.35659 8.68475 5.54873 8.41025 5.67996 8.1057C5.81119 7.80115 5.87874 7.47297 5.87845 7.14135V7.14295ZM11.4943 6.9609V9.76146H8.68061V6.9593L11.4943 6.9609ZM5.63912 12.9591V12.4241C5.63912 12.4171 5.63912 12.41 5.63912 12.403C5.63912 12.3921 5.63912 12.3809 5.63912 12.371V11.8527C5.82278 11.6994 5.87173 11.5417 5.87173 11.4166V10.8087C5.87173 10.6708 5.76007 10.5623 5.63752 10.4958C5.6404 10.5002 5.63752 10.1662 5.63752 10.1579H8.29507V12.9584L5.63912 12.9591ZM1.66689 13.3168V12.9105C2.49877 13.4054 4.42394 13.4054 5.25518 12.9105V13.3168C5.25518 13.4963 4.62199 13.8454 3.46119 13.8454C2.3004 13.8454 1.66689 13.4963 1.66689 13.3168ZM1.66689 10.4666V10.0648C2.49877 10.5588 4.42586 10.5585 5.25518 10.0609C5.25326 10.0664 5.26094 10.5124 5.2491 10.498C5.23872 10.512 5.23012 10.5273 5.2235 10.5434C5.08304 10.7303 4.47225 10.9952 3.46119 10.9952C2.29944 10.9952 1.66689 10.6461 1.66689 10.4666ZM8.68061 10.1438H11.4943V12.9575H8.68061V10.1438ZM3.46119 11.3791C4.28796 11.3791 5.12208 11.1958 5.47019 10.8426C5.47625 10.8462 5.48212 10.8502 5.48779 10.8544V11.4166C5.48779 11.597 4.8546 11.9483 3.6938 11.9483C2.533 11.9483 1.89949 11.5993 1.89949 11.4195V11.1209C2.31512 11.2915 2.88975 11.3791 3.46119 11.3791ZM3.6938 12.3323C4.29371 12.3288 4.81204 12.2504 5.25518 12.0728V12.37C5.25518 12.5492 4.62199 12.8983 3.46119 12.8983C2.2748 12.8849 1.65537 12.5713 1.66369 12.3358V11.8239C1.67322 11.8169 1.68316 11.8105 1.69344 11.8047C2.04635 12.1522 2.87536 12.3323 3.6938 12.3323ZM5.46891 14.3071C5.46891 14.4862 4.83572 14.8356 3.67492 14.8356C2.51413 14.8356 1.88062 14.4862 1.88062 14.3071V13.9634C2.78641 14.3605 4.75733 14.3327 5.43723 13.7244C5.44826 13.7305 5.45894 13.7373 5.46923 13.7446L5.46891 14.3071ZM4.36123 2.9941C4.36139 2.83233 4.42573 2.67723 4.54012 2.56284C4.65451 2.44845 4.80961 2.38411 4.97138 2.38395H12.0059C12.1677 2.38411 12.3228 2.44845 12.4372 2.56284C12.5515 2.67723 12.6159 2.83233 12.6161 2.9941V13.4841C12.6158 13.6459 12.5514 13.8009 12.4371 13.9153C12.3227 14.0297 12.1676 14.094 12.0059 14.0943H5.85285V13.6982C5.85285 13.5651 5.74919 13.4601 5.6324 13.3929C5.63496 13.376 5.63688 13.3587 5.63784 13.3414H11.685C11.7359 13.3414 11.7847 13.3212 11.8207 13.2852C11.8567 13.2492 11.877 13.2004 11.877 13.1495C11.877 11.5551 11.877 8.36102 11.877 6.76732C11.877 6.71641 11.8567 6.66758 11.8207 6.63158C11.7847 6.59558 11.7359 6.57535 11.685 6.57535C10.2164 6.58303 7.26705 6.55999 5.8119 6.58335C5.74398 6.29469 5.62383 6.02089 5.45739 5.77546H11.7509C11.8018 5.77546 11.8506 5.75524 11.8866 5.71924C11.9226 5.68323 11.9429 5.63441 11.9429 5.58349V3.24462C11.9429 3.19371 11.9226 3.14488 11.8866 3.10888C11.8506 3.07288 11.8018 3.05265 11.7509 3.05265H5.29101C5.2401 3.05265 5.19127 3.07288 5.15527 3.10888C5.11927 3.14488 5.09904 3.19371 5.09904 3.24462V5.35632C4.8836 5.15561 4.63364 4.99551 4.36123 4.88375V2.9941ZM5.48299 5.39152V3.4366H11.5602V5.39152H5.48299ZM3.43944 5.0866C3.98424 5.08719 4.50656 5.30386 4.89182 5.68906C5.27708 6.07426 5.49383 6.59655 5.4945 7.14135C5.38156 9.86736 1.49699 9.86672 1.38469 7.14135C1.38528 6.59658 1.60195 6.07429 1.98716 5.68908C2.37238 5.30387 2.89466 5.0872 3.43944 5.0866Z" fill="#9193A1"/>
<path d="M3.26891 8.52504V8.72341C3.26891 8.77432 3.28914 8.82315 3.32514 8.85916C3.36114 8.89516 3.40997 8.91538 3.46088 8.91538C3.5118 8.91538 3.56063 8.89516 3.59663 8.85916C3.63263 8.82315 3.65286 8.77432 3.65286 8.72341V8.5228C4.62328 8.30203 4.72438 7.27306 3.65286 6.9403V6.14938C3.81305 6.17868 3.962 6.25177 4.0832 6.36055C4.26493 6.53812 4.53113 6.28536 4.36092 6.0953C4.16552 5.9126 3.91801 5.79539 3.65286 5.75999V5.56258C3.65286 5.51166 3.63263 5.46284 3.59663 5.42683C3.56063 5.39083 3.5118 5.37061 3.46088 5.37061C3.40997 5.37061 3.36114 5.39083 3.32514 5.42683C3.28914 5.46284 3.26891 5.51166 3.26891 5.56258V5.76287C2.87793 5.84062 2.56501 6.16569 2.56501 6.53076C2.56501 6.9883 2.97423 7.14187 3.26891 7.2273V8.13565C3.0761 8.09494 2.9003 7.99638 2.76498 7.85313C2.59605 7.66404 2.31513 7.89761 2.46966 8.09822C2.67956 8.32753 2.96159 8.47814 3.26891 8.52504ZM4.03488 7.75715C4.03488 7.90561 3.85731 8.06462 3.65286 8.12829V7.34984C4.03456 7.51174 4.03488 7.69092 4.03488 7.75651V7.75715ZM2.94928 6.53012C2.94928 6.37366 3.08942 6.22392 3.26923 6.16089V6.8232C3.04974 6.74961 2.94928 6.67314 2.94928 6.52948V6.53012Z" fill="#9193A1"/>
</svg>
