<svg xmlns="http://www.w3.org/2000/svg" width="140" height="140" viewBox="0 0 140 140" fill="none">
<path opacity="0.2" d="M25.8844 97.2423C29.8308 99.7819 34.8801 101.41 40.4512 101.813C40.454 101.835 40.4557 101.857 40.4586 101.879C42.4518 117.175 61.3573 127.323 82.6852 124.544C102.998 121.897 118.182 108.479 117.859 93.9925C126.393 89.4465 131.637 81.9029 130.624 74.1303C129.981 69.1928 126.919 64.992 122.36 62.0178C124.621 57.8449 125.617 53.3105 125.019 48.7175C123.026 33.4207 104.12 23.273 82.7923 26.052C69.2687 27.8141 58.0207 34.3513 52.1061 42.7985C46.8593 41.7379 41.1135 41.5093 35.1795 42.2825C13.8516 45.0615 -1.82232 59.7149 0.170874 75.0118C1.62403 86.1641 12.0676 94.5777 25.8844 97.2423Z" fill="#4C36F1"/>
<mask id="path-2-inside-1_1522_1826" fill="white">
<path fill-rule="evenodd" clip-rule="evenodd" d="M67.9517 13H62.1572V114.048C56.8678 114.36 52.8867 115.718 52.8867 117.347C52.8867 119.206 58.0752 120.713 64.4756 120.713C70.876 120.713 76.0645 119.206 76.0645 117.347C76.0645 115.839 72.6537 114.564 67.9517 114.135V13Z"/>
</mask>
<path fill-rule="evenodd" clip-rule="evenodd" d="M67.9517 13H62.1572V114.048C56.8678 114.36 52.8867 115.718 52.8867 117.347C52.8867 119.206 58.0752 120.713 64.4756 120.713C70.876 120.713 76.0645 119.206 76.0645 117.347C76.0645 115.839 72.6537 114.564 67.9517 114.135V13Z" fill="white"/>
<path d="M62.1572 13V12H61.1572V13H62.1572ZM67.9517 13H68.9517V12H67.9517V13ZM62.1572 114.048L62.2161 115.046L63.1572 114.991V114.048H62.1572ZM67.9517 114.135H66.9517V115.048L67.8608 115.131L67.9517 114.135ZM62.1572 14H67.9517V12H62.1572V14ZM63.1572 114.048V13H61.1572V114.048H63.1572ZM53.8867 117.347C53.8867 117.379 53.866 117.246 54.2124 116.972C54.5467 116.707 55.0944 116.42 55.87 116.147C57.4105 115.606 59.6291 115.199 62.2161 115.046L62.0984 113.05C59.3959 113.209 56.9793 113.637 55.2069 114.26C54.326 114.57 53.5479 114.947 52.9704 115.404C52.4051 115.852 51.8867 116.5 51.8867 117.347H53.8867ZM64.4756 119.713C61.3423 119.713 58.5434 119.343 56.5599 118.766C55.5615 118.476 54.8263 118.15 54.3635 117.832C53.8689 117.493 53.8867 117.312 53.8867 117.347H51.8867C51.8867 118.311 52.5531 119.015 53.2314 119.481C53.9414 119.969 54.9033 120.368 56.0021 120.687C58.213 121.329 61.2085 121.713 64.4756 121.713V119.713ZM75.0645 117.347C75.0645 117.312 75.0822 117.493 74.5877 117.832C74.1248 118.15 73.3897 118.476 72.3912 118.766C70.4077 119.343 67.6088 119.713 64.4756 119.713V121.713C67.7427 121.713 70.7382 121.329 72.9491 120.687C74.0478 120.368 75.0098 119.969 75.7198 119.481C76.3981 119.015 77.0645 118.311 77.0645 117.347H75.0645ZM67.8608 115.131C70.1577 115.34 72.0855 115.753 73.4084 116.268C74.0742 116.527 74.5321 116.792 74.8059 117.027C75.0845 117.267 75.0645 117.377 75.0645 117.347H77.0645C77.0645 116.563 76.6181 115.948 76.1102 115.511C75.5975 115.07 74.9089 114.706 74.1342 114.404C72.5763 113.798 70.4476 113.358 68.0425 113.139L67.8608 115.131ZM66.9517 13V114.135H68.9517V13H66.9517Z" fill="#4C36F1" mask="url(#path-2-inside-1_1522_1826)"/>
<path d="M82.8722 50.6825H42.884L47.379 47.536L47.9642 47.1264L47.379 46.7168L42.884 43.5703H82.8722L88.4604 47.1264L82.8722 50.6825Z" fill="#7F70F5" stroke="#4C36F1"/>
<path d="M47.5356 59.6758L87.2863 55.3243L83.1604 58.9413L82.6233 59.4122L83.2495 59.7557L88.0602 62.3943L48.3095 66.7458L42.3676 63.8189L47.5356 59.6758Z" fill="#7F70F5" stroke="#4C36F1"/>
<circle cx="64.4753" cy="47.7019" r="1.15889" fill="#4C36F1"/>
<circle cx="65.6355" cy="61.6081" r="1.15889" fill="#4C36F1"/>
</svg>