<svg width="23" height="33" viewBox="0 0 23 33" fill="none" xmlns="http://www.w3.org/2000/svg">
<g id="Frame 504" clip-path="url(#clip0_676_67434)">
<g id="Group 8">
<path id="Ellipse 7" d="M12.1744 15.2625C12.1744 13.6288 11.8526 12.0111 11.2274 10.5018C10.6023 8.99251 9.68593 7.62111 8.53075 6.46592C7.37556 5.31074 6.00416 4.3944 4.49484 3.76922C2.98553 3.14404 1.36785 2.82227 -0.265825 2.82227L-0.265824 5.39734C1.02969 5.39734 2.31251 5.65251 3.50941 6.14828C4.7063 6.64405 5.79383 7.37071 6.7099 8.28678C7.62596 9.20284 8.35262 10.2904 8.84839 11.4873C9.34416 12.6842 9.59933 13.967 9.59933 15.2625H12.1744Z" fill="#4C36F1"/>
<path id="Ellipse 9" d="M23.2322 2.82266C21.5985 2.82266 19.9809 3.14444 18.4716 3.76962C16.9622 4.3948 15.5908 5.31114 14.4357 6.46632C13.2805 7.62151 12.3641 8.99291 11.7389 10.5022C11.1138 12.0115 10.792 13.6292 10.792 15.2629L13.3671 15.2629C13.3671 13.9674 13.6222 12.6846 14.118 11.4877C14.6138 10.2908 15.3404 9.20324 16.2565 8.28717C17.1726 7.37111 18.2601 6.64445 19.457 6.14868C20.6539 5.65291 21.9367 5.39774 23.2322 5.39774L23.2322 2.82266Z" fill="#4C36F1"/>
<path id="Ellipse 11" d="M10.7924 18.0266C10.7924 19.6602 11.1142 21.2779 11.7393 22.7872C12.3645 24.2966 13.2809 25.668 14.4361 26.8231C15.5912 27.9783 16.9626 28.8947 18.472 29.5198C19.9813 30.145 21.5989 30.4668 23.2326 30.4668L23.2326 27.8917C21.9371 27.8917 20.6543 27.6366 19.4574 27.1408C18.2605 26.645 17.173 25.9184 16.2569 25.0023C15.3408 24.0862 14.6142 22.9987 14.1184 21.8018C13.6226 20.6049 13.3675 19.3221 13.3675 18.0266L10.7924 18.0266Z" fill="#7F70F5"/>
<path id="Ellipse 13" d="M-0.265422 30.4674C1.36825 30.4674 2.98593 30.1456 4.49525 29.5204C6.00457 28.8952 7.37597 27.9789 8.53115 26.8237C9.68633 25.6685 10.6027 24.2971 11.2279 22.7878C11.853 21.2785 12.1748 19.6608 12.1748 18.0271L9.59973 18.0271C9.59973 19.3227 9.34456 20.6055 8.84879 21.8024C8.35302 22.9993 7.62636 24.0868 6.7103 25.0029C5.79423 25.9189 4.70671 26.6456 3.50981 27.1414C2.31291 27.6371 1.03009 27.8923 -0.265423 27.8923L-0.265422 30.4674Z" fill="#7F70F5"/>
<path id="Ellipse 8" d="M8.0274 15.2622C8.0274 14.1731 7.81289 13.0947 7.3961 12.0885C6.97931 11.0822 6.36842 10.168 5.5983 9.39786C4.82818 8.62773 3.91391 8.01684 2.9077 7.60005C1.90148 7.18327 0.823033 6.96875 -0.266083 6.96875V8.68546C0.597591 8.68546 1.45281 8.85558 2.25074 9.18609C3.04867 9.51661 3.77369 10.001 4.3844 10.6118C4.99511 11.2225 5.47955 11.9475 5.81006 12.7454C6.14058 13.5433 6.31069 14.3986 6.31069 15.2622H8.0274Z" fill="#4C36F1"/>
<path id="Ellipse 10" d="M23.2329 6.96869C22.1438 6.96869 21.0654 7.18321 20.0592 7.59999C19.0529 8.01678 18.1387 8.62767 17.3686 9.3978C16.5984 10.1679 15.9875 11.0822 15.5708 12.0884C15.154 13.0946 14.9395 14.1731 14.9395 15.2622L16.6562 15.2622C16.6562 14.3985 16.8263 13.5433 17.1568 12.7454C17.4873 11.9474 17.9717 11.2224 18.5825 10.6117C19.1932 10.001 19.9182 9.51654 20.7161 9.18603C21.514 8.85552 22.3693 8.6854 23.2329 8.6854L23.2329 6.96869Z" fill="#4C36F1"/>
<path id="Ellipse 12" d="M14.9394 18.0268C14.9394 19.1159 15.1539 20.1944 15.5707 21.2006C15.9875 22.2068 16.5984 23.1211 17.3685 23.8912C18.1386 24.6613 19.0529 25.2722 20.0591 25.689C21.0653 26.1058 22.1438 26.3203 23.2329 26.3203L23.2329 24.6036C22.3692 24.6036 21.514 24.4335 20.7161 24.103C19.9181 23.7725 19.1931 23.288 18.5824 22.6773C17.9717 22.0666 17.4872 21.3416 17.1567 20.5436C16.8262 19.7457 16.6561 18.8905 16.6561 18.0268L14.9394 18.0268Z" fill="#7F70F5"/>
<path id="Ellipse 14" d="M-0.266142 26.3204C0.822974 26.3204 1.90143 26.1059 2.90764 25.6891C3.91385 25.2723 4.82812 24.6614 5.59824 23.8913C6.36836 23.1211 6.97925 22.2069 7.39604 21.2007C7.81283 20.1945 8.02735 19.116 8.02734 18.0269L6.31063 18.0269C6.31063 18.8906 6.14052 19.7458 5.81 20.5437C5.47949 21.3416 4.99505 22.0667 4.38434 22.6774C3.77363 23.2881 3.04861 23.7725 2.25068 24.103C1.45275 24.4335 0.597532 24.6037 -0.266142 24.6037L-0.266142 26.3204Z" fill="#7F70F5"/>
</g>
</g>
<defs>
<clipPath id="clip0_676_67434">
<rect width="23" height="33" fill="white"/>
</clipPath>
</defs>
</svg>