<svg width="88" height="127" viewBox="0 0 88 127" fill="none" xmlns="http://www.w3.org/2000/svg">
<g id="Backpack">
<path id="Vector" d="M78.8072 70.5526C77.412 72.4996 74.1636 70.1674 68.3956 67.4291C62.6276 64.6909 67.0213 38.2769 67.0213 38.2769C67.0213 38.2769 76.5374 39.0577 77.5578 48.0637C78.5781 57.0697 78.8072 70.5526 78.8072 70.5526Z" fill="#7F70F5"/>
<path id="Vector_2" opacity="0.25" d="M78.8072 70.5526C77.412 72.4996 74.1636 70.1674 68.3956 67.4291C62.6276 64.6909 67.0213 38.2769 67.0213 38.2769C67.0213 38.2769 76.5374 39.0577 77.5578 48.0637C78.5781 57.0697 78.8072 70.5526 78.8072 70.5526Z" fill="#4C36F1"/>
<path id="Vector_3" d="M32.8923 20.2545C27.2909 19.7339 14.391 25.252 12.0693 29.4687C9.65379 33.8936 -2.50687 95.3633 1.79309 101.537C7.23832 109.273 35.6722 125.796 48.645 126.39C59.3376 126.869 70.2489 117.852 72.0918 115.124C75.1215 110.647 76.6833 46.5436 73.7056 40.9006C68.8954 31.7696 40.0346 20.9312 32.8923 20.2545Z" fill="#7F70F5"/>
<path id="Vector_4" opacity="0.1" d="M32.8923 20.2545C27.2909 19.7339 14.391 25.252 12.0693 29.4687C9.65379 33.8936 -2.50687 95.3633 1.79309 101.537C7.23832 109.273 35.6722 125.796 48.645 126.39C59.3376 126.869 70.2489 117.852 72.0918 115.124C75.1215 110.647 76.6833 46.5436 73.7056 40.9006C68.8954 31.7696 40.0346 20.9312 32.8923 20.2545Z" fill="white"/>
<path id="Vector_5" opacity="0.2" d="M32.8923 20.2545C27.2909 19.7339 14.391 25.252 12.0693 29.4687C9.65379 33.8936 -2.50687 95.3633 1.79309 101.537C7.23832 109.273 35.6722 125.796 48.645 126.39C59.3376 126.869 70.2489 117.852 72.0918 115.124C75.1215 110.647 76.6833 46.5436 73.7056 40.9006C68.8954 31.7696 40.0346 20.9312 32.8923 20.2545Z" fill="#4C36F1"/>
<path id="Vector_6" d="M75.2569 73.5928C75.2569 70.9066 75.309 68.2517 75.309 65.6904C75.309 64.6493 75.309 63.6081 75.309 62.6503C75.309 60.6512 75.3089 58.7355 75.2257 56.9135C75.2257 55.9973 75.2256 55.1123 75.1528 54.2481C75.1528 52.9571 75.0695 51.739 75.007 50.5833C74.9446 49.4276 74.8821 48.3656 74.7988 47.3765C74.7988 47.0538 74.7467 46.731 74.7259 46.4187C74.653 44.538 74.3021 42.6785 73.6847 40.9006C73.5494 40.6507 73.3932 40.38 73.2162 40.1197L73.0392 39.8594L72.6436 39.318L72.3937 39.0057L71.9565 38.4955L71.6753 38.1832C71.4463 37.9333 71.2068 37.6938 70.9569 37.4439L70.4572 36.965L70.1136 36.6527L69.5305 36.1321L69.2286 35.8822L68.5519 35.3096C63.3461 37.0171 58.4319 38.6517 58.2861 38.735C57.9633 38.9016 52.6014 41.5981 52.2474 49.4484L49.9152 81.1724L49.6757 84.1917C49.4259 88.3563 42.825 126.879 54.8815 125.609H55.3605C63.5648 123.391 70.6862 117.28 72.1439 115.197C72.4851 114.545 72.7172 113.842 72.831 113.115C72.9143 112.712 72.9976 112.254 73.0809 111.741C73.1225 111.491 73.1642 111.23 73.2058 110.96C73.3308 110.137 73.4453 109.211 73.5598 108.201C73.5598 107.868 73.6327 107.524 73.6743 107.16C74.2262 101.839 74.7155 94.4679 74.9654 86.5551C75.0174 84.9726 75.0695 83.3692 75.1215 81.7554C75.1215 80.7143 75.1736 79.5898 75.2048 78.5174V76.8932L75.2569 73.5928Z" fill="#7F70F5"/>
<path id="Vector_7" opacity="0.4" d="M74.5071 44.5134C74.4256 43.2763 74.1589 42.0585 73.7158 40.9006C68.8953 31.7696 40.0345 20.9312 32.8922 20.2545C27.2908 19.7339 14.3909 25.252 12.0692 29.4687C11.345 31.2877 10.7772 33.1651 10.3721 35.0805C21.1272 41.8897 49.0822 57.33 52.1432 56.4762C55.9017 55.4351 74.1427 45.0235 74.4967 44.5238L74.5071 44.5134Z" fill="#4C36F1"/>
<path id="Vector_8" d="M76.6313 86.3676C76.3086 86.1698 71.6546 82.1301 71.1028 81.7969C70.1345 81.2139 54.84 90.0324 53.4032 91.6046C52.362 92.7082 52.5494 110.835 53.0284 112.157C53.2054 112.636 58.3799 116.249 58.5465 116.728C59.0358 118.05 75.1529 109.127 76.2461 106.774C77.3393 104.421 78.0265 87.2213 76.6313 86.3676Z" fill="#7F70F5"/>
<path id="Vector_9" opacity="0.18" d="M76.6313 86.3676C76.3086 86.1698 71.6546 82.1301 71.1028 81.7969C70.1345 81.2139 54.84 90.0324 53.4032 91.6046C52.362 92.7082 52.5494 110.835 53.0284 112.157C53.2054 112.636 58.3799 116.249 58.5465 116.728C59.0358 118.05 75.1529 109.127 76.2461 106.774C77.3393 104.421 78.0265 87.2213 76.6313 86.3676Z" fill="#4C36F1"/>
<path id="Vector_10" d="M58.9004 96.1751C57.8592 97.2683 58.0362 115.395 58.5151 116.727C58.9941 118.06 75.1215 109.127 76.2147 106.774C77.308 104.421 78.0159 87.2212 76.5895 86.3674C75.6629 85.7844 60.3267 94.6134 58.9004 96.1751Z" fill="#7F70F5"/>
<path id="Vector_11" opacity="0.4" d="M71.113 81.797C71.6544 82.1197 76.3188 86.1698 76.6207 86.3572C75.6628 85.7846 60.3683 94.6031 58.9211 96.1753L53.3926 91.6046C54.8398 90.0221 70.1343 81.2139 71.113 81.797Z" fill="#4C36F1"/>
<path id="Vector_12" opacity="0.3" d="M58.9004 96.1751C57.8592 97.2683 58.0362 115.395 58.5151 116.727C58.9941 118.06 75.1215 109.127 76.2147 106.774C77.308 104.421 78.0159 87.2212 76.5895 86.3674C75.6629 85.7844 60.3267 94.6134 58.9004 96.1751Z" fill="#4C36F1"/>
<path id="Vector_13" d="M53.3718 91.6046C54.5067 90.9799 57.6301 92.9373 58.9524 94.2387C60.2747 95.5401 61.3887 101.308 64.939 102.453C68.4894 103.599 73.945 99.1842 75.236 96.2065C76.5271 93.2288 78.245 86.8361 76.6624 84.4414C75.0799 82.0468 72.1022 80.5475 69.4368 81.7553C66.7715 82.963 53.882 88.8143 53.3718 91.6046Z" fill="#7F70F5"/>
<path id="Vector_14" opacity="0.1" d="M53.3718 91.6046C54.5067 90.9799 57.6301 92.9373 58.9524 94.2387C60.2747 95.5401 61.3887 101.308 64.939 102.453C68.4894 103.599 73.945 99.1842 75.236 96.2065C76.5271 93.2288 78.245 86.8361 76.6624 84.4414C75.0799 82.0468 72.1022 80.5475 69.4368 81.7553C66.7715 82.963 53.882 88.8143 53.3718 91.6046Z" fill="#4C36F1"/>
<path id="Vector_15" d="M69.4889 95.259C69.0548 95.4921 68.6925 95.8393 68.4412 96.2631C68.1898 96.687 68.0589 97.1714 68.0626 97.6641C68.032 97.8614 68.0588 98.0633 68.1398 98.2458C68.2207 98.4283 68.3524 98.5836 68.5192 98.6933C68.686 98.8031 68.8808 98.8625 69.0804 98.8646C69.2801 98.8667 69.4761 98.8114 69.6451 98.7053C70.0851 98.4782 70.4527 98.1327 70.7066 97.7077C70.9605 97.2827 71.0905 96.7952 71.0819 96.3002C71.0403 95.3527 70.3219 94.8738 69.4889 95.259Z" fill="#37474F"/>
<path id="Vector_16" d="M51.7477 56.5072C51.7477 56.5072 54.2672 49.2192 63.6688 44.6069C73.0705 39.9946 73.2162 41.6812 75.7462 46.9286C78.0264 51.6555 77.8285 68.6679 77.8806 70.2921C77.9326 71.9163 79.8484 71.7601 80.2753 61.3798C80.7021 50.9995 79.9525 40.9837 70.7175 34.1641C58.2861 24.9707 38.525 18.1616 28.8943 19.588C19.2637 21.0143 10.4035 25.1477 10.3826 35.1011C10.3514 35.0803 21.5334 52.3843 51.7477 56.5072Z" fill="#7F70F5"/>
<path id="Vector_17" opacity="0.1" d="M51.7477 56.5072C51.7477 56.5072 54.2672 49.2192 63.6688 44.6069C73.0705 39.9946 73.2162 41.6812 75.7462 46.9286C78.0264 51.6555 77.8285 68.6679 77.8806 70.2921C77.9326 71.9163 79.8484 71.7601 80.2753 61.3798C80.7021 50.9995 79.9525 40.9837 70.7175 34.1641C58.2861 24.9707 38.525 18.1616 28.8943 19.588C19.2637 21.0143 10.4035 25.1477 10.3826 35.1011C10.3514 35.0803 21.5334 52.3843 51.7477 56.5072Z" fill="#4C36F1"/>
<path id="Vector_18" d="M26.3538 32.1443C26.3538 32.1443 22.689 33.9975 22.3558 36.2464C22.0227 38.4953 20.5546 43.8677 21.3876 45.4086C22.2205 46.9495 25.0628 47.3243 25.5001 46.304C25.9374 45.2836 26.7287 38.8077 27.4471 37.1627C28.1655 35.5176 31.0078 33.5499 31.0078 33.5499L26.3538 32.1443Z" fill="#7F70F5"/>
<path id="Vector_19" d="M47.6871 38.5684C47.6871 38.5684 44.0639 40.1613 43.7307 42.4102C43.3975 44.6591 41.8983 49.8024 42.6896 51.3537C43.4808 52.905 46.3648 53.2694 46.8021 52.2491C47.2394 51.2288 48.0307 44.7528 48.7491 43.1078C49.4675 41.4628 52.341 39.901 52.341 39.901L47.6871 38.5684Z" fill="#7F70F5"/>
<g id="Group" opacity="0.3">
<path id="Vector_20" d="M26.3538 32.1443C26.3538 32.1443 22.689 33.9975 22.3558 36.2464C22.0227 38.4953 20.5546 43.8677 21.3876 45.4086C22.2205 46.9495 25.0628 47.3243 25.5001 46.304C25.9374 45.2836 26.7287 38.8077 27.4471 37.1627C28.1655 35.5176 31.0078 33.5499 31.0078 33.5499L26.3538 32.1443Z" fill="white"/>
<path id="Vector_21" d="M47.6871 38.5681C47.6871 38.5681 44.0639 40.1611 43.7307 42.41C43.3975 44.6589 41.8983 49.8022 42.6896 51.3535C43.4808 52.9048 46.3648 53.2692 46.8021 52.2489C47.2394 51.2285 48.0307 44.7526 48.7491 43.1075C49.4675 41.4625 52.341 39.9008 52.341 39.9008L47.6871 38.5681Z" fill="white"/>
</g>
<path id="Vector_22" d="M23.0536 0.732717C20.9713 0.0455561 18.5246 0.732715 16.057 2.87749C11.1428 7.2191 8.19629 15.944 9.49773 22.3783C10.1745 25.7516 11.8924 27.8131 14.0788 28.3857L70.5197 45.4398L79.8901 17.9326L64.0542 15.4859L58.2237 13.5701L38.6084 7.32322L35.9118 6.34453L23.0536 0.732717Z" fill="#455A64"/>
<path id="Vector_23" d="M83.0592 34.3182C85.6227 26.7053 84.1357 19.3334 79.738 17.8525C75.3403 16.3717 69.6971 21.3427 67.1336 28.9556C64.5701 36.5685 66.057 43.9405 70.4547 45.4213C74.8524 46.9022 80.4956 41.9311 83.0592 34.3182Z" fill="#37474F"/>
<path id="Vector_24" d="M36.984 6.79224C36.984 6.79224 25.1149 13.7159 26.3538 32.1027L31.0078 33.5082C31.0078 33.5082 29.6335 15.8086 42.6583 8.66631L36.984 6.79224Z" fill="#7F70F5"/>
<path id="Vector_25" d="M58.2445 13.5911C58.2445 13.5911 46.3545 20.1295 47.5934 38.5059L52.2578 39.9218C52.2578 39.9218 51.0501 22.6387 64.0749 15.5068L58.2445 13.5911Z" fill="#7F70F5"/>
<g id="Group_2" opacity="0.15">
<path id="Vector_26" d="M27.749 19.5776C26.4938 23.6157 26.0203 27.856 26.3539 32.0715L31.0078 33.477C30.8286 29.3519 31.3821 25.2276 32.6424 21.2955L27.749 19.5776Z" fill="#4C36F1"/>
<path id="Vector_27" d="M48.6554 27.0635C47.65 30.7924 47.2978 34.6671 47.6142 38.5162L52.2786 39.9321C52.1503 36.1947 52.6429 32.4618 53.7362 28.8855L48.6554 27.0635Z" fill="#4C36F1"/>
</g>
<path id="Vector_28" d="M80.1919 26.314C78.297 25.1062 76.2876 26.7408 75.3506 28.3963C74.6487 29.7981 74.3291 31.3604 74.4239 32.9253C74.3657 33.5843 74.4995 34.246 74.8092 34.8306C75.1423 35.3199 75.7254 35.5594 76.1523 35.0492C76.3293 34.8514 76.1522 34.2475 75.8399 34.31C75.5276 34.3725 75.6317 34.4662 75.5588 34.3621C75.4991 34.1631 75.4813 33.9539 75.5067 33.7478C75.5178 33.1415 75.5911 32.5379 75.7254 31.9466C75.8416 31.0202 76.12 30.1215 76.5479 29.2916C76.9465 28.5432 77.5219 27.9034 78.2241 27.428C78.828 27.0636 79.7442 26.9178 79.9629 27.7612C80.3168 29.1042 79.5256 30.8846 79.0987 32.1861C78.5435 34.0727 77.6394 35.8384 76.4334 37.3918C75.7462 38.2247 73.8201 40.0468 72.5915 39.318C71.3629 38.5892 71.4879 36.2674 71.4775 35.1533C71.4847 33.3777 71.7982 31.6166 72.4041 29.9476C72.9906 27.9994 73.941 26.18 75.2048 24.5856C75.7278 23.9879 76.3995 23.5389 77.1518 23.2842C77.7556 23.076 79.1612 22.6283 79.4007 23.4924C79.4631 23.7007 79.8796 24.1067 80.0774 23.8048C80.775 22.7636 79.7338 21.8266 78.6927 21.5767C77.876 21.4012 77.0301 21.4131 76.2186 21.6115C75.4071 21.8099 74.6512 22.1895 74.0075 22.722C72.123 24.2004 71.061 26.8866 70.2385 29.0834C69.3452 31.4283 68.9894 33.9437 69.1973 36.4444C69.3639 38.3913 69.999 40.8485 72.1959 41.3378C74.5593 41.8688 77.0372 40.1405 78.3595 38.308C79.8007 36.137 80.7527 33.6787 81.1498 31.1033C81.4934 29.5728 81.7432 27.303 80.1919 26.314Z" fill="#263238"/>
</g>
</svg>
