<svg xmlns="http://www.w3.org/2000/svg" width="16" height="16" viewBox="0 0 16 16" fill="none">
<path d="M13.7548 11.0588C13.401 10.45 12.8754 8.73312 12.8754 6.5C12.8754 5.20707 12.3618 3.96709 11.4475 3.05285C10.5333 2.13861 9.29331 1.625 8.00038 1.625C6.70745 1.625 5.46748 2.13861 4.55324 3.05285C3.639 3.96709 3.12538 5.20707 3.12538 6.5C3.12538 8.73375 2.59913 10.45 2.24538 11.0588C2.16777 11.1917 2.12658 11.3427 2.12598 11.4966C2.12538 11.6505 2.16539 11.8019 2.24197 11.9354C2.31855 12.0689 2.429 12.1798 2.56215 12.257C2.69531 12.3342 2.84647 12.3749 3.00038 12.375H5.65538C5.74646 12.9309 6.03218 13.4363 6.4615 13.8011C6.89083 14.1658 7.43581 14.366 7.99913 14.366C8.56245 14.366 9.10744 14.1658 9.53676 13.8011C9.96609 13.4363 10.2518 12.9309 10.3429 12.375H13.0004C13.1542 12.3747 13.3052 12.3338 13.4382 12.2565C13.5712 12.1793 13.6814 12.0683 13.7579 11.9348C13.8343 11.8014 13.8742 11.6501 13.8735 11.4963C13.8729 11.3425 13.8317 11.1916 13.7541 11.0588H13.7548ZM8.00038 13.625C7.6347 13.6249 7.27974 13.5014 6.99291 13.2746C6.70608 13.0478 6.50415 12.7308 6.41976 12.375H9.58101C9.49662 12.7308 9.29468 13.0478 9.00785 13.2746C8.72102 13.5014 8.36607 13.6249 8.00038 13.625ZM13.1073 11.5625C13.097 11.5816 13.0816 11.5976 13.0629 11.6086C13.0441 11.6196 13.0227 11.6253 13.001 11.625H3.00038C2.97865 11.6253 2.95725 11.6196 2.93851 11.6086C2.91978 11.5976 2.90443 11.5816 2.89413 11.5625C2.88316 11.5435 2.87739 11.5219 2.87739 11.5C2.87739 11.4781 2.88316 11.4565 2.89413 11.4375C3.36726 10.625 3.87538 8.73063 3.87538 6.5C3.87538 5.40598 4.30998 4.35677 5.08357 3.58318C5.85715 2.8096 6.90636 2.375 8.00038 2.375C9.0944 2.375 10.1436 2.8096 10.9172 3.58318C11.6908 4.35677 12.1254 5.40598 12.1254 6.5C12.1254 8.73 12.6341 10.6219 13.1073 11.4375C13.1182 11.4565 13.124 11.4781 13.124 11.5C13.124 11.5219 13.1182 11.5435 13.1073 11.5625Z" fill="#222222"/>
</svg>
