<svg width="85" height="204" viewBox="0 0 85 204" fill="none" xmlns="http://www.w3.org/2000/svg">
<g id="Botom">
<path id="Vector" d="M82.1283 174.506C78.5779 176.411 74.6632 176.255 70.4465 174.506L68.3018 151.538L82.9924 149.956L82.1283 174.506Z" fill="#FFA8A7"/>
<path id="Vector_2" d="M39.7324 160.773C36.7443 167.249 31.3407 165.458 25.25 161.314L26.2912 138.222H40.9714L39.7324 160.773Z" fill="#FFA8A7"/>
<path id="Vector_3" d="M56.2556 196.245C55.86 196.609 55.9849 199.119 56.4118 199.795C56.8386 200.472 59.5352 202.783 64.3141 203.127C68.8848 203.45 72.9765 202.836 75.6627 201.128C78.3489 199.421 79.6503 197.536 79.9002 194.933C80.15 192.33 79.9002 189.811 81.1079 187.801C82.2532 185.948 84.0752 183.866 84.4812 182.856C85.3454 180.669 84.4812 177.546 84.4812 177.546L56.2556 196.245Z" fill="#263238"/>
<path id="Vector_4" d="M68.8119 173.527C68.7405 174.511 68.5518 175.483 68.2496 176.421C67.5496 178.439 66.6093 180.365 65.4489 182.158C64.8733 183.098 64.2369 183.999 63.5436 184.855C62.1589 186.5 60.4201 187.853 58.9729 189.425C57.4089 190.917 56.4084 192.903 56.141 195.048C55.9536 198.64 59.8475 199.858 62.846 200.389C66.0901 200.957 69.4204 200.79 72.5912 199.899C74.2571 199.463 75.7623 198.557 76.9272 197.289C78.0921 196.02 78.8675 194.444 79.1609 192.747C79.3171 191.706 79.265 190.737 79.3796 189.727C79.7809 187.447 80.7394 185.301 82.1699 183.481C83.0065 182.423 83.7256 181.278 84.3146 180.066C85.2517 177.837 84.4916 175.339 83.8982 173.131C83.3776 171.216 82.982 169.071 82.3156 169.248C82.3156 169.633 82.3156 170.404 82.3156 170.404C82.0866 170.82 81.6181 171.028 81.4827 171.518C81.3437 172.026 81.159 172.521 80.9309 172.996C80.5953 173.731 80.0384 174.343 79.3379 174.745C79.3379 173.392 79.2546 172.038 79.2026 170.685C79.2346 170.262 79.1246 169.841 78.8902 169.487C78.5763 169.197 78.1717 169.024 77.745 168.998C75.2305 168.377 72.6351 168.149 70.0508 168.321C69.8552 168.316 69.6609 168.354 69.4811 168.431C69.3014 168.508 69.1405 168.624 69.0097 168.769C68.8519 169.047 68.7897 169.369 68.8327 169.685C68.8938 170.965 68.8869 172.248 68.8119 173.527Z" fill="#455A64"/>
<path id="Vector_5" d="M64.9596 182.897C66.3027 181.856 69.2908 181.856 70.9359 182.065C72.6002 182.208 74.2012 182.77 75.5898 183.699C75.7926 183.848 76.0425 183.919 76.2932 183.898C76.544 183.876 76.7786 183.765 76.9537 183.585C77.052 183.481 77.1279 183.358 77.1767 183.224C77.2255 183.09 77.2462 182.947 77.2374 182.804C77.2286 182.662 77.1905 182.522 77.1256 182.395C77.0607 182.268 76.9703 182.155 76.86 182.065C75.3405 180.942 73.5372 180.268 71.6543 180.118C67.625 179.836 66.4485 180.524 66.4485 180.524C66.4485 180.524 64.564 181.69 64.9596 182.897Z" fill="#F5F5F5"/>
<path id="Vector_6" d="M61.8882 186.552C63.5749 185.563 66.8649 185.709 68.4995 185.886C70.1337 186.051 71.6955 186.644 73.0285 187.604C73.2309 187.757 73.4823 187.831 73.7354 187.811C73.9885 187.792 74.2258 187.681 74.4028 187.499C74.5022 187.395 74.5788 187.271 74.6278 187.135C74.6767 187 74.6969 186.855 74.6871 186.711C74.6773 186.567 74.6377 186.427 74.5709 186.299C74.504 186.172 74.4113 186.059 74.2987 185.969C72.7453 184.787 70.891 184.065 68.9472 183.887C64.9179 183.606 63.8664 184.428 63.8664 184.428C63.3978 184.61 62.9764 184.895 62.6338 185.263C62.2913 185.631 62.0363 186.072 61.8882 186.552Z" fill="#F5F5F5"/>
<path id="Vector_7" d="M73.2264 176.245C71.528 175.943 69.7801 176.09 68.156 176.671C67.448 177.067 66.9795 178.192 67.4376 178.473C68.8589 177.897 70.4014 177.686 71.925 177.858C73.4375 178.002 74.9137 178.407 76.2874 179.056C76.6645 179.224 77.0329 179.412 77.391 179.618C77.505 179.682 77.6309 179.722 77.761 179.736C77.8911 179.75 78.0226 179.737 78.1475 179.698C78.2723 179.659 78.3879 179.595 78.487 179.509C78.5861 179.424 78.6667 179.319 78.7237 179.201C78.8191 179.001 78.8357 178.772 78.7702 178.56C78.7046 178.348 78.5617 178.168 78.3697 178.056C76.8059 177.089 75.0514 176.471 73.2264 176.245Z" fill="#F5F5F5"/>
<path id="Vector_8" d="M1.19935 175.547C0.853377 176.597 0.920378 177.74 1.38675 178.743C1.82403 179.67 6.70704 182.429 13.2975 181.981C18.1801 181.638 22.8821 179.996 26.9158 177.223C29.425 175.557 32.0383 175.245 35.2971 175.058C38.5559 174.87 42.8455 173.246 43.5639 171.726C44.2823 170.206 43.4494 167.561 43.4494 167.561L1.19935 175.547Z" fill="#263238"/>
<path id="Vector_9" d="M27.6654 155.296L25.9579 154.661C25.6587 154.51 25.3143 154.473 24.9897 154.557C24.5628 154.713 24.3962 155.213 24.2921 155.598C24.1413 156.573 23.9009 157.531 23.5737 158.462C23.082 159.22 22.4536 159.88 21.7204 160.409C20.0846 161.717 18.3194 162.854 16.4522 163.803C14.297 164.958 12.1939 165.885 9.97623 166.853C7.75857 167.822 4.69759 168.498 2.92763 169.696C0.345571 171.434 0.0124017 175.807 2.92763 177.536C5.46805 179.024 12.1522 180.659 19.1592 178.66C22.9802 177.619 27.2177 173.454 32.2361 173.1C35.422 172.85 41.4503 171.955 43.5014 169.539C44.251 168.498 43.2411 165.062 42.4602 162.126C41.5544 158.92 41.2108 153.901 40.1489 154.182C40.076 155.224 39.1077 155.869 38.5871 156.765C38.1456 157.585 37.7663 158.438 37.4523 159.315C37.1292 160.195 36.5487 160.957 35.7864 161.502C35.4026 161.772 34.9387 161.905 34.47 161.878C34.0013 161.852 33.5553 161.668 33.2044 161.356C32.2673 160.388 32.8191 158.691 32.1632 157.525C31.6085 156.792 30.8178 156.273 29.9247 156.057L27.6654 155.296Z" fill="#455A64"/>
<path id="Vector_10" d="M19.4299 162.075C19.6594 161.637 19.9951 161.263 20.4061 160.989C20.8172 160.714 21.2906 160.547 21.7829 160.502C23.2302 160.232 25.7914 161.304 27.3843 162.585C27.5371 162.706 27.6575 162.864 27.7348 163.043C27.8121 163.223 27.8439 163.418 27.8274 163.613C27.811 163.808 27.7467 163.995 27.6404 164.159C27.534 164.323 27.3888 164.458 27.2177 164.552C27.0018 164.669 26.7552 164.717 26.5112 164.689C26.2672 164.661 26.0377 164.559 25.8538 164.396C24.0953 162.818 21.7915 161.985 19.4299 162.075Z" fill="#F5F5F5"/>
<path id="Vector_11" d="M14.9321 164.625C15.2472 164.179 15.6655 163.815 16.1512 163.565C16.637 163.315 17.176 163.186 17.7224 163.189C17.7224 163.189 21.5122 163.303 23.8548 165.479C23.9972 165.6 24.1087 165.753 24.1802 165.926C24.2516 166.098 24.2809 166.286 24.2657 166.472C24.2504 166.658 24.191 166.838 24.0924 166.997C23.9938 167.155 23.8588 167.288 23.6987 167.384C23.4902 167.496 23.2527 167.54 23.0182 167.512C22.7836 167.484 22.5633 167.385 22.3868 167.228C21.4178 166.265 20.2451 165.531 18.955 165.08C17.6649 164.63 16.2902 164.474 14.9321 164.625Z" fill="#F5F5F5"/>
<path id="Vector_12" d="M9.97632 166.895C10.3378 166.484 10.7832 166.155 11.2825 165.931C11.7817 165.706 12.3233 165.591 12.8707 165.594C15.0244 165.727 17.0802 166.54 18.7428 167.915C18.8869 168.035 18.9999 168.187 19.072 168.36C19.1441 168.533 19.1732 168.72 19.1568 168.906C19.1404 169.093 19.079 169.272 18.9779 169.43C18.8768 169.587 18.739 169.718 18.5763 169.81C18.3717 169.926 18.1357 169.975 17.9019 169.949C17.6681 169.923 17.4486 169.823 17.2748 169.664C16.3589 168.665 15.2217 167.894 13.9543 167.413C12.687 166.932 11.3246 166.755 9.97632 166.895Z" fill="#F5F5F5"/>
<path id="Vector_13" d="M81.7118 6.88019C82.5447 32.0136 83.4401 87.4446 83.4401 87.4446C83.7108 90.5681 84.6374 98.0956 84.8665 109.361C85.21 125.697 82.8466 161.668 82.8466 161.668C82.8466 161.668 76.0375 165.333 68.8952 162.356C68.8952 162.356 61.1386 110.735 58.6502 94.6806C56.4638 80.521 52.1638 53.8674 52.1638 53.8674L48.7697 88.0901C49.016 95.0145 48.6222 101.947 47.5932 108.799C46.4479 116.201 41.0027 148.362 41.0027 148.362C35.8164 149.671 30.3723 149.549 25.25 148.008C25.25 148.008 25.3854 95.2637 25.25 88.4025C25.1043 80.573 25.8643 0.216797 25.8643 0.216797L81.7118 6.88019Z" fill="#37474F"/>
<path id="Vector_14" d="M52.1638 53.7943L48.4469 33.2003C48.4469 33.2003 38.1394 32.2945 32.4443 26.5474C32.4443 26.5474 33.4855 32.18 46.4166 35.5638L50.1335 56.3868L49.9878 75.6586L52.1638 53.7943Z" fill="#263238"/>
</g>
</svg>
