<svg xmlns="http://www.w3.org/2000/svg" width="20" height="19" viewBox="0 0 20 19" fill="none">
<g clip-path="url(#clip0_1644_10387)">
<path d="M18.25 3.25H14.5V2.5C14.5 1.90326 14.2629 1.33097 13.841 0.90901C13.419 0.487053 12.8467 0.25 12.25 0.25H7.75C7.15326 0.25 6.58097 0.487053 6.15901 0.90901C5.73705 1.33097 5.5 1.90326 5.5 2.5V3.25H1.75C1.35218 3.25 0.970644 3.40804 0.68934 3.68934C0.408035 3.97064 0.25 4.35218 0.25 4.75V16.75C0.25 17.1478 0.408035 17.5294 0.68934 17.8107C0.970644 18.092 1.35218 18.25 1.75 18.25H18.25C18.6478 18.25 19.0294 18.092 19.3107 17.8107C19.592 17.5294 19.75 17.1478 19.75 16.75V4.75C19.75 4.35218 19.592 3.97064 19.3107 3.68934C19.0294 3.40804 18.6478 3.25 18.25 3.25ZM1.75 8.5H18.25V13H1.75V8.5ZM7 2.5C7 2.30109 7.07902 2.11032 7.21967 1.96967C7.36032 1.82902 7.55109 1.75 7.75 1.75H12.25C12.4489 1.75 12.6397 1.82902 12.7803 1.96967C12.921 2.11032 13 2.30109 13 2.5V3.25H7V2.5ZM18.25 4.75V7H1.75V4.75H18.25ZM18.25 16.75H1.75V14.5H18.25V16.75Z" fill="#4f46e5"/>
</g>
<defs>
<clipPath id="clip0_1644_10387">
<rect width="20" height="19" fill="white"/>
</clipPath>
</defs>
</svg>