<svg xmlns="http://www.w3.org/2000/svg" width="16" height="16" viewBox="0 0 16 16" fill="none">
<path d="M6.125 10.1176C6.125 9.94604 6.05915 9.78145 5.94194 9.66011C5.82473 9.53876 5.66576 9.47059 5.5 9.47059C5.33424 9.47059 5.17527 9.53876 5.05806 9.66011C4.94085 9.78145 4.875 9.94604 4.875 10.1176C4.875 10.2893 4.94085 10.4538 5.05806 10.5752C5.17527 10.6965 5.33424 10.7647 5.5 10.7647C5.66576 10.7647 5.82473 10.6965 5.94194 10.5752C6.05915 10.4538 6.125 10.2893 6.125 10.1176ZM11.125 10.1176C11.125 9.94604 11.0592 9.78145 10.9419 9.66011C10.8247 9.53876 10.6658 9.47059 10.5 9.47059C10.3342 9.47059 10.1753 9.53876 10.0581 9.66011C9.94085 9.78145 9.875 9.94604 9.875 10.1176C9.875 10.2893 9.94085 10.4538 10.0581 10.5752C10.1753 10.6965 10.3342 10.7647 10.5 10.7647C10.6658 10.7647 10.8247 10.6965 10.9419 10.5752C11.0592 10.4538 11.125 10.2893 11.125 10.1176ZM6.125 4.29412H5.5875C5.2262 4.29404 4.87605 4.4236 4.59663 4.66073C4.31722 4.89786 4.12581 5.22791 4.055 5.59471L3.93125 6.23529H3.46875C3.34443 6.23529 3.2252 6.28642 3.13729 6.37743C3.04939 6.46844 3 6.59188 3 6.72059C3 6.8493 3.04939 6.97273 3.13729 7.06374C3.2252 7.15475 3.34443 7.20588 3.46875 7.20588H3.74375L3.67437 7.56824C3.47976 7.62715 3.30884 7.74981 3.18725 7.9178C3.06566 8.0858 2.99996 8.29008 3 8.5V11.7353C3 11.9927 3.09877 12.2396 3.27459 12.4216C3.4504 12.6036 3.68886 12.7059 3.9375 12.7059H4.25V13.3529C4.25 13.5246 4.31585 13.6891 4.43306 13.8105C4.55027 13.9318 4.70924 14 4.875 14C5.04076 14 5.19973 13.9318 5.31694 13.8105C5.43415 13.6891 5.5 13.5246 5.5 13.3529V12.7059H10.5V13.3529C10.5 13.5246 10.5658 13.6891 10.6831 13.8105C10.8003 13.9318 10.9592 14 11.125 14C11.2908 14 11.4497 13.9318 11.5669 13.8105C11.6842 13.6891 11.75 13.5246 11.75 13.3529V12.7059H12.0625C12.3111 12.7059 12.5496 12.6036 12.7254 12.4216C12.9012 12.2396 13 11.9927 13 11.7353V8.5C13 8.29008 12.9343 8.0858 12.8127 7.9178C12.6912 7.74981 12.5202 7.62715 12.3256 7.56824L12.2556 7.20588H12.5312L12.595 7.20135C12.7072 7.1854 12.8101 7.12792 12.8845 7.03954C12.959 6.95116 13 6.83786 13 6.72059L12.9956 6.65459C12.9802 6.53841 12.9247 6.43193 12.8393 6.35485C12.754 6.27777 12.6445 6.2353 12.5312 6.23529H12.0681L11.945 5.59471C11.8742 5.22791 11.6828 4.89786 11.4034 4.66073C11.124 4.4236 10.7738 4.29404 10.4125 4.29412H9.875V3.48529C9.875 3.35659 9.82561 3.23315 9.73771 3.14214C9.6498 3.05113 9.53057 3 9.40625 3H6.59375C6.46943 3 6.3502 3.05113 6.26229 3.14214C6.17439 3.23315 6.125 3.35659 6.125 3.48529V4.29412ZM6.75 4.29412V3.64706H9.25V4.29412H6.75ZM3.9375 8.17647H12.0625C12.1454 8.17647 12.2249 8.21056 12.2835 8.27123C12.3421 8.3319 12.375 8.4142 12.375 8.5V11.7353C12.375 11.8211 12.3421 11.9034 12.2835 11.9641C12.2249 12.0247 12.1454 12.0588 12.0625 12.0588H3.9375C3.85462 12.0588 3.77513 12.0247 3.71653 11.9641C3.65792 11.9034 3.625 11.8211 3.625 11.7353V8.5C3.625 8.4142 3.65792 8.3319 3.71653 8.27123C3.77513 8.21056 3.85462 8.17647 3.9375 8.17647ZM5.5875 4.94118H10.4125C10.6293 4.94116 10.8393 5.01891 11.0069 5.16119C11.1746 5.30346 11.2894 5.50148 11.3319 5.72153L11.6819 7.52941H4.31875L4.66813 5.72153C4.71059 5.50158 4.82532 5.30365 4.99281 5.16139C5.16031 5.01913 5.37085 4.94131 5.5875 4.94118Z" fill="#EAE7FD"/>
</svg>