<svg width="16" height="16" viewBox="0 0 16 16" fill="none" xmlns="http://www.w3.org/2000/svg">
<g id="teenyicons:tick-circle-outline" clip-path="url(#clip0_736_89537)">
<path id="Vector" d="M4.26678 8L7.46678 10.6667L11.7334 5.33333M8.00011 15.4667C7.01958 15.4667 6.04864 15.2735 5.14274 14.8983C4.23685 14.5231 3.41373 13.9731 2.72038 13.2797C2.02704 12.5864 1.47705 11.7633 1.10181 10.8574C0.726578 9.95147 0.533447 8.98054 0.533447 8C0.533447 7.01946 0.726578 6.04853 1.10181 5.14263C1.47705 4.23673 2.02704 3.41361 2.72038 2.72027C3.41373 2.02692 4.23685 1.47693 5.14274 1.1017C6.04864 0.726464 7.01958 0.533333 8.00011 0.533333C9.9804 0.533333 11.8796 1.32 13.2798 2.72027C14.6801 4.12054 15.4668 6.01972 15.4668 8C15.4668 9.98028 14.6801 11.8795 13.2798 13.2797C11.8796 14.68 9.9804 15.4667 8.00011 15.4667Z" stroke="#4C36F1"/>
</g>
<defs>
<clipPath id="clip0_736_89537">
<rect width="16" height="16" fill="white"/>
</clipPath>
</defs>
</svg>
