<svg width="16" height="16" viewBox="0 0 16 16" fill="none" xmlns="http://www.w3.org/2000/svg">
<g id="clarity:two-way-arrows-line" clip-path="url(#clip0_676_47572)">
<path id="Vector" d="M10.4129 7.47962C10.3298 7.39534 10.2167 7.34752 10.0983 7.34669C9.97994 7.34586 9.8661 7.39207 9.78182 7.47518C9.69754 7.55828 9.64973 7.67145 9.64889 7.78981C9.64806 7.90817 9.69428 8.02201 9.77738 8.10629L11.4307 9.7774H3.4796C3.36173 9.7774 3.24868 9.82422 3.16533 9.90757C3.08198 9.99092 3.03516 10.104 3.03516 10.2218C3.03516 10.3397 3.08198 10.4528 3.16533 10.5361C3.24868 10.6195 3.36173 10.6663 3.4796 10.6663H11.4307L9.77738 12.3107C9.73623 12.3522 9.70365 12.4013 9.68149 12.4553C9.65933 12.5094 9.64804 12.5672 9.64824 12.6256C9.64845 12.684 9.66016 12.7418 9.68269 12.7957C9.70523 12.8496 9.73816 12.8985 9.7796 12.9396C9.82104 12.9808 9.87018 13.0134 9.92421 13.0355C9.97824 13.0577 10.0361 13.069 10.0945 13.0688C10.1529 13.0685 10.2107 13.0568 10.2646 13.0343C10.3184 13.0118 10.3673 12.9788 10.4085 12.9374L13.124 10.2218L10.4129 7.47962Z" fill="#707070"/>
<path id="Vector_2" d="M5.88463 8.19957C5.9729 8.20009 6.05933 8.1743 6.1329 8.1255C6.20646 8.0767 6.26383 8.00709 6.29768 7.92556C6.33153 7.84403 6.34034 7.75427 6.32297 7.66771C6.30561 7.58116 6.26286 7.50174 6.20018 7.43957L4.55129 5.77735H12.498C12.6158 5.77735 12.7289 5.73053 12.8122 5.64718C12.8956 5.56383 12.9424 5.45078 12.9424 5.33291C12.9424 5.21503 12.8956 5.10199 12.8122 5.01864C12.7289 4.93529 12.6158 4.88846 12.498 4.88846H4.55129L6.20018 3.23068C6.24133 3.18924 6.27391 3.14011 6.29607 3.08607C6.31823 3.03204 6.32952 2.97418 6.32932 2.91578C6.32911 2.85738 6.31741 2.7996 6.29487 2.74572C6.27233 2.69185 6.2394 2.64294 6.19796 2.6018C6.15652 2.56065 6.10738 2.52806 6.05335 2.50591C5.99932 2.48375 5.94145 2.47245 5.88306 2.47266C5.76512 2.47308 5.65217 2.52033 5.56907 2.60402L2.85352 5.33291L5.56907 8.06179C5.60986 8.10459 5.65878 8.13883 5.71296 8.16248C5.76715 8.18614 5.82551 8.19875 5.88463 8.19957Z" fill="#707070"/>
</g>
<defs>
<clipPath id="clip0_676_47572">
<rect width="16" height="16" fill="white"/>
</clipPath>
</defs>
</svg>
