<svg width="16" height="16" viewBox="0 0 16 16" fill="none" xmlns="http://www.w3.org/2000/svg">
<g id="clarity:two-way-arrows-line" clip-path="url(#clip0_676_69880)">
<path id="Vector" d="M10.3778 5.13294C10.2947 5.04866 10.1815 5.00084 10.0631 5.00001C9.94479 4.99918 9.83095 5.04539 9.74667 5.1285C9.66239 5.2116 9.61457 5.32478 9.61374 5.44313C9.6129 5.56149 9.65912 5.67533 9.74222 5.75961L11.3956 7.43072H3.44444C3.32657 7.43072 3.21352 7.47754 3.13017 7.56089C3.04683 7.64424 3 7.75729 3 7.87516C3 7.99304 3.04683 8.10608 3.13017 8.18943C3.21352 8.27278 3.32657 8.31961 3.44444 8.31961H11.3956L9.74222 9.96405C9.70107 10.0055 9.66849 10.0546 9.64634 10.1087C9.62418 10.1627 9.61288 10.2206 9.61309 10.279C9.61329 10.3374 9.625 10.3951 9.64754 10.449C9.67008 10.5029 9.703 10.5518 9.74444 10.5929C9.78588 10.6341 9.83502 10.6667 9.88905 10.6888C9.94308 10.711 10.001 10.7223 10.0593 10.7221C10.1177 10.7219 10.1755 10.7102 10.2294 10.6876C10.2833 10.6651 10.3322 10.6322 10.3733 10.5907L13.0889 7.87516L10.3778 5.13294Z" fill="#707070"/>
</g>
<defs>
<clipPath id="clip0_676_69880">
<rect width="16" height="16" fill="white"/>
</clipPath>
</defs>
</svg>
