<?xml version="1.0" encoding="UTF-8"?>
<svg xmlns="http://www.w3.org/2000/svg" xmlns:xlink="http://www.w3.org/1999/xlink" width="3750" height="3750" viewBox="0 0 3750 3750">
<path fill-rule="nonzero" fill="#707070" fill-opacity="0" d="M 1.199219 0 L 3748.800781 0 C 3749.46875 0 3750 0.390625 3750 0.878906 L 3750 3749.121094 C 3750 3749.605469 3749.46875 3750 3748.800781 3750 L 1.199219 3750 C 0.535156 3750 0 3749.605469 0 3749.121094 L 0 0.878906 C 0 0.390625 0.535156 0 1.199219 0 Z M 1.199219 0 "/>
<path fill-rule="nonzero" fill="#707070" stroke='#707070' fill-opacity="1" d="M 1874.980469 455.078125 C 1092.488281 455.078125 455.0625 1092.511719 455.0625 1875 C 455.0625 2657.488281 1092.488281 3294.917969 1874.980469 3294.917969 C 2657.46875 3294.917969 3294.941406 2657.488281 3294.941406 1875 C 3294.941406 1092.511719 2657.46875 455.078125 1874.980469 455.078125 Z M 1874.980469 746 C 2500.25 746 3004.019531 1249.730469 3004.019531 1875 C 3004.019531 2500.269531 2500.25 3004.003906 1874.980469 3004.003906 C 1249.710938 3004.003906 745.976562 2500.269531 745.976562 1875 C 745.976562 1249.730469 1249.710938 746 1874.980469 746 Z M 1874.980469 837.480469 C 1810.078125 837.480469 1757.859375 889.699219 1757.859375 954.601562 L 1757.859375 1939.390625 C 1760.890625 1984.960938 1785.628906 2030.238281 1824.261719 2047.539062 L 2641.441406 2399.671875 C 2695.289062 2422.878906 2759.320312 2393.589844 2785 2333.988281 C 2810.691406 2274.390625 2788.019531 2207.71875 2734.171875 2184.519531 L 1992.140625 1864.730469 L 1992.140625 954.601562 C 1992.140625 889.699219 1939.878906 837.480469 1874.980469 837.480469 Z M 1874.980469 837.480469 "/>
</svg>
