<svg width="95" height="41" viewBox="0 0 95 41" fill="none" xmlns="http://www.w3.org/2000/svg">
<g id="Clouds">
<g id="clouds">
<path id="Vector" d="M5.16261 10.8682L8.71295 12.0551V5.32926C8.71295 -0.0430883 13.6584 -1.32371 19.0204 1.35206C24.3823 4.03823 28.7343 10.5663 28.7343 15.9282V16.9694C29.488 16.764 30.2752 16.7116 31.0495 16.8153C31.8238 16.919 32.5694 17.1767 33.2425 17.5732C37.1052 19.4994 40.2391 24.195 40.2391 28.0576V28.5053L45.1845 30.9833C46.4704 31.6549 47.5668 32.6391 48.3727 33.8454C49.1787 35.0516 49.6684 36.4411 49.7968 37.8861C49.7968 40.4265 47.7145 41.4573 45.1845 40.1871L5.16261 20.0824C3.88179 19.4051 2.79131 18.4174 1.99098 17.2096C1.19066 16.0019 0.706059 14.6126 0.581543 13.1691C0.581543 10.6287 2.66384 9.59799 5.16261 10.8682Z" fill="#EBEBEB"/>
<path id="Vector_2" d="M57.0744 15.7408L63.5088 18.958C63.4762 18.7129 63.4589 18.466 63.4567 18.2188V16.5842C63.4567 13.7106 65.7889 12.5549 68.6625 13.9813C69.8734 14.6131 70.9377 15.4928 71.7859 16.5633C72.2649 12.9609 75.5341 11.6074 79.5009 13.596C83.8008 15.7512 87.2887 20.9674 87.2887 25.2674V27.6829C87.3144 28.6585 87.0847 29.624 86.6224 30.4836L91.9739 33.1489C92.7779 33.5728 93.463 34.1912 93.9667 34.9477C94.4705 35.7042 94.7768 36.5748 94.8579 37.4801C94.8579 39.0731 93.5669 39.7186 91.9739 38.9169L57.0744 21.488C56.27 21.0673 55.5843 20.4511 55.0803 19.6961C54.5764 18.9411 54.2704 18.0714 54.1904 17.1672C54.1904 15.5742 55.4815 14.9287 57.0744 15.7408Z" fill="#EBEBEB"/>
</g>
</g>
</svg>
