<svg width="48" height="48" viewBox="0 0 48 48" fill="none" xmlns="http://www.w3.org/2000/svg">
<g id="teenyicons:doc-solid">
<path id="Vector" d="M9.59961 32.0004V22.4004H11.1996C11.624 22.4004 12.0309 22.569 12.331 22.869C12.631 23.1691 12.7996 23.576 12.7996 24.0004V30.4004C12.7996 30.8247 12.631 31.2317 12.331 31.5318C12.0309 31.8318 11.624 32.0004 11.1996 32.0004H9.59961ZM22.3996 24.0004C22.3996 23.576 22.5682 23.1691 22.8682 22.869C23.1683 22.569 23.5753 22.4004 23.9996 22.4004C24.424 22.4004 24.8309 22.569 25.131 22.869C25.431 23.1691 25.5996 23.576 25.5996 24.0004V30.4004C25.5996 30.8247 25.431 31.2317 25.131 31.5318C24.8309 31.8318 24.424 32.0004 23.9996 32.0004C23.5753 32.0004 23.1683 31.8318 22.8682 31.5318C22.5682 31.2317 22.3996 30.8247 22.3996 30.4004V24.0004Z" fill="#5D48FA"/>
<path id="Vector_2" fill-rule="evenodd" clip-rule="evenodd" d="M3.19922 4.8C3.19922 3.52696 3.70493 2.30606 4.60511 1.40589C5.50528 0.505713 6.72618 0 7.99922 0L34.2616 0L44.7992 10.5376V43.2C44.7992 44.473 44.2935 45.6939 43.3933 46.5941C42.4932 47.4943 41.2723 48 39.9992 48H7.99922C6.72618 48 5.50528 47.4943 4.60511 46.5941C3.70493 45.6939 3.19922 44.473 3.19922 43.2V4.8ZM11.1992 19.2H6.39922V35.2H11.1992C12.4723 35.2 13.6932 34.6943 14.5933 33.7941C15.4935 32.8939 15.9992 31.673 15.9992 30.4V24C15.9992 22.727 15.4935 21.5061 14.5933 20.6059C13.6932 19.7057 12.4723 19.2 11.1992 19.2ZM23.9992 19.2C22.7262 19.2 21.5053 19.7057 20.6051 20.6059C19.7049 21.5061 19.1992 22.727 19.1992 24V30.4C19.1992 31.673 19.7049 32.8939 20.6051 33.7941C21.5053 34.6943 22.7262 35.2 23.9992 35.2C25.2723 35.2 26.4932 34.6943 27.3933 33.7941C28.2935 32.8939 28.7992 31.673 28.7992 30.4V24C28.7992 22.727 28.2935 21.5061 27.3933 20.6059C26.4932 19.7057 25.2723 19.2 23.9992 19.2ZM31.9992 35.2V19.2H41.5992V25.6H38.3992V22.4H35.1992V32H38.3992V28.8H41.5992V35.2H31.9992Z" fill="#5D48FA"/>
</g>
</svg>
