<svg xmlns="http://www.w3.org/2000/svg" width="16" height="16" viewBox="0 0 16 16" fill="none">
<g clip-path="url(#clip0_1644_10352)">
<path d="M10.4129 7.4806C10.3298 7.39632 10.2167 7.3485 10.0983 7.34767C9.97994 7.34683 9.8661 7.39305 9.78182 7.47615C9.69754 7.55925 9.64973 7.67243 9.64889 7.79079C9.64806 7.90914 9.69428 8.02298 9.77738 8.10726L11.4307 9.77837H3.4796C3.36173 9.77837 3.24868 9.8252 3.16533 9.90855C3.08198 9.9919 3.03516 10.1049 3.03516 10.2228C3.03516 10.3407 3.08198 10.4537 3.16533 10.5371C3.24868 10.6204 3.36173 10.6673 3.4796 10.6673H11.4307L9.77738 12.3117C9.73623 12.3531 9.70365 12.4023 9.68149 12.4563C9.65933 12.5103 9.64804 12.5682 9.64824 12.6266C9.64845 12.685 9.66016 12.7428 9.68269 12.7967C9.70523 12.8505 9.73816 12.8994 9.7796 12.9406C9.82104 12.9817 9.87018 13.0143 9.92421 13.0365C9.97824 13.0586 10.0361 13.0699 10.0945 13.0697C10.1529 13.0695 10.2107 13.0578 10.2646 13.0353C10.3184 13.0127 10.3673 12.9798 10.4085 12.9384L13.124 10.2228L10.4129 7.4806Z" fill="#707070"/>
<path d="M5.88463 8.19957C5.9729 8.20009 6.05933 8.1743 6.1329 8.1255C6.20646 8.0767 6.26383 8.00709 6.29768 7.92556C6.33153 7.84403 6.34034 7.75427 6.32297 7.66771C6.30561 7.58116 6.26286 7.50174 6.20018 7.43957L4.55129 5.77735H12.498C12.6158 5.77735 12.7289 5.73053 12.8122 5.64718C12.8956 5.56383 12.9424 5.45078 12.9424 5.33291C12.9424 5.21503 12.8956 5.10199 12.8122 5.01864C12.7289 4.93529 12.6158 4.88846 12.498 4.88846H4.55129L6.20018 3.23068C6.24133 3.18924 6.27391 3.14011 6.29607 3.08607C6.31823 3.03204 6.32952 2.97418 6.32932 2.91578C6.32911 2.85738 6.31741 2.7996 6.29487 2.74572C6.27233 2.69185 6.2394 2.64294 6.19796 2.6018C6.15652 2.56065 6.10738 2.52806 6.05335 2.50591C5.99932 2.48375 5.94145 2.47245 5.88306 2.47266C5.76512 2.47308 5.65217 2.52033 5.56907 2.60402L2.85352 5.33291L5.56907 8.06179C5.60986 8.10459 5.65878 8.13883 5.71296 8.16248C5.76715 8.18614 5.82551 8.19875 5.88463 8.19957Z" fill="#707070"/>
</g>
<defs>
<clipPath id="clip0_1644_10352">
<rect width="16" height="16" fill="white"/>
</clipPath>
</defs>
</svg>