<svg width="197" height="32" viewBox="0 0 197 32" fill="none" xmlns="http://www.w3.org/2000/svg">
<g id="expensebook">
<path d="M9.34014 24.5325C7.43147 24.5325 5.83376 24.1465 4.54701 23.3745C3.27098 22.6024 2.30592 21.5837 1.65183 20.3184C1.00845 19.0424 0.686768 17.6431 0.686768 16.1204C0.686768 14.6514 0.987009 13.3003 1.58749 12.0672C2.1987 10.8233 3.08333 9.83146 4.24141 9.09158C5.4102 8.34098 6.82562 7.96568 8.48767 7.96568C9.94598 7.96568 11.1898 8.26056 12.2192 8.85032C13.2486 9.44007 14.0314 10.255 14.5676 11.2951C15.1144 12.3245 15.3879 13.5041 15.3879 14.8337C15.3879 15.1339 15.3664 15.4503 15.3235 15.7827C15.2913 16.1044 15.2431 16.4368 15.1788 16.7799H4.40225C4.55237 17.9487 4.87942 18.8762 5.38339 19.5625C5.88737 20.2488 6.51466 20.7474 7.26526 21.0583C8.01586 21.3586 8.82544 21.5087 9.694 21.5087C10.5518 21.5087 11.3775 21.4068 12.171 21.2031C12.9752 20.9886 13.7204 20.6991 14.4067 20.3345L14.6801 23.3101C14.0689 23.6104 13.313 23.8892 12.4123 24.1465C11.5115 24.4039 10.4875 24.5325 9.34014 24.5325ZM4.56309 14.3351H11.7206C11.7206 13.756 11.608 13.2145 11.3829 12.7106C11.1684 12.1959 10.8199 11.783 10.3374 11.4721C9.86556 11.1504 9.24364 10.9895 8.47159 10.9895C7.34568 10.9895 6.46641 11.2951 5.83376 11.9063C5.21183 12.5175 4.78827 13.3271 4.56309 14.3351Z" fill="#11075F"/>
<path d="M17.7769 24.2109L23.1651 16.233L17.8251 8.23911H22.0231L25.3365 13.4826L28.3765 8.23911H32.6388L27.3471 16.1526L32.7031 24.2109H28.489L25.1757 18.9834L21.991 24.2109H17.7769Z" fill="#11075F"/>
<path d="M36.2369 31.9957V8.23911H39.0999L39.7916 11.2469L38.73 10.7804C39.4484 9.9226 40.258 9.2417 41.1587 8.73773C42.0702 8.22303 43.18 7.96568 44.4882 7.96568C46.0216 7.96568 47.3137 8.34098 48.3645 9.09158C49.4261 9.84218 50.2303 10.8448 50.7772 12.0994C51.324 13.3539 51.5975 14.7372 51.5975 16.2491C51.5975 17.761 51.3294 19.1443 50.7932 20.3989C50.2571 21.6534 49.4636 22.656 48.4128 23.4066C47.3619 24.1572 46.0537 24.5325 44.4882 24.5325C43.2336 24.5325 42.172 24.3288 41.3035 23.9213C40.4457 23.5139 39.679 22.8812 39.0034 22.0234L39.8237 21.2996V31.9957H36.2369ZM43.9092 21.5087C45.1745 21.5087 46.161 21.0315 46.8687 20.0772C47.5764 19.1121 47.9302 17.8361 47.9302 16.2491C47.9302 14.6514 47.5764 13.3754 46.8687 12.421C46.161 11.4667 45.1745 10.9895 43.9092 10.9895C43.0084 10.9895 42.2364 11.204 41.593 11.6329C40.9604 12.0511 40.4778 12.6516 40.1454 13.4344C39.813 14.2171 39.6468 15.1554 39.6468 16.2491C39.6468 17.3643 39.813 18.3133 40.1454 19.096C40.4778 19.8788 40.9604 20.4793 41.593 20.8975C42.2364 21.305 43.0084 21.5087 43.9092 21.5087Z" fill="#11075F"/>
<path d="M63.4325 24.5325C61.5238 24.5325 59.9261 24.1465 58.6394 23.3745C57.3634 22.6024 56.3983 21.5837 55.7442 20.3184C55.1008 19.0424 54.7792 17.6431 54.7792 16.1204C54.7792 14.6514 55.0794 13.3003 55.6799 12.0672C56.2911 10.8233 57.1757 9.83146 58.3338 9.09158C59.5026 8.34098 60.918 7.96568 62.5801 7.96568C64.0384 7.96568 65.2822 8.26056 66.3116 8.85032C67.341 9.44007 68.1238 10.255 68.6599 11.2951C69.2068 12.3245 69.4802 13.5041 69.4802 14.8337C69.4802 15.1339 69.4588 15.4503 69.4159 15.7827C69.3837 16.1044 69.3355 16.4368 69.2711 16.7799H58.4946C58.6448 17.9487 58.9718 18.8762 59.4758 19.5625C59.9798 20.2488 60.607 20.7474 61.3576 21.0583C62.1082 21.3586 62.9178 21.5087 63.7864 21.5087C64.6442 21.5087 65.4699 21.4068 66.2634 21.2031C67.0676 20.9886 67.8128 20.6991 68.4991 20.3345L68.7725 23.3101C68.1613 23.6104 67.4054 23.8892 66.5046 24.1465C65.6039 24.4039 64.5799 24.5325 63.4325 24.5325ZM58.6555 14.3351H65.813C65.813 13.756 65.7004 13.2145 65.4752 12.7106C65.2608 12.1959 64.9123 11.783 64.4298 11.4721C63.9579 11.1504 63.336 10.9895 62.564 10.9895C61.4381 10.9895 60.5588 11.2951 59.9261 11.9063C59.3042 12.5175 58.8807 13.3271 58.6555 14.3351Z" fill="#11075F"/>
<path d="M73.5551 24.2109V8.23911H76.7559L77.0615 11.2469L76.0643 10.2979C76.8363 9.53658 77.6727 8.95754 78.5734 8.5608C79.4849 8.16405 80.4767 7.96568 81.549 7.96568C83.6936 7.96568 85.2645 8.64122 86.2617 9.9923C87.259 11.3434 87.7576 13.1288 87.7576 15.3484V24.2109H84.1708V15.5414C84.1708 13.9759 83.8973 12.8285 83.3505 12.0994C82.8036 11.3595 81.9029 10.9895 80.6483 10.9895C79.6725 10.9895 78.8415 11.2147 78.1552 11.6651C77.469 12.1154 76.9328 12.7642 76.5468 13.6113L77.1419 11.7133V24.2109H73.5551Z" fill="#11075F"/>
<path d="M97.2212 24.5325C96.0417 24.5325 95.0123 24.4092 94.133 24.1626C93.2537 23.9053 92.4763 23.6104 91.8008 23.278L92.1546 20.0772C92.798 20.4954 93.5325 20.8707 94.3582 21.2031C95.1838 21.5248 96.0953 21.6856 97.0925 21.6856C97.9718 21.6856 98.642 21.5462 99.1031 21.2674C99.5641 20.9779 99.7947 20.5383 99.7947 19.9485C99.7947 19.4874 99.6606 19.1121 99.3926 18.8226C99.1245 18.5224 98.7599 18.2704 98.2988 18.0666C97.8485 17.8522 97.3391 17.6484 96.7708 17.4554C95.8808 17.1552 95.0766 16.8174 94.3582 16.4421C93.6397 16.0561 93.0661 15.5628 92.6372 14.9624C92.219 14.3619 92.0099 13.5845 92.0099 12.6301C92.0099 11.7509 92.235 10.9574 92.6854 10.2497C93.1358 9.53122 93.8006 8.96291 94.6799 8.54471C95.5591 8.12652 96.6529 7.91742 97.9611 7.91742C98.9905 7.91742 99.8805 8.03001 100.631 8.2552C101.392 8.48038 102.079 8.75917 102.69 9.09158L102.336 12.228C101.703 11.7669 101.044 11.3863 100.358 11.086C99.6714 10.7751 98.894 10.6196 98.0254 10.6196C97.2534 10.6196 96.6422 10.7697 96.1918 11.07C95.7522 11.3702 95.5323 11.8152 95.5323 12.405C95.5323 13.0698 95.8111 13.5577 96.3687 13.8686C96.9263 14.1796 97.7949 14.5495 98.9744 14.9784C99.5963 15.2036 100.175 15.4503 100.711 15.7183C101.248 15.9864 101.719 16.3027 102.127 16.6673C102.534 17.0319 102.851 17.4662 103.076 17.9701C103.301 18.4741 103.414 19.0746 103.414 19.7716C103.414 20.6723 103.199 21.4819 102.77 22.2003C102.341 22.9187 101.671 23.4871 100.76 23.9053C99.8483 24.3234 98.6688 24.5325 97.2212 24.5325Z" fill="#11075F"/>
<path d="M115.169 24.5325C113.26 24.5325 111.662 24.1465 110.376 23.3745C109.1 22.6024 108.135 21.5837 107.48 20.3184C106.837 19.0424 106.515 17.6431 106.515 16.1204C106.515 14.6514 106.816 13.3003 107.416 12.0672C108.027 10.8233 108.912 9.83146 110.07 9.09158C111.239 8.34098 112.654 7.96568 114.316 7.96568C115.775 7.96568 117.019 8.26056 118.048 8.85032C119.077 9.44007 119.86 10.255 120.396 11.2951C120.943 12.3245 121.217 13.5041 121.217 14.8337C121.217 15.1339 121.195 15.4503 121.152 15.7827C121.12 16.1044 121.072 16.4368 121.007 16.7799H110.231C110.381 17.9487 110.708 18.8762 111.212 19.5625C111.716 20.2488 112.343 20.7474 113.094 21.0583C113.845 21.3586 114.654 21.5087 115.523 21.5087C116.38 21.5087 117.206 21.4068 118 21.2031C118.804 20.9886 119.549 20.6991 120.235 20.3345L120.509 23.3101C119.898 23.6104 119.142 23.8892 118.241 24.1465C117.34 24.4039 116.316 24.5325 115.169 24.5325ZM110.392 14.3351H117.549C117.549 13.756 117.437 13.2145 117.212 12.7106C116.997 12.1959 116.649 11.783 116.166 11.4721C115.694 11.1504 115.072 10.9895 114.3 10.9895C113.174 10.9895 112.295 11.2951 111.662 11.9063C111.04 12.5175 110.617 13.3271 110.392 14.3351Z" fill="#11075F"/>
<path d="M133.43 24.5325C132.251 24.5325 131.189 24.3127 130.245 23.8731C129.312 23.4227 128.524 22.7901 127.881 21.9751L128.894 21.2513L128.573 24.2109H125.259V0.0843506H128.846V11.07L128.01 10.507C128.664 9.73495 129.446 9.11839 130.358 8.6573C131.28 8.19622 132.304 7.96568 133.43 7.96568C134.974 7.96568 136.277 8.34634 137.339 9.10767C138.411 9.86899 139.226 10.8823 139.783 12.1476C140.341 13.4022 140.62 14.7694 140.62 16.2491C140.62 17.761 140.33 19.1443 139.751 20.3989C139.172 21.6534 138.346 22.656 137.274 23.4066C136.202 24.1572 134.921 24.5325 133.43 24.5325ZM132.931 21.5087C133.779 21.5087 134.502 21.2835 135.103 20.8331C135.703 20.3721 136.159 19.7448 136.47 18.9513C136.792 18.1578 136.953 17.2571 136.953 16.2491C136.953 15.2197 136.792 14.3136 136.47 13.5309C136.159 12.7374 135.703 12.1154 135.103 11.6651C134.502 11.2147 133.779 10.9895 132.931 10.9895C132.041 10.9895 131.28 11.204 130.647 11.6329C130.015 12.0511 129.527 12.6516 129.184 13.4344C128.841 14.2171 128.669 15.1554 128.669 16.2491C128.669 17.3643 128.841 18.3133 129.184 19.096C129.527 19.8788 130.015 20.4793 130.647 20.8975C131.28 21.305 132.041 21.5087 132.931 21.5087Z" fill="#11075F"/>
<path d="M151.925 24.5325C150.209 24.5325 148.745 24.1572 147.534 23.4066C146.333 22.656 145.411 21.6534 144.767 20.3989C144.135 19.1443 143.818 17.761 143.818 16.2491C143.818 14.7372 144.135 13.3486 144.767 12.0833C145.411 10.818 146.333 9.81001 147.534 9.05941C148.745 8.29809 150.209 7.91742 151.925 7.91742C153.63 7.91742 155.088 8.29809 156.3 9.05941C157.511 9.81001 158.434 10.818 159.066 12.0833C159.71 13.3486 160.031 14.7372 160.031 16.2491C160.031 17.761 159.71 19.1443 159.066 20.3989C158.434 21.6534 157.511 22.656 156.3 23.4066C155.088 24.1572 153.63 24.5325 151.925 24.5325ZM151.925 21.5087C153.34 21.5087 154.429 21.0315 155.19 20.0772C155.962 19.1121 156.348 17.8361 156.348 16.2491C156.348 14.6407 155.962 13.3539 155.19 12.3889C154.429 11.4238 153.34 10.9413 151.925 10.9413C150.509 10.9413 149.416 11.4238 148.644 12.3889C147.872 13.3539 147.486 14.6407 147.486 16.2491C147.486 17.8361 147.872 19.1121 148.644 20.0772C149.416 21.0315 150.509 21.5087 151.925 21.5087Z" fill="#11075F"/>
<path d="M171.306 24.5325C169.591 24.5325 168.127 24.1572 166.915 23.4066C165.714 22.656 164.792 21.6534 164.149 20.3989C163.516 19.1443 163.2 17.761 163.2 16.2491C163.2 14.7372 163.516 13.3486 164.149 12.0833C164.792 10.818 165.714 9.81001 166.915 9.05941C168.127 8.29809 169.591 7.91742 171.306 7.91742C173.011 7.91742 174.47 8.29809 175.681 9.05941C176.893 9.81001 177.815 10.818 178.448 12.0833C179.091 13.3486 179.413 14.7372 179.413 16.2491C179.413 17.761 179.091 19.1443 178.448 20.3989C177.815 21.6534 176.893 22.656 175.681 23.4066C174.47 24.1572 173.011 24.5325 171.306 24.5325ZM171.306 21.5087C172.722 21.5087 173.81 21.0315 174.572 20.0772C175.344 19.1121 175.73 17.8361 175.73 16.2491C175.73 14.6407 175.344 13.3539 174.572 12.3889C173.81 11.4238 172.722 10.9413 171.306 10.9413C169.891 10.9413 168.797 11.4238 168.025 12.3889C167.253 13.3539 166.867 14.6407 166.867 16.2491C166.867 17.8361 167.253 19.1121 168.025 20.0772C168.797 21.0315 169.891 21.5087 171.306 21.5087Z" fill="#11075F"/>
<path d="M183.498 24.2109V0.0843506H187.085V15.0267L192.377 8.23911H196.527L190.511 15.8309L196.671 24.2109H192.506L187.085 16.7477V24.2109H183.498Z" fill="#11075F"/>
</g>
</svg>
