<svg width="197" height="32" viewBox="0 0 197 32" fill="none" xmlns="http://www.w3.org/2000/svg">
  <g id="expensebook">
    <!-- Body -->
    <path d="M9.34014 24.5325C7.43147 24.5325 5.83376 24.1465 4.54701 23.3745C3.27098 22.6024 2.30592 21.5837 1.65183 20.3184C1.00845 19.0424 0.686768 17.6431 0.686768 16.1204C0.686768 14.6514 0.987009 13.3003 1.58749 12.0672C2.1987 10.8233 3.08333 9.83146 4.24141 9.09158C5.4102 8.34098 6.82562 7.96568 8.48767 7.96568C9.94598 7.96568 11.1898 8.26056 12.2192 8.85032C13.2486 9.44007 14.0314 10.255 14.5676 11.2951C15.1144 12.3245 15.3879 13.5041 15.3879 14.8337C15.3879 15.1339 15.3664 15.4503 15.3235 15.7827C15.2913 16.1044 15.2431 16.4368 15.1788 16.7799H4.40225C4.55237 17.9487 4.87942 18.8762 5.38339 19.5625C5.88737 20.2488 6.51466 20.7474 7.26526 21.0583C8.01586 21.3586 8.82544 21.5087 9.694 21.5087C10.5518 21.5087 11.3775 21.4068 12.171 21.2031C12.9752 20.9886 13.7204 20.6991 14.4067 20.3345L14.6801 23.3101C14.0689 23.6104 13.313 23.8892 12.4123 24.1465C11.5115 24.4039 10.4875 24.5325 9.34014 24.5325ZM4.56309 14.3351H11.7206C11.7206 13.756 11.608 13.2145 11.3829 12.7106C11.1684 12.1959 10.8199 11.783 10.3374 11.4721C9.86556 11.1504 9.24364 10.9895 8.47159 10.9895C7.34568 10.9895 6.46641 11.2951 5.83376 11.9063C5.21183 12.5175 4.78827 13.3271 4.56309 14.3351Z" fill="#11075F"/>
    <!-- Head -->
    <circle cx="12.05" cy="5.5" r="2.5" fill="#11075F"/>
    <circle cx="7.05" cy="5.5" r="2.5" fill="#11075F"/>
    <!-- Tie -->
    <path d="M8.5 9.5C7.5 11.5 7 12.5 7 13.5H9C9 12.5 8.5 11.5 7.5 9.5H8.5Z" fill="black"/>
    <!-- Second Person -->
    <!-- Body -->
    <path d="M17.7769 24.2109L23.1651 16.233L17.8251 8.23911H22.0231L25.3365 13.4826L28.3765 8.23911H32.6388L27.3471 16.1526L32.7031 24.2109H28.489L25.1757 18.9834L21.991 24.2109H17.7769Z" fill="#11075F"/>
    <!-- Head -->
    <circle cx="18.656" cy="6.5" r="2.5" fill="#11075F"/>
    <circle cx="23.656" cy="6.5" r="2.5" fill="#11075F"/>
    <!-- Tie -->
    <path d="M21.5 9.5C20.5 11.5 20 12.5 20 13.5H22C22 12.5 21.5 11.5 20.5 9.5H21.5Z" fill="black"/>
  </g>
</svg>
