<svg width="170" height="29" viewBox="0 0 170 29" fill="none" xmlns="http://www.w3.org/2000/svg">
<g id="expensebook">
<path d="M8.43356 21.8324C6.7933 21.8324 5.42026 21.5007 4.31446 20.8372C3.21788 20.1737 2.38853 19.2983 1.82642 18.2109C1.27352 17.1144 0.99707 15.9118 0.99707 14.6033C0.99707 13.3408 1.25509 12.1797 1.77113 11.12C2.29638 10.0511 3.05662 9.19869 4.05184 8.56285C5.05627 7.91781 6.27265 7.59528 7.70097 7.59528C8.95421 7.59528 10.0231 7.84869 10.9078 8.35552C11.7924 8.86234 12.4651 9.56268 12.9259 10.4565C13.3958 11.3412 13.6308 12.3548 13.6308 13.4975C13.6308 13.7555 13.6124 14.0273 13.5755 14.313C13.5479 14.5895 13.5064 14.8751 13.4511 15.17H4.19006C4.31907 16.1744 4.60013 16.9715 5.03323 17.5613C5.46634 18.151 6.00541 18.5795 6.65046 18.8468C7.29551 19.1048 7.99124 19.2338 8.73766 19.2338C9.47486 19.2338 10.1844 19.1463 10.8663 18.9712C11.5574 18.7869 12.1979 18.5381 12.7876 18.2248L13.0226 20.7819C12.4974 21.0399 11.8477 21.2795 11.0737 21.5007C10.2996 21.7219 9.41957 21.8324 8.43356 21.8324ZM4.32829 13.069H10.4793C10.4793 12.5714 10.3825 12.106 10.189 11.6729C10.0047 11.2306 9.70523 10.8758 9.29056 10.6086C8.8851 10.3321 8.35063 10.1939 7.68715 10.1939C6.71958 10.1939 5.96395 10.4565 5.42026 10.9818C4.88579 11.507 4.5218 12.2028 4.32829 13.069Z" fill="#11075F"/>
<path d="M15.6839 21.556L20.3144 14.7L15.7254 7.83026H19.333L22.1804 12.3364L24.7929 7.83026H28.4559L23.9083 14.6309L28.5111 21.556H24.8897L22.0422 17.0637L19.3054 21.556H15.6839Z" fill="#11075F"/>
<path d="M31.548 28.2461V7.83026H34.0084L34.6028 10.4151L33.6905 10.0142C34.3079 9.27702 35.0036 8.69186 35.7777 8.25876C36.5609 7.81644 37.5147 7.59528 38.6389 7.59528C39.9567 7.59528 41.0671 7.91781 41.9701 8.56285C42.8824 9.2079 43.5735 10.0695 44.0435 11.1477C44.5135 12.2258 44.7485 13.4145 44.7485 14.7139C44.7485 16.0132 44.5181 17.2019 44.0573 18.2801C43.5966 19.3582 42.9147 20.2198 42.0116 20.8649C41.1085 21.5099 39.9843 21.8324 38.6389 21.8324C37.5608 21.8324 36.6485 21.6574 35.9021 21.3072C35.1649 20.957 34.506 20.4133 33.9254 19.6761L34.6304 19.0541V28.2461H31.548ZM38.1413 19.2338C39.2287 19.2338 40.0765 18.8237 40.6846 18.0036C41.2928 17.1743 41.5969 16.0777 41.5969 14.7139C41.5969 13.3408 41.2928 12.2442 40.6846 11.4241C40.0765 10.604 39.2287 10.1939 38.1413 10.1939C37.3672 10.1939 36.7038 10.3782 36.1509 10.7468C35.6072 11.1062 35.1925 11.6222 34.9068 12.2949C34.6212 12.9676 34.4783 13.7739 34.4783 14.7139C34.4783 15.6722 34.6212 16.4877 34.9068 17.1604C35.1925 17.8331 35.6072 18.3492 36.1509 18.7086C36.7038 19.0587 37.3672 19.2338 38.1413 19.2338Z" fill="#11075F"/>
<path d="M54.9192 21.8324C53.2789 21.8324 51.9059 21.5007 50.8001 20.8372C49.7035 20.1737 48.8742 19.2983 48.3121 18.2109C47.7592 17.1144 47.4827 15.9118 47.4827 14.6033C47.4827 13.3408 47.7407 12.1797 48.2568 11.12C48.782 10.0511 49.5423 9.19869 50.5375 8.56285C51.5419 7.91781 52.7583 7.59528 54.1866 7.59528C55.4399 7.59528 56.5088 7.84869 57.3934 8.35552C58.2781 8.86234 58.9508 9.56268 59.4115 10.4565C59.8815 11.3412 60.1165 12.3548 60.1165 13.4975C60.1165 13.7555 60.098 14.0273 60.0612 14.313C60.0335 14.5895 59.9921 14.8751 59.9368 15.17H50.6757C50.8047 16.1744 51.0858 16.9715 51.5189 17.5613C51.952 18.151 52.4911 18.5795 53.1361 18.8468C53.7812 19.1048 54.4769 19.2338 55.2233 19.2338C55.9605 19.2338 56.67 19.1463 57.352 18.9712C58.0431 18.7869 58.6835 18.5381 59.2733 18.2248L59.5083 20.7819C58.983 21.0399 58.3334 21.2795 57.5593 21.5007C56.7852 21.7219 55.9052 21.8324 54.9192 21.8324ZM50.8139 13.069H56.9649C56.9649 12.5714 56.8682 12.106 56.6747 11.6729C56.4904 11.2306 56.1909 10.8758 55.7762 10.6086C55.3707 10.3321 54.8363 10.1939 54.1728 10.1939C53.2052 10.1939 52.4496 10.4565 51.9059 10.9818C51.3714 11.507 51.0074 12.2028 50.8139 13.069Z" fill="#11075F"/>
<path d="M63.6183 21.556V7.83026H66.369L66.6316 10.4151L65.7746 9.59954C66.4381 8.94528 67.1568 8.44767 67.9309 8.10671C68.7142 7.76576 69.5666 7.59528 70.4881 7.59528C72.3311 7.59528 73.6811 8.17583 74.538 9.33691C75.395 10.498 75.8235 12.0323 75.8235 13.9398V21.556H72.7411V14.1057C72.7411 12.7603 72.5061 11.7743 72.0362 11.1477C71.5662 10.5118 70.7922 10.1939 69.714 10.1939C68.8754 10.1939 68.1613 10.3874 67.5715 10.7745C66.9818 11.1615 66.521 11.719 66.1893 12.447L66.7007 10.8159V21.556H63.6183Z" fill="#11075F"/>
<path d="M83.9563 21.8324C82.9427 21.8324 82.0581 21.7265 81.3024 21.5145C80.5468 21.2934 79.8787 21.0399 79.2982 20.7543L79.6023 18.0036C80.1552 18.363 80.7864 18.6855 81.4959 18.9712C82.2055 19.2476 82.9888 19.3859 83.8458 19.3859C84.6014 19.3859 85.1773 19.2661 85.5736 19.0265C85.9698 18.7777 86.1679 18.3999 86.1679 17.893C86.1679 17.4968 86.0527 17.1743 85.8224 16.9255C85.592 16.6674 85.2787 16.4509 84.8824 16.2758C84.4954 16.0915 84.0577 15.9164 83.5693 15.7505C82.8045 15.4925 82.1133 15.2023 81.4959 14.8797C80.8785 14.548 80.3855 14.1241 80.0169 13.6081C79.6575 13.092 79.4779 12.4239 79.4779 11.6038C79.4779 10.8482 79.6714 10.1663 80.0584 9.55807C80.4454 8.94067 81.0168 8.45227 81.7724 8.09289C82.528 7.73351 83.4679 7.55381 84.5922 7.55381C85.4768 7.55381 86.2417 7.65057 86.8867 7.84409C87.541 8.0376 88.1307 8.27719 88.656 8.56285L88.3519 11.2582C87.8082 10.862 87.2415 10.5349 86.6517 10.2768C86.062 10.0096 85.3939 9.87599 84.6475 9.87599C83.984 9.87599 83.4587 10.005 83.0717 10.263C82.6939 10.521 82.505 10.9035 82.505 11.4103C82.505 11.9816 82.7446 12.4009 83.2237 12.6681C83.7029 12.9354 84.4493 13.2533 85.463 13.6219C85.9975 13.8154 86.4951 14.0273 86.9558 14.2577C87.4166 14.4881 87.822 14.7599 88.1722 15.0732C88.5224 15.3866 88.7942 15.7598 88.9877 16.1929C89.1812 16.626 89.278 17.142 89.278 17.741C89.278 18.515 89.0937 19.2108 88.7251 19.8282C88.3565 20.4456 87.7806 20.934 86.9973 21.2934C86.214 21.6527 85.2004 21.8324 83.9563 21.8324Z" fill="#11075F"/>
<path d="M99.3801 21.8324C97.7398 21.8324 96.3668 21.5007 95.261 20.8372C94.1644 20.1737 93.335 19.2983 92.7729 18.2109C92.22 17.1144 91.9436 15.9118 91.9436 14.6033C91.9436 13.3408 92.2016 12.1797 92.7176 11.12C93.2429 10.0511 94.0031 9.19869 94.9983 8.56285C96.0028 7.91781 97.2191 7.59528 98.6475 7.59528C99.9007 7.59528 100.97 7.84869 101.854 8.35552C102.739 8.86234 103.412 9.56268 103.872 10.4565C104.342 11.3412 104.577 12.3548 104.577 13.4975C104.577 13.7555 104.559 14.0273 104.522 14.313C104.494 14.5895 104.453 14.8751 104.398 15.17H95.1366C95.2656 16.1744 95.5466 16.9715 95.9797 17.5613C96.4128 18.151 96.9519 18.5795 97.597 18.8468C98.242 19.1048 98.9377 19.2338 99.6842 19.2338C100.421 19.2338 101.131 19.1463 101.813 18.9712C102.504 18.7869 103.144 18.5381 103.734 18.2248L103.969 20.7819C103.444 21.0399 102.794 21.2795 102.02 21.5007C101.246 21.7219 100.366 21.8324 99.3801 21.8324ZM95.2748 13.069H101.426C101.426 12.5714 101.329 12.106 101.136 11.6729C100.951 11.2306 100.652 10.8758 100.237 10.6086C99.8316 10.3321 99.2971 10.1939 98.6337 10.1939C97.6661 10.1939 96.9104 10.4565 96.3668 10.9818C95.8323 11.507 95.4683 12.2028 95.2748 13.069Z" fill="#11075F"/>
<path d="M115.073 21.8324C114.06 21.8324 113.147 21.6435 112.336 21.2657C111.535 20.8787 110.857 20.335 110.305 19.6347L111.175 19.0126L110.899 21.556H108.052V0.822266H111.134V10.263L110.415 9.77923C110.977 9.11575 111.65 8.58589 112.433 8.18965C113.226 7.7934 114.106 7.59528 115.073 7.59528C116.4 7.59528 117.52 7.92241 118.432 8.57668C119.354 9.23094 120.054 10.1018 120.533 11.1891C121.012 12.2673 121.252 13.4422 121.252 14.7139C121.252 16.0132 121.003 17.2019 120.506 18.2801C120.008 19.3582 119.298 20.2198 118.377 20.8649C117.455 21.5099 116.354 21.8324 115.073 21.8324ZM114.645 19.2338C115.373 19.2338 115.995 19.0403 116.511 18.6533C117.027 18.257 117.419 17.7179 117.686 17.036C117.962 16.3541 118.1 15.5801 118.1 14.7139C118.1 13.8292 117.962 13.0506 117.686 12.3779C117.419 11.6959 117.027 11.1615 116.511 10.7745C115.995 10.3874 115.373 10.1939 114.645 10.1939C113.88 10.1939 113.226 10.3782 112.682 10.7468C112.138 11.1062 111.719 11.6222 111.424 12.2949C111.129 12.9676 110.982 13.7739 110.982 14.7139C110.982 15.6722 111.129 16.4877 111.424 17.1604C111.719 17.8331 112.138 18.3492 112.682 18.7086C113.226 19.0587 113.88 19.2338 114.645 19.2338Z" fill="#11075F"/>
<path d="M130.967 21.8324C129.493 21.8324 128.235 21.5099 127.194 20.8649C126.162 20.2198 125.369 19.3582 124.816 18.2801C124.273 17.2019 124.001 16.0132 124.001 14.7139C124.001 13.4145 124.273 12.2212 124.816 11.1338C125.369 10.0465 126.162 9.18026 127.194 8.53521C128.235 7.88095 129.493 7.55381 130.967 7.55381C132.432 7.55381 133.686 7.88095 134.727 8.53521C135.768 9.18026 136.561 10.0465 137.104 11.1338C137.657 12.2212 137.934 13.4145 137.934 14.7139C137.934 16.0132 137.657 17.2019 137.104 18.2801C136.561 19.3582 135.768 20.2198 134.727 20.8649C133.686 21.5099 132.432 21.8324 130.967 21.8324ZM130.967 19.2338C132.184 19.2338 133.119 18.8237 133.773 18.0036C134.437 17.1743 134.768 16.0777 134.768 14.7139C134.768 13.3316 134.437 12.2258 133.773 11.3965C133.119 10.5671 132.184 10.1524 130.967 10.1524C129.751 10.1524 128.811 10.5671 128.147 11.3965C127.484 12.2258 127.152 13.3316 127.152 14.7139C127.152 16.0777 127.484 17.1743 128.147 18.0036C128.811 18.8237 129.751 19.2338 130.967 19.2338Z" fill="#11075F"/>
<path d="M147.623 21.8324C146.149 21.8324 144.891 21.5099 143.85 20.8649C142.818 20.2198 142.025 19.3582 141.472 18.2801C140.929 17.2019 140.657 16.0132 140.657 14.7139C140.657 13.4145 140.929 12.2212 141.472 11.1338C142.025 10.0465 142.818 9.18026 143.85 8.53521C144.891 7.88095 146.149 7.55381 147.623 7.55381C149.089 7.55381 150.342 7.88095 151.383 8.53521C152.424 9.18026 153.217 10.0465 153.76 11.1338C154.313 12.2212 154.59 13.4145 154.59 14.7139C154.59 16.0132 154.313 17.2019 153.76 18.2801C153.217 19.3582 152.424 20.2198 151.383 20.8649C150.342 21.5099 149.089 21.8324 147.623 21.8324ZM147.623 19.2338C148.84 19.2338 149.775 18.8237 150.429 18.0036C151.093 17.1743 151.424 16.0777 151.424 14.7139C151.424 13.3316 151.093 12.2258 150.429 11.3965C149.775 10.5671 148.84 10.1524 147.623 10.1524C146.407 10.1524 145.467 10.5671 144.804 11.3965C144.14 12.2258 143.808 13.3316 143.808 14.7139C143.808 16.0777 144.14 17.1743 144.804 18.0036C145.467 18.8237 146.407 19.2338 147.623 19.2338Z" fill="#11075F"/>
<path d="M158.101 21.556V0.822266H161.183V13.6633L165.731 7.83026H169.297L164.127 14.3545L169.421 21.556H165.841L161.183 15.1424V21.556H158.101Z" fill="#11075F"/>
</g>
</svg>
