<svg width="122" height="20" viewBox="0 0 122 20" fill="none" xmlns="http://www.w3.org/2000/svg">
<g id="expensebook">
<path d="M5.38 15.2C4.19333 15.2 3.2 14.96 2.4 14.48C1.60667 14 1.00667 13.3667 0.6 12.58C0.2 11.7867 0 10.9167 0 9.97C0 9.05667 0.186667 8.21667 0.56 7.45C0.94 6.67667 1.49 6.06 2.21 5.6C2.93667 5.13333 3.81667 4.9 4.85 4.9C5.75667 4.9 6.53 5.08333 7.17 5.45C7.81 5.81667 8.29667 6.32333 8.63 6.97C8.97 7.61 9.14 8.34333 9.14 9.17C9.14 9.35667 9.12667 9.55333 9.1 9.76C9.08 9.96 9.05 10.1667 9.01 10.38H2.31C2.40333 11.1067 2.60667 11.6833 2.92 12.11C3.23333 12.5367 3.62333 12.8467 4.09 13.04C4.55667 13.2267 5.06 13.32 5.6 13.32C6.13333 13.32 6.64667 13.2567 7.14 13.13C7.64 12.9967 8.10333 12.8167 8.53 12.59L8.7 14.44C8.32 14.6267 7.85 14.8 7.29 14.96C6.73 15.12 6.09333 15.2 5.38 15.2ZM2.41 8.86H6.86C6.86 8.5 6.79 8.16333 6.65 7.85C6.51667 7.53 6.3 7.27333 6 7.08C5.70667 6.88 5.32 6.78 4.84 6.78C4.14 6.78 3.59333 6.97 3.2 7.35C2.81333 7.73 2.55 8.23333 2.41 8.86Z" fill="#11075F"/>
<path d="M10.6253 15L13.9753 10.04L10.6553 5.07H13.2653L15.3253 8.33L17.2153 5.07H19.8653L16.5753 9.99L19.9053 15H17.2853L15.2253 11.75L13.2453 15H10.6253Z" fill="#11075F"/>
<path d="M22.1023 19.84V5.07H23.8823L24.3123 6.94L23.6523 6.65C24.099 6.11667 24.6023 5.69333 25.1623 5.38C25.729 5.06 26.419 4.9 27.2323 4.9C28.1857 4.9 28.989 5.13333 29.6423 5.6C30.3023 6.06667 30.8023 6.69 31.1423 7.47C31.4823 8.25 31.6523 9.11 31.6523 10.05C31.6523 10.99 31.4857 11.85 31.1523 12.63C30.819 13.41 30.3257 14.0333 29.6723 14.5C29.019 14.9667 28.2057 15.2 27.2323 15.2C26.4523 15.2 25.7923 15.0733 25.2523 14.82C24.719 14.5667 24.2423 14.1733 23.8223 13.64L24.3323 13.19V19.84H22.1023ZM26.8723 13.32C27.659 13.32 28.2723 13.0233 28.7123 12.43C29.1523 11.83 29.3723 11.0367 29.3723 10.05C29.3723 9.05667 29.1523 8.26333 28.7123 7.67C28.2723 7.07667 27.659 6.78 26.8723 6.78C26.3123 6.78 25.8323 6.91333 25.4323 7.18C25.039 7.44 24.739 7.81333 24.5323 8.3C24.3257 8.78667 24.2223 9.37 24.2223 10.05C24.2223 10.7433 24.3257 11.3333 24.5323 11.82C24.739 12.3067 25.039 12.68 25.4323 12.94C25.8323 13.1933 26.3123 13.32 26.8723 13.32Z" fill="#11075F"/>
<path d="M39.0105 15.2C37.8238 15.2 36.8305 14.96 36.0305 14.48C35.2371 14 34.6371 13.3667 34.2305 12.58C33.8305 11.7867 33.6305 10.9167 33.6305 9.97C33.6305 9.05667 33.8171 8.21667 34.1905 7.45C34.5705 6.67667 35.1205 6.06 35.8405 5.6C36.5671 5.13333 37.4471 4.9 38.4805 4.9C39.3871 4.9 40.1605 5.08333 40.8005 5.45C41.4405 5.81667 41.9271 6.32333 42.2605 6.97C42.6005 7.61 42.7705 8.34333 42.7705 9.17C42.7705 9.35667 42.7571 9.55333 42.7305 9.76C42.7105 9.96 42.6805 10.1667 42.6405 10.38H35.9405C36.0338 11.1067 36.2371 11.6833 36.5505 12.11C36.8638 12.5367 37.2538 12.8467 37.7205 13.04C38.1871 13.2267 38.6905 13.32 39.2305 13.32C39.7638 13.32 40.2771 13.2567 40.7705 13.13C41.2705 12.9967 41.7338 12.8167 42.1605 12.59L42.3305 14.44C41.9505 14.6267 41.4805 14.8 40.9205 14.96C40.3605 15.12 39.7238 15.2 39.0105 15.2ZM36.0405 8.86H40.4905C40.4905 8.5 40.4205 8.16333 40.2805 7.85C40.1471 7.53 39.9305 7.27333 39.6305 7.08C39.3371 6.88 38.9505 6.78 38.4705 6.78C37.7705 6.78 37.2238 6.97 36.8305 7.35C36.4438 7.73 36.1805 8.23333 36.0405 8.86Z" fill="#11075F"/>
<path d="M45.3039 15V5.07H47.2939L47.4839 6.94L46.8639 6.35C47.3439 5.87667 47.8639 5.51667 48.4239 5.27C48.9906 5.02333 49.6072 4.9 50.2739 4.9C51.6072 4.9 52.5839 5.32 53.2039 6.16C53.8239 7 54.1339 8.11 54.1339 9.49V15H51.9039V9.61C51.9039 8.63667 51.7339 7.92333 51.3939 7.47C51.0539 7.01 50.4939 6.78 49.7139 6.78C49.1072 6.78 48.5906 6.92 48.1639 7.2C47.7372 7.48 47.4039 7.88333 47.1639 8.41L47.5339 7.23V15H45.3039Z" fill="#11075F"/>
<path d="M60.0177 15.2C59.2843 15.2 58.6443 15.1233 58.0977 14.97C57.551 14.81 57.0677 14.6267 56.6477 14.42L56.8677 12.43C57.2677 12.69 57.7243 12.9233 58.2377 13.13C58.751 13.33 59.3177 13.43 59.9377 13.43C60.4843 13.43 60.901 13.3433 61.1877 13.17C61.4743 12.99 61.6177 12.7167 61.6177 12.35C61.6177 12.0633 61.5343 11.83 61.3677 11.65C61.201 11.4633 60.9743 11.3067 60.6877 11.18C60.4077 11.0467 60.091 10.92 59.7377 10.8C59.1843 10.6133 58.6843 10.4033 58.2377 10.17C57.791 9.93 57.4343 9.62333 57.1677 9.25C56.9077 8.87667 56.7777 8.39333 56.7777 7.8C56.7777 7.25333 56.9177 6.76 57.1977 6.32C57.4777 5.87333 57.891 5.52 58.4377 5.26C58.9843 5 59.6643 4.87 60.4777 4.87C61.1177 4.87 61.671 4.94 62.1377 5.08C62.611 5.22 63.0377 5.39333 63.4177 5.6L63.1977 7.55C62.8043 7.26333 62.3943 7.02667 61.9677 6.84C61.541 6.64667 61.0577 6.55 60.5177 6.55C60.0377 6.55 59.6577 6.64333 59.3777 6.83C59.1043 7.01667 58.9677 7.29333 58.9677 7.66C58.9677 8.07333 59.141 8.37667 59.4877 8.57C59.8343 8.76334 60.3743 8.99333 61.1077 9.26C61.4943 9.4 61.8543 9.55333 62.1877 9.72C62.521 9.88667 62.8143 10.0833 63.0677 10.31C63.321 10.5367 63.5177 10.8067 63.6577 11.12C63.7977 11.4333 63.8677 11.8067 63.8677 12.24C63.8677 12.8 63.7343 13.3033 63.4677 13.75C63.201 14.1967 62.7843 14.55 62.2177 14.81C61.651 15.07 60.9177 15.2 60.0177 15.2Z" fill="#11075F"/>
<path d="M71.1761 15.2C69.9894 15.2 68.9961 14.96 68.1961 14.48C67.4028 14 66.8028 13.3667 66.3961 12.58C65.9961 11.7867 65.7961 10.9167 65.7961 9.97C65.7961 9.05667 65.9828 8.21667 66.3561 7.45C66.7361 6.67667 67.2861 6.06 68.0061 5.6C68.7328 5.13333 69.6128 4.9 70.6461 4.9C71.5528 4.9 72.3261 5.08333 72.9661 5.45C73.6061 5.81667 74.0928 6.32333 74.4261 6.97C74.7661 7.61 74.9361 8.34333 74.9361 9.17C74.9361 9.35667 74.9228 9.55333 74.8961 9.76C74.8761 9.96 74.8461 10.1667 74.8061 10.38H68.1061C68.1994 11.1067 68.4028 11.6833 68.7161 12.11C69.0294 12.5367 69.4194 12.8467 69.8861 13.04C70.3528 13.2267 70.8561 13.32 71.3961 13.32C71.9294 13.32 72.4428 13.2567 72.9361 13.13C73.4361 12.9967 73.8994 12.8167 74.3261 12.59L74.4961 14.44C74.1161 14.6267 73.6461 14.8 73.0861 14.96C72.5261 15.12 71.8894 15.2 71.1761 15.2ZM68.2061 8.86H72.6561C72.6561 8.5 72.5861 8.16333 72.4461 7.85C72.3128 7.53 72.0961 7.27333 71.7961 7.08C71.5028 6.88 71.1161 6.78 70.6361 6.78C69.9361 6.78 69.3894 6.97 68.9961 7.35C68.6094 7.73 68.3461 8.23333 68.2061 8.86Z" fill="#11075F"/>
<path d="M82.5295 15.2C81.7962 15.2 81.1362 15.0633 80.5495 14.79C79.9695 14.51 79.4795 14.1167 79.0795 13.61L79.7095 13.16L79.5095 15H77.4495V0H79.6795V6.83L79.1595 6.48C79.5662 6 80.0529 5.61667 80.6195 5.33C81.1929 5.04333 81.8295 4.9 82.5295 4.9C83.4895 4.9 84.2995 5.13667 84.9595 5.61C85.6262 6.08333 86.1329 6.71333 86.4795 7.5C86.8262 8.28 86.9995 9.13 86.9995 10.05C86.9995 10.99 86.8195 11.85 86.4595 12.63C86.0995 13.41 85.5862 14.0333 84.9195 14.5C84.2529 14.9667 83.4562 15.2 82.5295 15.2ZM82.2195 13.32C82.7462 13.32 83.1962 13.18 83.5695 12.9C83.9429 12.6133 84.2262 12.2233 84.4195 11.73C84.6195 11.2367 84.7195 10.6767 84.7195 10.05C84.7195 9.41 84.6195 8.84667 84.4195 8.36C84.2262 7.86667 83.9429 7.48 83.5695 7.2C83.1962 6.92 82.7462 6.78 82.2195 6.78C81.6662 6.78 81.1929 6.91333 80.7995 7.18C80.4062 7.44 80.1029 7.81333 79.8895 8.3C79.6762 8.78667 79.5695 9.37 79.5695 10.05C79.5695 10.7433 79.6762 11.3333 79.8895 11.82C80.1029 12.3067 80.4062 12.68 80.7995 12.94C81.1929 13.1933 81.6662 13.32 82.2195 13.32Z" fill="#11075F"/>
<path d="M94.0281 15.2C92.9615 15.2 92.0515 14.9667 91.2981 14.5C90.5515 14.0333 89.9781 13.41 89.5781 12.63C89.1848 11.85 88.9881 10.99 88.9881 10.05C88.9881 9.11 89.1848 8.24667 89.5781 7.46C89.9781 6.67333 90.5515 6.04667 91.2981 5.58C92.0515 5.10667 92.9615 4.87 94.0281 4.87C95.0881 4.87 95.9948 5.10667 96.7481 5.58C97.5015 6.04667 98.0748 6.67333 98.4681 7.46C98.8681 8.24667 99.0681 9.11 99.0681 10.05C99.0681 10.99 98.8681 11.85 98.4681 12.63C98.0748 13.41 97.5015 14.0333 96.7481 14.5C95.9948 14.9667 95.0881 15.2 94.0281 15.2ZM94.0281 13.32C94.9081 13.32 95.5848 13.0233 96.0581 12.43C96.5381 11.83 96.7781 11.0367 96.7781 10.05C96.7781 9.05 96.5381 8.25 96.0581 7.65C95.5848 7.05 94.9081 6.75 94.0281 6.75C93.1481 6.75 92.4681 7.05 91.9881 7.65C91.5081 8.25 91.2681 9.05 91.2681 10.05C91.2681 11.0367 91.5081 11.83 91.9881 12.43C92.4681 13.0233 93.1481 13.32 94.0281 13.32Z" fill="#11075F"/>
<path d="M106.078 15.2C105.011 15.2 104.101 14.9667 103.348 14.5C102.601 14.0333 102.028 13.41 101.628 12.63C101.235 11.85 101.038 10.99 101.038 10.05C101.038 9.11 101.235 8.24667 101.628 7.46C102.028 6.67333 102.601 6.04667 103.348 5.58C104.101 5.10667 105.011 4.87 106.078 4.87C107.138 4.87 108.045 5.10667 108.798 5.58C109.551 6.04667 110.125 6.67333 110.518 7.46C110.918 8.24667 111.118 9.11 111.118 10.05C111.118 10.99 110.918 11.85 110.518 12.63C110.125 13.41 109.551 14.0333 108.798 14.5C108.045 14.9667 107.138 15.2 106.078 15.2ZM106.078 13.32C106.958 13.32 107.635 13.0233 108.108 12.43C108.588 11.83 108.828 11.0367 108.828 10.05C108.828 9.05 108.588 8.25 108.108 7.65C107.635 7.05 106.958 6.75 106.078 6.75C105.198 6.75 104.518 7.05 104.038 7.65C103.558 8.25 103.318 9.05 103.318 10.05C103.318 11.0367 103.558 11.83 104.038 12.43C104.518 13.0233 105.198 13.32 106.078 13.32Z" fill="#11075F"/>
<path d="M113.658 15V0H115.888V9.29L119.178 5.07H121.758L118.018 9.79L121.848 15H119.258L115.888 10.36V15H113.658Z" fill="#11075F"/>
</g>
</svg>
