<svg width="108" height="19" viewBox="0 0 108 19" fill="none" xmlns="http://www.w3.org/2000/svg">
<g id="expensebook">
<path d="M5.59186 14.05C4.54844 14.05 3.67503 13.84 2.9716 13.42C2.27404 13 1.74647 12.4458 1.3889 11.7575C1.03718 11.0633 0.861328 10.3021 0.861328 9.47375C0.861328 8.67458 1.02546 7.93958 1.35373 7.26875C1.68785 6.59208 2.17146 6.0525 2.80454 5.65C3.44348 5.24167 4.21725 5.0375 5.12584 5.0375C5.92305 5.0375 6.60303 5.19792 7.16577 5.51875C7.72851 5.83958 8.15643 6.28292 8.44952 6.84875C8.74848 7.40875 8.89795 8.05042 8.89795 8.77375C8.89795 8.93708 8.88623 9.10917 8.86278 9.29C8.8452 9.465 8.81882 9.64583 8.78365 9.8325H2.89247C2.97453 10.4683 3.15332 10.9729 3.42883 11.3463C3.70434 11.7196 4.04726 11.9908 4.45759 12.16C4.86792 12.3233 5.31049 12.405 5.7853 12.405C6.25425 12.405 6.70561 12.3496 7.13939 12.2388C7.57903 12.1221 7.98643 11.9646 8.36159 11.7663L8.51107 13.385C8.17694 13.5483 7.76368 13.7 7.27128 13.84C6.77889 13.98 6.21908 14.05 5.59186 14.05ZM2.98039 8.5025H6.89319C6.89319 8.1875 6.83164 7.89292 6.70854 7.61875C6.59131 7.33875 6.4008 7.11417 6.13701 6.945C5.87909 6.77 5.5391 6.6825 5.11705 6.6825C4.50155 6.6825 4.02088 6.84875 3.67503 7.18125C3.33504 7.51375 3.10349 7.95417 2.98039 8.5025Z" fill="#222222"/>
<path d="M10.204 13.875L13.1496 9.535L10.2303 5.18625H12.5253L14.3366 8.03875L15.9984 5.18625H18.3285L15.4357 9.49125L18.3637 13.875H16.06L14.2487 11.0312L12.5077 13.875H10.204Z" fill="#222222"/>
<path d="M20.2955 18.11V5.18625H21.8606L22.2387 6.8225L21.6584 6.56875C22.0511 6.10208 22.4937 5.73167 22.9861 5.4575C23.4843 5.1775 24.0911 5.0375 24.8062 5.0375C25.6444 5.0375 26.3508 5.24167 26.9253 5.65C27.5056 6.05833 27.9452 6.60375 28.2442 7.28625C28.5431 7.96875 28.6926 8.72125 28.6926 9.54375C28.6926 10.3663 28.5461 11.1188 28.253 11.8013C27.9599 12.4838 27.5261 13.0292 26.9516 13.4375C26.3772 13.8458 25.662 14.05 24.8062 14.05C24.1204 14.05 23.54 13.9392 23.0652 13.7175C22.5963 13.4958 22.1772 13.1517 21.8079 12.685L22.2563 12.2913V18.11H20.2955ZM24.4897 12.405C25.1814 12.405 25.7207 12.1454 26.1075 11.6263C26.4944 11.1013 26.6879 10.4071 26.6879 9.54375C26.6879 8.67458 26.4944 7.98042 26.1075 7.46125C25.7207 6.94208 25.1814 6.6825 24.4897 6.6825C23.9973 6.6825 23.5752 6.79917 23.2235 7.0325C22.8776 7.26 22.6139 7.58667 22.4321 8.0125C22.2504 8.43833 22.1596 8.94875 22.1596 9.54375C22.1596 10.1504 22.2504 10.6667 22.4321 11.0925C22.6139 11.5183 22.8776 11.845 23.2235 12.0725C23.5752 12.2942 23.9973 12.405 24.4897 12.405Z" fill="#222222"/>
<path d="M35.1625 14.05C34.1191 14.05 33.2456 13.84 32.5422 13.42C31.8447 13 31.3171 12.4458 30.9595 11.7575C30.6078 11.0633 30.4319 10.3021 30.4319 9.47375C30.4319 8.67458 30.5961 7.93958 30.9243 7.26875C31.2585 6.59208 31.7421 6.0525 32.3752 5.65C33.0141 5.24167 33.7879 5.0375 34.6965 5.0375C35.4937 5.0375 36.1737 5.19792 36.7364 5.51875C37.2991 5.83958 37.727 6.28292 38.0201 6.84875C38.3191 7.40875 38.4686 8.05042 38.4686 8.77375C38.4686 8.93708 38.4569 9.10917 38.4334 9.29C38.4158 9.465 38.3894 9.64583 38.3543 9.8325H32.4631C32.5452 10.4683 32.7239 10.9729 32.9995 11.3463C33.275 11.7196 33.6179 11.9908 34.0282 12.16C34.4385 12.3233 34.8811 12.405 35.3559 12.405C35.8249 12.405 36.2762 12.3496 36.71 12.2388C37.1497 12.1221 37.5571 11.9646 37.9322 11.7663L38.0817 13.385C37.7476 13.5483 37.3343 13.7 36.8419 13.84C36.3495 13.98 35.7897 14.05 35.1625 14.05ZM32.551 8.5025H36.4638C36.4638 8.1875 36.4023 7.89292 36.2792 7.61875C36.1619 7.33875 35.9714 7.11417 35.7076 6.945C35.4497 6.77 35.1097 6.6825 34.6877 6.6825C34.0722 6.6825 33.5915 6.84875 33.2456 7.18125C32.9057 7.51375 32.6741 7.95417 32.551 8.5025Z" fill="#222222"/>
<path d="M40.6962 13.875V5.18625H42.4459L42.613 6.8225L42.0679 6.30625C42.4899 5.89208 42.9471 5.57708 43.4395 5.36125C43.9378 5.14542 44.48 5.0375 45.0662 5.0375C46.2386 5.0375 47.0973 5.405 47.6425 6.14C48.1876 6.875 48.4602 7.84625 48.4602 9.05375V13.875H46.4994V9.15875C46.4994 8.30708 46.35 7.68292 46.051 7.28625C45.752 6.88375 45.2596 6.6825 44.5738 6.6825C44.0404 6.6825 43.5861 6.805 43.2109 7.05C42.8358 7.295 42.5427 7.64792 42.3316 8.10875L42.657 7.07625V13.875H40.6962Z" fill="#222222"/>
<path d="M53.6337 14.05C52.9889 14.05 52.4261 13.9829 51.9455 13.8488C51.4648 13.7087 51.0398 13.5483 50.6705 13.3675L50.864 11.6263C51.2157 11.8538 51.6172 12.0579 52.0686 12.2388C52.5199 12.4137 53.0182 12.5013 53.5633 12.5013C54.044 12.5013 54.4104 12.4254 54.6624 12.2738C54.9145 12.1163 55.0405 11.8771 55.0405 11.5563C55.0405 11.3054 54.9673 11.1013 54.8207 10.9438C54.6742 10.7804 54.4749 10.6433 54.2228 10.5325C53.9766 10.4158 53.6982 10.305 53.3875 10.2C52.901 10.0367 52.4613 9.85292 52.0686 9.64875C51.6758 9.43875 51.3622 9.17042 51.1277 8.84375C50.8991 8.51708 50.7848 8.09417 50.7848 7.575C50.7848 7.09667 50.9079 6.665 51.1541 6.28C51.4003 5.88917 51.7638 5.58 52.2444 5.3525C52.7251 5.125 53.323 5.01125 54.0382 5.01125C54.6009 5.01125 55.0874 5.0725 55.4978 5.195C55.914 5.3175 56.2891 5.46917 56.6232 5.65L56.4298 7.35625C56.084 7.10542 55.7234 6.89833 55.3483 6.735C54.9731 6.56583 54.5481 6.48125 54.0733 6.48125C53.6513 6.48125 53.3172 6.56292 53.0709 6.72625C52.8306 6.88958 52.7104 7.13167 52.7104 7.4525C52.7104 7.81417 52.8629 8.07958 53.1677 8.24875C53.4725 8.41792 53.9473 8.61917 54.5921 8.8525C54.9321 8.975 55.2486 9.10917 55.5417 9.255C55.8348 9.40083 56.0927 9.57292 56.3155 9.77125C56.5382 9.96958 56.7112 10.2058 56.8343 10.48C56.9574 10.7542 57.0189 11.0808 57.0189 11.46C57.0189 11.95 56.9017 12.3904 56.6672 12.7812C56.4327 13.1721 56.0664 13.4813 55.5681 13.7088C55.0698 13.9363 54.425 14.05 53.6337 14.05Z" fill="#222222"/>
<path d="M63.4451 14.05C62.4017 14.05 61.5283 13.84 60.8248 13.42C60.1273 13 59.5997 12.4458 59.2421 11.7575C58.8904 11.0633 58.7146 10.3021 58.7146 9.47375C58.7146 8.67458 58.8787 7.93958 59.207 7.26875C59.5411 6.59208 60.0247 6.0525 60.6578 5.65C61.2967 5.24167 62.0705 5.0375 62.9791 5.0375C63.7763 5.0375 64.4563 5.19792 65.019 5.51875C65.5817 5.83958 66.0097 6.28292 66.3027 6.84875C66.6017 7.40875 66.7512 8.05042 66.7512 8.77375C66.7512 8.93708 66.7395 9.10917 66.716 9.29C66.6984 9.465 66.6721 9.64583 66.6369 9.8325H60.7457C60.8278 10.4683 61.0065 10.9729 61.2821 11.3463C61.5576 11.7196 61.9005 11.9908 62.3108 12.16C62.7211 12.3233 63.1637 12.405 63.6385 12.405C64.1075 12.405 64.5588 12.3496 64.9926 12.2388C65.4323 12.1221 65.8397 11.9646 66.2148 11.7663L66.3643 13.385C66.0302 13.5483 65.6169 13.7 65.1245 13.84C64.6321 13.98 64.0723 14.05 63.4451 14.05ZM60.8336 8.5025H64.7464C64.7464 8.1875 64.6849 7.89292 64.5618 7.61875C64.4445 7.33875 64.254 7.11417 63.9902 6.945C63.7323 6.77 63.3923 6.6825 62.9703 6.6825C62.3548 6.6825 61.8741 6.84875 61.5283 7.18125C61.1883 7.51375 60.9567 7.95417 60.8336 8.5025Z" fill="#222222"/>
<path d="M73.4279 14.05C72.7831 14.05 72.2028 13.9304 71.687 13.6912C71.177 13.4462 70.7461 13.1021 70.3944 12.6587L70.9484 12.265L70.7725 13.875H68.9612V0.75H70.922V6.72625L70.4648 6.42C70.8223 6 71.2503 5.66458 71.7485 5.41375C72.2526 5.16292 72.8125 5.0375 73.4279 5.0375C74.2721 5.0375 74.9843 5.24458 75.5646 5.65875C76.1508 6.07292 76.5963 6.62417 76.9011 7.3125C77.2059 7.995 77.3583 8.73875 77.3583 9.54375C77.3583 10.3663 77.2001 11.1188 76.8835 11.8013C76.567 12.4838 76.1156 13.0292 75.5294 13.4375C74.9432 13.8458 74.2427 14.05 73.4279 14.05ZM73.1554 12.405C73.6185 12.405 74.0141 12.2825 74.3424 12.0375C74.6707 11.7867 74.9198 11.4454 75.0898 11.0138C75.2656 10.5821 75.3536 10.0921 75.3536 9.54375C75.3536 8.98375 75.2656 8.49083 75.0898 8.065C74.9198 7.63333 74.6707 7.295 74.3424 7.05C74.0141 6.805 73.6185 6.6825 73.1554 6.6825C72.6688 6.6825 72.2526 6.79917 71.9068 7.0325C71.5609 7.26 71.2942 7.58667 71.1066 8.0125C70.9191 8.43833 70.8253 8.94875 70.8253 9.54375C70.8253 10.1504 70.9191 10.6667 71.1066 11.0925C71.2942 11.5183 71.5609 11.845 71.9068 12.0725C72.2526 12.2942 72.6688 12.405 73.1554 12.405Z" fill="#222222"/>
<path d="M83.5384 14.05C82.6005 14.05 81.8004 13.8458 81.138 13.4375C80.4815 13.0292 79.9773 12.4838 79.6256 11.8013C79.2798 11.1188 79.1069 10.3663 79.1069 9.54375C79.1069 8.72125 79.2798 7.96583 79.6256 7.2775C79.9773 6.58917 80.4815 6.04083 81.138 5.6325C81.8004 5.21833 82.6005 5.01125 83.5384 5.01125C84.4705 5.01125 85.2677 5.21833 85.9301 5.6325C86.5925 6.04083 87.0966 6.58917 87.4424 7.2775C87.7942 7.96583 87.97 8.72125 87.97 9.54375C87.97 10.3663 87.7942 11.1188 87.4424 11.8013C87.0966 12.4838 86.5925 13.0292 85.9301 13.4375C85.2677 13.8458 84.4705 14.05 83.5384 14.05ZM83.5384 12.405C84.3122 12.405 84.9072 12.1454 85.3234 11.6263C85.7454 11.1013 85.9565 10.4071 85.9565 9.54375C85.9565 8.66875 85.7454 7.96875 85.3234 7.44375C84.9072 6.91875 84.3122 6.65625 83.5384 6.65625C82.7647 6.65625 82.1668 6.91875 81.7447 7.44375C81.3227 7.96875 81.1116 8.66875 81.1116 9.54375C81.1116 10.4071 81.3227 11.1013 81.7447 11.6263C82.1668 12.1454 82.7647 12.405 83.5384 12.405Z" fill="#222222"/>
<path d="M94.1338 14.05C93.1959 14.05 92.3957 13.8458 91.7333 13.4375C91.0768 13.0292 90.5727 12.4838 90.221 11.8013C89.8751 11.1188 89.7022 10.3663 89.7022 9.54375C89.7022 8.72125 89.8751 7.96583 90.221 7.2775C90.5727 6.58917 91.0768 6.04083 91.7333 5.6325C92.3957 5.21833 93.1959 5.01125 94.1338 5.01125C95.0658 5.01125 95.863 5.21833 96.5254 5.6325C97.1878 6.04083 97.6919 6.58917 98.0378 7.2775C98.3895 7.96583 98.5653 8.72125 98.5653 9.54375C98.5653 10.3663 98.3895 11.1188 98.0378 11.8013C97.6919 12.4838 97.1878 13.0292 96.5254 13.4375C95.863 13.8458 95.0658 14.05 94.1338 14.05ZM94.1338 12.405C94.9075 12.405 95.5025 12.1454 95.9187 11.6263C96.3408 11.1013 96.5518 10.4071 96.5518 9.54375C96.5518 8.66875 96.3408 7.96875 95.9187 7.44375C95.5025 6.91875 94.9075 6.65625 94.1338 6.65625C93.36 6.65625 92.7621 6.91875 92.34 7.44375C91.918 7.96875 91.707 8.66875 91.707 9.54375C91.707 10.4071 91.918 11.1013 92.34 11.6263C92.7621 12.1454 93.36 12.405 94.1338 12.405Z" fill="#222222"/>
<path d="M100.799 13.875V0.75H102.76V8.87875L105.652 5.18625H107.921L104.632 9.31625L108 13.875H105.723L102.76 9.815V13.875H100.799Z" fill="#222222"/>
</g>
</svg>
