<svg xmlns="http://www.w3.org/2000/svg" viewBox="0 0 500 500"><g id="freepik--background-complete--inject-22"><rect x="63.73" y="342.93" width="26.48" height="11.19" style="fill:#ebebeb"></rect><rect x="48.96" y="357.04" width="26.48" height="11.19" style="fill:#ebebeb"></rect><rect x="78.5" y="357.04" width="26.48" height="11.19" style="fill:#ebebeb"></rect><rect x="409.79" y="43.84" width="26.48" height="11.19" style="fill:#ebebeb"></rect><rect x="424.56" y="57.95" width="26.48" height="11.19" style="fill:#ebebeb"></rect><rect x="48.96" y="43.86" width="26.48" height="11.19" style="fill:#ebebeb"></rect><rect x="424.56" y="342.85" width="26.48" height="11.19" transform="translate(875.61 696.88) rotate(180)" style="fill:#ebebeb"></rect><rect x="361.34" y="213.9" width="26.48" height="11.19" transform="translate(749.16 439) rotate(180)" style="fill:#ebebeb"></rect><rect x="376.11" y="199.79" width="26.48" height="11.19" transform="translate(778.7 410.78) rotate(180)" style="fill:#ebebeb"></rect><rect x="92.18" width="1" height="107.01" style="fill:#c7c7c7"></rect><polygon points="129.84 142.83 126.85 149.4 58.5 149.4 55.52 142.83 84.62 122.69 100.74 122.69 129.84 142.83" style="fill:#ebebeb"></polygon><polygon points="102.76 103.29 100.74 122.69 84.62 122.69 82.6 103.29 102.76 103.29" style="fill:#dbdbdb"></polygon><polygon points="129.83 142.84 126.84 149.41 58.49 149.41 55.52 142.84 129.83 142.84" style="fill:#dbdbdb"></polygon><rect x="163.3" width="1" height="85.82" style="fill:#c7c7c7"></rect><polygon points="200.96 121.64 197.97 128.21 129.62 128.21 126.64 121.64 155.74 101.5 171.86 101.5 200.96 121.64" style="fill:#ebebeb"></polygon><polygon points="173.88 82.09 171.86 101.5 155.74 101.5 153.72 82.09 173.88 82.09" style="fill:#dbdbdb"></polygon><polygon points="200.96 121.64 197.97 128.21 129.62 128.21 126.64 121.64 200.96 121.64" style="fill:#dbdbdb"></polygon></g><g id="freepik--Shadow--inject-22"><path d="M448.31,431.08c0,13.14-88.78,23.78-198.31,23.78S51.69,444.22,51.69,431.08,140.47,407.3,250,407.3,448.31,417.94,448.31,431.08Z" style="fill:#ebebeb"></path></g><g id="freepik--Floor--inject-22"><polygon points="46.98 397.44 97.74 397.2 148.49 397.11 250 396.95 351.51 397.11 402.26 397.2 453.01 397.44 402.26 397.69 351.51 397.78 250 397.94 148.49 397.78 97.74 397.69 46.98 397.44" style="fill:#263238"></polygon></g><g id="freepik--Screen--inject-22"><path d="M385.23,74.3V398.36c0,9.16-6.86,16.57-15.32,16.57H218.67c-8.48,0-15.34-7.41-15.34-16.57V74.3c0-18.66,6.86-19.57,15.34-19.57H249c1.76,0,3.2,2,3.2,4.48v1.07c0,5.81,3.18,5.83,7.08,5.83h70.06c3.94,0,7.1,0,7.1-5.83V59.21c0-2.48,1.42-4.48,3.21-4.48h30.29C378.37,54.73,385.23,57.21,385.23,74.3Z" style="fill:#fff"></path><path d="M385.23,74.3V398.36c0,9.16-6.86,16.57-15.32,16.57H218.67c-8.48,0-15.34-7.41-15.34-16.57V74.3c0-18.66,6.86-19.57,15.34-19.57H249c1.76,0,3.2,2,3.2,4.48v1.07c0,5.81,3.18,5.83,7.08,5.83h70.06c3.94,0,7.1,0,7.1-5.83V59.21c0-2.48,1.42-4.48,3.21-4.48h30.29C378.37,54.73,385.23,57.21,385.23,74.3Z" style="fill:#fff"></path><path d="M385.23,74.3l.25,268.6,0,33.57v21a23.28,23.28,0,0,1-.31,4.24,17.6,17.6,0,0,1-3.49,7.7,17.27,17.27,0,0,1-3.07,3,16.43,16.43,0,0,1-3.77,2,14.33,14.33,0,0,1-4.19.85c-1.43.09-2.81,0-4.21.05H349.7l-33.58,0-67.14.07H219.6a18.28,18.28,0,0,1-4.28-.38,15.2,15.2,0,0,1-7.43-4.2,17.32,17.32,0,0,1-4.33-7.36,18.56,18.56,0,0,1-.68-4.25c-.08-1.44,0-2.81,0-4.22v-8.39l.25-268.6,0-33.57V76a69.45,69.45,0,0,1,.38-8.4l.32-2.09.48-2.06c.2-.67.45-1.34.68-2a19.72,19.72,0,0,1,1-1.89,10,10,0,0,1,2.91-3.09,11.69,11.69,0,0,1,4-1.53,47.45,47.45,0,0,1,8.41-.4H248.5a3.65,3.65,0,0,1,1.08.08,2.85,2.85,0,0,1,1,.48A5.07,5.07,0,0,1,252.31,59a13.74,13.74,0,0,0,.37,4.12,3.7,3.7,0,0,0,1,1.71,4,4,0,0,0,1.78.91,18.46,18.46,0,0,0,4.15.27h12.59l33.57,0h16.79c2.8,0,5.6,0,8.39,0a6.12,6.12,0,0,0,3.9-1.13A3.83,3.83,0,0,0,336,63.16a7.86,7.86,0,0,0,.35-2c0-.69,0-1.39,0-2.09a5.89,5.89,0,0,1,.43-2.07,4.1,4.1,0,0,1,1.24-1.7,2.82,2.82,0,0,1,.94-.49,3.8,3.8,0,0,1,1.06-.08h8.39l16.79,0h4.2a30.89,30.89,0,0,1,4.19.23A11.71,11.71,0,0,1,381,58.42,15.58,15.58,0,0,1,384.5,66,45.8,45.8,0,0,1,385.23,74.3Zm0,0a45.82,45.82,0,0,0-.75-8.35A15.6,15.6,0,0,0,381,58.44,11.71,11.71,0,0,0,373.58,55a30.72,30.72,0,0,0-4.18-.21h-4.2l-16.79,0H340a3.92,3.92,0,0,0-1,.09,2.92,2.92,0,0,0-.91.47A4,4,0,0,0,336.89,57c-.58,1.29-.36,2.72-.45,4.12a8.25,8.25,0,0,1-.36,2.08A4,4,0,0,1,335,65a6.2,6.2,0,0,1-4,1.17c-2.81,0-5.6,0-8.4,0H305.8l-33.57,0H259.64a19.2,19.2,0,0,1-4.21-.28,4.33,4.33,0,0,1-1.92-1,4,4,0,0,1-1.11-1.83A14.6,14.6,0,0,1,252,59a4.77,4.77,0,0,0-1.62-3.59,2.93,2.93,0,0,0-.89-.43,4.07,4.07,0,0,0-1-.07H221.22a48.22,48.22,0,0,0-8.34.41,11.55,11.55,0,0,0-3.82,1.48,9.66,9.66,0,0,0-2.79,3c-.36.58-.62,1.23-.93,1.84s-.46,1.31-.65,2l-.48,2-.3,2.06a66.5,66.5,0,0,0-.37,8.35v8.4l0,33.57.25,268.6V395c0,1.39,0,2.82,0,4.18a17.74,17.74,0,0,0,.64,4,16.31,16.31,0,0,0,4.07,7,14.33,14.33,0,0,0,7,4,17.54,17.54,0,0,0,4.06.37H249l67.14.07,33.58,0h16.79c1.39,0,2.81,0,4.17,0a13.75,13.75,0,0,0,4-.81,15.11,15.11,0,0,0,3.62-1.91,16.59,16.59,0,0,0,2.95-2.85,17,17,0,0,0,3.39-7.42,23.64,23.64,0,0,0,.3-4.13v-4.19l0-16.79,0-33.57Z" style="fill:#263238"></path><path d="M385.23,74.3v38.85H203.33V74.3c0-18.66,6.86-19.57,15.34-19.57H249c1.76,0,3.2,2,3.2,4.48v1.07c0,5.81,3.18,5.83,7.08,5.83h70.06c3.94,0,7.1,0,7.1-5.83V59.21c0-2.48,1.42-4.48,3.21-4.48h30.29C378.37,54.73,385.23,57.21,385.23,74.3Z" style="fill:#4F46E5"></path><g id="freepik--u5Zjqx--inject-22"><path d="M243.74,62l-.3.29-.16.17a4,4,0,0,0-5.65,0l-.15-.17-.29-.29h0l0,0c.12-.11.24-.22.37-.32a4.54,4.54,0,0,1,2-.93c.19,0,.38,0,.57-.08h.49l.39,0a4.64,4.64,0,0,1,1,.25,4.47,4.47,0,0,1,.7.33,5.46,5.46,0,0,1,.68.47l.31.28Z" style="fill:#fff"></path><path d="M238.56,63.39l-.46-.46a3.32,3.32,0,0,1,4.71,0l-.46.46a2.68,2.68,0,0,0-3.79,0Z" style="fill:#fff"></path><path d="M241.89,63.85l-.46.46a1.35,1.35,0,0,0-1-.4,1.34,1.34,0,0,0-1,.4l-.46-.46A2,2,0,0,1,241.89,63.85Z" style="fill:#fff"></path><path d="M240.87,64.73a.41.41,0,0,1-.41.41.42.42,0,1,1,0-.83A.41.41,0,0,1,240.87,64.73Z" style="fill:#fff"></path></g><path d="M215.19,62.89a1.21,1.21,0,1,1,1.21,1.21A1.21,1.21,0,0,1,215.19,62.89Z" style="fill:#fff"></path><path d="M219,62.89a1.21,1.21,0,1,1,1.2,1.21A1.2,1.2,0,0,1,219,62.89Z" style="fill:#fff"></path><path d="M222.79,62.89A1.21,1.21,0,1,1,224,64.1,1.2,1.2,0,0,1,222.79,62.89Z" style="fill:#fff"></path><path d="M226.58,62.89a1.21,1.21,0,1,1,1.21,1.21A1.21,1.21,0,0,1,226.58,62.89Z" style="fill:#fff"></path><path d="M230.38,62.89a1.21,1.21,0,1,1,1.21,1.21A1.21,1.21,0,0,1,230.38,62.89Z" style="fill:#fff"></path><path d="M371.59,65.52h-9.82V61h9.82Zm-9.32-.5h8.82V61.48h-8.82Z" style="fill:#fff"></path><rect x="362.59" y="61.75" width="6.33" height="3" style="fill:#fff"></rect><rect x="371.59" y="62.04" width="0.87" height="2.43" style="fill:#fff"></rect><polygon points="219.91 102.47 214.54 97.44 219.91 92.41 220.74 93.29 216.32 97.44 220.74 101.59 219.91 102.47" style="fill:#fff"></polygon><path d="M270.52,98.13h-1.16v2.05a.53.53,0,0,1-1.05,0V94.61a.52.52,0,0,1,.52-.52h1.69a2,2,0,1,1,0,4Zm-1.16-1h1.16a1,1,0,1,0,0-1.94h-1.16Z" style="fill:#fff"></path><path d="M276.52,99.14h-2.29l-.46,1.23a.55.55,0,0,1-.49.33.48.48,0,0,1-.18,0,.53.53,0,0,1-.31-.68l2.08-5.56a.54.54,0,0,1,1,0L278,100a.53.53,0,0,1-.31.68.48.48,0,0,1-.18,0,.53.53,0,0,1-.48-.33Zm-.39-1-.76-2-.77,2Z" style="fill:#fff"></path><path d="M278.88,99.05a.5.5,0,0,1,.69-.06,3,3,0,0,0,1.8.72,2.11,2.11,0,0,0,1.18-.34.86.86,0,0,0,.4-.68.62.62,0,0,0-.08-.31,1,1,0,0,0-.29-.28,3.62,3.62,0,0,0-1.29-.44h0a5.36,5.36,0,0,1-1.21-.37,2,2,0,0,1-.88-.73,1.48,1.48,0,0,1-.22-.78,1.73,1.73,0,0,1,.76-1.37,2.79,2.79,0,0,1,1.63-.5,3.7,3.7,0,0,1,2,.75.49.49,0,0,1,.14.67.48.48,0,0,1-.67.14,2.75,2.75,0,0,0-1.52-.6,1.8,1.8,0,0,0-1.06.32.76.76,0,0,0-.36.59.45.45,0,0,0,.07.27.88.88,0,0,0,.26.24,3.25,3.25,0,0,0,1.17.42h0a5.22,5.22,0,0,1,1.3.39,2.24,2.24,0,0,1,.95.79,1.5,1.5,0,0,1,.22.8,1.83,1.83,0,0,1-.81,1.46,2.93,2.93,0,0,1-1.74.54,4.06,4.06,0,0,1-2.42-1A.51.51,0,0,1,278.88,99.05Z" style="fill:#fff"></path><path d="M285.08,99.05a.49.49,0,0,1,.68-.06,3.1,3.1,0,0,0,1.81.72,2.05,2.05,0,0,0,1.17-.34.85.85,0,0,0,.41-.68.54.54,0,0,0-.09-.31.92.92,0,0,0-.28-.28,3.62,3.62,0,0,0-1.29-.44h0a5.2,5.2,0,0,1-1.21-.37,2,2,0,0,1-.88-.73,1.48,1.48,0,0,1-.22-.78,1.73,1.73,0,0,1,.76-1.37,2.77,2.77,0,0,1,1.63-.5,3.7,3.7,0,0,1,2.05.75.49.49,0,0,1-.54.81,2.72,2.72,0,0,0-1.51-.6,1.8,1.8,0,0,0-1.06.32.76.76,0,0,0-.36.59.45.45,0,0,0,.07.27,1,1,0,0,0,.25.24,3.38,3.38,0,0,0,1.18.42h0a5.36,5.36,0,0,1,1.3.39,2.15,2.15,0,0,1,.94.79,1.42,1.42,0,0,1,.23.8,1.83,1.83,0,0,1-.81,1.46,2.93,2.93,0,0,1-1.74.54,4.06,4.06,0,0,1-2.42-1A.5.5,0,0,1,285.08,99.05Z" style="fill:#fff"></path><path d="M300,94.88l-2.31,5.49a.25.25,0,0,1,0,.09h0l-.05.06s0,0,0,0l-.07,0h0a.17.17,0,0,1-.08.06h0a0,0,0,0,0,0,0l-.07,0h-.23l-.07,0h0a.24.24,0,0,1-.08-.06h0l-.07,0s0,0,0,0l0-.06s0,0,0,0a.25.25,0,0,1,0-.09l-1.23-2.92-1.24,2.92,0,.09a0,0,0,0,0,0,0l-.05.06s0,0,0,0l-.06,0h0l-.07.06h0a0,0,0,0,0,0,0l-.08,0h-.23l-.07,0h0a.24.24,0,0,1-.08-.06h0s0,0-.07,0l0,0-.05-.06h0a.63.63,0,0,0,0-.09L291,94.88a.52.52,0,0,1,1-.4l1.85,4.37,1.22-2.9a.51.51,0,0,1,.49-.32A.55.55,0,0,1,296,96l1.21,2.9,1.84-4.37a.52.52,0,0,1,.69-.27A.5.5,0,0,1,300,94.88Z" style="fill:#fff"></path><path d="M306.61,94.91a3.48,3.48,0,0,1,0,4.78,3.11,3.11,0,0,1-2.25,1,3.18,3.18,0,0,1-2.31-1,3.51,3.51,0,0,1,0-4.78,3.13,3.13,0,0,1,2.31-1A3.06,3.06,0,0,1,306.61,94.91Zm-.12,2.39a2.49,2.49,0,0,0-.64-1.65,2,2,0,0,0-3,0,2.39,2.39,0,0,0-.64,1.65,2.33,2.33,0,0,0,.64,1.64,2,2,0,0,0,3,0A2.42,2.42,0,0,0,306.49,97.3Z" style="fill:#fff"></path><path d="M313.79,99.91a.52.52,0,0,1-.33.66.79.79,0,0,1-.21,0h0a.76.76,0,0,1-.37-.1,1.06,1.06,0,0,1-.3-.33,2.62,2.62,0,0,1-.19-1.13.77.77,0,0,0-.12-.41.81.81,0,0,0-.28-.27,1.63,1.63,0,0,0-.53-.23h-1.11v2.05a.53.53,0,0,1-.53.52.52.52,0,0,1-.52-.52V94.61a.52.52,0,0,1,.52-.52h1.69a2,2,0,0,1,1.28,3.58,1.38,1.38,0,0,1,.33.35,1.76,1.76,0,0,1,.31,1,2.18,2.18,0,0,0,0,.55A.52.52,0,0,1,313.79,99.91Zm-1.32-3.79a1,1,0,0,0-1-1h-1.16v1.94h1.16A1,1,0,0,0,312.47,96.12Z" style="fill:#fff"></path><path d="M315.32,100.18V94.61a.52.52,0,0,1,.52-.52H317a3.31,3.31,0,0,1,0,6.61h-1.11A.52.52,0,0,1,315.32,100.18Zm1.05-.53H317a2.26,2.26,0,0,0,0-4.51h-.58Z" style="fill:#fff"></path><path d="M228.71,271v-4.13a.38.38,0,0,1,.39-.39h2.29a.39.39,0,0,1,.38.39.4.4,0,0,1-.38.39h-1.9v1.28h1.63a.39.39,0,1,1,0,.78h-1.63v1.29h1.9a.39.39,0,0,1,0,.77H229.1A.38.38,0,0,1,228.71,271Z" style="fill:#263238"></path><path d="M235.72,269.37v1.68a.37.37,0,0,1-.38.37.38.38,0,0,1-.37-.37v-1.68a.73.73,0,0,0-.73-.7.71.71,0,0,0-.7.72v1.66a.43.43,0,0,1,0,.05v0l0,.05v0a.39.39,0,0,1-.35.22h-.07a.38.38,0,0,1-.3-.37v-1.66h0V268.3a.37.37,0,0,1,.37-.38.34.34,0,0,1,.33.21,1.54,1.54,0,0,1,.75-.21,1.41,1.41,0,0,1,1.1.49,1.42,1.42,0,0,1,1.1-.49,1.46,1.46,0,0,1,1.46,1.47v1.66a.37.37,0,0,1-.37.37.38.38,0,0,1-.38-.37v-1.66a.72.72,0,0,0-1.43,0Z" style="fill:#263238"></path><path d="M242.41,269.68v1.37a.37.37,0,0,1-.37.37.38.38,0,0,1-.37-.3,1.62,1.62,0,0,1-2.12-.21,1.78,1.78,0,0,1-.48-1.23,1.77,1.77,0,0,1,.48-1.23,1.62,1.62,0,0,1,1.19-.53,1.6,1.6,0,0,1,.93.31.39.39,0,0,1,.37-.31.38.38,0,0,1,.37.38Zm-.75,0a1,1,0,0,0-.27-.72.86.86,0,0,0-.65-.29.84.84,0,0,0-.65.29,1,1,0,0,0-.27.72,1,1,0,0,0,.27.72.87.87,0,0,0,.65.28.88.88,0,0,0,.65-.28A1,1,0,0,0,241.66,269.68Z" style="fill:#263238"></path><path d="M244.54,267.05a.37.37,0,0,1-.38.38.38.38,0,0,1-.38-.38v-.15a.38.38,0,0,1,.38-.38.37.37,0,0,1,.38.38Zm0,1.26v2.74a.37.37,0,0,1-.38.37.37.37,0,0,1-.38-.37v-2.74a.37.37,0,0,1,.38-.38A.37.37,0,0,1,244.54,268.31Z" style="fill:#263238"></path><path d="M246,266.52a.39.39,0,0,1,.39.39V271a.39.39,0,0,1-.77,0v-4.13A.39.39,0,0,1,246,266.52Z" style="fill:#263238"></path><rect x="227.99" y="276.41" width="132.58" height="11.74" style="fill:#ebebeb"></rect><path d="M231.39,282.84a1.74,1.74,0,0,1,1.71-1.75,1.68,1.68,0,0,1,1.69,1.63v0a.17.17,0,0,1,0,.07.34.34,0,0,1-.36.28h-2.23a.86.86,0,0,0,.24.46,1.05,1.05,0,0,0,.67.31,1.19,1.19,0,0,0,.73-.17.37.37,0,0,1,.52,0,.32.32,0,0,1,0,.45,1.77,1.77,0,0,1-3-1.29Zm.76-.34h2a1.15,1.15,0,0,0-1-.74A1,1,0,0,0,232.15,282.5Z" style="fill:#c7c7c7"></path><path d="M238.83,282.54v1.68a.37.37,0,0,1-.37.37.38.38,0,0,1-.38-.37v-1.68a.73.73,0,0,0-.72-.7.71.71,0,0,0-.71.72v1.66a.43.43,0,0,1,0,0v0a.06.06,0,0,1,0,0v0a.39.39,0,0,1-.35.22h-.07a.38.38,0,0,1-.3-.37v-1.66h0v-1.09a.37.37,0,0,1,.37-.38.37.37,0,0,1,.34.21,1.48,1.48,0,0,1,.75-.21,1.44,1.44,0,0,1,1.1.49,1.41,1.41,0,0,1,1.1-.49,1.46,1.46,0,0,1,1.45,1.47v1.66a.37.37,0,0,1-.37.37.38.38,0,0,1-.38-.37v-1.66a.71.71,0,0,0-.7-.72A.73.73,0,0,0,238.83,282.54Z" style="fill:#c7c7c7"></path><path d="M245.52,282.85v1.37a.37.37,0,0,1-.37.37.39.39,0,0,1-.37-.3,1.57,1.57,0,0,1-.93.3,1.61,1.61,0,0,1-1.19-.51,1.78,1.78,0,0,1-.47-1.23,1.76,1.76,0,0,1,.47-1.23,1.63,1.63,0,0,1,1.19-.53,1.57,1.57,0,0,1,.93.31.4.4,0,0,1,.37-.31.38.38,0,0,1,.37.38Zm-.74,0a1,1,0,0,0-.28-.72.87.87,0,0,0-1.3,0,1,1,0,0,0-.27.72,1,1,0,0,0,.27.72.89.89,0,0,0,1.3,0A1,1,0,0,0,244.78,282.85Z" style="fill:#c7c7c7"></path><path d="M247.65,280.22a.38.38,0,1,1-.75,0v-.15a.38.38,0,1,1,.75,0Zm0,1.26v2.74a.38.38,0,0,1-.75,0v-2.74a.38.38,0,1,1,.75,0Z" style="fill:#c7c7c7"></path><path d="M249.14,279.69a.4.4,0,0,1,.4.39v4.13a.39.39,0,0,1-.4.38.38.38,0,0,1-.38-.38v-4.13A.39.39,0,0,1,249.14,279.69Z" style="fill:#c7c7c7"></path><path d="M253.41,282.85v1.37a.36.36,0,0,1-.37.37.37.37,0,0,1-.36-.3,1.62,1.62,0,0,1-2.12-.21,1.78,1.78,0,0,1-.48-1.23,1.77,1.77,0,0,1,.48-1.23,1.62,1.62,0,0,1,1.19-.53,1.6,1.6,0,0,1,.93.31.38.38,0,0,1,.36-.31.37.37,0,0,1,.37.38Zm-.74,0a1,1,0,0,0-.27-.72.87.87,0,0,0-.65-.29.84.84,0,0,0-.65.29,1,1,0,0,0-.27.72,1,1,0,0,0,.27.72.87.87,0,0,0,.65.28.9.9,0,0,0,.65-.28A1,1,0,0,0,252.67,282.85Z" style="fill:#c7c7c7"></path><path d="M258,284.22a.38.38,0,0,1-.38.37.37.37,0,0,1-.37-.3,1.65,1.65,0,0,1-.95.3,1.75,1.75,0,0,1,0-3.5,1.59,1.59,0,0,1,.93.3v-1.32a.39.39,0,0,1,.77,0v2.77h0Zm-1.7-2.36a.89.89,0,0,0-.66.28,1,1,0,0,0-.28.71.94.94,0,0,0,.28.69.88.88,0,0,0,1.31,0,.94.94,0,0,0,.28-.69,1,1,0,0,0-.28-.71A.88.88,0,0,0,256.26,281.86Z" style="fill:#c7c7c7"></path><path d="M261.56,281.46a.38.38,0,0,1-.37.38.68.68,0,0,0-.42.13,1,1,0,0,0-.32.33,2.34,2.34,0,0,0-.29.59v1.33a.37.37,0,0,1-.38.37.36.36,0,0,1-.37-.37v-2.76a.36.36,0,0,1,.37-.36.37.37,0,0,1,.38.36v.05a1,1,0,0,1,.15-.14,1.53,1.53,0,0,1,.88-.27A.36.36,0,0,1,261.56,281.46Z" style="fill:#c7c7c7"></path><path d="M261.88,282.84a1.74,1.74,0,0,1,1.71-1.75,1.68,1.68,0,0,1,1.69,1.63v0a.17.17,0,0,1,0,.07.34.34,0,0,1-.36.28h-2.23a.93.93,0,0,0,.24.46,1.08,1.08,0,0,0,.67.31,1.19,1.19,0,0,0,.73-.17.39.39,0,0,1,.53,0,.32.32,0,0,1,0,.45,1.77,1.77,0,0,1-1.26.46A1.73,1.73,0,0,1,261.88,282.84Zm.77-.34h2a1.15,1.15,0,0,0-1-.74A1,1,0,0,0,262.65,282.5Z" style="fill:#c7c7c7"></path><path d="M266.22,283.59a.37.37,0,0,1,.53,0,1.36,1.36,0,0,0,.77.31.9.9,0,0,0,.47-.14.28.28,0,0,0,.13-.21.14.14,0,0,0,0-.07.24.24,0,0,0-.09-.08,1.67,1.67,0,0,0-.56-.2h0a2.72,2.72,0,0,1-.61-.18,1.12,1.12,0,0,1-.48-.41.81.81,0,0,1-.12-.44,1,1,0,0,1,.41-.77,1.5,1.5,0,0,1,.86-.26,1.73,1.73,0,0,1,1.05.39.39.39,0,0,1,.12.52.38.38,0,0,1-.52.09,1.26,1.26,0,0,0-.65-.25.72.72,0,0,0-.42.12.21.21,0,0,0-.11.16s0,0,0,.06,0,0,.07.07a1.74,1.74,0,0,0,.51.17h0a2.75,2.75,0,0,1,.65.21,1,1,0,0,1,.5.41.94.94,0,0,1,.13.46,1,1,0,0,1-.44.81,1.56,1.56,0,0,1-.91.28,2,2,0,0,1-1.25-.48A.38.38,0,0,1,266.22,283.59Z" style="fill:#c7c7c7"></path><path d="M269.6,283.59a.36.36,0,0,1,.52,0,1.36,1.36,0,0,0,.77.31.94.94,0,0,0,.48-.14.26.26,0,0,0,.12-.21.08.08,0,0,0,0-.07s0-.05-.09-.08a1.67,1.67,0,0,0-.56-.2h0a2.72,2.72,0,0,1-.61-.18,1.2,1.2,0,0,1-.49-.41.9.9,0,0,1-.12-.44,1,1,0,0,1,.42-.77,1.48,1.48,0,0,1,.86-.26,1.76,1.76,0,0,1,1.05.39.38.38,0,0,1,.11.52.38.38,0,0,1-.52.09,1.23,1.23,0,0,0-.64-.25.7.7,0,0,0-.42.12.21.21,0,0,0-.11.16.11.11,0,0,0,0,.06.31.31,0,0,0,.08.07,1.64,1.64,0,0,0,.51.17h0a2.75,2.75,0,0,1,.65.21,1,1,0,0,1,.5.41.84.84,0,0,1,.13.46,1,1,0,0,1-.44.81,1.54,1.54,0,0,1-.91.28,2,2,0,0,1-1.24-.48A.37.37,0,0,1,269.6,283.59Z" style="fill:#c7c7c7"></path><path d="M277.82,282.14a2.35,2.35,0,0,1-.27,1.12h0a1.5,1.5,0,0,1-.17.25,1.12,1.12,0,0,1-.55.33.55.55,0,0,1-.18,0,.6.6,0,0,1-.53-.26.57.57,0,0,1-.12-.21,1.34,1.34,0,0,1-.63.16,1.3,1.3,0,0,1-1-.42,1.47,1.47,0,0,1-.39-1,1.44,1.44,0,0,1,.39-1,1.31,1.31,0,0,1,1-.43,1.35,1.35,0,0,1,1,.43,1.43,1.43,0,0,1,.38,1v.91l0,0a.53.53,0,0,0,.09-.11,1.7,1.7,0,0,0,.18-.76,1.67,1.67,0,1,0-1.68,1.67,1.87,1.87,0,0,0,.42,0,.38.38,0,0,1,.47.27.4.4,0,0,1-.28.48,2.45,2.45,0,1,1,1.84-2.38Zm-1.87,0a.68.68,0,0,0-.17-.47.57.57,0,0,0-.81,0,.73.73,0,0,0,0,.94.56.56,0,0,0,.4.17.57.57,0,0,0,.41-.17A.68.68,0,0,0,276,282.14Z" style="fill:#c7c7c7"></path><path d="M283,282.54v1.68a.37.37,0,0,1-.37.37.38.38,0,0,1-.38-.37v-1.68a.73.73,0,0,0-.72-.7.71.71,0,0,0-.71.72v1.66a.43.43,0,0,1,0,0v0l0,0v0a.39.39,0,0,1-.35.22h-.07a.38.38,0,0,1-.3-.37v-1.66h0v-1.09a.37.37,0,0,1,.37-.38.37.37,0,0,1,.34.21,1.48,1.48,0,0,1,.75-.21,1.44,1.44,0,0,1,1.1.49,1.39,1.39,0,0,1,1.09-.49,1.46,1.46,0,0,1,1.46,1.47v1.66a.37.37,0,0,1-.37.37.38.38,0,0,1-.38-.37v-1.66a.71.71,0,0,0-.71-.72A.73.73,0,0,0,283,282.54Z" style="fill:#c7c7c7"></path><path d="M289.69,282.85v1.37a.37.37,0,0,1-.37.37.39.39,0,0,1-.37-.3,1.57,1.57,0,0,1-.93.3,1.61,1.61,0,0,1-1.19-.51,1.78,1.78,0,0,1-.48-1.23,1.77,1.77,0,0,1,.48-1.23,1.63,1.63,0,0,1,1.19-.53,1.57,1.57,0,0,1,.93.31.4.4,0,0,1,.37-.31.38.38,0,0,1,.37.38Zm-.74,0a1,1,0,0,0-.28-.72.87.87,0,0,0-1.3,0,1,1,0,0,0-.27.72,1,1,0,0,0,.27.72.89.89,0,0,0,1.3,0A1,1,0,0,0,289,282.85Z" style="fill:#c7c7c7"></path><path d="M291.82,280.22a.38.38,0,1,1-.75,0v-.15a.38.38,0,1,1,.75,0Zm0,1.26v2.74a.38.38,0,0,1-.75,0v-2.74a.38.38,0,1,1,.75,0Z" style="fill:#c7c7c7"></path><path d="M293.31,279.69a.4.4,0,0,1,.4.39v4.13a.39.39,0,0,1-.4.38.38.38,0,0,1-.38-.38v-4.13A.39.39,0,0,1,293.31,279.69Z" style="fill:#c7c7c7"></path><path d="M295.06,283.6a.53.53,0,0,1,.53.53.53.53,0,0,1-1,0A.53.53,0,0,1,295.06,283.6Z" style="fill:#c7c7c7"></path><path d="M295.85,282.85a1.79,1.79,0,0,1,1.78-1.76,1.84,1.84,0,0,1,1.11.39.37.37,0,1,1-.45.59,1.06,1.06,0,0,0-.66-.23,1,1,0,1,0,0,2,1.14,1.14,0,0,0,.66-.22.37.37,0,1,1,.45.59,1.89,1.89,0,0,1-1.11.37A1.77,1.77,0,0,1,295.85,282.85Z" style="fill:#c7c7c7"></path><path d="M300.31,284.08a1.7,1.7,0,0,1-.49-1.23,1.78,1.78,0,0,1,.49-1.23,1.65,1.65,0,0,1,1.2-.53,1.59,1.59,0,0,1,1.17.53,1.74,1.74,0,0,1,.49,1.23,1.66,1.66,0,0,1-.49,1.23,1.56,1.56,0,0,1-1.17.54A1.63,1.63,0,0,1,300.31,284.08Zm.28-1.23a1.12,1.12,0,0,0,.25.74.92.92,0,0,0,.67.26.88.88,0,0,0,.64-.26,1.1,1.1,0,0,0,0-1.47,1,1,0,0,0-.64-.26,1,1,0,0,0-.67.26A1.11,1.11,0,0,0,300.59,282.85Z" style="fill:#c7c7c7"></path><path d="M307.29,282.54v1.68a.37.37,0,0,1-.37.37.38.38,0,0,1-.38-.37v-1.68a.73.73,0,0,0-.72-.7.71.71,0,0,0-.71.72v1.66a.43.43,0,0,1,0,0v0l0,0v0a.39.39,0,0,1-.35.22h-.07a.38.38,0,0,1-.3-.37v-1.66h0v-1.09a.37.37,0,0,1,.37-.38.37.37,0,0,1,.34.21,1.48,1.48,0,0,1,.75-.21,1.44,1.44,0,0,1,1.1.49,1.39,1.39,0,0,1,1.09-.49,1.46,1.46,0,0,1,1.46,1.47v1.66a.37.37,0,0,1-.37.37.38.38,0,0,1-.38-.37v-1.66a.71.71,0,0,0-.71-.72A.73.73,0,0,0,307.29,282.54Z" style="fill:#c7c7c7"></path><polygon points="233.99 238.54 249.06 238.42 264.13 238.38 294.28 238.29 324.42 238.38 339.49 238.42 354.56 238.54 339.49 238.66 324.42 238.71 294.28 238.79 264.13 238.71 249.06 238.66 233.99 238.54" style="fill:#263238"></polygon><polygon points="245.12 245.22 257.41 245.1 269.7 245.06 294.28 244.97 318.86 245.06 331.14 245.1 343.43 245.22 331.14 245.34 318.86 245.39 294.28 245.47 269.7 245.39 257.41 245.34 245.12 245.22" style="fill:#263238"></polygon><polygon points="227.99 310.34 244.56 310.21 261.13 310.17 294.28 310.09 327.42 310.17 344 310.21 360.57 310.34 344 310.46 327.42 310.5 294.28 310.58 261.13 310.5 244.56 310.46 227.99 310.34" style="fill:#ebebeb"></polygon><rect x="242.4" y="327.71" width="103.75" height="16.11" style="fill:#4F46E5"></rect><path d="M263.87,337.24a1.14,1.14,0,0,0-.51-.95,1.81,1.81,0,0,0-.73-.31l-.05,0h-1.53v2.49a.22.22,0,0,1-.22.22.22.22,0,0,1-.22-.22v-5.87a.21.21,0,0,1,.2-.21h1.8a1.8,1.8,0,0,1,.76,3.42l.09,0a1.59,1.59,0,0,1,.84,1.4,2.59,2.59,0,0,0,.08.73.37.37,0,0,0,.1.16.24.24,0,0,1,.24.14.25.25,0,0,1-.15.29h-.12a.5.5,0,0,1-.41-.29A2.21,2.21,0,0,1,263.87,337.24Zm-1.26-4.43h-1.56v2.72h1.6a1.36,1.36,0,0,0,0-2.72Z" style="fill:#fff"></path><path d="M265.86,336.47a2.14,2.14,0,0,1,4.27-.16h0v0a.21.21,0,0,1-.22.2h-3.62a1.74,1.74,0,0,0,1.71,1.7,1.64,1.64,0,0,0,1.42-.81.23.23,0,0,1,.29-.07.24.24,0,0,1,.08.31,2.12,2.12,0,0,1-1.79,1A2.17,2.17,0,0,1,265.86,336.47Zm.46-.35h3.34a1.69,1.69,0,0,0-3.34,0Z" style="fill:#fff"></path><path d="M271.35,337.75a.22.22,0,0,1,.31,0,2.31,2.31,0,0,0,1.35.52,1.26,1.26,0,0,0,.83-.28.66.66,0,0,0,.34-.54.7.7,0,0,0-.32-.54,2.21,2.21,0,0,0-.94-.32h0a2.45,2.45,0,0,1-1-.34.92.92,0,0,1-.48-.79,1.11,1.11,0,0,1,.48-.87,1.9,1.9,0,0,1,1.08-.29,2.38,2.38,0,0,1,1.31.47.24.24,0,0,1,.07.31.21.21,0,0,1-.3.06,2,2,0,0,0-1.08-.44,1.35,1.35,0,0,0-.84.25.68.68,0,0,0-.28.51.54.54,0,0,0,.25.44,2.3,2.3,0,0,0,.9.3h0a3.21,3.21,0,0,1,1.07.36,1.11,1.11,0,0,1,.5.9,1.14,1.14,0,0,1-.51.9,1.8,1.8,0,0,1-1.09.35,2.65,2.65,0,0,1-1.63-.63A.21.21,0,0,1,271.35,337.75Z" style="fill:#fff"></path><path d="M275.77,336.47a2.14,2.14,0,0,1,4.27-.16h0v0a.21.21,0,0,1-.22.2H276.2a1.74,1.74,0,0,0,1.71,1.7,1.64,1.64,0,0,0,1.42-.81.22.22,0,1,1,.36.24,2.09,2.09,0,0,1-1.78,1A2.17,2.17,0,0,1,275.77,336.47Zm.46-.35h3.34a1.69,1.69,0,0,0-3.34,0Z" style="fill:#fff"></path><path d="M282.74,334.47a.23.23,0,0,1-.21.22H282v3.21a.35.35,0,0,0,.33.33.22.22,0,0,1,0,.44.75.75,0,0,1-.78-.77v-3.21H281c-.21,0-.21-.11-.21-.22s0-.21.21-.21h.55v-1.64a.24.24,0,0,1,.22-.22.25.25,0,0,1,.23.22v1.64h.57A.22.22,0,0,1,282.74,334.47Z" style="fill:#fff"></path><path d="M287.6,332.58a.21.21,0,0,1,.22-.21h1.78a1.8,1.8,0,0,1,0,3.59L288,336v2.47a.22.22,0,0,1-.22.22.22.22,0,0,1-.22-.22Zm2,2.95a1.36,1.36,0,0,0,0-2.72H288v2.72Z" style="fill:#fff"></path><path d="M296.45,334.47v4a.22.22,0,1,1-.43,0v-.66a2,2,0,0,1-1.66.88,2.21,2.21,0,0,1,0-4.41,2.05,2.05,0,0,1,1.66.86v-.65a.21.21,0,0,1,.22-.21A.21.21,0,0,1,296.45,334.47Zm-.43,2a1.66,1.66,0,1,0-1.66,1.78A1.72,1.72,0,0,0,296,336.46Z" style="fill:#fff"></path><path d="M298,337.75a.21.21,0,0,1,.3,0,2.36,2.36,0,0,0,1.35.52,1.3,1.3,0,0,0,.84-.28.65.65,0,0,0,.33-.54.72.72,0,0,0-.31-.54,2.26,2.26,0,0,0-.94-.32h0a2.56,2.56,0,0,1-1-.34.93.93,0,0,1-.47-.79,1.13,1.13,0,0,1,.47-.87,2,2,0,0,1,1.09-.29,2.41,2.41,0,0,1,1.31.47.22.22,0,0,1,.06.31.2.2,0,0,1-.29.06,2,2,0,0,0-1.08-.44,1.33,1.33,0,0,0-.84.25.68.68,0,0,0-.28.51.54.54,0,0,0,.25.44,2.3,2.3,0,0,0,.9.3h0a3.29,3.29,0,0,1,1.07.36,1.11,1.11,0,0,1,.5.9,1.14,1.14,0,0,1-.51.9,1.83,1.83,0,0,1-1.1.35A2.68,2.68,0,0,1,298,338,.2.2,0,0,1,298,337.75Z" style="fill:#fff"></path><path d="M302.35,337.75a.22.22,0,0,1,.31,0,2.33,2.33,0,0,0,1.35.52,1.3,1.3,0,0,0,.84-.28.67.67,0,0,0,.33-.54.72.72,0,0,0-.31-.54,2.26,2.26,0,0,0-.94-.32h0a2.56,2.56,0,0,1-1-.34.91.91,0,0,1-.47-.79,1.1,1.1,0,0,1,.47-.87,1.9,1.9,0,0,1,1.08-.29,2.45,2.45,0,0,1,1.32.47.23.23,0,0,1,.06.31.21.21,0,0,1-.3.06,2,2,0,0,0-1.08-.44,1.3,1.3,0,0,0-.83.25.68.68,0,0,0-.28.51.54.54,0,0,0,.25.44,2.24,2.24,0,0,0,.9.3h0a3.29,3.29,0,0,1,1.07.36,1.1,1.1,0,0,1,.49.9,1.13,1.13,0,0,1-.5.9,1.85,1.85,0,0,1-1.1.35,2.68,2.68,0,0,1-1.63-.63A.21.21,0,0,1,302.35,337.75Z" style="fill:#fff"></path><path d="M308.43,338.63a.15.15,0,0,1-.09-.1l-1.66-3.94a.22.22,0,0,1,.11-.28.21.21,0,0,1,.28.12l1.47,3.47,1-2.42a.23.23,0,0,1,.2-.14.26.26,0,0,1,.22.14l1,2.42,1.45-3.47a.22.22,0,0,1,.28-.12.21.21,0,0,1,.12.28l-1.65,3.92a.23.23,0,0,1-.08.11.16.16,0,0,1-.11.05h0a.22.22,0,0,1-.17-.14h0l-1-2.44-1,2.43v0a.23.23,0,0,1-.19.14l-.08,0Z" style="fill:#fff"></path><path d="M316.36,334.26a2.21,2.21,0,1,1-2.09,2.2A2.15,2.15,0,0,1,316.36,334.26Zm0,4a1.78,1.78,0,1,0-1.66-1.78A1.73,1.73,0,0,0,316.36,338.24Z" style="fill:#fff"></path><path d="M319.92,334.48a.22.22,0,0,1,.23-.22.21.21,0,0,1,.2.22v1l.07-.11a2.13,2.13,0,0,1,1.76-1.08.22.22,0,0,1,.22.22.22.22,0,0,1-.22.22,1.6,1.6,0,0,0-1.28.72,4.34,4.34,0,0,0-.53,1,.15.15,0,0,0,0,.08v1.93a.21.21,0,0,1-.2.22.22.22,0,0,1-.23-.22Z" style="fill:#fff"></path><path d="M327.18,337.81a2.11,2.11,0,0,1-1.69.86,2.21,2.21,0,0,1,0-4.41,2.11,2.11,0,0,1,1.69.86v-2.54a.22.22,0,0,1,.44,0v5.87a.22.22,0,0,1-.44,0Zm0-1.27v-.14a1.76,1.76,0,1,0,0,.14Z" style="fill:#fff"></path><circle cx="321.4" cy="161.72" r="23.17" style="fill:#455a64"></circle><circle cx="259.81" cy="195.14" r="15.83" style="fill:#ebebeb"></circle><path d="M307.27,157.4V174h-4.7V157.4c0-6.32-4.8-11.46-10.7-11.46s-10.7,5.14-10.7,11.46V174h-4.7V157.4c0-9.05,6.91-16.41,15.4-16.41S307.27,148.35,307.27,157.4Z" style="fill:#c7c7c7"></path><polygon points="276.47 161.72 281.17 161.91 281.17 174.02 276.47 174.02 276.47 161.72" style="fill:#a6a6a6"></polygon><polygon points="307.27 162.98 307.27 174.02 302.57 174.02 302.57 162.78 307.27 162.98" style="fill:#a6a6a6"></polygon><rect x="270.45" y="164.56" width="42.84" height="38.86" style="fill:#4F46E5"></rect><rect x="291.87" y="164.56" width="21.42" height="38.86" style="opacity:0.1"></rect><path d="M293.68,185.41l1.8,8.51h-7.62l1.8-8.51a3.81,3.81,0,1,1,4,0Z" style="fill:#263238"></path><path d="M282.69,381.41a2.53,2.53,0,1,1-2.53-2.54A2.53,2.53,0,0,1,282.69,381.41Z" style="fill:#dbdbdb"></path><path d="M298.11,381.41a3.83,3.83,0,1,1-3.83-3.84A3.84,3.84,0,0,1,298.11,381.41Z" style="fill:#c7c7c7"></path><path d="M310.93,381.41a2.54,2.54,0,1,1-2.54-2.54A2.54,2.54,0,0,1,310.93,381.41Z" style="fill:#dbdbdb"></path><path d="M255.83,226.43v-5.32a.49.49,0,0,1,.5-.49h2.94a.5.5,0,0,1,.49.49.51.51,0,0,1-.49.51h-2.44v1.65h2.1a.5.5,0,0,1,0,1h-2.1v2.16a.5.5,0,0,1-.5.49A.49.49,0,0,1,255.83,226.43Z" style="fill:#263238"></path><path d="M260.93,226.26a2.26,2.26,0,0,1-.62-1.58,2.39,2.39,0,0,1,.62-1.58,2.12,2.12,0,0,1,1.55-.68,2,2,0,0,1,1.51.68,2.3,2.3,0,0,1,.63,1.58,2.18,2.18,0,0,1-.63,1.58,2,2,0,0,1-1.51.69A2.1,2.1,0,0,1,260.93,226.26Zm.36-1.58a1.42,1.42,0,0,0,.33.95,1.19,1.19,0,0,0,.86.34,1.17,1.17,0,0,0,.83-.34,1.45,1.45,0,0,0,0-1.89,1.26,1.26,0,0,0-.83-.34,1.28,1.28,0,0,0-.86.34A1.43,1.43,0,0,0,261.29,224.68Z" style="fill:#263238"></path><path d="M268.74,222.9a.48.48,0,0,1-.48.47.89.89,0,0,0-.54.17,1.33,1.33,0,0,0-.41.44,2.6,2.6,0,0,0-.37.75v1.71a.49.49,0,0,1-.5.48.48.48,0,0,1-.48-.48V222.9a.48.48,0,0,1,.48-.47.49.49,0,0,1,.5.47V223a1,1,0,0,1,.18-.18,2,2,0,0,1,1.14-.35A.47.47,0,0,1,268.74,222.9Z" style="fill:#263238"></path><path d="M273.94,224.7v1.67a2.16,2.16,0,0,1-3.11,1.94.48.48,0,0,1-.21-.65.5.5,0,0,1,.65-.23,1,1,0,0,0,.51.13,1.21,1.21,0,0,0,1.18-1,2.14,2.14,0,0,1-1.18.36,2.05,2.05,0,0,1-1.53-.69,2.22,2.22,0,0,1-.63-1.58,2.34,2.34,0,0,1,.63-1.6,2.11,2.11,0,0,1,1.53-.67,2,2,0,0,1,1.21.38.47.47,0,0,1,.47-.38.48.48,0,0,1,.48.48v1.79Zm-1,0a1.41,1.41,0,0,0-.35-.92,1.12,1.12,0,0,0-.85-.39,1.09,1.09,0,0,0-.83.39,1.32,1.32,0,0,0-.36.92,1.29,1.29,0,0,0,.36.93,1.1,1.1,0,0,0,.83.36,1.13,1.13,0,0,0,.85-.36A1.37,1.37,0,0,0,273,224.69Z" style="fill:#263238"></path><path d="M276.27,226.26a2.21,2.21,0,0,1-.62-1.58,2.34,2.34,0,0,1,.62-1.58,2.11,2.11,0,0,1,1.55-.68,2,2,0,0,1,1.5.68,2.26,2.26,0,0,1,.63,1.58,2.14,2.14,0,0,1-.63,1.58,2,2,0,0,1-1.5.69A2.08,2.08,0,0,1,276.27,226.26Zm.36-1.58a1.47,1.47,0,0,0,.32.95,1.23,1.23,0,0,0,.87.34,1.19,1.19,0,0,0,.83-.34,1.45,1.45,0,0,0,0-1.89,1.29,1.29,0,0,0-.83-.34,1.33,1.33,0,0,0-.87.34A1.48,1.48,0,0,0,276.63,224.68Z" style="fill:#263238"></path><path d="M283.33,222.91a.51.51,0,0,1-.5.5h-.22v2.51a.5.5,0,0,1,.49.51.48.48,0,0,1-.49.49,1,1,0,0,1-1-1v-2.51h-.27a.5.5,0,0,1-.49-.5.49.49,0,0,1,.49-.49h.27v-1.31a.5.5,0,0,1,1,0v1.31h.22A.5.5,0,0,1,283.33,222.91Z" style="fill:#263238"></path><path d="M289.81,224.47h-1.1v2a.5.5,0,0,1-.51.49.49.49,0,0,1-.49-.49v-5.32a.49.49,0,0,1,.49-.49h1.61a1.93,1.93,0,1,1,0,3.85Zm-1.1-1h1.1a.93.93,0,1,0,0-1.85h-1.1Z" style="fill:#263238"></path><path d="M296.66,224.68v1.76a.47.47,0,0,1-.47.48.48.48,0,0,1-.47-.39,2,2,0,0,1-1.2.39,2.08,2.08,0,0,1-1.53-.66,2.36,2.36,0,0,1,0-3.17,2.09,2.09,0,0,1,1.53-.67,2,2,0,0,1,1.2.4.47.47,0,0,1,.94.09Zm-1,0a1.36,1.36,0,0,0-.35-.93,1.13,1.13,0,0,0-.84-.37,1.11,1.11,0,0,0-.84.37,1.36,1.36,0,0,0-.34.93,1.39,1.39,0,0,0,.34.93,1.17,1.17,0,0,0,.84.35,1.19,1.19,0,0,0,.84-.35A1.4,1.4,0,0,0,295.71,224.68Z" style="fill:#263238"></path><path d="M298.21,225.63a.48.48,0,0,1,.68-.07,1.63,1.63,0,0,0,1,.4,1.22,1.22,0,0,0,.61-.17.39.39,0,0,0,.16-.27.11.11,0,0,0,0-.09.22.22,0,0,0-.11-.11,2.09,2.09,0,0,0-.72-.25h0a3.83,3.83,0,0,1-.79-.24,1.54,1.54,0,0,1-.62-.52,1.08,1.08,0,0,1-.15-.57,1.27,1.27,0,0,1,.53-1,2,2,0,0,1,1.11-.33,2.38,2.38,0,0,1,1.35.49.5.5,0,0,1,.14.67.47.47,0,0,1-.66.13,1.55,1.55,0,0,0-.83-.34.91.91,0,0,0-.54.17c-.12.08-.15.16-.15.2s0,0,0,.07a.22.22,0,0,0,.1.09,1.61,1.61,0,0,0,.66.22h0a3.34,3.34,0,0,1,.83.26,1.37,1.37,0,0,1,.64.53,1.16,1.16,0,0,1,.17.6,1.29,1.29,0,0,1-.56,1,2,2,0,0,1-1.17.36,2.61,2.61,0,0,1-1.61-.62A.49.49,0,0,1,298.21,225.63Z" style="fill:#263238"></path><path d="M302.55,225.63a.47.47,0,0,1,.67-.07,1.65,1.65,0,0,0,1,.4,1.23,1.23,0,0,0,.62-.17.39.39,0,0,0,.16-.27.11.11,0,0,0,0-.09s0-.07-.12-.11a1.94,1.94,0,0,0-.72-.25h0a3.83,3.83,0,0,1-.79-.24,1.47,1.47,0,0,1-.62-.52,1.08,1.08,0,0,1-.15-.57,1.27,1.27,0,0,1,.53-1,2,2,0,0,1,1.11-.33,2.38,2.38,0,0,1,1.35.49.5.5,0,0,1,.14.67.48.48,0,0,1-.67.13,1.52,1.52,0,0,0-.82-.34.89.89,0,0,0-.54.17c-.12.08-.15.16-.15.2s0,0,0,.07a.22.22,0,0,0,.1.09,1.61,1.61,0,0,0,.66.22h0a3.29,3.29,0,0,1,.84.26,1.42,1.42,0,0,1,.64.53,1.16,1.16,0,0,1,.17.6,1.27,1.27,0,0,1-.57,1,2,2,0,0,1-1.17.36,2.61,2.61,0,0,1-1.6-.62A.48.48,0,0,1,302.55,225.63Z" style="fill:#263238"></path><path d="M312.85,223.14l-1.49,3.49,0,.08h0l-.05.06h0l-.05,0s0,0,0,0,0,0-.08,0h0l-.07,0h-.21a.11.11,0,0,0-.06,0h0s-.05,0-.08,0h0a.11.11,0,0,1-.05,0h0l0-.06h0a.41.41,0,0,1,0-.08l-.66-1.55-.64,1.55,0,.08h0l-.06.06h0s0,0,0,.05-.06,0-.08,0h0l-.05,0h-.23l0,0h0a.1.1,0,0,1-.08,0s0,0,0,0l-.05,0h0l0-.06h0s0-.06,0-.08l-1.48-3.49a.47.47,0,0,1,.26-.62.45.45,0,0,1,.6.27l1.06,2.42.63-1.5a.48.48,0,0,1,.44-.29.46.46,0,0,1,.44.29l.64,1.5,1.06-2.42a.46.46,0,0,1,.61-.27A.47.47,0,0,1,312.85,223.14Z" style="fill:#263238"></path><path d="M315,226.26a2.22,2.22,0,0,1-.63-1.58,2.35,2.35,0,0,1,.63-1.58,2.09,2.09,0,0,1,1.54-.68,2,2,0,0,1,1.51.68,2.3,2.3,0,0,1,.63,1.58,2.18,2.18,0,0,1-.63,1.58,2,2,0,0,1-1.51.69A2.06,2.06,0,0,1,315,226.26Zm.36-1.58a1.42,1.42,0,0,0,.32.95,1.21,1.21,0,0,0,.86.34,1.16,1.16,0,0,0,.83-.34,1.45,1.45,0,0,0,0-1.89,1.24,1.24,0,0,0-.83-.34,1.3,1.3,0,0,0-.86.34A1.43,1.43,0,0,0,315.36,224.68Z" style="fill:#263238"></path><path d="M322.8,222.9a.48.48,0,0,1-.48.47.94.94,0,0,0-.54.17,1.44,1.44,0,0,0-.41.44,2.6,2.6,0,0,0-.37.75v1.71a.49.49,0,0,1-.5.48.47.47,0,0,1-.47-.48V222.9a.47.47,0,0,1,.47-.47.49.49,0,0,1,.5.47V223a.81.81,0,0,1,.19-.18,2,2,0,0,1,1.13-.35A.47.47,0,0,1,322.8,222.9Z" style="fill:#263238"></path><path d="M327.83,226.43a.48.48,0,0,1-.48.49.48.48,0,0,1-.48-.39,2.17,2.17,0,0,1-1.23.39,2.25,2.25,0,0,1,0-4.5,2.1,2.1,0,0,1,1.21.38v-1.7a.49.49,0,0,1,.5-.48.48.48,0,0,1,.48.48v3.57h0Zm-2.19-3a1.17,1.17,0,0,0-.84.37,1.27,1.27,0,0,0-.36.91,1.24,1.24,0,0,0,.36.89,1.15,1.15,0,0,0,1.69,0,1.28,1.28,0,0,0,.36-.89,1.31,1.31,0,0,0-.36-.91A1.17,1.17,0,0,0,325.64,223.4Z" style="fill:#263238"></path><path d="M331.38,224.35v.58a.43.43,0,0,1-.44.44.44.44,0,0,1-.44-.44V224s0,0,0,0v0a.46.46,0,0,1,.44-.44,1,1,0,1,0,0-2,1,1,0,0,0-.86.5.45.45,0,0,1-.61.16.44.44,0,0,1-.16-.6,1.89,1.89,0,1,1,2.07,2.79Zm0,2v.16a.43.43,0,0,1-.44.44.44.44,0,0,1-.44-.44v-.16a.44.44,0,0,1,.44-.44A.43.43,0,0,1,331.38,226.32Z" style="fill:#263238"></path></g><g id="freepik--speech-bubble--inject-22"><path d="M176.3,165.45a6.17,6.17,0,1,1-6.67-5.62A6.16,6.16,0,0,1,176.3,165.45Z" style="fill:#fff"></path><path d="M176.3,165.45a6.43,6.43,0,0,1-5.59,6.92,6.42,6.42,0,1,1-1.11-12.79,6.43,6.43,0,0,1,6.7,5.87Zm0,0a5.91,5.91,0,0,0-6.65-5.37,6,6,0,0,0-5.14,6.39,5.93,5.93,0,0,0,6.16,5.41,5.91,5.91,0,0,0,5.63-6.43Z" style="fill:#263238"></path><path d="M163,176.82a3.43,3.43,0,1,1-3.72-3.13A3.44,3.44,0,0,1,163,176.82Z" style="fill:#fff"></path><path d="M163,176.82a3.71,3.71,0,0,1-3.11,4,3.69,3.69,0,1,1,3.11-4Zm0,0a3.27,3.27,0,0,0-1.26-2.28,3.19,3.19,0,1,0,.41,4.74A3.27,3.27,0,0,0,163,176.82Z" style="fill:#263238"></path><path d="M222.44,136.76a18,18,0,0,1-24.88,18.77,15.11,15.11,0,0,1-24-.05,11.32,11.32,0,0,1-2,.42A12.26,12.26,0,0,1,160,136.7a18,18,0,0,1,24.26-26.06,15.11,15.11,0,0,1,25.94,4.12,9.59,9.59,0,0,1,1.94-.44,9.88,9.88,0,0,1,8.5,16.47A17.59,17.59,0,0,1,222.44,136.76Z" style="fill:#fff"></path><path d="M222.44,136.76a18.28,18.28,0,0,1-1.29,9.22,19.24,19.24,0,0,1-2.37,4.07,18.63,18.63,0,0,1-3.35,3.29,18.19,18.19,0,0,1-17.93,2.33l.17,0a15.38,15.38,0,0,1-24.42.07l.36.12a12.46,12.46,0,0,1-3.84.53,11.88,11.88,0,0,1-3.83-.64,12.69,12.69,0,0,1-6.22-4.55,13.59,13.59,0,0,1-1.77-3.48,13.27,13.27,0,0,1-.64-3.85,12.69,12.69,0,0,1,2.29-7.39V137a18.43,18.43,0,0,1,1-24,18.63,18.63,0,0,1,11.44-5.74,18.35,18.35,0,0,1,12.36,3.13l-.44.07A15.34,15.34,0,0,1,198.44,105a15.31,15.31,0,0,1,11.84,9.77l-.13-.06a10.07,10.07,0,0,1,6.44.08,9.93,9.93,0,0,1,4,16.07v0A17.58,17.58,0,0,1,222.44,136.76Zm0,0a17.64,17.64,0,0,0-1.83-6h0a9.83,9.83,0,0,0-4.07-15.9,9.71,9.71,0,0,0-6.32,0l-.1,0,0-.1a15,15,0,0,0-4.6-6.28,14.74,14.74,0,0,0-7.11-3.13,14.79,14.79,0,0,0-13.88,5.47l-.18.24-.26-.18a17.69,17.69,0,0,0-22.76,2.68,17.69,17.69,0,0,0-.93,22.82l.21.27-.2.29a11.71,11.71,0,0,0-2.15,6.84,12.14,12.14,0,0,0,.57,3.59,12.54,12.54,0,0,0,1.63,3.25,12.08,12.08,0,0,0,5.77,4.31,11.28,11.28,0,0,0,3.6.65,11.45,11.45,0,0,0,3.63-.45l.22-.07.15.19a15.1,15.1,0,0,0,5.16,4.33,14.9,14.9,0,0,0,18.49-4.16l.07-.09.1,0a17.74,17.74,0,0,0,17.75-2.14,18.86,18.86,0,0,0,3.36-3.26,19.07,19.07,0,0,0,2.38-4A18.22,18.22,0,0,0,222.44,136.76Z" style="fill:#263238"></path><path d="M199.14,136.27l-.57,2.73a2,2,0,0,1-2.48,1.63,2.1,2.1,0,0,1-1.63-2.49l.91-4.37s0,0,.06-.07,0,0,0-.1a2.16,2.16,0,0,1,2.49-1.62,4.81,4.81,0,1,0,2-9.42,4.78,4.78,0,0,0-4.52,1.48,2.11,2.11,0,1,1-3.14-2.81,9,9,0,1,1,6.95,15Zm-1.91,9.2-.16.76a2.06,2.06,0,0,1-2.49,1.63,2.12,2.12,0,0,1-1.63-2.49l.16-.76A2.13,2.13,0,0,1,195.6,143,2.1,2.1,0,0,1,197.23,145.47Z" style="fill:#4F46E5"></path><path d="M177.29,130.72,177,128a2,2,0,0,1,1.83-2.35,2.11,2.11,0,0,1,2.34,1.83l.55,4.43s0,0,0,.09,0,0,.05.08a2.15,2.15,0,0,1-1.83,2.34,4.81,4.81,0,1,0,1.18,9.54,4.72,4.72,0,0,0,3.8-2.84,2.12,2.12,0,0,1,2.8-1.13,2.09,2.09,0,0,1,1.08,2.76,9,9,0,1,1-11.43-12Zm-1.15-9.32-.1-.77a2,2,0,0,1,1.83-2.34,2.09,2.09,0,0,1,2.34,1.83l.1.76a2.14,2.14,0,0,1-1.83,2.35A2.08,2.08,0,0,1,176.14,121.4Z" style="fill:#4F46E5"></path></g></svg>