<svg width="17" height="24" viewBox="0 0 17 24" fill="none" xmlns="http://www.w3.org/2000/svg">
<g id="Frame 504" clip-path="url(#clip0_65_14004)">
<g id="Group 8">
<path id="Ellipse 7" d="M9 11C9 9.8181 8.76721 8.64778 8.31492 7.55585C7.86262 6.46392 7.19969 5.47177 6.36396 4.63604C5.52823 3.80031 4.53608 3.13738 3.44415 2.68508C2.35222 2.23279 1.1819 2 0 2V3.86296C0.937249 3.86296 1.86532 4.04756 2.73123 4.40623C3.59713 4.7649 4.38391 5.29061 5.04665 5.95335C5.70938 6.61609 6.2351 7.40287 6.59377 8.26877C6.95244 9.13468 7.13704 10.0628 7.13704 11H9Z" fill="#4C36F1"/>
<path id="Ellipse 9" d="M17 2C15.8181 2 14.6478 2.23279 13.5558 2.68508C12.4639 3.13738 11.4718 3.80031 10.636 4.63604C9.80031 5.47177 9.13738 6.46392 8.68508 7.55585C8.23279 8.64778 8 9.8181 8 11L9.86296 11C9.86296 10.0628 10.0476 9.13468 10.4062 8.26877C10.7649 7.40287 11.2906 6.61609 11.9533 5.95335C12.6161 5.29061 13.4029 4.7649 14.2688 4.40623C15.1347 4.04756 16.0628 3.86296 17 3.86296L17 2Z" fill="#4C36F1"/>
<path id="Ellipse 11" d="M8 13C8 14.1819 8.23279 15.3522 8.68508 16.4442C9.13738 17.5361 9.80031 18.5282 10.636 19.364C11.4718 20.1997 12.4639 20.8626 13.5558 21.3149C14.6478 21.7672 15.8181 22 17 22L17 20.137C16.0628 20.137 15.1347 19.9524 14.2688 19.5938C13.4029 19.2351 12.6161 18.7094 11.9534 18.0467C11.2906 17.3839 10.7649 16.5971 10.4062 15.7312C10.0476 14.8653 9.86296 13.9373 9.86296 13L8 13Z" fill="#7F70F5"/>
<path id="Ellipse 13" d="M2.36042e-06 22C1.1819 22 2.35222 21.7672 3.44415 21.3149C4.53608 20.8626 5.52824 20.1997 6.36396 19.364C7.19969 18.5282 7.86263 17.5361 8.31492 16.4442C8.76721 15.3522 9 14.1819 9 13L7.13704 13C7.13704 13.9372 6.95244 14.8653 6.59377 15.7312C6.2351 16.5971 5.70939 17.3839 5.04665 18.0466C4.38392 18.7094 3.59713 19.2351 2.73123 19.5938C1.86532 19.9524 0.937251 20.137 2.11612e-06 20.137L2.36042e-06 22Z" fill="#7F70F5"/>
<path id="Ellipse 8" d="M6 11C6 10.2121 5.84481 9.43185 5.54328 8.7039C5.24175 7.97595 4.79979 7.31451 4.24264 6.75736C3.68549 6.20021 3.02405 5.75825 2.2961 5.45672C1.56815 5.15519 0.787931 5 -4.76837e-07 5L0 6.24197C0.624833 6.24197 1.24355 6.36504 1.82082 6.60416C2.39809 6.84327 2.92261 7.19374 3.36443 7.63557C3.80626 8.07739 4.15673 8.60191 4.39584 9.17918C4.63496 9.75645 4.75803 10.3752 4.75803 11H6Z" fill="#4C36F1"/>
<path id="Ellipse 10" d="M17 5C16.2121 5 15.4319 5.15519 14.7039 5.45672C13.9759 5.75825 13.3145 6.20021 12.7574 6.75736C12.2002 7.31451 11.7583 7.97595 11.4567 8.7039C11.1552 9.43185 11 10.2121 11 11L12.242 11C12.242 10.3752 12.365 9.75645 12.6042 9.17918C12.8433 8.60191 13.1937 8.07739 13.6356 7.63557C14.0774 7.19374 14.6019 6.84327 15.1792 6.60416C15.7565 6.36504 16.3752 6.24197 17 6.24197L17 5Z" fill="#4C36F1"/>
<path id="Ellipse 12" d="M11 13C11 13.7879 11.1552 14.5681 11.4567 15.2961C11.7583 16.0241 12.2002 16.6855 12.7574 17.2426C13.3145 17.7998 13.9759 18.2417 14.7039 18.5433C15.4319 18.8448 16.2121 19 17 19L17 17.758C16.3752 17.758 15.7565 17.635 15.1792 17.3958C14.6019 17.1567 14.0774 16.8063 13.6356 16.3644C13.1937 15.9226 12.8433 15.3981 12.6042 14.8208C12.365 14.2435 12.242 13.6248 12.242 13L11 13Z" fill="#7F70F5"/>
<path id="Ellipse 14" d="M1.57361e-06 19C0.787933 19 1.56815 18.8448 2.2961 18.5433C3.02406 18.2417 3.68549 17.7998 4.24264 17.2426C4.79979 16.6855 5.24175 16.0241 5.54328 15.2961C5.84481 14.5681 6 13.7879 6 13L4.75803 13C4.75803 13.6248 4.63496 14.2435 4.39584 14.8208C4.15673 15.3981 3.80626 15.9226 3.36443 16.3644C2.92261 16.8063 2.39809 17.1567 1.82082 17.3958C1.24355 17.635 0.624835 17.758 1.41074e-06 17.758L1.57361e-06 19Z" fill="#7F70F5"/>
</g>
</g>
<defs>
<clipPath id="clip0_65_14004">
<rect width="17" height="24" fill="white"/>
</clipPath>
</defs>
</svg>
