<svg width="149" height="40" viewBox="0 0 149 40" fill="none" xmlns="http://www.w3.org/2000/svg">
<path d="M28.38 25.2C27.1933 25.2 26.2 24.96 25.4 24.48C24.6067 24 24.0067 23.3667 23.6 22.58C23.2 21.7867 23 20.9167 23 19.97C23 19.0567 23.1867 18.2167 23.56 17.45C23.94 16.6767 24.49 16.06 25.21 15.6C25.9367 15.1333 26.8167 14.9 27.85 14.9C28.7567 14.9 29.53 15.0833 30.17 15.45C30.81 15.8167 31.2967 16.3233 31.63 16.97C31.97 17.61 32.14 18.3433 32.14 19.17C32.14 19.3567 32.1267 19.5533 32.1 19.76C32.08 19.96 32.05 20.1667 32.01 20.38H25.31C25.4033 21.1067 25.6067 21.6833 25.92 22.11C26.2333 22.5367 26.6233 22.8467 27.09 23.04C27.5567 23.2267 28.06 23.32 28.6 23.32C29.1333 23.32 29.6467 23.2567 30.14 23.13C30.64 22.9967 31.1033 22.8167 31.53 22.59L31.7 24.44C31.32 24.6267 30.85 24.8 30.29 24.96C29.73 25.12 29.0933 25.2 28.38 25.2ZM25.41 18.86H29.86C29.86 18.5 29.79 18.1633 29.65 17.85C29.5167 17.53 29.3 17.2733 29 17.08C28.7067 16.88 28.32 16.78 27.84 16.78C27.14 16.78 26.5933 16.97 26.2 17.35C25.8133 17.73 25.55 18.2333 25.41 18.86Z" fill="#11075F"/>
<path d="M33.6253 25L36.9753 20.04L33.6553 15.07H36.2653L38.3253 18.33L40.2153 15.07H42.8653L39.5753 19.99L42.9053 25H40.2853L38.2253 21.75L36.2453 25H33.6253Z" fill="#11075F"/>
<path d="M45.1023 29.84V15.07H46.8823L47.3123 16.94L46.6523 16.65C47.099 16.1167 47.6023 15.6933 48.1623 15.38C48.729 15.06 49.419 14.9 50.2323 14.9C51.1857 14.9 51.989 15.1333 52.6423 15.6C53.3023 16.0667 53.8023 16.69 54.1423 17.47C54.4823 18.25 54.6523 19.11 54.6523 20.05C54.6523 20.99 54.4857 21.85 54.1523 22.63C53.819 23.41 53.3257 24.0333 52.6723 24.5C52.019 24.9667 51.2057 25.2 50.2323 25.2C49.4523 25.2 48.7923 25.0733 48.2523 24.82C47.719 24.5667 47.2423 24.1733 46.8223 23.64L47.3323 23.19V29.84H45.1023ZM49.8723 23.32C50.659 23.32 51.2723 23.0233 51.7123 22.43C52.1523 21.83 52.3723 21.0367 52.3723 20.05C52.3723 19.0567 52.1523 18.2633 51.7123 17.67C51.2723 17.0767 50.659 16.78 49.8723 16.78C49.3123 16.78 48.8323 16.9133 48.4323 17.18C48.039 17.44 47.739 17.8133 47.5323 18.3C47.3257 18.7867 47.2223 19.37 47.2223 20.05C47.2223 20.7433 47.3257 21.3333 47.5323 21.82C47.739 22.3067 48.039 22.68 48.4323 22.94C48.8323 23.1933 49.3123 23.32 49.8723 23.32Z" fill="#11075F"/>
<path d="M62.0105 25.2C60.8238 25.2 59.8305 24.96 59.0305 24.48C58.2371 24 57.6371 23.3667 57.2305 22.58C56.8305 21.7867 56.6305 20.9167 56.6305 19.97C56.6305 19.0567 56.8171 18.2167 57.1905 17.45C57.5705 16.6767 58.1205 16.06 58.8405 15.6C59.5671 15.1333 60.4471 14.9 61.4805 14.9C62.3871 14.9 63.1605 15.0833 63.8005 15.45C64.4405 15.8167 64.9271 16.3233 65.2605 16.97C65.6005 17.61 65.7705 18.3433 65.7705 19.17C65.7705 19.3567 65.7571 19.5533 65.7305 19.76C65.7105 19.96 65.6805 20.1667 65.6405 20.38H58.9405C59.0338 21.1067 59.2371 21.6833 59.5505 22.11C59.8638 22.5367 60.2538 22.8467 60.7205 23.04C61.1871 23.2267 61.6905 23.32 62.2305 23.32C62.7638 23.32 63.2771 23.2567 63.7705 23.13C64.2705 22.9967 64.7338 22.8167 65.1605 22.59L65.3305 24.44C64.9505 24.6267 64.4805 24.8 63.9205 24.96C63.3605 25.12 62.7238 25.2 62.0105 25.2ZM59.0405 18.86H63.4905C63.4905 18.5 63.4205 18.1633 63.2805 17.85C63.1471 17.53 62.9305 17.2733 62.6305 17.08C62.3371 16.88 61.9505 16.78 61.4705 16.78C60.7705 16.78 60.2238 16.97 59.8305 17.35C59.4438 17.73 59.1805 18.2333 59.0405 18.86Z" fill="#11075F"/>
<path d="M68.3039 25V15.07H70.2939L70.4839 16.94L69.8639 16.35C70.3439 15.8767 70.8639 15.5167 71.4239 15.27C71.9906 15.0233 72.6072 14.9 73.2739 14.9C74.6072 14.9 75.5839 15.32 76.2039 16.16C76.8239 17 77.1339 18.11 77.1339 19.49V25H74.9039V19.61C74.9039 18.6367 74.7339 17.9233 74.3939 17.47C74.0539 17.01 73.4939 16.78 72.7139 16.78C72.1072 16.78 71.5906 16.92 71.1639 17.2C70.7372 17.48 70.4039 17.8833 70.1639 18.41L70.5339 17.23V25H68.3039Z" fill="#11075F"/>
<path d="M83.0177 25.2C82.2843 25.2 81.6443 25.1233 81.0977 24.97C80.551 24.81 80.0677 24.6267 79.6477 24.42L79.8677 22.43C80.2677 22.69 80.7243 22.9233 81.2377 23.13C81.751 23.33 82.3177 23.43 82.9377 23.43C83.4843 23.43 83.901 23.3433 84.1877 23.17C84.4743 22.99 84.6177 22.7167 84.6177 22.35C84.6177 22.0633 84.5343 21.83 84.3677 21.65C84.201 21.4633 83.9743 21.3067 83.6877 21.18C83.4077 21.0467 83.091 20.92 82.7377 20.8C82.1843 20.6133 81.6843 20.4033 81.2377 20.17C80.791 19.93 80.4343 19.6233 80.1677 19.25C79.9077 18.8767 79.7777 18.3933 79.7777 17.8C79.7777 17.2533 79.9177 16.76 80.1977 16.32C80.4777 15.8733 80.891 15.52 81.4377 15.26C81.9843 15 82.6643 14.87 83.4777 14.87C84.1177 14.87 84.671 14.94 85.1377 15.08C85.611 15.22 86.0377 15.3933 86.4177 15.6L86.1977 17.55C85.8043 17.2633 85.3943 17.0267 84.9677 16.84C84.541 16.6467 84.0577 16.55 83.5177 16.55C83.0377 16.55 82.6577 16.6433 82.3777 16.83C82.1043 17.0167 81.9677 17.2933 81.9677 17.66C81.9677 18.0733 82.141 18.3767 82.4877 18.57C82.8343 18.7633 83.3743 18.9933 84.1077 19.26C84.4943 19.4 84.8543 19.5533 85.1877 19.72C85.521 19.8867 85.8143 20.0833 86.0677 20.31C86.321 20.5367 86.5177 20.8067 86.6577 21.12C86.7977 21.4333 86.8677 21.8067 86.8677 22.24C86.8677 22.8 86.7343 23.3033 86.4677 23.75C86.201 24.1967 85.7843 24.55 85.2177 24.81C84.651 25.07 83.9177 25.2 83.0177 25.2Z" fill="#11075F"/>
<path d="M94.1761 25.2C92.9894 25.2 91.9961 24.96 91.1961 24.48C90.4028 24 89.8028 23.3667 89.3961 22.58C88.9961 21.7867 88.7961 20.9167 88.7961 19.97C88.7961 19.0567 88.9828 18.2167 89.3561 17.45C89.7361 16.6767 90.2861 16.06 91.0061 15.6C91.7328 15.1333 92.6128 14.9 93.6461 14.9C94.5528 14.9 95.3261 15.0833 95.9661 15.45C96.6061 15.8167 97.0928 16.3233 97.4261 16.97C97.7661 17.61 97.9361 18.3433 97.9361 19.17C97.9361 19.3567 97.9228 19.5533 97.8961 19.76C97.8761 19.96 97.8461 20.1667 97.8061 20.38H91.1061C91.1994 21.1067 91.4028 21.6833 91.7161 22.11C92.0294 22.5367 92.4194 22.8467 92.8861 23.04C93.3528 23.2267 93.8561 23.32 94.3961 23.32C94.9294 23.32 95.4428 23.2567 95.9361 23.13C96.4361 22.9967 96.8994 22.8167 97.3261 22.59L97.4961 24.44C97.1161 24.6267 96.6461 24.8 96.0861 24.96C95.5261 25.12 94.8894 25.2 94.1761 25.2ZM91.2061 18.86H95.6561C95.6561 18.5 95.5861 18.1633 95.4461 17.85C95.3128 17.53 95.0961 17.2733 94.7961 17.08C94.5028 16.88 94.1161 16.78 93.6361 16.78C92.9361 16.78 92.3894 16.97 91.9961 17.35C91.6094 17.73 91.3461 18.2333 91.2061 18.86Z" fill="#11075F"/>
<path d="M105.53 25.2C104.796 25.2 104.136 25.0633 103.55 24.79C102.97 24.51 102.48 24.1167 102.08 23.61L102.71 23.16L102.51 25H100.45V10H102.68V16.83L102.16 16.48C102.566 16 103.053 15.6167 103.62 15.33C104.193 15.0433 104.83 14.9 105.53 14.9C106.49 14.9 107.3 15.1367 107.96 15.61C108.626 16.0833 109.133 16.7133 109.48 17.5C109.826 18.28 110 19.13 110 20.05C110 20.99 109.82 21.85 109.46 22.63C109.1 23.41 108.586 24.0333 107.92 24.5C107.253 24.9667 106.456 25.2 105.53 25.2ZM105.22 23.32C105.746 23.32 106.196 23.18 106.57 22.9C106.943 22.6133 107.226 22.2233 107.42 21.73C107.62 21.2367 107.72 20.6767 107.72 20.05C107.72 19.41 107.62 18.8467 107.42 18.36C107.226 17.8667 106.943 17.48 106.57 17.2C106.196 16.92 105.746 16.78 105.22 16.78C104.666 16.78 104.193 16.9133 103.8 17.18C103.406 17.44 103.103 17.8133 102.89 18.3C102.676 18.7867 102.57 19.37 102.57 20.05C102.57 20.7433 102.676 21.3333 102.89 21.82C103.103 22.3067 103.406 22.68 103.8 22.94C104.193 23.1933 104.666 23.32 105.22 23.32Z" fill="#11075F"/>
<path d="M117.028 25.2C115.961 25.2 115.051 24.9667 114.298 24.5C113.551 24.0333 112.978 23.41 112.578 22.63C112.185 21.85 111.988 20.99 111.988 20.05C111.988 19.11 112.185 18.2467 112.578 17.46C112.978 16.6733 113.551 16.0467 114.298 15.58C115.051 15.1067 115.961 14.87 117.028 14.87C118.088 14.87 118.995 15.1067 119.748 15.58C120.501 16.0467 121.075 16.6733 121.468 17.46C121.868 18.2467 122.068 19.11 122.068 20.05C122.068 20.99 121.868 21.85 121.468 22.63C121.075 23.41 120.501 24.0333 119.748 24.5C118.995 24.9667 118.088 25.2 117.028 25.2ZM117.028 23.32C117.908 23.32 118.585 23.0233 119.058 22.43C119.538 21.83 119.778 21.0367 119.778 20.05C119.778 19.05 119.538 18.25 119.058 17.65C118.585 17.05 117.908 16.75 117.028 16.75C116.148 16.75 115.468 17.05 114.988 17.65C114.508 18.25 114.268 19.05 114.268 20.05C114.268 21.0367 114.508 21.83 114.988 22.43C115.468 23.0233 116.148 23.32 117.028 23.32Z" fill="#11075F"/>
<path d="M129.078 25.2C128.011 25.2 127.101 24.9667 126.348 24.5C125.601 24.0333 125.028 23.41 124.628 22.63C124.235 21.85 124.038 20.99 124.038 20.05C124.038 19.11 124.235 18.2467 124.628 17.46C125.028 16.6733 125.601 16.0467 126.348 15.58C127.101 15.1067 128.011 14.87 129.078 14.87C130.138 14.87 131.045 15.1067 131.798 15.58C132.551 16.0467 133.125 16.6733 133.518 17.46C133.918 18.2467 134.118 19.11 134.118 20.05C134.118 20.99 133.918 21.85 133.518 22.63C133.125 23.41 132.551 24.0333 131.798 24.5C131.045 24.9667 130.138 25.2 129.078 25.2ZM129.078 23.32C129.958 23.32 130.635 23.0233 131.108 22.43C131.588 21.83 131.828 21.0367 131.828 20.05C131.828 19.05 131.588 18.25 131.108 17.65C130.635 17.05 129.958 16.75 129.078 16.75C128.198 16.75 127.518 17.05 127.038 17.65C126.558 18.25 126.318 19.05 126.318 20.05C126.318 21.0367 126.558 21.83 127.038 22.43C127.518 23.0233 128.198 23.32 129.078 23.32Z" fill="#11075F"/>
<path d="M136.658 25V10H138.888V19.29L142.178 15.07H144.758L141.018 19.79L144.848 25H142.258L138.888 20.36V25H136.658Z" fill="#11075F"/>
<g clip-path="url(#clip0_676_70673)">
<path d="M13 19C13 17.8181 12.7672 16.6478 12.3149 15.5558C11.8626 14.4639 11.1997 13.4718 10.364 12.636C9.52823 11.8003 8.53608 11.1374 7.44415 10.6851C6.35222 10.2328 5.1819 10 4 10V11.863C4.93725 11.863 5.86532 12.0476 6.73123 12.4062C7.59713 12.7649 8.38391 13.2906 9.04665 13.9534C9.70938 14.6161 10.2351 15.4029 10.5938 16.2688C10.9524 17.1347 11.137 18.0628 11.137 19H13Z" fill="#4C36F1"/>
<path d="M21 10C19.8181 10 18.6478 10.2328 17.5558 10.6851C16.4639 11.1374 15.4718 11.8003 14.636 12.636C13.8003 13.4718 13.1374 14.4639 12.6851 15.5558C12.2328 16.6478 12 17.8181 12 19L13.863 19C13.863 18.0628 14.0476 17.1347 14.4062 16.2688C14.7649 15.4029 15.2906 14.6161 15.9533 13.9534C16.6161 13.2906 17.4029 12.7649 18.2688 12.4062C19.1347 12.0476 20.0628 11.863 21 11.863L21 10Z" fill="#4C36F1"/>
<path d="M12 21C12 22.1819 12.2328 23.3522 12.6851 24.4442C13.1374 25.5361 13.8003 26.5282 14.636 27.364C15.4718 28.1997 16.4639 28.8626 17.5558 29.3149C18.6478 29.7672 19.8181 30 21 30L21 28.137C20.0628 28.137 19.1347 27.9524 18.2688 27.5938C17.4029 27.2351 16.6161 26.7094 15.9534 26.0467C15.2906 25.3839 14.7649 24.5971 14.4062 23.7312C14.0476 22.8653 13.863 21.9373 13.863 21L12 21Z" fill="#7F70F5"/>
<path d="M4 30C5.1819 30 6.35222 29.7672 7.44415 29.3149C8.53608 28.8626 9.52824 28.1997 10.364 27.364C11.1997 26.5282 11.8626 25.5361 12.3149 24.4442C12.7672 23.3522 13 22.1819 13 21L11.137 21C11.137 21.9372 10.9524 22.8653 10.5938 23.7312C10.2351 24.5971 9.70939 25.3839 9.04665 26.0466C8.38392 26.7094 7.59713 27.2351 6.73123 27.5938C5.86532 27.9524 4.93725 28.137 4 28.137L4 30Z" fill="#7F70F5"/>
<path d="M10 19C10 18.2121 9.84481 17.4319 9.54328 16.7039C9.24175 15.9759 8.79979 15.3145 8.24264 14.7574C7.68549 14.2002 7.02405 13.7583 6.2961 13.4567C5.56815 13.1552 4.78793 13 4 13L4 14.242C4.62483 14.242 5.24355 14.365 5.82082 14.6042C6.39809 14.8433 6.92261 15.1937 7.36443 15.6356C7.80626 16.0774 8.15673 16.6019 8.39584 17.1792C8.63496 17.7565 8.75803 18.3752 8.75803 19H10Z" fill="#4C36F1"/>
<path d="M21 13C20.2121 13 19.4319 13.1552 18.7039 13.4567C17.9759 13.7583 17.3145 14.2002 16.7574 14.7574C16.2002 15.3145 15.7583 15.9759 15.4567 16.7039C15.1552 17.4319 15 18.2121 15 19L16.242 19C16.242 18.3752 16.365 17.7565 16.6042 17.1792C16.8433 16.6019 17.1937 16.0774 17.6356 15.6356C18.0774 15.1937 18.6019 14.8433 19.1792 14.6042C19.7565 14.365 20.3752 14.242 21 14.242L21 13Z" fill="#4C36F1"/>
<path d="M15 21C15 21.7879 15.1552 22.5681 15.4567 23.2961C15.7583 24.0241 16.2002 24.6855 16.7574 25.2426C17.3145 25.7998 17.9759 26.2417 18.7039 26.5433C19.4319 26.8448 20.2121 27 21 27L21 25.758C20.3752 25.758 19.7565 25.635 19.1792 25.3958C18.6019 25.1567 18.0774 24.8063 17.6356 24.3644C17.1937 23.9226 16.8433 23.3981 16.6042 22.8208C16.365 22.2435 16.242 21.6248 16.242 21L15 21Z" fill="#7F70F5"/>
<path d="M4 27C4.78793 27 5.56815 26.8448 6.2961 26.5433C7.02406 26.2417 7.68549 25.7998 8.24264 25.2426C8.79979 24.6855 9.24175 24.0241 9.54328 23.2961C9.84481 22.5681 10 21.7879 10 21L8.75803 21C8.75803 21.6248 8.63496 22.2435 8.39584 22.8208C8.15673 23.3981 7.80626 23.9226 7.36443 24.3644C6.92261 24.8063 6.39809 25.1567 5.82082 25.3958C5.24355 25.635 4.62483 25.758 4 25.758L4 27Z" fill="#7F70F5"/>
</g>
<defs>
<clipPath id="clip0_676_70673">
<rect width="17" height="24" fill="white" transform="translate(4 8)"/>
</clipPath>
</defs>
</svg>
