<svg width="15" height="21" viewBox="0 0 15 21" fill="none" xmlns="http://www.w3.org/2000/svg">
<g id="Frame 504" clip-path="url(#clip0_1627_6453)">
<g id="Group 8">
<path id="Ellipse 7" d="M7.91397 9.67134C7.91397 8.63212 7.70928 7.60308 7.31158 6.64296C6.91389 5.68285 6.33099 4.81047 5.59615 4.07563C4.86131 3.34079 3.98893 2.75789 3.02882 2.36019C2.0687 1.9625 1.03966 1.75781 0.000439644 1.75781V3.39588C0.824545 3.39588 1.64058 3.5582 2.40195 3.87357C3.16333 4.18894 3.85513 4.65119 4.43786 5.23392C5.02059 5.81665 5.48284 6.50845 5.79821 7.26982C6.11358 8.0312 6.2759 8.84723 6.2759 9.67134H7.91397Z" fill="#AAA0F8"/>
<path id="Ellipse 9" d="M14.9487 1.75889C13.9095 1.75889 12.8804 1.96357 11.9203 2.36127C10.9602 2.75896 10.0878 3.34186 9.35297 4.0767C8.61813 4.81154 8.03523 5.68392 7.63754 6.64404C7.23985 7.60415 7.03516 8.63319 7.03516 9.67241L8.67322 9.67241C8.67322 8.84831 8.83554 8.03227 9.15091 7.2709C9.46628 6.50952 9.92853 5.81772 10.5113 5.23499C11.094 4.65226 11.7858 4.19001 12.5472 3.87464C13.3085 3.55927 14.1246 3.39695 14.9487 3.39695L14.9487 1.75889Z" fill="#AAA0F8"/>
<path id="Ellipse 11" d="M7.03428 11.4302C7.03428 12.4694 7.23896 13.4985 7.63666 14.4586C8.03435 15.4187 8.61725 16.2911 9.35209 17.0259C10.0869 17.7608 10.9593 18.3437 11.9194 18.7414C12.8795 19.1391 13.9086 19.3438 14.9478 19.3438L14.9478 17.7057C14.1237 17.7057 13.3077 17.5434 12.5463 17.228C11.7849 16.9126 11.0931 16.4504 10.5104 15.8676C9.92765 15.2849 9.4654 14.5931 9.15003 13.8317C8.83466 13.0704 8.67234 12.2543 8.67234 11.4302L7.03428 11.4302Z" fill="#AAA0F8"/>
<path id="Ellipse 13" d="M0.000538517 19.3427C1.03976 19.3427 2.0688 19.138 3.02891 18.7403C3.98903 18.3426 4.86141 17.7597 5.59625 17.0249C6.33108 16.29 6.91399 15.4176 7.31168 14.4575C7.70937 13.4974 7.91406 12.4684 7.91406 11.4292L6.276 11.4292C6.276 12.2533 6.11368 13.0693 5.79831 13.8307C5.48294 14.592 5.02069 15.2838 4.43796 15.8666C3.85523 16.4493 3.16343 16.9116 2.40205 17.2269C1.64068 17.5423 0.824644 17.7046 0.000538302 17.7046L0.000538517 19.3427Z" fill="#AAA0F8"/>
<path id="Ellipse 8" d="M5.27598 9.67022C5.27598 8.9774 5.13952 8.29137 4.87439 7.6513C4.60926 7.01122 4.22066 6.42964 3.73077 5.93974C3.24087 5.44985 2.65929 5.06125 2.01921 4.79612C1.37913 4.53099 0.693106 4.39453 0.000293255 4.39453V5.48657C0.549696 5.48657 1.09372 5.59479 1.6013 5.80503C2.10889 6.01528 2.57009 6.32345 2.95857 6.71193C3.34706 7.10042 3.65523 7.56162 3.86547 8.06921C4.07572 8.57679 4.18393 9.12081 4.18393 9.67022H5.27598Z" fill="#AAA0F8"/>
<path id="Ellipse 10" d="M14.9485 4.39394C14.2557 4.39394 13.5697 4.5304 12.9296 4.79553C12.2895 5.06066 11.708 5.44926 11.2181 5.93916C10.7282 6.42905 10.3396 7.01064 10.0744 7.65071C9.80931 8.29079 9.67285 8.97682 9.67285 9.66963L10.7649 9.66963C10.7649 9.12023 10.8731 8.5762 11.0834 8.06862C11.2936 7.56104 11.6018 7.09983 11.9903 6.71135C12.3787 6.32286 12.8399 6.0147 13.3475 5.80445C13.8551 5.5942 14.3991 5.48599 14.9485 5.48599L14.9485 4.39394Z" fill="#AAA0F8"/>
<path id="Ellipse 12" d="M9.67226 11.4313C9.67226 12.1242 9.80872 12.8102 10.0739 13.4503C10.339 14.0903 10.7276 14.6719 11.2175 15.1618C11.7074 15.6517 12.289 16.0403 12.929 16.3054C13.5691 16.5706 14.2551 16.707 14.9479 16.707L14.9479 15.615C14.3985 15.615 13.8545 15.5068 13.3469 15.2965C12.8394 15.0863 12.3782 14.7781 11.9897 14.3896C11.6012 14.0011 11.293 13.5399 11.0828 13.0324C10.8725 12.5248 10.7643 11.9808 10.7643 11.4313L9.67226 11.4313Z" fill="#AAA0F8"/>
<path id="Ellipse 14" d="M0.000684691 16.7037C0.693498 16.7037 1.37953 16.5673 2.0196 16.3021C2.65968 16.037 3.24126 15.6484 3.73116 15.1585C4.22105 14.6686 4.60965 14.087 4.87478 13.4469C5.13991 12.8069 5.27637 12.1208 5.27637 11.428L4.18432 11.428C4.18433 11.9774 4.07611 12.5215 3.86586 13.029C3.65562 13.5366 3.34745 13.9978 2.95897 14.3863C2.57048 14.7748 2.10928 15.083 1.60169 15.2932C1.09411 15.5035 0.550088 15.6117 0.000684548 15.6117L0.000684691 16.7037Z" fill="#AAA0F8"/>
</g>
</g>
<defs>
<clipPath id="clip0_1627_6453">
<rect width="14.9478" height="21" fill="white"/>
</clipPath>
</defs>
</svg>
