<svg width="16" height="17" viewBox="0 0 16 17" fill="none" xmlns="http://www.w3.org/2000/svg">
<g id="HouseSimple">
<path id="Vector" d="M14 7.72081V13.4989C14 13.7642 13.8946 14.0185 13.7071 14.206C13.5196 14.3936 13.2652 14.4989 13 14.4989H3C2.73478 14.4989 2.48043 14.3936 2.29289 14.206C2.10536 14.0185 2 13.7642 2 13.4989V7.72081C1.99998 7.58241 2.02869 7.44551 2.08431 7.31878C2.13993 7.19205 2.22125 7.07824 2.32312 6.98456L7.32312 2.26706L7.33 2.26019C7.51409 2.09277 7.75398 2 8.00281 2C8.25164 2 8.49154 2.09277 8.67562 2.26019C8.67776 2.26263 8.68005 2.26493 8.6825 2.26706L13.6825 6.98456C13.7834 7.07874 13.8636 7.19277 13.9183 7.31947C13.9729 7.44618 14.0007 7.58283 14 7.72081Z" fill="#4C36F1"/>
</g>
</svg>
