<svg xmlns="http://www.w3.org/2000/svg" width="16" height="17" viewBox="0 0 16 17" fill="none">
<g opacity="1">
<path d="M13.6769 6.98456L8.67688 2.26706C8.67443 2.26493 8.67213 2.26263 8.67 2.26019C8.48591 2.09277 8.24602 2 7.99719 2C7.74836 2 7.50846 2.09277 7.32438 2.26019L7.3175 2.26706L2.32312 6.98456C2.22125 7.07824 2.13993 7.19205 2.08431 7.31878C2.02869 7.44551 1.99998 7.58241 2 7.72081V13.4989C2 13.7642 2.10536 14.0185 2.29289 14.206C2.48043 14.3936 2.73478 14.4989 3 14.4989H13C13.2652 14.4989 13.5196 14.3936 13.7071 14.206C13.8946 14.0185 14 13.7642 14 13.4989V7.72081C14 7.58241 13.9713 7.44551 13.9157 7.31878C13.8601 7.19205 13.7788 7.07824 13.6769 6.98456ZM13 13.4989H3V7.72081L3.00688 7.71456L8 2.99894L12.9937 7.71331L13.0006 7.71956L13 13.4989Z" fill="#FFFFFF"/>
</g>
</svg>