<svg width="24" height="24" viewBox="0 0 24 24" fill="none" xmlns="http://www.w3.org/2000/svg">
<g id="in-flight">
<path id="Vector" d="M6 20C6 16.4102 8.6863 13.5 12 13.5C15.3137 13.5 18 16.4102 18 20" stroke="#32333B" stroke-width="2" stroke-linecap="round"/>
<path id="Vector_2" d="M6.5 18.4997C6.5 18.9997 7.75 19.4997 8.5 18.9997C9.25 18.4997 9.47985 17.2472 10.2499 17.4628C11.0198 17.6784 11 19.2497 12 19.9997C13 20.7497 14.75 20.4997 15.5 19.2497C16.25 17.9997 15.4603 17.6622 16.0306 16.8513C16.4107 16.3107 16.8959 16.4433 17 16.4997" stroke="#32333B" stroke-width="2" stroke-linecap="round"/>
<path id="Vector_3" d="M11.5 10.5H12.5" stroke="#32333B" stroke-width="2" stroke-linecap="round" stroke-linejoin="round"/>
<path id="Vector_4" d="M16.0762 11.2354L16.9242 11.7653" stroke="#32333B" stroke-width="2" stroke-linecap="round" stroke-linejoin="round"/>
<path id="Vector_5" d="M7.07617 11.7653L7.92422 11.2354" stroke="#32333B" stroke-width="2" stroke-linecap="round" stroke-linejoin="round"/>
<path id="Vector_6" d="M19.5293 14.0674L20.0293 14.9334" stroke="#32333B" stroke-width="2" stroke-linecap="round" stroke-linejoin="round"/>
<path id="Vector_7" d="M4.0293 14.9334L4.5293 14.0674" stroke="#32333B" stroke-width="2" stroke-linecap="round" stroke-linejoin="round"/>
<path id="Vector_8" d="M20.9473 18.5029L21.0518 19.4974" stroke="#32333B" stroke-width="2" stroke-linecap="round" stroke-linejoin="round"/>
<path id="Vector_9" d="M2.44727 19.4974L2.5518 18.5029" stroke="#32333B" stroke-width="2" stroke-linecap="round" stroke-linejoin="round"/>
<path id="Vector_10" d="M21.0002 5L4.5 9" stroke="#32333B" stroke-width="2" stroke-linecap="round"/>
<path id="Vector_11" d="M8 3.5L14.5 6.5L8.5 8L6 4.5L8 3.5Z" stroke="#32333B" stroke-width="2" stroke-linecap="round" stroke-linejoin="round"/>
<path id="Vector_12" d="M4.5 9L3 7" stroke="#32333B" stroke-width="2" stroke-linecap="round" stroke-linejoin="round"/>
</g>
</svg>
