<svg xmlns="http://www.w3.org/2000/svg" width="24" height="24" viewBox="0 0 24 24" fill="none">
  <path fill-rule="evenodd" clip-rule="evenodd" d="M12 3C9.55575 3 9.24926 3.01036 8.28931 3.05416C7.33137 3.09785 6.67712 3.25001 6.10466 3.47251C5.51283 3.70247 5.01092 4.01021 4.51055 4.51055C4.01021 5.01092 3.70247 5.51283 3.47251 6.10466C3.25001 6.67712 3.09785 7.33137 3.05416 8.28931C3.01036 9.24926 3 9.55575 3 12C3 14.4443 3.01036 14.7507 3.05416 15.7107C3.09785 16.6686 3.25001 17.3229 3.47251 17.8953C3.70247 18.4872 4.01021 18.9891 4.51055 19.4895C5.01092 19.9898 5.51283 20.2975 6.10466 20.5275C6.67712 20.75 7.33137 20.9021 8.28931 20.9458C9.24926 20.9896 9.55575 21 12 21C14.4443 21 14.7507 20.9896 15.7107 20.9458C16.6686 20.9021 17.3229 20.75 17.8953 20.5275C18.4872 20.2975 18.9891 19.9898 19.4895 19.4895C19.9898 18.9891 20.2975 18.4872 20.5275 17.8953C20.75 17.3229 20.9021 16.6686 20.9458 15.7107C20.9896 14.7507 21 14.4443 21 12C21 9.55575 20.9896 9.24926 20.9458 8.28931C20.9021 7.33137 20.75 6.67712 20.5275 6.10466C20.2975 5.51283 19.9898 5.01092 19.4895 4.51055C18.9891 4.01021 18.4872 3.70247 17.8953 3.47251C17.3229 3.25001 16.6686 3.09785 15.7107 3.05416C14.7507 3.01036 14.4443 3 12 3ZM12 4.62162C14.4031 4.62162 14.6878 4.6308 15.6368 4.6741C16.5143 4.71411 16.9908 4.86073 17.3079 4.98398C17.728 5.14725 18.0278 5.34227 18.3428 5.65723C18.6577 5.97215 18.8528 6.27196 19.016 6.69206C19.1393 7.00919 19.2859 7.48574 19.3259 8.36323C19.3692 9.31224 19.3784 9.5969 19.3784 12C19.3784 14.4031 19.3692 14.6878 19.3259 15.6368C19.2859 16.5143 19.1393 16.9908 19.016 17.3079C18.8528 17.728 18.6577 18.0278 18.3428 18.3428C18.0278 18.6577 17.728 18.8528 17.3079 19.016C16.9908 19.1393 16.5143 19.2859 15.6368 19.3259C14.6879 19.3692 14.4033 19.3784 12 19.3784C9.59672 19.3784 9.31213 19.3692 8.36323 19.3259C7.48574 19.2859 7.00919 19.1393 6.69206 19.016C6.27196 18.8528 5.97215 18.6577 5.65723 18.3428C5.34231 18.0278 5.14725 17.728 4.98398 17.3079C4.86073 16.9908 4.71411 16.5143 4.6741 15.6368C4.6308 14.6878 4.62162 14.4031 4.62162 12C4.62162 9.5969 4.6308 9.31224 4.6741 8.36323C4.71411 7.48574 4.86073 7.00919 4.98398 6.69206C5.14725 6.27196 5.34227 5.97215 5.65723 5.65723C5.97215 5.34227 6.27196 5.14725 6.69206 4.98398C7.00919 4.86073 7.48574 4.71411 8.36323 4.6741C9.31224 4.6308 9.5969 4.62162 12 4.62162ZM7.37838 12C7.37838 9.44753 9.44753 7.37838 12 7.37838C14.5525 7.37838 16.6216 9.44753 16.6216 12C16.6216 14.5525 14.5525 16.6216 12 16.6216C9.44753 16.6216 7.37838 14.5525 7.37838 12ZM12 15C10.3431 15 9 13.6569 9 12C9 10.3431 10.3431 9 12 9C13.6569 9 15 10.3431 15 12C15 13.6569 13.6569 15 12 15ZM16.8042 8.27577C17.4007 8.27577 17.8842 7.79226 17.8842 7.19579C17.8842 6.59931 17.4007 6.11577 16.8042 6.11577C16.2078 6.11577 15.7242 6.59931 15.7242 7.19579C15.7242 7.79226 16.2078 8.27577 16.8042 8.27577Z" fill="#2D57EC"/>
</svg>