<svg xmlns="http://www.w3.org/2000/svg" width="24" height="24" viewBox="0 0 24 24" fill="none">
  <path fill-rule="evenodd" clip-rule="evenodd" d="M5.11877 7.77127H5.09337C3.82338 7.77127 3 6.94039 3 5.88717C3 4.81347 3.84772 4 5.14311 4C6.43744 4 7.2333 4.81142 7.2587 5.8841C7.2587 6.93731 6.43744 7.77127 5.11877 7.77127ZM21 20H17.0218V14.3754C17.0218 12.9031 16.3995 11.8981 15.031 11.8981C13.9844 11.8981 13.4023 12.5763 13.1313 13.2299C13.0419 13.4365 13.0435 13.7146 13.0452 14.0012V14.0012C13.0454 14.0401 13.0456 14.0791 13.0456 14.1182V20H9.10442C9.10442 20 9.15522 10.0365 9.10442 9.13082H13.0456V10.8367C13.2785 10.0908 14.5379 9.02632 16.5476 9.02632C19.041 9.02632 21 10.5897 21 13.9563V20ZM6.96237 9.13082H3.45402V20H6.96237V9.13082Z" fill="#2D57EC"/>
</svg>