<!-- <svg xmlns="http://www.w3.org/2000/svg" width="16" height="16" viewBox="0 0 16 16" fill="none">
<path d="M13 6.90909C13 10.7273 8 14 8 14C8 14 3 10.7273 3 6.90909C3 5.60712 3.52678 4.35847 4.46447 3.43784C5.40215 2.51721 6.67392 2 8 2C9.32608 2 10.5979 2.51721 11.5355 3.43784C12.4732 4.35847 13 5.60712 13 6.90909Z" stroke="#EAE7FD" stroke-linecap="round" stroke-linejoin="round"/>
<path d="M8 9C9.10457 9 10 8.10457 10 7C10 5.89543 9.10457 5 8 5C6.89543 5 6 5.89543 6 7C6 8.10457 6.89543 9 8 9Z" stroke="#EAE7FD" stroke-linecap="round" stroke-linejoin="round"/>
</svg> -->

<svg xmlns="http://www.w3.org/2000/svg" width="16" height="16" viewBox="0 0 16 16" fill="none">
<path d="M14 6.66602C14 11.3327 8 15.3327 8 15.3327C8 15.3327 2 11.3327 2 6.66602C2 5.07472 2.63214 3.54859 3.75736 2.42337C4.88258 1.29816 6.4087 0.666016 8 0.666016C9.5913 0.666016 11.1174 1.29816 12.2426 2.42337C13.3679 3.54859 14 5.07472 14 6.66602Z" stroke="#A7A6A6" stroke-linecap="round" stroke-linejoin="round"/>
<path d="M8 8.66602C9.10457 8.66602 10 7.77059 10 6.66602C10 5.56145 9.10457 4.66602 8 4.66602C6.89543 4.66602 6 5.56145 6 6.66602C6 7.77059 6.89543 8.66602 8 8.66602Z" stroke="#A7A6A6" stroke-linecap="round" stroke-linejoin="round"/>
</svg>