<svg width="202" height="49" viewBox="0 0 202 49" fill="none" xmlns="http://www.w3.org/2000/svg">
<path d="M37.4333 31.8323C35.7931 31.8323 34.42 31.5006 33.3142 30.8371C32.2176 30.1736 31.3883 29.2982 30.8262 28.2108C30.2733 27.1142 29.9968 25.9117 29.9968 24.6032C29.9968 23.3407 30.2548 22.1796 30.7709 21.1199C31.2961 20.051 32.0564 19.1986 33.0516 18.5627C34.056 17.9177 35.2724 17.5952 36.7007 17.5952C37.954 17.5952 39.0229 17.8486 39.9075 18.3554C40.7922 18.8622 41.4649 19.5626 41.9256 20.4564C42.3956 21.3411 42.6306 22.3547 42.6306 23.4974C42.6306 23.7554 42.6121 24.0272 42.5753 24.3129C42.5476 24.5893 42.5062 24.875 42.4509 25.1699H33.1898C33.3188 26.1743 33.5999 26.9714 34.033 27.5612C34.4661 28.1509 35.0052 28.5794 35.6502 28.8467C36.2953 29.1047 36.991 29.2337 37.7374 29.2337C38.4746 29.2337 39.1842 29.1461 39.8661 28.9711C40.5572 28.7868 41.1976 28.538 41.7874 28.2246L42.0224 30.7818C41.4971 31.0398 40.8475 31.2794 40.0734 31.5006C39.2994 31.7217 38.4193 31.8323 37.4333 31.8323ZM33.328 23.0689H39.479C39.479 22.5713 39.3823 22.1059 39.1888 21.6728C39.0045 21.2305 38.705 20.8757 38.2903 20.6085C37.8849 20.332 37.3504 20.1938 36.6869 20.1938C35.7193 20.1938 34.9637 20.4564 34.42 20.9817C33.8856 21.5069 33.5216 22.2027 33.328 23.0689Z" fill="#11075F"/>
<path d="M44.6836 31.5559L49.3142 24.6999L44.7251 17.8301H48.3328L51.1802 22.3363L53.7927 17.8301H57.4556L52.908 24.6308L57.5109 31.5559H53.8894L51.042 27.0636L48.3051 31.5559H44.6836Z" fill="#11075F"/>
<path d="M60.5477 38.2459V17.8301H63.0081L63.6025 20.4149L62.6902 20.0141C63.3076 19.2769 64.0034 18.6917 64.7774 18.2586C65.5607 17.8163 66.5144 17.5952 67.6387 17.5952C68.9564 17.5952 70.0668 17.9177 70.9699 18.5627C71.8822 19.2078 72.5733 20.0694 73.0433 21.1475C73.5132 22.2257 73.7482 23.4144 73.7482 24.7137C73.7482 26.013 73.5178 27.2018 73.0571 28.2799C72.5963 29.3581 71.9144 30.2197 71.0114 30.8647C70.1083 31.5098 68.9841 31.8323 67.6387 31.8323C66.5605 31.8323 65.6482 31.6572 64.9018 31.3071C64.1646 30.9569 63.5057 30.4132 62.9252 29.676L63.6302 29.054V38.2459H60.5477ZM67.1411 29.2337C68.2284 29.2337 69.0762 28.8236 69.6844 28.0035C70.2926 27.1741 70.5967 26.0776 70.5967 24.7137C70.5967 23.3407 70.2926 22.2441 69.6844 21.424C69.0762 20.6039 68.2284 20.1938 67.1411 20.1938C66.367 20.1938 65.7035 20.3781 65.1506 20.7467C64.6069 21.1061 64.1923 21.6221 63.9066 22.2948C63.6209 22.9675 63.4781 23.7738 63.4781 24.7137C63.4781 25.6721 63.6209 26.4876 63.9066 27.1603C64.1923 27.833 64.6069 28.349 65.1506 28.7084C65.7035 29.0586 66.367 29.2337 67.1411 29.2337Z" fill="#11075F"/>
<path d="M83.919 31.8323C82.2787 31.8323 80.9057 31.5006 79.7999 30.8371C78.7033 30.1736 77.8739 29.2982 77.3118 28.2108C76.7589 27.1142 76.4825 25.9117 76.4825 24.6032C76.4825 23.3407 76.7405 22.1796 77.2565 21.1199C77.7818 20.051 78.542 19.1986 79.5372 18.5627C80.5417 17.9177 81.758 17.5952 83.1864 17.5952C84.4396 17.5952 85.5085 17.8486 86.3932 18.3554C87.2778 18.8622 87.9505 19.5626 88.4113 20.4564C88.8812 21.3411 89.1162 22.3547 89.1162 23.4974C89.1162 23.7554 89.0978 24.0272 89.0609 24.3129C89.0333 24.5893 88.9918 24.875 88.9365 25.1699H79.6755C79.8045 26.1743 80.0855 26.9714 80.5186 27.5612C80.9517 28.1509 81.4908 28.5794 82.1359 28.8467C82.7809 29.1047 83.4766 29.2337 84.223 29.2337C84.9603 29.2337 85.6698 29.1461 86.3517 28.9711C87.0428 28.7868 87.6833 28.538 88.273 28.2246L88.508 30.7818C87.9828 31.0398 87.3331 31.2794 86.5591 31.5006C85.785 31.7217 84.905 31.8323 83.919 31.8323ZM79.8137 23.0689H85.9647C85.9647 22.5713 85.8679 22.1059 85.6744 21.6728C85.4901 21.2305 85.1906 20.8757 84.776 20.6085C84.3705 20.332 83.836 20.1938 83.1725 20.1938C82.205 20.1938 81.4493 20.4564 80.9057 20.9817C80.3712 21.5069 80.0072 22.2027 79.8137 23.0689Z" fill="#11075F"/>
<path d="M92.618 31.5559V17.8301H95.3687L95.6313 20.4149L94.7744 19.5994C95.4378 18.9452 96.1566 18.4475 96.9307 18.1066C97.7139 17.7656 98.5663 17.5952 99.4878 17.5952C101.331 17.5952 102.681 18.1757 103.538 19.3368C104.395 20.4979 104.823 22.0322 104.823 23.9397V31.5559H101.741V24.1055C101.741 22.7602 101.506 21.7742 101.036 21.1475C100.566 20.5117 99.7919 20.1938 98.7138 20.1938C97.8752 20.1938 97.161 20.3873 96.5713 20.7743C95.9815 21.1614 95.5208 21.7189 95.189 22.4468L95.7005 20.8158V31.5559H92.618Z" fill="#11075F"/>
<path d="M112.956 31.8323C111.942 31.8323 111.058 31.7263 110.302 31.5144C109.547 31.2932 108.878 31.0398 108.298 30.7542L108.602 28.0035C109.155 28.3629 109.786 28.6854 110.496 28.9711C111.205 29.2475 111.989 29.3857 112.846 29.3857C113.601 29.3857 114.177 29.2659 114.573 29.0263C114.97 28.7775 115.168 28.3997 115.168 27.8929C115.168 27.4967 115.053 27.1741 114.822 26.9253C114.592 26.6673 114.278 26.4508 113.882 26.2757C113.495 26.0914 113.057 25.9163 112.569 25.7504C111.804 25.4924 111.113 25.2021 110.496 24.8796C109.878 24.5479 109.385 24.124 109.017 23.6079C108.657 23.0919 108.478 22.4238 108.478 21.6037C108.478 20.848 108.671 20.1661 109.058 19.558C109.445 18.9405 110.017 18.4522 110.772 18.0928C111.528 17.7334 112.468 17.5537 113.592 17.5537C114.477 17.5537 115.241 17.6504 115.886 17.844C116.541 18.0375 117.13 18.2771 117.656 18.5627L117.352 21.2581C116.808 20.8619 116.241 20.5347 115.651 20.2767C115.062 20.0095 114.394 19.8759 113.647 19.8759C112.984 19.8759 112.458 20.0049 112.071 20.2629C111.694 20.5209 111.505 20.9033 111.505 21.4102C111.505 21.9815 111.744 22.4008 112.224 22.668C112.703 22.9352 113.449 23.2532 114.463 23.6218C114.997 23.8153 115.495 24.0272 115.956 24.2576C116.416 24.488 116.822 24.7598 117.172 25.0731C117.522 25.3864 117.794 25.7596 117.987 26.1927C118.181 26.6258 118.278 27.1419 118.278 27.7409C118.278 28.5149 118.093 29.2106 117.725 29.8281C117.356 30.4455 116.78 30.9339 115.997 31.2932C115.214 31.6526 114.2 31.8323 112.956 31.8323Z" fill="#11075F"/>
<path d="M128.38 31.8323C126.74 31.8323 125.367 31.5006 124.261 30.8371C123.164 30.1736 122.335 29.2982 121.773 28.2108C121.22 27.1142 120.943 25.9117 120.943 24.6032C120.943 23.3407 121.201 22.1796 121.717 21.1199C122.243 20.051 123.003 19.1986 123.998 18.5627C125.003 17.9177 126.219 17.5952 127.647 17.5952C128.9 17.5952 129.969 17.8486 130.854 18.3554C131.739 18.8622 132.411 19.5626 132.872 20.4564C133.342 21.3411 133.577 22.3547 133.577 23.4974C133.577 23.7554 133.559 24.0272 133.522 24.3129C133.494 24.5893 133.453 24.875 133.397 25.1699H124.136C124.265 26.1743 124.546 26.9714 124.979 27.5612C125.413 28.1509 125.952 28.5794 126.597 28.8467C127.242 29.1047 127.938 29.2337 128.684 29.2337C129.421 29.2337 130.131 29.1461 130.813 28.9711C131.504 28.7868 132.144 28.538 132.734 28.2246L132.969 30.7818C132.444 31.0398 131.794 31.2794 131.02 31.5006C130.246 31.7217 129.366 31.8323 128.38 31.8323ZM124.275 23.0689H130.426C130.426 22.5713 130.329 22.1059 130.135 21.6728C129.951 21.2305 129.651 20.8757 129.237 20.6085C128.831 20.332 128.297 20.1938 127.633 20.1938C126.666 20.1938 125.91 20.4564 125.367 20.9817C124.832 21.5069 124.468 22.2027 124.275 23.0689Z" fill="#11075F"/>
<path d="M144.073 31.8323C143.059 31.8323 142.147 31.6434 141.336 31.2656C140.535 30.8786 139.857 30.3349 139.304 29.6345L140.175 29.0125L139.899 31.5559H137.051V10.8221H140.134V20.2629L139.415 19.7791C139.977 19.1156 140.65 18.5858 141.433 18.1895C142.225 17.7933 143.106 17.5952 144.073 17.5952C145.4 17.5952 146.52 17.9223 147.432 18.5766C148.353 19.2308 149.054 20.1016 149.533 21.189C150.012 22.2672 150.252 23.4421 150.252 24.7137C150.252 26.013 150.003 27.2018 149.505 28.2799C149.008 29.3581 148.298 30.2197 147.377 30.8647C146.455 31.5098 145.354 31.8323 144.073 31.8323ZM143.645 29.2337C144.373 29.2337 144.995 29.0402 145.511 28.6531C146.027 28.2569 146.418 27.7178 146.686 27.0359C146.962 26.354 147.1 25.5799 147.1 24.7137C147.1 23.8291 146.962 23.0504 146.686 22.3777C146.418 21.6958 146.027 21.1614 145.511 20.7743C144.995 20.3873 144.373 20.1938 143.645 20.1938C142.88 20.1938 142.225 20.3781 141.682 20.7467C141.138 21.1061 140.719 21.6221 140.424 22.2948C140.129 22.9675 139.982 23.7738 139.982 24.7137C139.982 25.6721 140.129 26.4876 140.424 27.1603C140.719 27.833 141.138 28.349 141.682 28.7084C142.225 29.0586 142.88 29.2337 143.645 29.2337Z" fill="#11075F"/>
<path d="M159.967 31.8323C158.493 31.8323 157.235 31.5098 156.193 30.8647C155.161 30.2197 154.369 29.3581 153.816 28.2799C153.272 27.2018 153 26.013 153 24.7137C153 23.4144 153.272 22.2211 153.816 21.1337C154.369 20.0463 155.161 19.1801 156.193 18.5351C157.235 17.8808 158.493 17.5537 159.967 17.5537C161.432 17.5537 162.685 17.8808 163.727 18.5351C164.768 19.1801 165.56 20.0463 166.104 21.1337C166.657 22.2211 166.934 23.4144 166.934 24.7137C166.934 26.013 166.657 27.2018 166.104 28.2799C165.56 29.3581 164.768 30.2197 163.727 30.8647C162.685 31.5098 161.432 31.8323 159.967 31.8323ZM159.967 29.2337C161.183 29.2337 162.119 28.8236 162.773 28.0035C163.436 27.1741 163.768 26.0776 163.768 24.7137C163.768 23.3315 163.436 22.2257 162.773 21.3963C162.119 20.567 161.183 20.1523 159.967 20.1523C158.751 20.1523 157.811 20.567 157.147 21.3963C156.484 22.2257 156.152 23.3315 156.152 24.7137C156.152 26.0776 156.484 27.1741 157.147 28.0035C157.811 28.8236 158.751 29.2337 159.967 29.2337Z" fill="#11075F"/>
<path d="M176.623 31.8323C175.149 31.8323 173.891 31.5098 172.85 30.8647C171.817 30.2197 171.025 29.3581 170.472 28.2799C169.928 27.2018 169.657 26.013 169.657 24.7137C169.657 23.4144 169.928 22.2211 170.472 21.1337C171.025 20.0463 171.817 19.1801 172.85 18.5351C173.891 17.8808 175.149 17.5537 176.623 17.5537C178.088 17.5537 179.341 17.8808 180.383 18.5351C181.424 19.1801 182.217 20.0463 182.76 21.1337C183.313 22.2211 183.59 23.4144 183.59 24.7137C183.59 26.013 183.313 27.2018 182.76 28.2799C182.217 29.3581 181.424 30.2197 180.383 30.8647C179.341 31.5098 178.088 31.8323 176.623 31.8323ZM176.623 29.2337C177.839 29.2337 178.775 28.8236 179.429 28.0035C180.093 27.1741 180.424 26.0776 180.424 24.7137C180.424 23.3315 180.093 22.2257 179.429 21.3963C178.775 20.567 177.839 20.1523 176.623 20.1523C175.407 20.1523 174.467 20.567 173.803 21.3963C173.14 22.2257 172.808 23.3315 172.808 24.7137C172.808 26.0776 173.14 27.1741 173.803 28.0035C174.467 28.8236 175.407 29.2337 176.623 29.2337Z" fill="#11075F"/>
<path d="M187.101 31.5559V10.8221H190.183V23.6632L194.731 17.8301H198.297L193.127 24.3544L198.421 31.5559H194.841L190.183 25.1422V31.5559H187.101Z" fill="#11075F"/>
<g clip-path="url(#clip0_3_123)">
<path d="M16.1744 23.2625C16.1744 21.6288 15.8526 20.0111 15.2274 18.5018C14.6023 16.9925 13.6859 15.6211 12.5307 14.4659C11.3756 13.3107 10.0042 12.3944 8.49484 11.7692C6.98553 11.144 5.36785 10.8223 3.73417 10.8223L3.73418 13.3973C5.02969 13.3973 6.31251 13.6525 7.50941 14.1483C8.7063 14.644 9.79383 15.3707 10.7099 16.2868C11.626 17.2028 12.3526 18.2904 12.8484 19.4873C13.3442 20.6842 13.5993 21.967 13.5993 23.2625H16.1744Z" fill="#4C36F1"/>
<path d="M27.2322 10.8227C25.5985 10.8227 23.9809 11.1444 22.4716 11.7696C20.9622 12.3948 19.5908 13.3111 18.4357 14.4663C17.2805 15.6215 16.3641 16.9929 15.7389 18.5022C15.1138 20.0115 14.792 21.6292 14.792 23.2629L17.3671 23.2629C17.3671 21.9674 17.6222 20.6846 18.118 19.4877C18.6138 18.2908 19.3404 17.2032 20.2565 16.2872C21.1726 15.3711 22.2601 14.6444 23.457 14.1487C24.6539 13.6529 25.9367 13.3977 27.2322 13.3977L27.2322 10.8227Z" fill="#4C36F1"/>
<path d="M14.7924 26.0266C14.7924 27.6602 15.1142 29.2779 15.7393 30.7872C16.3645 32.2966 17.2809 33.668 18.4361 34.8231C19.5912 35.9783 20.9626 36.8947 22.472 37.5198C23.9813 38.145 25.5989 38.4668 27.2326 38.4668L27.2326 35.8917C25.9371 35.8917 24.6543 35.6366 23.4574 35.1408C22.2605 34.645 21.173 33.9184 20.2569 33.0023C19.3408 32.0862 18.6142 30.9987 18.1184 29.8018C17.6226 28.6049 17.3675 27.3221 17.3675 26.0266L14.7924 26.0266Z" fill="#7F70F5"/>
<path d="M3.73458 38.4674C5.36825 38.4674 6.98593 38.1456 8.49525 37.5204C10.0046 36.8952 11.376 35.9789 12.5311 34.8237C13.6863 33.6685 14.6027 32.2971 15.2279 30.7878C15.853 29.2785 16.1748 27.6608 16.1748 26.0271L13.5997 26.0271C13.5997 27.3227 13.3446 28.6055 12.8488 29.8024C12.353 30.9993 11.6264 32.0868 10.7103 33.0029C9.79423 33.9189 8.70671 34.6456 7.50981 35.1414C6.31291 35.6371 5.03009 35.8923 3.73458 35.8923L3.73458 38.4674Z" fill="#7F70F5"/>
<path d="M12.0274 23.2622C12.0274 22.1731 11.8129 21.0947 11.3961 20.0885C10.9793 19.0822 10.3684 18.168 9.5983 17.3979C8.82818 16.6277 7.91391 16.0168 6.9077 15.6001C5.90148 15.1833 4.82303 14.9687 3.73392 14.9688V16.6855C4.59759 16.6855 5.45281 16.8556 6.25074 17.1861C7.04867 17.5166 7.77369 18.001 8.3844 18.6118C8.99511 19.2225 9.47955 19.9475 9.81006 20.7454C10.1406 21.5433 10.3107 22.3986 10.3107 23.2622H12.0274Z" fill="#4C36F1"/>
<path d="M27.2329 14.9687C26.1438 14.9687 25.0654 15.1832 24.0592 15.6C23.0529 16.0168 22.1387 16.6277 21.3686 17.3978C20.5984 18.1679 19.9875 19.0822 19.5708 20.0884C19.154 21.0946 18.9395 22.1731 18.9395 23.2622L20.6562 23.2622C20.6562 22.3985 20.8263 21.5433 21.1568 20.7454C21.4873 19.9474 21.9717 19.2224 22.5825 18.6117C23.1932 18.001 23.9182 17.5165 24.7161 17.186C25.514 16.8555 26.3693 16.6854 27.2329 16.6854L27.2329 14.9687Z" fill="#4C36F1"/>
<path d="M18.9394 26.0268C18.9394 27.1159 19.1539 28.1944 19.5707 29.2006C19.9875 30.2068 20.5984 31.1211 21.3685 31.8912C22.1386 32.6613 23.0529 33.2722 24.0591 33.689C25.0653 34.1058 26.1438 34.3203 27.2329 34.3203L27.2329 32.6036C26.3692 32.6036 25.514 32.4335 24.7161 32.103C23.9181 31.7725 23.1931 31.288 22.5824 30.6773C21.9717 30.0666 21.4872 29.3416 21.1567 28.5436C20.8262 27.7457 20.6561 26.8905 20.6561 26.0268L18.9394 26.0268Z" fill="#7F70F5"/>
<path d="M3.73386 34.3204C4.82297 34.3204 5.90143 34.1059 6.90764 33.6891C7.91385 33.2723 8.82812 32.6614 9.59824 31.8913C10.3684 31.1211 10.9793 30.2069 11.396 29.2007C11.8128 28.1945 12.0273 27.116 12.0273 26.0269L10.3106 26.0269C10.3106 26.8906 10.1405 27.7458 9.81 28.5437C9.47949 29.3416 8.99505 30.0667 8.38434 30.6774C7.77363 31.2881 7.04861 31.7725 6.25068 32.103C5.45275 32.4335 4.59753 32.6037 3.73386 32.6037L3.73386 34.3204Z" fill="#7F70F5"/>
</g>
<defs>
<clipPath id="clip0_3_123">
<rect width="23" height="33" fill="white" transform="translate(4 8)"/>
</clipPath>
</defs>
</svg>