<svg xmlns="http://www.w3.org/2000/svg" width="160" height="24" viewBox="0 0 160 24" fill="none">
  <path d="M0 0H17.2747V5.8878H0V0Z" fill="url(#paint0_linear_1_557)"/>
  <path d="M20.1348 0H17.2747V5.8878L20.1348 0Z" fill="url(#paint1_linear_1_557)"/>
  <path d="M0 7.06536H11.6392V12.9532H0V7.06536Z" fill="url(#paint2_linear_1_557)"/>
  <path d="M14.4992 7.06536H11.6392V12.9532L14.4992 7.06536Z" fill="url(#paint3_linear_1_557)"/>
  <path d="M0 14.1307H17.1918V20.0185H0V14.1307Z" fill="url(#paint4_linear_1_557)"/>
  <path d="M20.0518 14.1307H17.1918V20.0185L20.0518 14.1307Z" fill="url(#paint5_linear_1_557)"/>
  <path d="M150.203 19.0176V0.956452H153.109V19.0176H150.203ZM153.636 12.5405L157.344 6.56164H159.699V8.30547L156.793 12.5405L160 17.2738V19.0176H157.62L153.636 12.5405Z" fill="#134FCC"/>
  <path d="M150.203 19.0176V0.956452H153.109V19.0176H150.203ZM153.636 12.5405L157.344 6.56164H159.699V8.30547L156.793 12.5405L160 17.2738V19.0176H157.62L153.636 12.5405Z" fill="url(#paint6_linear_1_557)"/>
  <path d="M137.294 11.8928C137.294 10.2486 137.795 8.90334 138.822 7.88195C139.824 6.86056 141.177 6.33741 142.881 6.33741C144.535 6.33741 145.888 6.86056 146.915 7.88195C147.918 8.90334 148.444 10.2486 148.444 11.8928V13.6864C148.444 15.3555 147.918 16.7008 146.915 17.7222C145.888 18.7436 144.535 19.2418 142.881 19.2418C141.177 19.2418 139.824 18.7436 138.822 17.7222C137.795 16.7008 137.294 15.3555 137.294 13.6864V11.8928ZM140.2 14.085C140.2 14.8822 140.426 15.505 140.927 16.0032C141.428 16.5015 142.079 16.7257 142.881 16.7257C143.683 16.7257 144.309 16.5015 144.811 16.0032C145.287 15.505 145.537 14.8822 145.537 14.085V11.4942C145.537 10.697 145.287 10.0742 144.811 9.57596C144.309 9.10263 143.683 8.85351 142.881 8.85351C142.079 8.85351 141.428 9.10263 140.927 9.57596C140.426 10.0742 140.2 10.697 140.2 11.4942V14.085Z" fill="#134FCC"/>
  <path d="M137.294 11.8928C137.294 10.2486 137.795 8.90334 138.822 7.88195C139.824 6.86056 141.177 6.33741 142.881 6.33741C144.535 6.33741 145.888 6.86056 146.915 7.88195C147.918 8.90334 148.444 10.2486 148.444 11.8928V13.6864C148.444 15.3555 147.918 16.7008 146.915 17.7222C145.888 18.7436 144.535 19.2418 142.881 19.2418C141.177 19.2418 139.824 18.7436 138.822 17.7222C137.795 16.7008 137.294 15.3555 137.294 13.6864V11.8928ZM140.2 14.085C140.2 14.8822 140.426 15.505 140.927 16.0032C141.428 16.5015 142.079 16.7257 142.881 16.7257C143.683 16.7257 144.309 16.5015 144.811 16.0032C145.287 15.505 145.537 14.8822 145.537 14.085V11.4942C145.537 10.697 145.287 10.0742 144.811 9.57596C144.309 9.10263 143.683 8.85351 142.881 8.85351C142.079 8.85351 141.428 9.10263 140.927 9.57596C140.426 10.0742 140.2 10.697 140.2 11.4942V14.085Z" fill="url(#paint7_linear_1_557)"/>
  <path d="M124.936 11.8928C124.936 10.2486 125.437 8.90334 126.464 7.88195C127.466 6.86056 128.819 6.33741 130.523 6.33741C132.177 6.33741 133.53 6.86056 134.557 7.88195C135.56 8.90334 136.086 10.2486 136.086 11.8928V13.6864C136.086 15.3555 135.56 16.7008 134.557 17.7222C133.53 18.7436 132.177 19.2418 130.523 19.2418C128.819 19.2418 127.466 18.7436 126.464 17.7222C125.437 16.7008 124.936 15.3555 124.936 13.6864V11.8928ZM127.842 14.085C127.842 14.8822 128.068 15.505 128.569 16.0032C129.07 16.5015 129.721 16.7257 130.523 16.7257C131.325 16.7257 131.951 16.5015 132.453 16.0032C132.929 15.505 133.179 14.8822 133.179 14.085V11.4942C133.179 10.697 132.929 10.0742 132.453 9.57596C131.951 9.10263 131.325 8.85351 130.523 8.85351C129.721 8.85351 129.07 9.10263 128.569 9.57596C128.068 10.0742 127.842 10.697 127.842 11.4942V14.085Z" fill="#134FCC"/>
  <path d="M124.936 11.8928C124.936 10.2486 125.437 8.90334 126.464 7.88195C127.466 6.86056 128.819 6.33741 130.523 6.33741C132.177 6.33741 133.53 6.86056 134.557 7.88195C135.56 8.90334 136.086 10.2486 136.086 11.8928V13.6864C136.086 15.3555 135.56 16.7008 134.557 17.7222C133.53 18.7436 132.177 19.2418 130.523 19.2418C128.819 19.2418 127.466 18.7436 126.464 17.7222C125.437 16.7008 124.936 15.3555 124.936 13.6864V11.8928ZM127.842 14.085C127.842 14.8822 128.068 15.505 128.569 16.0032C129.07 16.5015 129.721 16.7257 130.523 16.7257C131.325 16.7257 131.951 16.5015 132.453 16.0032C132.929 15.505 133.179 14.8822 133.179 14.085V11.4942C133.179 10.697 132.929 10.0742 132.453 9.57596C131.951 9.10263 131.325 8.85351 130.523 8.85351C129.721 8.85351 129.07 9.10263 128.569 9.57596C128.068 10.0742 127.842 10.697 127.842 11.4942V14.085Z" fill="url(#paint8_linear_1_557)"/>
  <path d="M112.788 19.0176V1.57925H119.002C120.255 1.57925 121.282 1.97784 122.059 2.7252C122.811 3.49747 123.212 4.49395 123.212 5.73954V6.13814C123.212 7.15953 122.936 8.03144 122.435 8.72898C121.909 9.42651 121.207 9.89984 120.33 10.124C121.357 10.3233 122.184 10.7718 122.786 11.5191C123.387 12.2665 123.713 13.2131 123.713 14.3093V14.7577C123.713 16.0531 123.312 17.0745 122.535 17.8468C121.733 18.6439 120.706 19.0176 119.428 19.0176H112.788ZM118.1 4.09536H115.895V8.90336H118.1C118.726 8.90336 119.228 8.72898 119.629 8.33039C120.004 7.95671 120.205 7.45847 120.205 6.81076V6.21287C120.205 5.59007 120.004 5.09184 119.629 4.69324C119.228 4.29465 118.726 4.09536 118.1 4.09536ZM118.501 11.4444H115.895V16.5015H118.501C119.127 16.5015 119.629 16.3271 120.029 15.9285C120.43 15.5299 120.631 15.0317 120.631 14.384V13.537C120.631 12.9142 120.43 12.4159 120.029 12.0174C119.629 11.6437 119.127 11.4444 118.501 11.4444Z" fill="#134FCC"/>
  <path d="M112.788 19.0176V1.57925H119.002C120.255 1.57925 121.282 1.97784 122.059 2.7252C122.811 3.49747 123.212 4.49395 123.212 5.73954V6.13814C123.212 7.15953 122.936 8.03144 122.435 8.72898C121.909 9.42651 121.207 9.89984 120.33 10.124C121.357 10.3233 122.184 10.7718 122.786 11.5191C123.387 12.2665 123.713 13.2131 123.713 14.3093V14.7577C123.713 16.0531 123.312 17.0745 122.535 17.8468C121.733 18.6439 120.706 19.0176 119.428 19.0176H112.788ZM118.1 4.09536H115.895V8.90336H118.1C118.726 8.90336 119.228 8.72898 119.629 8.33039C120.004 7.95671 120.205 7.45847 120.205 6.81076V6.21287C120.205 5.59007 120.004 5.09184 119.629 4.69324C119.228 4.29465 118.726 4.09536 118.1 4.09536ZM118.501 11.4444H115.895V16.5015H118.501C119.127 16.5015 119.629 16.3271 120.029 15.9285C120.43 15.5299 120.631 15.0317 120.631 14.384V13.537C120.631 12.9142 120.43 12.4159 120.029 12.0174C119.629 11.6437 119.127 11.4444 118.501 11.4444Z" fill="url(#paint9_linear_1_557)"/>
  <path d="M110.605 15.1314C110.33 16.3769 109.728 17.3734 108.801 18.0959C107.874 18.8432 106.722 19.192 105.369 19.192C103.74 19.192 102.437 18.7187 101.46 17.7222C100.457 16.7506 99.9814 15.4552 99.9814 13.811V11.7433C99.9814 10.149 100.457 8.85354 101.435 7.85706C102.412 6.8855 103.715 6.38726 105.318 6.38726C106.922 6.38726 108.225 6.8855 109.202 7.85706C110.179 8.85354 110.681 10.149 110.681 11.7433V13.4124H101.861V14.0601C101.861 15.1064 102.186 15.9534 102.838 16.6012C103.489 17.2489 104.341 17.5478 105.444 17.5478C106.296 17.5478 107.022 17.3485 107.624 16.9001C108.225 16.4766 108.626 15.8787 108.826 15.1314H110.605ZM108.902 11.9675V11.4693C108.902 10.423 108.576 9.6009 107.924 8.95319C107.273 8.33039 106.446 8.00653 105.394 8.00653C104.316 8.00653 103.464 8.33039 102.813 8.95319C102.161 9.6009 101.861 10.423 101.861 11.4693V11.9675H108.902Z" fill="#134FCC"/>
  <path d="M110.605 15.1314C110.33 16.3769 109.728 17.3734 108.801 18.0959C107.874 18.8432 106.722 19.192 105.369 19.192C103.74 19.192 102.437 18.7187 101.46 17.7222C100.457 16.7506 99.9814 15.4552 99.9814 13.811V11.7433C99.9814 10.149 100.457 8.85354 101.435 7.85706C102.412 6.8855 103.715 6.38726 105.318 6.38726C106.922 6.38726 108.225 6.8855 109.202 7.85706C110.179 8.85354 110.681 10.149 110.681 11.7433V13.4124H101.861V14.0601C101.861 15.1064 102.186 15.9534 102.838 16.6012C103.489 17.2489 104.341 17.5478 105.444 17.5478C106.296 17.5478 107.022 17.3485 107.624 16.9001C108.225 16.4766 108.626 15.8787 108.826 15.1314H110.605ZM108.902 11.9675V11.4693C108.902 10.423 108.576 9.6009 107.924 8.95319C107.273 8.33039 106.446 8.00653 105.394 8.00653C104.316 8.00653 103.464 8.33039 102.813 8.95319C102.161 9.6009 101.861 10.423 101.861 11.4693V11.9675H108.902Z" fill="url(#paint10_linear_1_557)"/>
  <path d="M98.4314 15.3805C98.4314 16.5762 97.9804 17.5229 97.1034 18.1955C96.2265 18.8681 95.0237 19.192 93.5203 19.192C91.9668 19.192 90.714 18.8432 89.7618 18.1457C88.8097 17.4482 88.2334 16.4766 88.058 15.231H89.7869C89.9122 15.9784 90.288 16.5513 90.9395 16.9499C91.591 17.3734 92.4178 17.5727 93.4452 17.5727C94.3973 17.5727 95.1741 17.3983 95.7253 17.0496C96.2766 16.7008 96.5522 16.2026 96.5522 15.5549C96.5522 15.0317 96.3267 14.6082 95.8757 14.3093C95.4246 14.0103 94.7231 13.7612 93.7208 13.6117L92.3677 13.4124C90.9395 13.2131 89.9122 12.8395 89.2858 12.3163C88.6343 11.7931 88.3336 11.0458 88.3336 10.0742C88.3336 8.92828 88.7345 8.00653 89.5363 7.35882C90.3382 6.71111 91.4657 6.38726 92.919 6.38726C94.3723 6.38726 95.5249 6.73603 96.4269 7.40865C97.3289 8.10618 97.8551 9.05284 98.0305 10.2984H96.2766C96.1513 9.57599 95.8005 9.00301 95.2492 8.60442C94.6729 8.20583 93.9212 7.98162 92.9941 7.98162C92.1172 7.98162 91.4406 8.15601 90.9395 8.50477C90.4384 8.85354 90.2129 9.35178 90.2129 9.94967C90.2129 10.4728 90.4133 10.8714 90.8393 11.1704C91.2652 11.4693 91.9668 11.6935 92.9691 11.843L94.2971 12.0423C95.7504 12.2665 96.8027 12.6402 97.4542 13.1633C98.1057 13.7114 98.4314 14.4338 98.4314 15.3805Z" fill="#134FCC"/>
  <path d="M98.4314 15.3805C98.4314 16.5762 97.9804 17.5229 97.1034 18.1955C96.2265 18.8681 95.0237 19.192 93.5203 19.192C91.9668 19.192 90.714 18.8432 89.7618 18.1457C88.8097 17.4482 88.2334 16.4766 88.058 15.231H89.7869C89.9122 15.9784 90.288 16.5513 90.9395 16.9499C91.591 17.3734 92.4178 17.5727 93.4452 17.5727C94.3973 17.5727 95.1741 17.3983 95.7253 17.0496C96.2766 16.7008 96.5522 16.2026 96.5522 15.5549C96.5522 15.0317 96.3267 14.6082 95.8757 14.3093C95.4246 14.0103 94.7231 13.7612 93.7208 13.6117L92.3677 13.4124C90.9395 13.2131 89.9122 12.8395 89.2858 12.3163C88.6343 11.7931 88.3336 11.0458 88.3336 10.0742C88.3336 8.92828 88.7345 8.00653 89.5363 7.35882C90.3382 6.71111 91.4657 6.38726 92.919 6.38726C94.3723 6.38726 95.5249 6.73603 96.4269 7.40865C97.3289 8.10618 97.8551 9.05284 98.0305 10.2984H96.2766C96.1513 9.57599 95.8005 9.00301 95.2492 8.60442C94.6729 8.20583 93.9212 7.98162 92.9941 7.98162C92.1172 7.98162 91.4406 8.15601 90.9395 8.50477C90.4384 8.85354 90.2129 9.35178 90.2129 9.94967C90.2129 10.4728 90.4133 10.8714 90.8393 11.1704C91.2652 11.4693 91.9668 11.6935 92.9691 11.843L94.2971 12.0423C95.7504 12.2665 96.8027 12.6402 97.4542 13.1633C98.1057 13.7114 98.4314 14.4338 98.4314 15.3805Z" fill="url(#paint11_linear_1_557)"/>
  <path d="M85.8242 19.0176H83.92V11.0458C83.92 10.124 83.6193 9.37669 83.0179 8.80372C82.4165 8.23074 81.6398 7.9318 80.6876 7.9318C79.7355 7.9318 78.9587 8.23074 78.3824 8.80372C77.7811 9.37669 77.5055 10.124 77.5055 11.0458V19.0176H75.5761V6.56164H77.5055V9.32687C77.7811 8.40513 78.2822 7.68268 79.0089 7.15953C79.7355 6.66129 80.6125 6.38726 81.6648 6.38726C82.9177 6.38726 83.9199 6.78585 84.6716 7.53321C85.4233 8.30548 85.8242 9.30196 85.8242 10.5476V19.0176Z" fill="#134FCC"/>
  <path d="M85.8242 19.0176H83.92V11.0458C83.92 10.124 83.6193 9.37669 83.0179 8.80372C82.4165 8.23074 81.6398 7.9318 80.6876 7.9318C79.7355 7.9318 78.9587 8.23074 78.3824 8.80372C77.7811 9.37669 77.5055 10.124 77.5055 11.0458V19.0176H75.5761V6.56164H77.5055V9.32687C77.7811 8.40513 78.2822 7.68268 79.0089 7.15953C79.7355 6.66129 80.6125 6.38726 81.6648 6.38726C82.9177 6.38726 83.9199 6.78585 84.6716 7.53321C85.4233 8.30548 85.8242 9.30196 85.8242 10.5476V19.0176Z" fill="url(#paint12_linear_1_557)"/>
  <path d="M73.0176 15.1314C72.742 16.3769 72.1406 17.3734 71.2135 18.0959C70.2864 18.8432 69.1338 19.192 67.7808 19.192C66.1521 19.192 64.8491 18.7187 63.8719 17.7222C62.8697 16.7506 62.3936 15.4552 62.3936 13.811V11.7433C62.3936 10.149 62.8697 8.85354 63.8469 7.85706C64.8241 6.8855 66.127 6.38726 67.7306 6.38726C69.3343 6.38726 70.6372 6.8855 71.6144 7.85706C72.5916 8.85354 73.0928 10.149 73.0928 11.7433V13.4124H64.2728V14.0601C64.2728 15.1064 64.5986 15.9534 65.25 16.6012C65.9015 17.2489 66.7534 17.5478 67.8559 17.5478C68.7079 17.5478 69.4345 17.3485 70.0359 16.9001C70.6372 16.4766 71.0381 15.8787 71.2386 15.1314H73.0176ZM71.3137 11.9675V11.4693C71.3137 10.423 70.988 9.6009 70.3365 8.95319C69.6851 8.33039 68.8582 8.00653 67.8058 8.00653C66.7284 8.00653 65.8764 8.33039 65.225 8.95319C64.5735 9.6009 64.2728 10.423 64.2728 11.4693V11.9675H71.3137Z" fill="#134FCC"/>
  <path d="M73.0176 15.1314C72.742 16.3769 72.1406 17.3734 71.2135 18.0959C70.2864 18.8432 69.1338 19.192 67.7808 19.192C66.1521 19.192 64.8491 18.7187 63.8719 17.7222C62.8697 16.7506 62.3936 15.4552 62.3936 13.811V11.7433C62.3936 10.149 62.8697 8.85354 63.8469 7.85706C64.8241 6.8855 66.127 6.38726 67.7306 6.38726C69.3343 6.38726 70.6372 6.8855 71.6144 7.85706C72.5916 8.85354 73.0928 10.149 73.0928 11.7433V13.4124H64.2728V14.0601C64.2728 15.1064 64.5986 15.9534 65.25 16.6012C65.9015 17.2489 66.7534 17.5478 67.8559 17.5478C68.7079 17.5478 69.4345 17.3485 70.0359 16.9001C70.6372 16.4766 71.0381 15.8787 71.2386 15.1314H73.0176ZM71.3137 11.9675V11.4693C71.3137 10.423 70.988 9.6009 70.3365 8.95319C69.6851 8.33039 68.8582 8.00653 67.8058 8.00653C66.7284 8.00653 65.8764 8.33039 65.225 8.95319C64.5735 9.6009 64.2728 10.423 64.2728 11.4693V11.9675H71.3137Z" fill="url(#paint13_linear_1_557)"/>
  <path d="M49.6122 24V6.56164H51.5415V9.70055C51.8422 8.67916 52.3684 7.88197 53.1702 7.28409C53.972 6.6862 54.9242 6.38726 56.0517 6.38726C57.4048 6.38726 58.4822 6.81076 59.3341 7.65777C60.1861 8.50477 60.612 9.62581 60.612 11.0209V14.5584C60.612 15.9534 60.1861 17.0745 59.3341 17.9215C58.4822 18.7685 57.4048 19.192 56.0517 19.192C54.9242 19.192 53.972 18.918 53.1702 18.3201C52.3684 17.7222 51.8422 16.925 51.5415 15.8787V24H49.6122ZM51.5415 14.0601C51.5415 15.1563 51.8673 16.0282 52.5187 16.6759C53.1702 17.3236 54.0221 17.6475 55.0996 17.6475C56.177 17.6475 57.054 17.3236 57.7055 16.6759C58.3569 16.0282 58.6827 15.1563 58.6827 14.0601V11.5191C58.6827 10.4479 58.3569 9.57599 57.7055 8.92828C57.054 8.28057 56.177 7.9318 55.0996 7.9318C54.0221 7.9318 53.1702 8.28057 52.5187 8.92828C51.8673 9.57599 51.5415 10.4479 51.5415 11.5191V14.0601Z" fill="#134FCC"/>
  <path d="M49.6122 24V6.56164H51.5415V9.70055C51.8422 8.67916 52.3684 7.88197 53.1702 7.28409C53.972 6.6862 54.9242 6.38726 56.0517 6.38726C57.4048 6.38726 58.4822 6.81076 59.3341 7.65777C60.1861 8.50477 60.612 9.62581 60.612 11.0209V14.5584C60.612 15.9534 60.1861 17.0745 59.3341 17.9215C58.4822 18.7685 57.4048 19.192 56.0517 19.192C54.9242 19.192 53.972 18.918 53.1702 18.3201C52.3684 17.7222 51.8422 16.925 51.5415 15.8787V24H49.6122ZM51.5415 14.0601C51.5415 15.1563 51.8673 16.0282 52.5187 16.6759C53.1702 17.3236 54.0221 17.6475 55.0996 17.6475C56.177 17.6475 57.054 17.3236 57.7055 16.6759C58.3569 16.0282 58.6827 15.1563 58.6827 14.0601V11.5191C58.6827 10.4479 58.3569 9.57599 57.7055 8.92828C57.054 8.28057 56.177 7.9318 55.0996 7.9318C54.0221 7.9318 53.1702 8.28057 52.5187 8.92828C51.8673 9.57599 51.5415 10.4479 51.5415 11.5191V14.0601Z" fill="url(#paint14_linear_1_557)"/>
  <path d="M37.208 19.0176V17.8218L40.6157 12.5405L37.4836 7.75739V6.56161H39.0371L42.2694 11.8429L45.5268 6.56161H47.0803V7.75739L43.9482 12.5405L47.3559 17.8218V19.0176H45.8024L42.2694 13.2629L38.7615 19.0176H37.208Z" fill="#134FCC"/>
  <path d="M37.208 19.0176V17.8218L40.6157 12.5405L37.4836 7.75739V6.56161H39.0371L42.2694 11.8429L45.5268 6.56161H47.0803V7.75739L43.9482 12.5405L47.3559 17.8218V19.0176H45.8024L42.2694 13.2629L38.7615 19.0176H37.208Z" fill="url(#paint15_linear_1_557)"/>
  <path d="M26.3166 19.0176V1.57925H35.3871V3.27326H28.3462V9.32686H34.7607V11.0209H28.3462V17.3236H35.3871V19.0176H26.3166Z" fill="#134FCC"/>
  <path d="M26.3166 19.0176V1.57925H35.3871V3.27326H28.3462V9.32686H34.7607V11.0209H28.3462V17.3236H35.3871V19.0176H26.3166Z" fill="url(#paint16_linear_1_557)"/>
  <defs>
    <linearGradient id="paint0_linear_1_557" x1="80" y1="0" x2="80" y2="24" gradientUnits="userSpaceOnUse">
      <stop stop-color="#2D59EC"/>
      <stop offset="1" stop-color="#1BABEB"/>
    </linearGradient>
    <linearGradient id="paint1_linear_1_557" x1="80" y1="0" x2="80" y2="24" gradientUnits="userSpaceOnUse">
      <stop stop-color="#2D59EC"/>
      <stop offset="1" stop-color="#1BABEB"/>
    </linearGradient>
    <linearGradient id="paint2_linear_1_557" x1="80" y1="0" x2="80" y2="24" gradientUnits="userSpaceOnUse">
      <stop stop-color="#2D59EC"/>
      <stop offset="1" stop-color="#1BABEB"/>
    </linearGradient>
    <linearGradient id="paint3_linear_1_557" x1="80" y1="0" x2="80" y2="24" gradientUnits="userSpaceOnUse">
      <stop stop-color="#2D59EC"/>
      <stop offset="1" stop-color="#1BABEB"/>
    </linearGradient>
    <linearGradient id="paint4_linear_1_557" x1="80" y1="0" x2="80" y2="24" gradientUnits="userSpaceOnUse">
      <stop stop-color="#2D59EC"/>
      <stop offset="1" stop-color="#1BABEB"/>
    </linearGradient>
    <linearGradient id="paint5_linear_1_557" x1="80" y1="0" x2="80" y2="24" gradientUnits="userSpaceOnUse">
      <stop stop-color="#2D59EC"/>
      <stop offset="1" stop-color="#1BABEB"/>
    </linearGradient>
    <linearGradient id="paint6_linear_1_557" x1="-2055.27" y1="2.71909" x2="123.075" y2="366.993" gradientUnits="userSpaceOnUse">
      <stop stop-color="#2D56EC"/>
      <stop offset="1" stop-color="#1AACEA"/>
    </linearGradient>
    <linearGradient id="paint7_linear_1_557" x1="-1620.62" y1="-6.202" x2="325.458" y2="198.099" gradientUnits="userSpaceOnUse">
      <stop stop-color="#2D56EC"/>
      <stop offset="1" stop-color="#1AACEA"/>
    </linearGradient>
    <linearGradient id="paint8_linear_1_557" x1="-1443.29" y1="-6.20201" x2="502.789" y2="198.099" gradientUnits="userSpaceOnUse">
      <stop stop-color="#2D56EC"/>
      <stop offset="1" stop-color="#1AACEA"/>
    </linearGradient>
    <linearGradient id="paint9_linear_1_557" x1="-1295.17" y1="1.95908" x2="671.731" y2="286.756" gradientUnits="userSpaceOnUse">
      <stop stop-color="#2D56EC"/>
      <stop offset="1" stop-color="#1AACEA"/>
    </linearGradient>
    <linearGradient id="paint10_linear_1_557" x1="-1130.96" y1="-6.34371" x2="895.627" y2="213.665" gradientUnits="userSpaceOnUse">
      <stop stop-color="#2D56EC"/>
      <stop offset="1" stop-color="#1AACEA"/>
    </linearGradient>
    <linearGradient id="paint11_linear_1_557" x1="-982.563" y1="-6.34349" x2="1106.11" y2="227.525" gradientUnits="userSpaceOnUse">
      <stop stop-color="#2D56EC"/>
      <stop offset="1" stop-color="#1AACEA"/>
    </linearGradient>
    <linearGradient id="paint12_linear_1_557" x1="-799.7" y1="-6.43125" x2="1314.58" y2="229.936" gradientUnits="userSpaceOnUse">
      <stop stop-color="#2D56EC"/>
      <stop offset="1" stop-color="#1AACEA"/>
    </linearGradient>
    <linearGradient id="paint13_linear_1_557" x1="-568.852" y1="-6.34368" x2="1457.73" y2="213.665" gradientUnits="userSpaceOnUse">
      <stop stop-color="#2D56EC"/>
      <stop offset="1" stop-color="#1AACEA"/>
    </linearGradient>
    <linearGradient id="paint14_linear_1_557" x1="-367.389" y1="-4.61205" x2="1585.83" y2="279.078" gradientUnits="userSpaceOnUse">
      <stop stop-color="#2D56EC"/>
      <stop offset="1" stop-color="#1AACEA"/>
    </linearGradient>
    <linearGradient id="paint15_linear_1_557" x1="-202.657" y1="-6.85721" x2="1932.72" y2="230.898" gradientUnits="userSpaceOnUse">
      <stop stop-color="#2D56EC"/>
      <stop offset="1" stop-color="#1AACEA"/>
    </linearGradient>
    <linearGradient id="paint16_linear_1_557" x1="24.3547" y1="3.00267" x2="161.444" y2="4.86797" gradientUnits="userSpaceOnUse">
      <stop stop-color="#2D56EC"/>
      <stop offset="1" stop-color="#1AACEA"/>
    </linearGradient>
  </defs>
</svg>