<svg xmlns="http://www.w3.org/2000/svg" viewBox="0 0 500 500"><g id="freepik--background-complete--inject-6"><path d="M466.89,316.2H303V221.36H466.89ZM304,315.2H465.89V222.36H304Z" style="fill:#e0e0e0"></path><rect x="324.95" y="271.93" width="108.13" height="3.17" style="fill:#f0f0f0"></rect><rect x="324.95" y="283.75" width="115.58" height="3.46" style="fill:#f0f0f0"></rect><rect x="324.95" y="295.71" width="115.58" height="3.46" style="fill:#f0f0f0"></rect><rect x="324.95" y="254.76" width="37.79" height="8.23" style="fill:#f0f0f0"></rect><rect x="303.53" y="221.86" width="162.86" height="15.1" style="fill:#e0e0e0"></rect><path d="M453.86,234.7c-.21-.2,1.89-2.73,4.68-5.65s5.24-5.13,5.44-4.94-1.89,2.73-4.68,5.66S454.06,234.9,453.86,234.7Z" style="fill:#fff"></path><path d="M464,234.7c-.2.2-2.64-2-5.44-4.93s-4.89-5.46-4.68-5.66,2.64,2,5.44,4.94S464.19,234.5,464,234.7Z" style="fill:#fff"></path><rect x="102.36" y="34.05" width="162.86" height="93.85" style="fill:#e6e6e6"></rect><rect x="123.79" y="84.13" width="108.13" height="3.17" style="fill:#f0f0f0"></rect><rect x="123.79" y="95.95" width="115.58" height="3.46" style="fill:#f0f0f0"></rect><rect x="123.79" y="107.91" width="115.58" height="3.46" style="fill:#f0f0f0"></rect><rect x="123.79" y="66.96" width="37.79" height="8.23" style="fill:#f0f0f0"></rect><rect x="102.36" y="34.05" width="162.86" height="15.1" style="fill:#e0e0e0"></rect><path d="M252.14,46.82c-.21-.19,1.89-2.73,4.68-5.65s5.24-5.13,5.44-4.93-1.89,2.73-4.68,5.65S252.34,47,252.14,46.82Z" style="fill:#fff"></path><path d="M262.26,46.82c-.2.2-2.64-2-5.44-4.93s-4.89-5.45-4.68-5.65,2.64,2,5.44,4.93S262.47,46.63,262.26,46.82Z" style="fill:#fff"></path><path d="M203.54,208.39H39.68V113.54H203.54Zm-162.86-1H202.54V114.54H40.68Z" style="fill:#e0e0e0"></path><rect x="61.61" y="164.12" width="108.13" height="3.17" style="fill:#f0f0f0"></rect><rect x="61.61" y="175.94" width="115.58" height="3.46" style="fill:#f0f0f0"></rect><rect x="61.61" y="187.9" width="115.58" height="3.46" style="fill:#f0f0f0"></rect><rect x="61.61" y="146.95" width="37.79" height="8.23" style="fill:#f0f0f0"></rect><rect x="40.18" y="114.04" width="162.86" height="15.1" style="fill:#e0e0e0"></rect><rect x="200.35" y="230.12" width="192.3" height="172.16" style="fill:#e6e6e6"></rect><rect x="59.38" y="175.89" width="150.64" height="156.51" style="fill:#f0f0f0"></rect><rect x="59.38" y="175.89" width="150.64" height="17.05" style="fill:#e0e0e0"></rect><path d="M71.82,184.24a3.16,3.16,0,1,1-3.16-3.3A3.24,3.24,0,0,1,71.82,184.24Z" style="fill:#fff"></path><path d="M84.65,184.24a3.17,3.17,0,1,1-3.16-3.3A3.24,3.24,0,0,1,84.65,184.24Z" style="fill:#fff"></path><path d="M97.48,184.24a3.17,3.17,0,1,1-3.16-3.3A3.24,3.24,0,0,1,97.48,184.24Z" style="fill:#fff"></path><rect x="253.08" y="68.28" width="192.3" height="191.66" style="fill:#f0f0f0"></rect><rect x="253.08" y="68.28" width="192.3" height="22.45" style="fill:#e0e0e0"></rect><path d="M269.46,79.28a4.17,4.17,0,1,1-4.17-4.35A4.27,4.27,0,0,1,269.46,79.28Z" style="fill:#fff"></path><path d="M285.13,76.34a4.17,4.17,0,1,1-6-.14A4.25,4.25,0,0,1,285.13,76.34Z" style="fill:#fff"></path><path d="M303.24,79.28a4.17,4.17,0,1,1-4.17-4.35A4.27,4.27,0,0,1,303.24,79.28Z" style="fill:#fff"></path></g><g id="freepik--Floor--inject-6"><path d="M403.84,453.13c0,.14-69.44.26-155.07.26s-155.1-.12-155.1-.26,69.43-.26,155.1-.26S403.84,453,403.84,453.13Z" style="fill:#263238"></path></g><g id="freepik--Padlock--inject-6"><path d="M371.54,59.68l-5.15,1.84-2.21-6.73c-4.06-12.41-17-19-28.89-14.81s-18.22,17.8-14.16,30.21l2.21,6.73-5.17,1.85a8.22,8.22,0,0,0-4.82,10.28l14.33,43.79a7.73,7.73,0,0,0,9.86,5.11l53.37-19.09a8.26,8.26,0,0,0,4.87-10.38L381.44,64.69A7.71,7.71,0,0,0,371.54,59.68Zm-40.68,7a13.19,13.19,0,0,1,7.76-16.55,12.36,12.36,0,0,1,15.83,8.11l2.2,6.73-23.59,8.44Zm30,38.86,3.66,11.18a.91.91,0,0,1-.57,1.12l-5.13,1.83a.82.82,0,0,1-1-.54L354.13,108a10,10,0,0,1-9-7,10.51,10.51,0,0,1,6.19-13.18,9.85,9.85,0,0,1,12.61,6.46A10.68,10.68,0,0,1,360.87,105.57Z" style="fill:#4F46E5"></path><path d="M366.16,61.4c0,.14-9.55,3.73-21.43,8S323.16,77.1,323.11,77s9.55-3.72,21.44-8S366.11,61.27,366.16,61.4Z" style="fill:#263238"></path><path d="M377.5,63.24a1.75,1.75,0,0,1,.11.27c.08.2.17.46.29.78.26.73.62,1.74,1.07,3l3.84,11.18c1.6,4.74,3.51,10.36,5.63,16.6,1,3.13,2.18,6.39,3.28,9.82a15,15,0,0,1,.75,5.49,7.37,7.37,0,0,1-.81,2.77,7.64,7.64,0,0,1-1.89,2.23,18,18,0,0,1-5.08,2.59l-5.15,1.85-9.75,3.49-16.51,5.88-11.15,3.92-3,1-.8.26a.85.85,0,0,1-.27.07s.08,0,.25-.12l.78-.31,3-1.13,11.09-4.08,16.48-6,9.73-3.52,5.15-1.86a17.13,17.13,0,0,0,4.93-2.51,7.11,7.11,0,0,0,1.76-2.07,6.58,6.58,0,0,0,.75-2.57,14.39,14.39,0,0,0-.72-5.29c-1.08-3.4-2.22-6.69-3.25-9.82-2.08-6.25-4-11.89-5.52-16.63s-2.8-8.55-3.68-11.23c-.42-1.31-.74-2.33-1-3.07l-.24-.8A.93.93,0,0,1,377.5,63.24Z" style="fill:#263238"></path><path d="M349.34,49.45s-.53-.26-1.51-.66a13.32,13.32,0,0,0-4.37-.88A15,15,0,0,0,337,49.13a14.4,14.4,0,0,0-6.11,5.11,13.52,13.52,0,0,0-2.35,7.59,23.39,23.39,0,0,0,1,6.55c.52,1.82,1.06,3.27,1.42,4.28a11.17,11.17,0,0,1,.52,1.58,8.78,8.78,0,0,1-.71-1.51c-.41-1-1-2.42-1.58-4.25a22.74,22.74,0,0,1-1.15-6.65,13.71,13.71,0,0,1,2.4-7.88,14.63,14.63,0,0,1,6.35-5.26,14.88,14.88,0,0,1,6.65-1.14,12.59,12.59,0,0,1,4.43,1.05,8.26,8.26,0,0,1,1.08.6A1.49,1.49,0,0,1,349.34,49.45Z" style="fill:#263238"></path><path d="M349.8,88.58a3.45,3.45,0,0,1,.5-.25,9.93,9.93,0,0,1,1.55-.55,11.09,11.09,0,0,1,2.59-.44,8.78,8.78,0,0,1,3.51.53c2.56.9,4.91,3.51,6.07,7a10.08,10.08,0,0,1,0,5.74A13,13,0,0,1,360.8,106l.06-.27c1.33,3.65,2.78,7.61,4.28,11.74l.09.25-.25.09-2.29.76-5,1.67-.25.08-.08-.25c-1.37-4.14-2.87-8-4-11.79l.22.17a10,10,0,0,1-5.36-2.11,12.1,12.1,0,0,1-3.35-4,9.14,9.14,0,0,1-1.06-4.5,10.86,10.86,0,0,1,4.19-8.26,6.36,6.36,0,0,1,1.73-1,19.27,19.27,0,0,0-1.64,1.09A10.63,10.63,0,0,0,345,94.06a9.46,9.46,0,0,0,.31,8.07,11.74,11.74,0,0,0,3.27,3.84,9.52,9.52,0,0,0,5.11,2l.17,0,.05.15c1.1,3.72,2.61,7.61,4,11.77l-.33-.16,5-1.67,2.28-.77-.16.34c-1.49-4.13-2.93-8.1-4.25-11.75l0-.15.12-.12a12.74,12.74,0,0,0,3.16-5.17,9.67,9.67,0,0,0,0-5.49c-1.09-3.36-3.34-5.91-5.78-6.81a8.59,8.59,0,0,0-3.39-.57,11.46,11.46,0,0,0-2.56.35C350.51,88.29,349.81,88.63,349.8,88.58Z" style="fill:#263238"></path></g><g id="freepik--Device--inject-6"><path d="M318.89,377.32,219,376.86A21.77,21.77,0,0,1,197.35,355l1.06-250.41a21.75,21.75,0,0,1,21.86-21.66l99.88.46a21.77,21.77,0,0,1,21.66,21.85l-1.06,250.4A21.77,21.77,0,0,1,318.89,377.32Z" style="fill:#455a64"></path><path d="M320,92,300.64,92a4.81,4.81,0,0,0-4.72,4.9l0,3.51a4.8,4.8,0,0,1-4.72,4.89l-37.74-.17a4.82,4.82,0,0,1-4.69-4.94l0-3.51a4.82,4.82,0,0,0-4.68-4.94l-6.81,0-16.95-.08A15.24,15.24,0,0,0,205,106.75l-1,244.42a15.23,15.23,0,0,0,15.16,15.3l99.68.46a15.24,15.24,0,0,0,15.31-15.17l1-244.42A15.25,15.25,0,0,0,320,92Z" style="fill:#fff"></path><path d="M306.59,334.32,232.47,334c-.77,0-1.39-.84-1.38-1.86l.08-19.39c0-1,.63-1.86,1.4-1.86l74.12.34a1.68,1.68,0,0,1,1.38,1.87L308,332.47C308,333.5,307.36,334.33,306.59,334.32Z" style="fill:#4F46E5"></path><text transform="matrix(0.96, 0, 0, 1, 252.59, 324.95)" style="font-size:8.298959732055664px;fill:#e8e8e3;font-family:Montserrat-Regular, Montserrat">Sign-up</text><rect x="221.51" y="163.81" width="25.72" height="4.72" transform="translate(0.77 -1.08) rotate(0.26)" style="fill:#4F46E5"></rect><rect x="221.51" y="163.81" width="25.72" height="4.72" transform="translate(0.77 -1.08) rotate(0.26)" style="opacity:0.1"></rect><path d="M322.65,192.83a2.3,2.3,0,0,0,.59-.14,1.58,1.58,0,0,0,1-1.35c0-1.59,0-3.91,0-6.89,0-1.49,0-3.16,0-5,0-.45,0-.92,0-1.39a1.94,1.94,0,0,0-.28-1.31,1.5,1.5,0,0,0-1.19-.61h-1.56l-14.45,0-83.64-.31a1.33,1.33,0,0,0-1.1.55,1.91,1.91,0,0,0-.26,1.31c0,1,0,2,0,3q0,3,0,6c0,1,0,2,0,3a7.89,7.89,0,0,0,0,1.4,1.35,1.35,0,0,0,.78.9,1.56,1.56,0,0,0,.62.11h5.09l22.21.12,37.6.23,25.35.2,6.89.08,1.79,0c.41,0,.61,0,.61,0l-.61,0-1.79,0h-6.89l-25.35,0-37.6-.12-22.21-.09h-5.09a2,2,0,0,1-.82-.14,1.88,1.88,0,0,1-1.08-1.25,2.83,2.83,0,0,1-.06-.8v-.74c0-1,0-2,0-3q0-3,0-6c0-1,0-2,0-3a5.6,5.6,0,0,1,0-.8,1.7,1.7,0,0,1,.33-.81,1.84,1.84,0,0,1,1.52-.77l83.64.46,14.45.1,1.56,0a1.71,1.71,0,0,1,1.4.73,2.13,2.13,0,0,1,.32,1.47c0,.47,0,.94,0,1.39,0,1.82,0,3.49,0,5,0,3-.07,5.3-.09,6.9a1.62,1.62,0,0,1-1.05,1.39A1.2,1.2,0,0,1,322.65,192.83Z" style="fill:#e0e0e0"></path><rect x="228.41" y="182.01" width="47.04" height="4.41" transform="matrix(1, 0, 0, 1, 0.85, -1.16)" style="fill:#4F46E5"></rect><rect x="228.41" y="182.01" width="47.04" height="4.41" transform="matrix(1, 0, 0, 1, 0.85, -1.16)" style="fill:#fff;opacity:0.2"></rect><rect x="221.33" y="206.87" width="25.72" height="4.72" transform="translate(0.97 -1.08) rotate(0.26)" style="fill:#4F46E5"></rect><rect x="221.33" y="206.87" width="25.72" height="4.72" transform="translate(0.97 -1.08) rotate(0.26)" style="opacity:0.1"></rect><path d="M322,235.89a5.17,5.17,0,0,0,.6-.11,2.05,2.05,0,0,0,1.26-1.14,2.8,2.8,0,0,0,.18-1.27c0-.48,0-1,0-1.58,0-1.16,0-2.48,0-4v-6.35a2.15,2.15,0,0,0-.29-1.32,1.94,1.94,0,0,0-1.09-.85,6.13,6.13,0,0,0-1.51-.08l-14.39,0-83.35-.31a1.85,1.85,0,0,0-1.83,1.61c0,.95,0,2,0,3q0,3,0,6c0,1,0,2,0,3a5.74,5.74,0,0,0,.06,1.4,1.9,1.9,0,0,0,.73,1,2.08,2.08,0,0,0,1.24.32H225l2.89,0,22.13.11,37.47.23,25.26.2,6.87.08,1.79,0,.6,0-.6,0-1.79,0-6.87,0-25.26,0L250,235.79l-22.13-.08h-4.35a2.51,2.51,0,0,1-1.53-.41,2.4,2.4,0,0,1-.94-1.31,6.3,6.3,0,0,1-.08-1.54c0-1,0-2,0-3q0-3,0-6c0-1,0-2,0-3a2.37,2.37,0,0,1,2.35-2.07l83.35.46,14.39.11a6.19,6.19,0,0,1,1.6.11,2.21,2.21,0,0,1,1.23,1,2.41,2.41,0,0,1,.32,1.46c0,.47,0,.93,0,1.39,0,1.81,0,3.47,0,5s0,2.82,0,4c0,.57,0,1.1,0,1.59a2.79,2.79,0,0,1-.21,1.31,2.12,2.12,0,0,1-1.35,1.14A1.88,1.88,0,0,1,322,235.89Z" style="fill:#e0e0e0"></path><rect x="221.14" y="251.79" width="25.72" height="4.72" transform="translate(1.17 -1.07) rotate(0.26)" style="fill:#4F46E5"></rect><rect x="221.14" y="251.79" width="25.72" height="4.72" transform="translate(1.17 -1.07) rotate(0.26)" style="opacity:0.1"></rect><path d="M321.8,280.8a4.78,4.78,0,0,0,.6-.11,2.06,2.06,0,0,0,1.26-1.13,2.82,2.82,0,0,0,.18-1.27c0-.49,0-1,0-1.59,0-1.15,0-2.48,0-4v-6.35a2.15,2.15,0,0,0-.29-1.32,2,2,0,0,0-1.09-.84,6.11,6.11,0,0,0-1.51-.09l-14.39,0-83.35-.31a1.85,1.85,0,0,0-1.83,1.61c0,1,0,2,0,3,0,2,0,4,0,6,0,1,0,2,0,3a5.66,5.66,0,0,0,.06,1.39,1.83,1.83,0,0,0,.73,1,2,2,0,0,0,1.24.32h4.35l22.13.12,37.47.23,25.26.2,6.87.08,1.79,0c.4,0,.6,0,.6,0s-.2,0-.6,0l-1.79,0-6.87,0-25.26,0-37.47-.11-22.13-.09h-4.35a2.45,2.45,0,0,1-1.53-.41,2.4,2.4,0,0,1-.94-1.31,6.3,6.3,0,0,1-.08-1.54c0-1,0-2,0-3q0-3,0-6c0-1,0-2,0-3.05a2.36,2.36,0,0,1,2.34-2.07l83.35.46,14.39.11a6.19,6.19,0,0,1,1.6.11,2.21,2.21,0,0,1,1.23,1,2.41,2.41,0,0,1,.32,1.46c0,.47,0,.94,0,1.39,0,1.81,0,3.47,0,5s0,2.82,0,4c0,.57,0,1.1,0,1.59a2.74,2.74,0,0,1-.21,1.31,2.12,2.12,0,0,1-1.35,1.14A1.58,1.58,0,0,1,321.8,280.8Z" style="fill:#e0e0e0"></path><rect x="228.23" y="225.07" width="47.04" height="4.41" transform="translate(1.05 -1.16) rotate(0.26)" style="fill:#4F46E5"></rect><rect x="228.23" y="225.07" width="47.04" height="4.41" transform="translate(1.05 -1.16) rotate(0.26)" style="fill:#fff;opacity:0.2"></rect><path d="M232.51,272.64a2.06,2.06,0,1,1-2-2.21A2.12,2.12,0,0,1,232.51,272.64Z" style="fill:#4F46E5"></path><path d="M238.88,272.67a2.06,2.06,0,1,1-4.11,0,2.06,2.06,0,1,1,4.11,0Z" style="fill:#4F46E5"></path><path d="M245.26,272.7a2.06,2.06,0,1,1-2-2.21A2.13,2.13,0,0,1,245.26,272.7Z" style="fill:#4F46E5"></path><path d="M251.63,272.73a2.06,2.06,0,1,1-2-2.21A2.13,2.13,0,0,1,251.63,272.73Z" style="fill:#4F46E5"></path><path d="M258,272.75a2.06,2.06,0,1,1-2-2.2A2.13,2.13,0,0,1,258,272.75Z" style="fill:#4F46E5"></path><path d="M264.38,272.78a2.06,2.06,0,1,1-2.05-2.2A2.13,2.13,0,0,1,264.38,272.78Z" style="fill:#4F46E5"></path><path d="M270.75,272.81a2.06,2.06,0,1,1-4.11,0,2.06,2.06,0,1,1,4.11,0Z" style="fill:#4F46E5"></path><path d="M277.12,272.84a2.06,2.06,0,1,1-2.05-2.2A2.13,2.13,0,0,1,277.12,272.84Z" style="fill:#4F46E5"></path><path d="M283.49,272.87a2.06,2.06,0,1,1-2-2.2A2.13,2.13,0,0,1,283.49,272.87Z" style="fill:#4F46E5"></path><g style="opacity:0.2"><path d="M232.51,272.64a2.06,2.06,0,1,1-2-2.21A2.12,2.12,0,0,1,232.51,272.64Z" style="fill:#fff"></path><path d="M238.88,272.67a2.06,2.06,0,1,1-4.11,0,2.06,2.06,0,1,1,4.11,0Z" style="fill:#fff"></path><path d="M245.26,272.7a2.06,2.06,0,1,1-2-2.21A2.13,2.13,0,0,1,245.26,272.7Z" style="fill:#fff"></path><path d="M251.63,272.73a2.06,2.06,0,1,1-2-2.21A2.13,2.13,0,0,1,251.63,272.73Z" style="fill:#fff"></path><path d="M258,272.75a2.06,2.06,0,1,1-2-2.2A2.13,2.13,0,0,1,258,272.75Z" style="fill:#fff"></path><path d="M264.38,272.78a2.06,2.06,0,1,1-2.05-2.2A2.13,2.13,0,0,1,264.38,272.78Z" style="fill:#fff"></path><path d="M270.75,272.81a2.06,2.06,0,1,1-4.11,0,2.06,2.06,0,1,1,4.11,0Z" style="fill:#fff"></path><path d="M277.12,272.84a2.06,2.06,0,1,1-2.05-2.2A2.13,2.13,0,0,1,277.12,272.84Z" style="fill:#fff"></path><path d="M283.49,272.87a2.06,2.06,0,1,1-2-2.2A2.13,2.13,0,0,1,283.49,272.87Z" style="fill:#fff"></path></g><path d="M274.44,128.51a3.87,3.87,0,0,0,2.31-3.59,3.64,3.64,0,1,0-7.27,0,3.88,3.88,0,0,0,2.32,3.63c-5.6.84-5.35,6.92-5.35,6.92l13.24.06S280,129.34,274.44,128.51Z" style="fill:#4F46E5"></path><path d="M274.44,128.51a3.87,3.87,0,0,0,2.31-3.59,3.64,3.64,0,1,0-7.27,0,3.88,3.88,0,0,0,2.32,3.63c-5.6.84-5.35,6.92-5.35,6.92l13.24.06S280,129.34,274.44,128.51Z" style="opacity:0.1"></path><rect x="248.74" y="139.37" width="47.19" height="5.64" transform="translate(0.66 -1.26) rotate(0.26)" style="fill:#4F46E5"></rect><rect x="248.74" y="139.37" width="47.19" height="5.64" transform="translate(0.66 -1.26) rotate(0.26)" style="fill:#fff;opacity:0.2"></rect></g></svg>