<svg xmlns="http://www.w3.org/2000/svg" width="17" height="18" viewBox="0 0 16 17" fill="none">
<g opacity="1">
<path d="M8 10.875C8.46973 10.875 8.92891 10.7357 9.31948 10.4747C9.71005 10.2138 10.0145 9.84285 10.1942 9.40887C10.374 8.9749 10.421 8.49737 10.3294 8.03666C10.2377 7.57596 10.0115 7.15277 9.67938 6.82062C9.34723 6.48847 8.92404 6.26227 8.46334 6.17063C8.00264 6.07899 7.5251 6.12603 7.09113 6.30579C6.65715 6.48554 6.28623 6.78995 6.02526 7.18052C5.76429 7.57109 5.625 8.03027 5.625 8.5C5.625 9.12989 5.87522 9.73398 6.32062 10.1794C6.76602 10.6248 7.37011 10.875 8 10.875ZM8 6.875C8.32139 6.875 8.63557 6.9703 8.9028 7.14886C9.17003 7.32742 9.37831 7.58121 9.5013 7.87814C9.6243 8.17507 9.65648 8.5018 9.59378 8.81702C9.53107 9.13224 9.37631 9.42179 9.14905 9.64905C8.92179 9.87631 8.63224 10.0311 8.31702 10.0938C8.0018 10.1565 7.67507 10.1243 7.37814 10.0013C7.08121 9.87831 6.82742 9.67003 6.64886 9.4028C6.4703 9.13557 6.375 8.82139 6.375 8.5C6.375 8.06902 6.54621 7.6557 6.85095 7.35095C7.1557 7.04621 7.56902 6.875 8 6.875ZM15 4.125H1C0.900544 4.125 0.805161 4.16451 0.734835 4.23483C0.664509 4.30516 0.625 4.40054 0.625 4.5V12.5C0.625 12.5995 0.664509 12.6948 0.734835 12.7652C0.805161 12.8355 0.900544 12.875 1 12.875H15C15.0995 12.875 15.1948 12.8355 15.2652 12.7652C15.3355 12.6948 15.375 12.5995 15.375 12.5V4.5C15.375 4.40054 15.3355 4.30516 15.2652 4.23483C15.1948 4.16451 15.0995 4.125 15 4.125ZM1.375 7.30125C1.95727 7.14635 2.4883 6.84039 2.91435 6.41435C3.34039 5.9883 3.64635 5.45727 3.80125 4.875H12.1987C12.3537 5.45727 12.6596 5.9883 13.0857 6.41435C13.5117 6.84039 14.0427 7.14635 14.625 7.30125V9.69875C14.0427 9.85365 13.5117 10.1596 13.0857 10.5857C12.6596 11.0117 12.3537 11.5427 12.1987 12.125H3.80125C3.64635 11.5427 3.34039 11.0117 2.91435 10.5857C2.4883 10.1596 1.95727 9.85365 1.375 9.69875V7.30125ZM14.625 6.51813C14.2452 6.38544 13.9002 6.16879 13.6157 5.8843C13.3312 5.59981 13.1146 5.25482 12.9819 4.875H14.625V6.51813ZM3.01813 4.875C2.88544 5.25482 2.66879 5.59981 2.3843 5.8843C2.09981 6.16879 1.75482 6.38544 1.375 6.51813V4.875H3.01813ZM1.375 10.4819C1.75482 10.6146 2.09981 10.8312 2.3843 11.1157C2.66879 11.4002 2.88544 11.7452 3.01813 12.125H1.375V10.4819ZM12.9819 12.125C13.1146 11.7452 13.3312 11.4002 13.6157 11.1157C13.9002 10.8312 14.2452 10.6146 14.625 10.4819V12.125H12.9819Z" fill="#4C36F1"/>
</g>
</svg>