<svg xmlns="http://www.w3.org/2000/svg" width="108" height="30" viewBox="0 0 108 30" fill="none">
  <g clip-path="url(#clip0_1_614)">
    <path d="M28.4297 21.862V0.923584H31.6903V9.17323C32.7116 7.64116 34.2437 6.89476 36.2864 6.89476C38.015 6.89476 39.3899 7.40546 40.3327 8.42683C41.2756 9.44823 41.747 10.9017 41.747 12.7481V21.862H38.4864V13.2195C38.4864 10.8232 37.4257 9.64464 35.3044 9.64464C34.2437 9.64464 33.3794 9.95892 32.6724 10.6267C32.0045 11.2553 31.651 12.1588 31.651 13.3373V21.9012L28.4297 21.862Z" fill="#323232"/>
    <path d="M57.1463 20.0557C55.6928 21.5091 53.8857 22.2163 51.6858 22.2163C49.4859 22.2163 47.6788 21.5091 46.2254 20.0557C44.7718 18.6021 44.0254 16.7558 44.0254 14.556C44.0254 12.3167 44.7718 10.5096 46.2254 9.05613C47.6788 7.60262 49.4859 6.89551 51.6858 6.89551C53.8857 6.89551 55.6928 7.60262 57.1463 9.05613C58.5998 10.5096 59.3069 12.3167 59.3069 14.556C59.3069 16.795 58.5998 18.6415 57.1463 20.0557ZM48.6216 18.2486C49.4073 19.1521 50.4287 19.6236 51.7251 19.6236C53.0214 19.6236 54.0429 19.1521 54.8285 18.2486C55.6142 17.3451 56.007 16.1272 56.007 14.556C56.007 13.0238 55.6142 11.806 54.8285 10.9025C54.0429 9.99895 53.0214 9.52754 51.7643 9.52754C50.468 9.52754 49.4466 9.95967 48.6609 10.8632C47.8752 11.7667 47.4823 12.9846 47.4823 14.5166C47.4431 16.088 47.836 17.3451 48.6216 18.2486Z" fill="#323232"/>
    <path d="M66.8506 22.2575C63.865 22.2575 62.3723 20.6468 62.3723 17.4256V10.0008H60.0938V7.25092H62.4508L63.1972 2.92969H65.6328V7.25092H71.4468V10.0008H65.6328V17.3076C65.6328 18.6433 66.1436 19.3111 67.1256 19.3111C68.0685 19.3111 68.8934 18.4861 69.6398 16.797L72.154 18.0934C70.8969 20.8825 69.1292 22.2575 66.8506 22.2575Z" fill="#323232"/>
    <path d="M73.1764 28.5796C71.7228 28.5796 70.5443 28.1867 69.6016 27.3617L70.8193 24.8082C71.4085 25.4761 72.0371 25.8297 72.705 25.8297C73.6085 25.8297 74.0798 25.2405 74.0798 24.1012V7.24831H77.3405V24.1012C77.3405 25.6726 76.9476 26.8117 76.162 27.4795C75.3762 28.2259 74.3941 28.5796 73.1764 28.5796ZM75.6905 4.77342C75.1405 4.77342 74.6299 4.57701 74.237 4.22345C74.0406 4.02702 73.8835 3.83061 73.8049 3.5949C73.6871 3.3592 73.6477 3.08421 73.6871 2.8485C73.6871 2.57351 73.7263 2.33781 73.8442 2.1021C73.962 1.8664 74.0798 1.6307 74.2763 1.47356C74.6692 1.12 75.1799 0.923584 75.7298 0.923584C76.2798 0.923584 76.7905 1.12 77.1833 1.47356C77.3797 1.66998 77.5369 1.8664 77.6154 2.1021C77.7334 2.33781 77.7726 2.6128 77.7726 2.8485C77.7726 3.12349 77.7334 3.3592 77.6154 3.5949C77.4976 3.83061 77.3797 4.02702 77.1833 4.22345C76.987 4.41987 76.7512 4.53772 76.5155 4.65557C76.2406 4.73413 75.9655 4.81271 75.6905 4.77342Z" fill="#323232"/>
    <path d="M85.3928 22.2537C83.7429 22.2537 82.3679 21.8216 81.3466 20.9966C80.3252 20.1716 79.8145 19.0323 79.8145 17.6575C79.8145 16.3611 80.3644 15.3004 81.4251 14.3968C82.4858 13.4933 83.8607 13.0612 85.4714 13.0612C87.1212 13.0612 88.5356 13.6112 89.6747 14.6719V12.904C89.6747 11.8434 89.3998 11.0577 88.8891 10.4684C88.3391 9.87917 87.5927 9.60418 86.6107 9.60418C84.6071 9.60418 83.3894 10.6256 82.9179 12.6291L79.9323 12.0005C80.3252 10.4291 81.1108 9.21134 82.3287 8.30781C83.5072 7.40427 85 6.93286 86.7677 6.93286C88.6926 6.93286 90.2247 7.44356 91.3247 8.46495C92.4246 9.48633 93.0138 10.9791 93.0138 12.904V21.9001H89.8319V20.0537C88.732 21.5073 87.2785 22.2537 85.3928 22.2537ZM86.0213 19.8181C87.4749 19.8181 88.6926 19.1109 89.7141 17.6575V17.186C88.6926 15.9682 87.4749 15.3789 86.0213 15.3789C85.1963 15.3789 84.4893 15.5753 83.9786 16.0075C83.7429 16.2039 83.5464 16.4396 83.3894 16.7146C83.2715 16.9895 83.1929 17.3038 83.1929 17.6181C83.1929 17.9324 83.2322 18.2467 83.3894 18.5217C83.5072 18.7966 83.7036 19.0323 83.9786 19.2287C84.45 19.6216 85.1571 19.8181 86.0213 19.8181Z" fill="#323232"/>
    <path d="M96.1172 21.8591V7.24545H99.2991V9.75963C100.085 7.91328 101.499 6.97046 103.463 6.97046C104.642 6.97046 105.585 7.3633 106.37 8.1097C107.156 8.8561 107.51 9.91677 107.51 11.1739C107.51 11.9595 107.352 12.706 107.117 13.4524L104.131 13.1381C104.21 12.7452 104.249 12.3524 104.249 11.9203C104.249 10.4275 103.62 9.64178 102.363 9.64178C101.538 9.64178 100.792 10.0739 100.242 10.9774C99.6527 11.881 99.3777 13.0595 99.3777 14.513V21.7805H96.1172V21.8591Z" fill="#323232"/>
    <path d="M8.12177 9.4875C10.5574 8.15185 13.8573 6.3055 13.8573 0.923584H9.81099C9.81099 3.90917 8.35747 4.73413 6.11829 5.95194C3.68267 7.2876 0.382812 9.13395 0.382812 14.5158H4.38978C4.42907 11.5303 5.88258 10.7446 8.12177 9.4875Z" fill="#FF3C00"/>
    <path d="M15.0766 8.27344C15.0766 11.259 13.6231 12.084 11.3839 13.3018C8.94829 14.6375 5.64844 16.4838 5.64844 21.8657H9.65541C9.65541 18.8801 11.1089 18.0552 13.3481 16.8373C15.7837 15.5017 19.0836 13.6554 19.0836 8.27344H15.0766Z" fill="#FF3C00"/>
  </g>
  <defs>
    <clipPath id="clip0_1_614">
      <rect width="108" height="28.8" fill="white" transform="translate(0 0.600098)"/>
    </clipPath>
  </defs>
</svg>