<svg width="24" height="24" viewBox="0 0 24 24" fill="none" xmlns="http://www.w3.org/2000/svg">
<g id="paper-money-two" clip-path="url(#clip0_10_6913)">
<path id="Vector" d="M24 0H0V24H24V0Z" fill="white" fill-opacity="0.01"/>
<path id="Vector_2" d="M2 6.5H22V18.5H2V6.5Z" stroke="#32333B" stroke-width="2" stroke-linejoin="round"/>
<path id="Vector_3" fill-rule="evenodd" clip-rule="evenodd" d="M2 10.5C4.20914 10.5 6 8.70915 6 6.5H2V10.5Z" stroke="#32333B" stroke-width="2" stroke-linecap="round" stroke-linejoin="round"/>
<path id="Vector_4" fill-rule="evenodd" clip-rule="evenodd" d="M2 14.5C4.20914 14.5 6 16.2908 6 18.5H2V14.5Z" stroke="#32333B" stroke-width="2" stroke-linecap="round" stroke-linejoin="round"/>
<path id="Vector_5" fill-rule="evenodd" clip-rule="evenodd" d="M22 14.5V18.5H18C18 16.2908 19.7908 14.5 22 14.5Z" stroke="#32333B" stroke-width="2" stroke-linecap="round" stroke-linejoin="round"/>
<path id="Vector_6" fill-rule="evenodd" clip-rule="evenodd" d="M22 10.5C19.7908 10.5 18 8.70915 18 6.5H22V10.5Z" stroke="#32333B" stroke-width="2" stroke-linecap="round" stroke-linejoin="round"/>
<path id="Vector_7" d="M12 15.5C13.3807 15.5 14.5 14.1568 14.5 12.5C14.5 10.8432 13.3807 9.5 12 9.5C10.6193 9.5 9.5 10.8432 9.5 12.5C9.5 14.1568 10.6193 15.5 12 15.5Z" stroke="#32333B" stroke-width="2" stroke-linejoin="round"/>
</g>
<defs>
<clipPath id="clip0_10_6913">
<rect width="24" height="24" fill="white"/>
</clipPath>
</defs>
</svg>
