<svg width="126" height="170" viewBox="0 0 126 170" fill="none" xmlns="http://www.w3.org/2000/svg">
<g id="Plane">
<g id="plane">
<path id="Vector" d="M86.0173 19.2758L53.929 4.07492L55.3449 3.33569L85.9132 9.41603L88.9846 7.82307C89.304 7.67672 89.6535 7.60798 90.0045 7.62245C90.3555 7.63693 90.6982 7.73421 91.0044 7.90636C91.5562 8.24994 91.5458 8.78093 91.0044 9.07245L89.1303 10.1136L99.6668 12.3104L86.0173 19.2758Z" fill="#7F70F5"/>
<g id="Group" opacity="0.1">
<path id="Vector_2" d="M86.0173 19.2758L53.929 4.07492L55.3449 3.33569L85.9132 9.41603L88.9846 7.82307C89.304 7.67672 89.6535 7.60798 90.0045 7.62245C90.3555 7.63693 90.6982 7.73421 91.0044 7.90636C91.5562 8.24994 91.5458 8.78093 91.0044 9.07245L89.1303 10.1136L99.6668 12.3104L86.0173 19.2758Z" fill="#4C36F1"/>
</g>
<path id="Vector_3" d="M94.9921 11.2173C109.475 3.65852 121.167 -0.662266 124.696 1.57621C128.226 3.81469 119.751 10.1449 105.362 17.7766L92.6287 23.9402C79.8746 29.6874 66.7873 34.5808 66.7873 34.5808L67.3808 43.3993L66.1105 44.0761L60.3842 37.7146C60.3842 37.7146 57.1774 39.2451 55.3971 38.1207C53.6167 36.9962 56.5319 35.2888 56.5319 35.2888L46.0371 31.4469L47.3073 30.7285L62.4977 31.853C62.4977 31.853 72.1909 24.7627 83.2167 17.9431L94.9921 11.2173Z" fill="#7F70F5"/>
<path id="Vector_4" d="M110.755 21.504L107.684 23.1282L115.492 41.2235L114.076 41.9627L92.6287 23.9195L105.362 17.7559L106.872 21.2437L108.756 20.2026C109.076 20.0562 109.425 19.9875 109.776 20.002C110.127 20.0164 110.47 20.1137 110.776 20.2859C111.328 20.6815 111.317 21.2125 110.755 21.504Z" fill="#7F70F5"/>
<g id="Group_2" opacity="0.1">
<path id="Vector_5" d="M110.755 21.5039L107.684 23.1281L115.492 41.2234L114.076 41.9626L89.8384 21.6185L103.904 14.4553L106.872 21.2436L108.756 20.2025C109.076 20.0561 109.425 19.9874 109.776 20.0019C110.127 20.0164 110.47 20.1136 110.776 20.2858C111.328 20.6814 111.317 21.2124 110.755 21.5039Z" fill="#4C36F1"/>
</g>
<path id="Vector_6" d="M48.4628 41.4732L47.9839 40.5466L49.379 39.8386L49.8476 40.7652L48.4628 41.4732Z" fill="#E0E0E0"/>
<path id="Vector_7" d="M28.15 167.328C27.3066 166.724 26.4841 166.11 25.6824 165.475L26.3279 164.652C27.1192 165.277 27.9313 165.891 28.7538 166.485L28.15 167.328ZM23.2982 163.517C22.5277 162.851 21.7573 162.153 21.0077 161.435L21.7156 160.685C22.4549 161.372 23.2149 162.06 23.9749 162.716L23.2982 163.517ZM18.8108 159.28C18.1028 158.551 17.3948 157.791 16.7285 157.02L17.5094 156.323C18.1861 157.083 18.8733 157.833 19.5917 158.561L18.8108 159.28ZM14.7295 154.626C14.084 153.814 13.4489 152.991 12.8554 152.169L13.6988 151.554C14.2818 152.366 14.9065 153.179 15.5416 153.97L14.7295 154.626ZM11.1063 149.618C10.5441 148.764 9.99225 147.879 9.48208 146.994L10.3775 146.474C10.8876 147.338 11.4186 148.212 11.9704 149.056L11.1063 149.618ZM7.98282 144.298C7.5143 143.392 7.05619 142.465 6.61891 141.528L7.56636 141.091C7.99323 142.007 8.44093 142.923 8.90945 143.819L7.98282 144.298ZM5.35912 138.727C4.9843 137.78 4.60949 136.801 4.31796 135.843L5.29665 135.5C5.62981 136.447 5.99422 137.405 6.3378 138.342L5.35912 138.727ZM3.27681 132.897C2.98529 131.908 2.71459 130.908 2.46471 129.919L3.50586 129.669C3.75574 130.648 4.01603 131.627 4.30755 132.605L3.27681 132.897ZM1.79837 126.91C1.60055 125.869 1.42356 124.88 1.2778 123.86L2.31895 123.714C2.46471 124.755 2.64171 125.713 2.83953 126.702L1.79837 126.91ZM0.892567 120.799C0.788451 119.758 0.705161 118.716 0.642692 117.675L1.68385 117.623C1.74631 118.664 1.81919 119.643 1.92331 120.653L0.892567 120.799ZM0.538574 114.635C0.538574 114.323 0.538574 114.01 0.538574 113.708C0.538574 113.014 0.538574 112.296 0.538574 111.553H1.57973C1.57973 112.247 1.57973 112.941 1.57973 113.636C1.57973 113.938 1.57973 114.239 1.57973 114.552L0.538574 114.635ZM1.76714 108.544L0.725982 108.461C0.798863 107.42 0.892569 106.379 1.01751 105.39L2.05866 105.504C2.01702 106.525 1.92331 107.534 1.85043 108.544H1.76714ZM2.46471 102.495L1.42356 102.329C1.59014 101.288 1.76714 100.246 1.97537 99.2885L3.01652 99.4863C2.88117 100.486 2.70417 101.527 2.548 102.495H2.46471ZM3.66203 96.519L2.62088 96.2691C2.86035 95.228 3.13105 94.2806 3.41216 93.281L4.45331 93.5726C4.24508 94.5513 3.98479 95.5299 3.74533 96.519H3.66203ZM5.33829 90.6573L4.29714 90.3242C4.62337 89.3594 4.97042 88.3911 5.33829 87.4193L6.30657 87.7838C6.07751 88.7312 5.74434 89.6995 5.42159 90.6573H5.33829ZM7.4206 84.9518L6.46274 84.5458C6.85838 83.5983 7.27484 82.6613 7.70171 81.7242L8.64916 82.1615C8.35764 83.0882 7.95159 84.0148 7.55595 84.9518H7.4206ZM9.98184 79.4233L9.05521 78.9548C9.51332 78.0386 10.0027 77.1328 10.5024 76.2374L11.4082 76.7371C11.0542 77.6325 10.5649 78.5279 10.1172 79.4233H9.98184ZM12.9491 74.1134L12.0537 73.572C12.5847 72.6974 13.0949 71.8229 13.6988 70.9691L14.5733 71.5418C14.1464 72.3747 13.605 73.2493 13.0845 74.1134H12.9491ZM16.2912 69.0222L15.4479 68.4183C16.0414 67.5854 16.6556 66.7629 17.2803 65.9404L18.1028 66.5755C17.6239 67.3876 17.02 68.2101 16.4266 69.0222H16.2912ZM19.9977 64.1912L19.196 63.5353C19.852 62.744 20.5183 61.9632 21.2055 61.1927L21.9759 61.8799C21.4345 62.6399 20.7786 63.4208 20.1331 64.1912H19.9977ZM24.0374 59.6414L23.2878 58.923C23.9854 58.1838 24.7142 57.4445 25.4534 56.7261L26.1718 57.4654C25.5887 58.1838 24.8703 58.9022 24.1728 59.6414H24.0374ZM28.3894 55.3726L27.6814 54.6022C28.4311 53.915 29.2015 53.2383 29.9928 52.5199L30.6696 53.3112C30.024 54.0192 29.3056 54.6751 28.5248 55.3726H28.3894ZM33.0121 51.4163L32.3666 50.6042C33.1683 49.9586 33.9804 49.334 34.8029 48.7197L35.4276 49.5526C34.7405 50.1669 33.9388 50.7812 33.1475 51.4163H33.0121ZM37.8952 47.7722L37.3017 46.9185C38.1485 46.3354 39.0023 45.7628 39.8629 45.2006L40.4252 46.0751C39.7172 46.627 38.8634 47.1996 38.0305 47.7722H37.8952ZM43.0072 44.4614L42.4658 43.566C43.3404 43.035 44.2358 42.5248 45.1312 42.0146L45.6413 42.9309C44.9229 43.4306 44.0067 43.9408 43.1426 44.4614H43.0072Z" fill="#E0E0E0"/>
<path id="Vector_8" d="M32.0232 169.931L30.7009 169.087L31.2736 168.213L32.575 169.046L32.0232 169.931Z" fill="#E0E0E0"/>
<path id="Vector_9" d="M21.4554 79.5379L20.5288 79.059C20.7683 78.58 21.0286 78.1115 21.2784 77.6638L22.1842 78.1844C21.9344 78.6217 21.6949 79.0694 21.4554 79.5379Z" fill="#E0E0E0"/>
<path id="Vector_10" d="M47.6404 154.386C46.7242 153.845 45.8288 153.345 44.9542 152.752L45.5164 151.867C46.3702 152.419 47.2551 152.908 48.1609 153.481L47.6404 154.386ZM42.3305 151.013C41.4559 150.409 40.6126 149.795 39.7901 149.17L40.4148 148.337C41.2269 148.952 42.0598 149.566 42.9239 150.159L42.3305 151.013ZM37.3225 147.223C36.5104 146.546 35.7088 145.859 34.9383 145.141L35.6359 144.37C36.3959 145.058 37.1872 145.734 37.9785 146.453L37.3225 147.223ZM32.6582 142.996C31.919 142.246 31.1901 141.486 30.4926 140.716L31.263 140.018C31.9502 140.768 32.6686 141.528 33.3974 142.257L32.6582 142.996ZM28.4311 138.332C27.7648 137.509 27.1088 136.666 26.505 135.833L27.3379 135.219C27.9418 136.041 28.5769 136.864 29.2432 137.665L28.4311 138.332ZM24.7038 133.251C24.1311 132.366 23.5689 131.46 23.0587 130.565L23.9541 130.044C24.4643 130.919 24.9953 131.814 25.5783 132.678L24.7038 133.251ZM21.5803 127.795C21.1118 126.858 20.6537 125.9 20.2372 124.943L21.1951 124.526C21.6011 125.463 22.0488 126.4 22.5069 127.327L21.5803 127.795ZM19.0503 122.027C18.6859 121.049 18.3423 120.039 18.0091 119.039L19.0503 118.727C19.3557 119.712 19.7028 120.691 20.0915 121.663L19.0503 122.027ZM17.1762 116.009C16.9263 114.968 16.6973 113.927 16.4891 112.886L17.5302 112.688C17.7176 113.729 17.9467 114.77 18.1966 115.707L17.1762 116.009ZM15.9477 109.856C15.8123 108.815 15.6978 107.774 15.6145 106.733L16.6556 106.649C16.7389 107.691 16.8535 108.732 16.9888 109.773L15.9477 109.856ZM15.4375 103.609C15.4375 103.099 15.4375 102.568 15.4375 102.079C15.4375 101.589 15.4375 101.038 15.4375 100.455H16.4787C16.4787 100.986 16.4787 101.496 16.4787 102.048C16.4787 102.599 16.4787 103.089 16.4787 103.547L15.4375 103.609ZM16.6556 97.3624L15.6145 97.2791C15.7082 96.2379 15.8227 95.1968 15.9685 94.1556L17.0096 94.3014C16.8118 95.2801 16.7389 96.3212 16.6556 97.3624ZM17.5094 91.2404L16.4682 91.0322C16.6765 89.991 16.9159 88.9498 17.1762 87.9608L18.2174 88.221C17.9467 89.1685 17.7176 90.1888 17.5094 91.1987V91.2404ZM19.0919 85.2642L18.0508 84.931C18.384 83.8898 18.7588 82.9216 19.1544 81.9741L20.1123 82.3698C19.7791 83.2547 19.4251 84.223 19.0919 85.2225V85.2642Z" fill="#E0E0E0"/>
<path id="Vector_11" d="M51.8153 156.708L50.4202 155.979L50.9199 155.063L52.2942 155.781L51.8153 156.708Z" fill="#E0E0E0"/>
</g>
</g>
</svg>
