<svg xmlns="http://www.w3.org/2000/svg" width="24" height="24" viewBox="0 0 24 24" fill="none">
<path d="M17.0625 9.75C17.0625 9.89918 17.0032 10.0423 16.8977 10.1477C16.7923 10.2532 16.6492 10.3125 16.5 10.3125H7.5C7.35082 10.3125 7.20774 10.2532 7.10225 10.1477C6.99676 10.0423 6.9375 9.89918 6.9375 9.75C6.9375 9.60082 6.99676 9.45774 7.10225 9.35225C7.20774 9.24676 7.35082 9.1875 7.5 9.1875H16.5C16.6492 9.1875 16.7923 9.24676 16.8977 9.35225C17.0032 9.45774 17.0625 9.60082 17.0625 9.75ZM16.5 12.1875H7.5C7.35082 12.1875 7.20774 12.2468 7.10225 12.3523C6.99676 12.4577 6.9375 12.6008 6.9375 12.75C6.9375 12.8992 6.99676 13.0423 7.10225 13.1477C7.20774 13.2532 7.35082 13.3125 7.5 13.3125H16.5C16.6492 13.3125 16.7923 13.2532 16.8977 13.1477C17.0032 13.0423 17.0625 12.8992 17.0625 12.75C17.0625 12.6008 17.0032 12.4577 16.8977 12.3523C16.7923 12.2468 16.6492 12.1875 16.5 12.1875ZM21.5625 5.25V19.5C21.5624 19.5959 21.5378 19.6901 21.491 19.7738C21.4443 19.8575 21.3769 19.9278 21.2953 19.9781C21.2068 20.0334 21.1044 20.0627 21 20.0625C20.9128 20.0626 20.8268 20.0423 20.7488 20.0034L18 18.6291L15.2512 20.0034C15.1732 20.0424 15.0872 20.0627 15 20.0627C14.9128 20.0627 14.8268 20.0424 14.7488 20.0034L12 18.6291L9.25125 20.0034C9.17322 20.0424 9.08721 20.0627 9 20.0627C8.91279 20.0627 8.82678 20.0424 8.74875 20.0034L6 18.6291L3.25125 20.0034C3.16548 20.0463 3.07018 20.0664 2.97442 20.0621C2.87865 20.0577 2.78558 20.029 2.70406 19.9785C2.62253 19.9281 2.55525 19.8576 2.5086 19.7739C2.46194 19.6901 2.43747 19.5959 2.4375 19.5V5.25C2.4375 4.9019 2.57578 4.56806 2.82192 4.32192C3.06806 4.07578 3.4019 3.9375 3.75 3.9375H20.25C20.5981 3.9375 20.9319 4.07578 21.1781 4.32192C21.4242 4.56806 21.5625 4.9019 21.5625 5.25ZM20.4375 5.25C20.4375 5.20027 20.4177 5.15258 20.3826 5.11742C20.3474 5.08225 20.2997 5.0625 20.25 5.0625H3.75C3.70027 5.0625 3.65258 5.08225 3.61742 5.11742C3.58225 5.15258 3.5625 5.20027 3.5625 5.25V18.5897L5.74875 17.4966C5.82678 17.4576 5.91279 17.4373 6 17.4373C6.08721 17.4373 6.17322 17.4576 6.25125 17.4966L9 18.8709L11.7487 17.4966C11.8268 17.4576 11.9128 17.4373 12 17.4373C12.0872 17.4373 12.1732 17.4576 12.2512 17.4966L15 18.8709L17.7488 17.4966C17.8268 17.4576 17.9128 17.4373 18 17.4373C18.0872 17.4373 18.1732 17.4576 18.2512 17.4966L20.4375 18.5897V5.25Z" fill="#4C36F1"/>
</svg>