<svg width="16" height="16" viewBox="0 0 16 16" fill="none" xmlns="http://www.w3.org/2000/svg">
<g id="fluent-emoji-flat:seat">
<g id="Group">
<path id="Vector" d="M7.49532 9.49986H12.3933C12.7283 9.49986 12.9993 9.77486 12.9993 10.1139V11.8859C12.9998 11.966 12.9846 12.0454 12.9544 12.1196C12.9242 12.1938 12.8798 12.2614 12.8235 12.3184C12.7672 12.3754 12.7003 12.4208 12.6264 12.4519C12.5526 12.483 12.4734 12.4993 12.3933 12.4999L9.56182 13.1799L6.60982 12.4999H6.25782C5.97182 12.4999 5.72032 12.3049 5.64632 12.0209L4.92232 9.59386L3.02132 2.59386C3.0001 2.51617 2.99465 2.43501 3.00529 2.35518C3.01592 2.27535 3.04243 2.19845 3.08325 2.12902C3.12407 2.05959 3.17837 1.99904 3.24296 1.95092C3.30755 1.90281 3.38111 1.8681 3.45932 1.84886L4.69782 1.52186C4.77572 1.5005 4.85708 1.49472 4.93723 1.50485C5.01737 1.51498 5.09473 1.54084 5.16487 1.58092C5.23501 1.62101 5.29654 1.67454 5.34596 1.73845C5.39537 1.80236 5.43168 1.87539 5.45282 1.95336L5.52082 2.20286L6.34732 3.48786L6.26882 4.95786L7.47732 9.40786C7.48582 9.43886 7.49182 9.46936 7.49532 9.49986Z" fill="#00A6ED"/>
<path id="Vector_2" d="M6.19934 13.9999L6.32584 14.5249C6.40434 14.8049 6.44584 14.9999 6.74934 14.9999H12.4993C12.7493 14.9999 12.9993 14.7499 12.9993 14.4999V13.9999H6.19934Z" fill="black"/>
<path id="Vector_3" d="M6.9895 4.40037L6.457 2.26187C6.412 2.07187 6.231 1.95987 6.055 2.01337L5.938 2.04737L5.5135 2.16737L6.2735 4.97837L6.6375 4.87337L6.7545 4.83887C6.931 4.78537 7.0345 4.59037 6.9895 4.40037ZM10.75 8.49987H5.75C5.335 8.49987 5 8.16487 5 7.74987C5 7.33487 5.335 6.99987 5.75 6.99987H10.75C11.165 6.99987 11.5 7.33487 11.5 7.74987C11.5 8.16487 11.165 8.49987 10.75 8.49987ZM13 13.9999H6.203L6.022 13.3099C5.9145 12.8999 6.2135 12.4999 6.63 12.4999H12.397C12.7305 12.4999 13 12.7749 13 13.1149V13.9999Z" fill="#B4ACBC"/>
</g>
</g>
</svg>
