<svg width="40" height="41" viewBox="0 0 40 41" fill="none" xmlns="http://www.w3.org/2000/svg">
<g id="teenyicons:csv-solid" clip-path="url(#clip0_1995_1287)">
<path id="Vector" fill-rule="evenodd" clip-rule="evenodd" d="M2.66602 4.5C2.66602 3.43913 3.08744 2.42172 3.83759 1.67157C4.58773 0.921427 5.60515 0.5 6.66602 0.5L28.5513 0.5L37.3327 9.28133V36.5C37.3327 37.5609 36.9113 38.5783 36.1611 39.3284C35.411 40.0786 34.3935 40.5 33.3327 40.5H6.66602C5.60515 40.5 4.58773 40.0786 3.83759 39.3284C3.08744 38.5783 2.66602 37.5609 2.66602 36.5V4.5ZM5.33268 16.5H13.3327V19.1667H7.99935V27.1667H13.3327V29.8333H5.33268V16.5ZM23.9993 16.5H15.9993V24.5H21.3327V27.1667H15.9993V29.8333H23.9993V21.8333H18.666V19.1667H23.9993V16.5ZM29.3327 16.5H26.666V26.3853L30.666 30.3853L34.666 26.3853V16.5H31.9993V25.2813L30.666 26.6147L29.3327 25.2813V16.5Z" fill="#00B630"/>
</g>
<defs>
<clipPath id="clip0_1995_1287">
<rect width="40" height="40" fill="white" transform="translate(0 0.5)"/>
</clipPath>
</defs>
</svg>
