<svg xmlns="http://www.w3.org/2000/svg" height="24" viewBox="0 -960 960 960" width="24"><path d="M480.181-353.846q60.973 0 103.473-42.681t42.5-103.654q0-60.973-42.681-103.473t-103.654-42.5q-60.973 0-103.473 42.681t-42.5 103.654q0 60.973 42.681 103.473t103.654 42.5ZM480-392q-45 0-76.5-31.5T372-500q0-45 31.5-76.5T480-608q45 0 76.5 31.5T588-500q0 45-31.5 76.5T480-392Zm.11 152q-129.956 0-236.879-70.731Q136.307-381.461 83.077-500q53.23-118.539 160.044-189.269Q349.934-760 479.89-760q129.956 0 236.879 70.731Q823.693-618.539 876.923-500q-53.23 118.539-160.044 189.269Q610.066-240 480.11-240ZM480-500Zm0 220q113 0 207.5-59.5T832-500q-50-101-144.5-160.5T480-720q-113 0-207.5 59.5T128-500q50 101 144.5 160.5T480-280Z"/></svg>