<svg width="16" height="16" viewBox="0 0 16 16" fill="none" xmlns="http://www.w3.org/2000/svg">
<g id="XCircle">
<path id="Vector" d="M10.265 6.265L8.53 8L10.265 9.735C10.3018 9.76933 10.3314 9.81073 10.3519 9.85673C10.3724 9.90273 10.3834 9.95239 10.3843 10.0027C10.3852 10.0531 10.3759 10.1031 10.3571 10.1498C10.3382 10.1965 10.3101 10.2389 10.2745 10.2745C10.2389 10.3101 10.1965 10.3382 10.1498 10.3571C10.1031 10.3759 10.0531 10.3852 10.0027 10.3843C9.95239 10.3834 9.90273 10.3724 9.85673 10.3519C9.81073 10.3314 9.76933 10.3018 9.735 10.265L8 8.53L6.265 10.265C6.19392 10.3312 6.09989 10.3673 6.00274 10.3656C5.90559 10.3639 5.8129 10.3245 5.74419 10.2558C5.67549 10.1871 5.63613 10.0944 5.63442 9.99726C5.6327 9.90011 5.66876 9.80609 5.735 9.735L7.47 8L5.735 6.265C5.66876 6.19391 5.6327 6.09989 5.63442 6.00274C5.63613 5.90559 5.67549 5.8129 5.74419 5.74419C5.8129 5.67548 5.90559 5.63613 6.00274 5.63441C6.09989 5.6327 6.19392 5.66876 6.265 5.735L8 7.47L9.735 5.735C9.80609 5.66876 9.90011 5.6327 9.99726 5.63441C10.0944 5.63613 10.1871 5.67548 10.2558 5.74419C10.3245 5.8129 10.3639 5.90559 10.3656 6.00274C10.3673 6.09989 10.3312 6.19391 10.265 6.265ZM14.375 8C14.375 9.26086 14.0011 10.4934 13.3006 11.5418C12.6001 12.5901 11.6045 13.4072 10.4396 13.8897C9.27473 14.3722 7.99293 14.4985 6.7563 14.2525C5.51967 14.0065 4.38376 13.3994 3.4922 12.5078C2.60064 11.6162 1.99348 10.4803 1.7475 9.2437C1.50152 8.00707 1.62776 6.72527 2.11027 5.56039C2.59278 4.39551 3.40988 3.39988 4.45824 2.69938C5.50661 1.99889 6.73915 1.625 8 1.625C9.69015 1.62698 11.3105 2.29927 12.5056 3.49439C13.7007 4.6895 14.373 6.30985 14.375 8ZM13.625 8C13.625 6.88748 13.2951 5.79994 12.677 4.87492C12.0589 3.94989 11.1804 3.22892 10.1526 2.80318C9.12476 2.37743 7.99376 2.26604 6.90262 2.48308C5.81148 2.70012 4.8092 3.23585 4.02253 4.02252C3.23586 4.80919 2.70013 5.81147 2.48309 6.90262C2.26604 7.99376 2.37744 9.12476 2.80318 10.1526C3.22892 11.1804 3.94989 12.0589 4.87492 12.677C5.79995 13.2951 6.88748 13.625 8 13.625C9.49134 13.6233 10.9211 13.0302 11.9757 11.9756C13.0302 10.9211 13.6233 9.49133 13.625 8Z" fill="#5E606E"/>
</g>
</svg>
