<svg xmlns="http://www.w3.org/2000/svg" width="24" height="24" viewBox="0 0 24 24" fill="none">
  <path fill-rule="evenodd" clip-rule="evenodd" d="M20.1045 6.96979C20.6439 7.53063 20.82 8.80424 20.82 8.80424C20.82 8.80424 21 10.3002 21 11.7956V13.198C21 14.694 20.82 16.1894 20.82 16.1894C20.82 16.1894 20.6439 17.463 20.1045 18.0239C19.4878 18.6873 18.8039 18.7559 18.4174 18.7946C18.3749 18.7989 18.336 18.8028 18.3011 18.8071C15.7822 18.9942 12 19 12 19C12 19 7.32 18.9561 5.88 18.814C5.81177 18.8009 5.72907 18.7907 5.63541 18.7792C5.17928 18.723 4.46335 18.6348 3.89494 18.0239C3.3555 17.463 3.18 16.1894 3.18 16.1894C3.18 16.1894 3 14.694 3 13.198V11.7956C3 10.3002 3.18 8.80424 3.18 8.80424C3.18 8.80424 3.3555 7.53063 3.89494 6.96979C4.51305 6.30538 5.19754 6.23757 5.58411 6.19928C5.62602 6.19513 5.66443 6.19132 5.69887 6.18714C8.21775 6 11.9961 6 11.9961 6H12.0039C12.0039 6 15.7822 6 18.3011 6.18714C18.3356 6.19133 18.374 6.19514 18.4159 6.1993C18.8022 6.2376 19.487 6.30549 20.1045 6.96979ZM10.1409 9.70414L10.1415 14.8973L15.0043 12.3097L10.1409 9.70414Z" fill="#2D57EC"/>
</svg>