<svg width="42" height="49" viewBox="0 0 42 49" fill="none" xmlns="http://www.w3.org/2000/svg">
<path fill-rule="evenodd" clip-rule="evenodd" d="M0.199219 5.3C0.199219 4.02696 0.704932 2.80606 1.60511 1.90589C2.50528 1.00571 3.72618 0.5 4.99922 0.5L31.2616 0.5L41.7992 11.0376V43.7C41.7992 44.973 41.2935 46.1939 40.3933 47.0941C39.4932 47.9943 38.2723 48.5 36.9992 48.5H4.99922C3.72618 48.5 2.50528 47.9943 1.60511 47.0941C0.704932 46.1939 0.199219 44.973 0.199219 43.7V5.3ZM8.19922 19.7H3.39922V35.7H8.19922C9.47226 35.7 10.6932 35.1943 11.5933 34.2941C12.4935 33.3939 12.9992 32.173 12.9992 30.9V24.5C12.9992 23.227 12.4935 22.0061 11.5933 21.1059C10.6932 20.2057 9.47226 19.7 8.19922 19.7ZM20.9992 19.7C19.7262 19.7 18.5053 20.2057 17.6051 21.1059C16.7049 22.0061 16.1992 23.227 16.1992 24.5V30.9C16.1992 32.173 16.7049 33.3939 17.6051 34.2941C18.5053 35.1943 19.7262 35.7 20.9992 35.7C22.2723 35.7 23.4932 35.1943 24.3933 34.2941C25.2935 33.3939 25.7992 32.173 25.7992 30.9V24.5C25.7992 23.227 25.2935 22.0061 24.3933 21.1059C23.4932 20.2057 22.2723 19.7 20.9992 19.7ZM28.9992 35.7V19.7H38.5992V26.1H35.3992V22.9H32.1992V32.5H35.3992V29.3H38.5992V35.7H28.9992Z" fill="#5D48FA"/>
</svg>
