<svg xmlns="http://www.w3.org/2000/svg" width="32" height="32" viewBox="0 0 32 32" fill="none">
  <path d="M30 25.3333V16C30 8.26801 23.732 2 16 2C8.26801 2 2 8.26801 2 16V25.3333M5.88889 30C3.74112 30 2 28.2589 2 26.1111V23C2 20.8522 3.74112 19.1111 5.88889 19.1111C8.03666 19.1111 9.77778 20.8522 9.77778 23V26.1111C9.77778 28.2589 8.03666 30 5.88889 30ZM26.1111 30C23.9633 30 22.2222 28.2589 22.2222 26.1111V23C22.2222 20.8522 23.9633 19.1111 26.1111 19.1111C28.2589 19.1111 30 20.8522 30 23V26.1111C30 28.2589 28.2589 30 26.1111 30Z" stroke="#2872EC" stroke-width="3.11111" stroke-linecap="round" stroke-linejoin="round"/>
</svg>