<svg xmlns="http://www.w3.org/2000/svg" width="146" height="42" viewBox="0 0 146 42" fill="none">
  <mask id="path-1-inside-1_1_1476" fill="white">
    <path fill-rule="evenodd" clip-rule="evenodd" d="M0.868923 0L16 20.9883L0.852112 42H145.148L130 20.9883L145.131 0H0.868923Z"/>
  </mask>
  <path fill-rule="evenodd" clip-rule="evenodd" d="M0.868923 0L16 20.9883L0.852112 42H145.148L130 20.9883L145.131 0H0.868923Z" fill="#2872EC" fill-opacity="0.1"/>
  <path d="M16 20.9883L16.8112 21.5731L17.2328 20.9883L16.8112 20.4035L16 20.9883ZM0.868923 0V-1H-1.08478L0.0577453 0.5848L0.868923 0ZM0.852112 42L0.0409344 41.4152L-1.10159 43H0.852112V42ZM145.148 42V43H147.102L145.959 41.4152L145.148 42ZM130 20.9883L129.189 20.4035L128.767 20.9883L129.189 21.5731L130 20.9883ZM145.131 0L145.942 0.5848L147.085 -1H145.131V0ZM16.8112 20.4035L1.6801 -0.5848L0.0577453 0.5848L15.1888 21.5731L16.8112 20.4035ZM1.66329 42.5848L16.8112 21.5731L15.1888 20.4035L0.0409344 41.4152L1.66329 42.5848ZM145.148 41H0.852112V43H145.148V41ZM129.189 21.5731L144.337 42.5848L145.959 41.4152L130.811 20.4035L129.189 21.5731ZM144.32 -0.5848L129.189 20.4035L130.811 21.5731L145.942 0.5848L144.32 -0.5848ZM0.868923 1H145.131V-1H0.868923V1Z" fill="#2872EC" fill-opacity="0.5" mask="url(#path-1-inside-1_1_1476)"/>
</svg>