<svg xmlns="http://www.w3.org/2000/svg" width="32" height="32" viewBox="0 0 32 32" fill="none">
  <path d="M9 13.25H9.01556M16 13.25H16.0156M23 13.25H23.0156M12.7333 26.3L15.0044 29.22C15.3422 29.6542 15.5111 29.8714 15.7181 29.949C15.8994 30.017 16.1006 30.017 16.2819 29.949C16.4889 29.8714 16.6578 29.6542 16.9956 29.22L19.2667 26.3C19.7227 25.7137 19.9507 25.4206 20.2288 25.1967C20.5996 24.8983 21.0374 24.6873 21.5074 24.5803C21.86 24.5 22.24 24.5 23 24.5C25.1744 24.5 26.2616 24.5 27.1192 24.1575C28.2627 23.7007 29.1711 22.8247 29.6448 21.7221C30 20.8951 30 19.8467 30 17.75V9.2C30 6.67976 30 5.41965 29.4914 4.45704C29.044 3.61031 28.33 2.9219 27.452 2.49047C26.4537 2 25.1469 2 22.5333 2H9.46667C6.85309 2 5.5463 2 4.54804 2.49047C3.66995 2.9219 2.95605 3.61031 2.50864 4.45704C2 5.41965 2 6.67976 2 9.2V17.75C2 19.8467 2 20.8951 2.35523 21.7221C2.82887 22.8247 3.73735 23.7007 4.88081 24.1575C5.73841 24.5 6.82561 24.5 9 24.5C9.76001 24.5 10.14 24.5 10.4926 24.5803C10.9626 24.6873 11.4004 24.8983 11.7712 25.1967C12.0493 25.4206 12.2773 25.7137 12.7333 26.3ZM9.77778 13.25C9.77778 13.6642 9.42955 14 9 14C8.57045 14 8.22222 13.6642 8.22222 13.25C8.22222 12.8358 8.57045 12.5 9 12.5C9.42955 12.5 9.77778 12.8358 9.77778 13.25ZM16.7778 13.25C16.7778 13.6642 16.4296 14 16 14C15.5704 14 15.2222 13.6642 15.2222 13.25C15.2222 12.8358 15.5704 12.5 16 12.5C16.4296 12.5 16.7778 12.8358 16.7778 13.25ZM23.7778 13.25C23.7778 13.6642 23.4296 14 23 14C22.5704 14 22.2222 13.6642 22.2222 13.25C22.2222 12.8358 22.5704 12.5 23 12.5C23.4296 12.5 23.7778 12.8358 23.7778 13.25Z" stroke="#2872EC" stroke-width="3.11111" stroke-linecap="round" stroke-linejoin="round"/>
</svg>