<svg xmlns="http://www.w3.org/2000/svg" width="21" height="20" viewBox="0 0 21 20" fill="none">
  <path d="M6.75 10L9.25 12.5L14.25 7.5M7 17.5H14C15.4001 17.5 16.1002 17.5 16.635 17.2275C17.1054 16.9878 17.4878 16.6054 17.7275 16.135C18 15.6002 18 14.9001 18 13.5V6.5C18 5.09987 18 4.3998 17.7275 3.86502C17.4878 3.39462 17.1054 3.01217 16.635 2.77248C16.1002 2.5 15.4001 2.5 14 2.5H7C5.59987 2.5 4.8998 2.5 4.36502 2.77248C3.89462 3.01217 3.51217 3.39462 3.27248 3.86502C3 4.3998 3 5.09987 3 6.5V13.5C3 14.9001 3 15.6002 3.27248 16.135C3.51217 16.6054 3.89462 16.9878 4.36502 17.2275C4.8998 17.5 5.59987 17.5 7 17.5Z" stroke="#1E9CEB" stroke-width="1.66667" stroke-linecap="round" stroke-linejoin="round"/>
</svg>