<svg width="202" height="49" viewBox="0 0 202 49" fill="none" xmlns="http://www.w3.org/2000/svg">
<path d="M38.4333 31.8323C36.7931 31.8323 35.42 31.5006 34.3142 30.8371C33.2176 30.1736 32.3883 29.2982 31.8262 28.2108C31.2733 27.1142 30.9968 25.9117 30.9968 24.6032C30.9968 23.3407 31.2548 22.1796 31.7709 21.1199C32.2961 20.051 33.0564 19.1986 34.0516 18.5627C35.056 17.9177 36.2724 17.5952 37.7007 17.5952C38.954 17.5952 40.0229 17.8486 40.9075 18.3554C41.7922 18.8622 42.4649 19.5626 42.9256 20.4564C43.3956 21.3411 43.6306 22.3547 43.6306 23.4974C43.6306 23.7554 43.6121 24.0272 43.5753 24.3129C43.5476 24.5893 43.5062 24.875 43.4509 25.1699H34.1898C34.3188 26.1743 34.5999 26.9714 35.033 27.5612C35.4661 28.1509 36.0052 28.5794 36.6502 28.8467C37.2953 29.1047 37.991 29.2337 38.7374 29.2337C39.4746 29.2337 40.1842 29.1461 40.8661 28.9711C41.5572 28.7868 42.1976 28.538 42.7874 28.2246L43.0224 30.7818C42.4971 31.0398 41.8475 31.2794 41.0734 31.5006C40.2994 31.7217 39.4193 31.8323 38.4333 31.8323ZM34.328 23.0689H40.479C40.479 22.5713 40.3823 22.1059 40.1888 21.6728C40.0045 21.2305 39.705 20.8757 39.2903 20.6085C38.8849 20.332 38.3504 20.1938 37.6869 20.1938C36.7193 20.1938 35.9637 20.4564 35.42 20.9817C34.8856 21.5069 34.5216 22.2027 34.328 23.0689Z" fill="#11075F"/>
<path d="M45.6836 31.5559L50.3142 24.6999L45.7251 17.8301H49.3328L52.1802 22.3363L54.7927 17.8301H58.4556L53.908 24.6308L58.5109 31.5559H54.8894L52.042 27.0636L49.3051 31.5559H45.6836Z" fill="#11075F"/>
<path d="M61.5477 38.2459V17.8301H64.0081L64.6025 20.4149L63.6902 20.0141C64.3076 19.2769 65.0034 18.6917 65.7774 18.2586C66.5607 17.8163 67.5144 17.5952 68.6387 17.5952C69.9564 17.5952 71.0668 17.9177 71.9699 18.5627C72.8822 19.2078 73.5733 20.0694 74.0433 21.1475C74.5132 22.2257 74.7482 23.4144 74.7482 24.7137C74.7482 26.013 74.5178 27.2018 74.0571 28.2799C73.5963 29.3581 72.9144 30.2197 72.0114 30.8647C71.1083 31.5098 69.9841 31.8323 68.6387 31.8323C67.5605 31.8323 66.6482 31.6572 65.9018 31.3071C65.1646 30.9569 64.5057 30.4132 63.9252 29.676L64.6302 29.054V38.2459H61.5477ZM68.1411 29.2337C69.2284 29.2337 70.0762 28.8236 70.6844 28.0035C71.2926 27.1741 71.5967 26.0776 71.5967 24.7137C71.5967 23.3407 71.2926 22.2441 70.6844 21.424C70.0762 20.6039 69.2284 20.1938 68.1411 20.1938C67.367 20.1938 66.7035 20.3781 66.1506 20.7467C65.6069 21.1061 65.1923 21.6221 64.9066 22.2948C64.6209 22.9675 64.4781 23.7738 64.4781 24.7137C64.4781 25.6721 64.6209 26.4876 64.9066 27.1603C65.1923 27.833 65.6069 28.349 66.1506 28.7084C66.7035 29.0586 67.367 29.2337 68.1411 29.2337Z" fill="#11075F"/>
<path d="M84.919 31.8323C83.2787 31.8323 81.9057 31.5006 80.7999 30.8371C79.7033 30.1736 78.8739 29.2982 78.3118 28.2108C77.7589 27.1142 77.4825 25.9117 77.4825 24.6032C77.4825 23.3407 77.7405 22.1796 78.2565 21.1199C78.7818 20.051 79.542 19.1986 80.5372 18.5627C81.5417 17.9177 82.758 17.5952 84.1864 17.5952C85.4396 17.5952 86.5085 17.8486 87.3932 18.3554C88.2778 18.8622 88.9505 19.5626 89.4113 20.4564C89.8812 21.3411 90.1162 22.3547 90.1162 23.4974C90.1162 23.7554 90.0978 24.0272 90.0609 24.3129C90.0333 24.5893 89.9918 24.875 89.9365 25.1699H80.6755C80.8045 26.1743 81.0855 26.9714 81.5186 27.5612C81.9517 28.1509 82.4908 28.5794 83.1359 28.8467C83.7809 29.1047 84.4766 29.2337 85.223 29.2337C85.9602 29.2337 86.6698 29.1461 87.3517 28.9711C88.0428 28.7868 88.6833 28.538 89.273 28.2246L89.508 30.7818C88.9828 31.0398 88.3331 31.2794 87.5591 31.5006C86.785 31.7217 85.905 31.8323 84.919 31.8323ZM80.8137 23.0689H86.9647C86.9647 22.5713 86.8679 22.1059 86.6744 21.6728C86.4901 21.2305 86.1906 20.8757 85.776 20.6085C85.3705 20.332 84.836 20.1938 84.1725 20.1938C83.205 20.1938 82.4493 20.4564 81.9057 20.9817C81.3712 21.5069 81.0072 22.2027 80.8137 23.0689Z" fill="#11075F"/>
<path d="M93.618 31.5559V17.8301H96.3687L96.6313 20.4149L95.7744 19.5994C96.4378 18.9452 97.1566 18.4475 97.9307 18.1066C98.7139 17.7656 99.5663 17.5952 100.488 17.5952C102.331 17.5952 103.681 18.1757 104.538 19.3368C105.395 20.4979 105.823 22.0322 105.823 23.9397V31.5559H102.741V24.1055C102.741 22.7602 102.506 21.7742 102.036 21.1475C101.566 20.5117 100.792 20.1938 99.7138 20.1938C98.8752 20.1938 98.161 20.3873 97.5713 20.7743C96.9815 21.1614 96.5208 21.7189 96.189 22.4468L96.7005 20.8158V31.5559H93.618Z" fill="#11075F"/>
<path d="M113.956 31.8323C112.942 31.8323 112.058 31.7263 111.302 31.5144C110.547 31.2932 109.878 31.0398 109.298 30.7542L109.602 28.0035C110.155 28.3629 110.786 28.6854 111.496 28.9711C112.205 29.2475 112.989 29.3857 113.846 29.3857C114.601 29.3857 115.177 29.2659 115.573 29.0263C115.97 28.7775 116.168 28.3997 116.168 27.8929C116.168 27.4967 116.053 27.1741 115.822 26.9253C115.592 26.6673 115.278 26.4508 114.882 26.2757C114.495 26.0914 114.057 25.9163 113.569 25.7504C112.804 25.4924 112.113 25.2021 111.496 24.8796C110.878 24.5479 110.385 24.124 110.017 23.6079C109.657 23.0919 109.478 22.4238 109.478 21.6037C109.478 20.848 109.671 20.1661 110.058 19.558C110.445 18.9405 111.017 18.4522 111.772 18.0928C112.528 17.7334 113.468 17.5537 114.592 17.5537C115.477 17.5537 116.241 17.6504 116.886 17.844C117.541 18.0375 118.13 18.2771 118.656 18.5627L118.352 21.2581C117.808 20.8619 117.241 20.5347 116.651 20.2767C116.062 20.0095 115.394 19.8759 114.647 19.8759C113.984 19.8759 113.458 20.0049 113.071 20.2629C112.694 20.5209 112.505 20.9033 112.505 21.4102C112.505 21.9815 112.744 22.4008 113.224 22.668C113.703 22.9352 114.449 23.2532 115.463 23.6218C115.997 23.8153 116.495 24.0272 116.956 24.2576C117.416 24.488 117.822 24.7598 118.172 25.0731C118.522 25.3864 118.794 25.7596 118.987 26.1927C119.181 26.6258 119.278 27.1419 119.278 27.7409C119.278 28.5149 119.093 29.2106 118.725 29.8281C118.356 30.4455 117.78 30.9339 116.997 31.2932C116.214 31.6526 115.2 31.8323 113.956 31.8323Z" fill="#11075F"/>
<path d="M129.38 31.8323C127.74 31.8323 126.367 31.5006 125.261 30.8371C124.164 30.1736 123.335 29.2982 122.773 28.2108C122.22 27.1142 121.943 25.9117 121.943 24.6032C121.943 23.3407 122.201 22.1796 122.717 21.1199C123.243 20.051 124.003 19.1986 124.998 18.5627C126.003 17.9177 127.219 17.5952 128.647 17.5952C129.9 17.5952 130.969 17.8486 131.854 18.3554C132.739 18.8622 133.411 19.5626 133.872 20.4564C134.342 21.3411 134.577 22.3547 134.577 23.4974C134.577 23.7554 134.559 24.0272 134.522 24.3129C134.494 24.5893 134.453 24.875 134.397 25.1699H125.136C125.265 26.1743 125.546 26.9714 125.979 27.5612C126.413 28.1509 126.952 28.5794 127.597 28.8467C128.242 29.1047 128.938 29.2337 129.684 29.2337C130.421 29.2337 131.131 29.1461 131.813 28.9711C132.504 28.7868 133.144 28.538 133.734 28.2246L133.969 30.7818C133.444 31.0398 132.794 31.2794 132.02 31.5006C131.246 31.7217 130.366 31.8323 129.38 31.8323ZM125.275 23.0689H131.426C131.426 22.5713 131.329 22.1059 131.135 21.6728C130.951 21.2305 130.651 20.8757 130.237 20.6085C129.831 20.332 129.297 20.1938 128.633 20.1938C127.666 20.1938 126.91 20.4564 126.367 20.9817C125.832 21.5069 125.468 22.2027 125.275 23.0689Z" fill="#11075F"/>
<path d="M145.073 31.8323C144.059 31.8323 143.147 31.6434 142.336 31.2656C141.535 30.8786 140.857 30.3349 140.304 29.6345L141.175 29.0125L140.899 31.5559H138.051V10.8221H141.134V20.2629L140.415 19.7791C140.977 19.1156 141.65 18.5858 142.433 18.1895C143.225 17.7933 144.106 17.5952 145.073 17.5952C146.4 17.5952 147.52 17.9223 148.432 18.5766C149.353 19.2308 150.054 20.1016 150.533 21.189C151.012 22.2672 151.252 23.4421 151.252 24.7137C151.252 26.013 151.003 27.2018 150.505 28.2799C150.008 29.3581 149.298 30.2197 148.377 30.8647C147.455 31.5098 146.354 31.8323 145.073 31.8323ZM144.645 29.2337C145.373 29.2337 145.995 29.0402 146.511 28.6531C147.027 28.2569 147.418 27.7178 147.686 27.0359C147.962 26.354 148.1 25.5799 148.1 24.7137C148.1 23.8291 147.962 23.0504 147.686 22.3777C147.418 21.6958 147.027 21.1614 146.511 20.7743C145.995 20.3873 145.373 20.1938 144.645 20.1938C143.88 20.1938 143.225 20.3781 142.682 20.7467C142.138 21.1061 141.719 21.6221 141.424 22.2948C141.129 22.9675 140.982 23.7738 140.982 24.7137C140.982 25.6721 141.129 26.4876 141.424 27.1603C141.719 27.833 142.138 28.349 142.682 28.7084C143.225 29.0586 143.88 29.2337 144.645 29.2337Z" fill="#11075F"/>
<path d="M160.967 31.8323C159.493 31.8323 158.235 31.5098 157.193 30.8647C156.161 30.2197 155.369 29.3581 154.816 28.2799C154.272 27.2018 154 26.013 154 24.7137C154 23.4144 154.272 22.2211 154.816 21.1337C155.369 20.0463 156.161 19.1801 157.193 18.5351C158.235 17.8808 159.493 17.5537 160.967 17.5537C162.432 17.5537 163.685 17.8808 164.727 18.5351C165.768 19.1801 166.56 20.0463 167.104 21.1337C167.657 22.2211 167.934 23.4144 167.934 24.7137C167.934 26.013 167.657 27.2018 167.104 28.2799C166.56 29.3581 165.768 30.2197 164.727 30.8647C163.685 31.5098 162.432 31.8323 160.967 31.8323ZM160.967 29.2337C162.183 29.2337 163.119 28.8236 163.773 28.0035C164.436 27.1741 164.768 26.0776 164.768 24.7137C164.768 23.3315 164.436 22.2257 163.773 21.3963C163.119 20.567 162.183 20.1523 160.967 20.1523C159.751 20.1523 158.811 20.567 158.147 21.3963C157.484 22.2257 157.152 23.3315 157.152 24.7137C157.152 26.0776 157.484 27.1741 158.147 28.0035C158.811 28.8236 159.751 29.2337 160.967 29.2337Z" fill="#11075F"/>
<path d="M177.623 31.8323C176.149 31.8323 174.891 31.5098 173.85 30.8647C172.817 30.2197 172.025 29.3581 171.472 28.2799C170.928 27.2018 170.657 26.013 170.657 24.7137C170.657 23.4144 170.928 22.2211 171.472 21.1337C172.025 20.0463 172.817 19.1801 173.85 18.5351C174.891 17.8808 176.149 17.5537 177.623 17.5537C179.088 17.5537 180.341 17.8808 181.383 18.5351C182.424 19.1801 183.217 20.0463 183.76 21.1337C184.313 22.2211 184.59 23.4144 184.59 24.7137C184.59 26.013 184.313 27.2018 183.76 28.2799C183.217 29.3581 182.424 30.2197 181.383 30.8647C180.341 31.5098 179.088 31.8323 177.623 31.8323ZM177.623 29.2337C178.839 29.2337 179.775 28.8236 180.429 28.0035C181.093 27.1741 181.424 26.0776 181.424 24.7137C181.424 23.3315 181.093 22.2257 180.429 21.3963C179.775 20.567 178.839 20.1523 177.623 20.1523C176.407 20.1523 175.467 20.567 174.803 21.3963C174.14 22.2257 173.808 23.3315 173.808 24.7137C173.808 26.0776 174.14 27.1741 174.803 28.0035C175.467 28.8236 176.407 29.2337 177.623 29.2337Z" fill="#11075F"/>
<path d="M188.101 31.5559V10.8221H191.183V23.6632L195.731 17.8301H199.297L194.127 24.3544L199.421 31.5559H195.841L191.183 25.1422V31.5559H188.101Z" fill="#11075F"/>
<g clip-path="url(#clip0_65_10795)">
<path d="M16.1744 23.2625C16.1744 21.6288 15.8526 20.0111 15.2274 18.5018C14.6023 16.9925 13.6859 15.6211 12.5307 14.4659C11.3756 13.3107 10.0042 12.3944 8.49484 11.7692C6.98553 11.144 5.36785 10.8223 3.73417 10.8223L3.73418 13.3973C5.02969 13.3973 6.31251 13.6525 7.50941 14.1483C8.7063 14.644 9.79383 15.3707 10.7099 16.2868C11.626 17.2028 12.3526 18.2904 12.8484 19.4873C13.3442 20.6842 13.5993 21.967 13.5993 23.2625H16.1744Z" fill="#4C36F1"/>
<path d="M27.2322 10.8227C25.5985 10.8227 23.9809 11.1444 22.4716 11.7696C20.9622 12.3948 19.5908 13.3111 18.4357 14.4663C17.2805 15.6215 16.3641 16.9929 15.7389 18.5022C15.1138 20.0115 14.792 21.6292 14.792 23.2629L17.3671 23.2629C17.3671 21.9674 17.6222 20.6846 18.118 19.4877C18.6138 18.2908 19.3404 17.2032 20.2565 16.2872C21.1726 15.3711 22.2601 14.6444 23.457 14.1487C24.6539 13.6529 25.9367 13.3977 27.2322 13.3977L27.2322 10.8227Z" fill="#4C36F1"/>
<path d="M14.7924 26.0266C14.7924 27.6602 15.1142 29.2779 15.7393 30.7872C16.3645 32.2966 17.2809 33.668 18.4361 34.8231C19.5912 35.9783 20.9626 36.8947 22.472 37.5198C23.9813 38.145 25.5989 38.4668 27.2326 38.4668L27.2326 35.8917C25.9371 35.8917 24.6543 35.6366 23.4574 35.1408C22.2605 34.645 21.173 33.9184 20.2569 33.0023C19.3408 32.0862 18.6142 30.9987 18.1184 29.8018C17.6226 28.6049 17.3675 27.3221 17.3675 26.0266L14.7924 26.0266Z" fill="#7F70F5"/>
<path d="M3.73458 38.4674C5.36825 38.4674 6.98593 38.1456 8.49525 37.5204C10.0046 36.8952 11.376 35.9789 12.5311 34.8237C13.6863 33.6685 14.6027 32.2971 15.2279 30.7878C15.853 29.2785 16.1748 27.6608 16.1748 26.0271L13.5997 26.0271C13.5997 27.3227 13.3446 28.6055 12.8488 29.8024C12.353 30.9993 11.6264 32.0868 10.7103 33.0029C9.79423 33.9189 8.70671 34.6456 7.50981 35.1414C6.31291 35.6371 5.03009 35.8923 3.73458 35.8923L3.73458 38.4674Z" fill="#7F70F5"/>
<path d="M12.0274 23.2622C12.0274 22.1731 11.8129 21.0947 11.3961 20.0885C10.9793 19.0822 10.3684 18.168 9.5983 17.3979C8.82818 16.6277 7.91391 16.0168 6.9077 15.6001C5.90148 15.1833 4.82303 14.9687 3.73392 14.9688V16.6855C4.59759 16.6855 5.45281 16.8556 6.25074 17.1861C7.04867 17.5166 7.77369 18.001 8.3844 18.6118C8.99511 19.2225 9.47955 19.9475 9.81006 20.7454C10.1406 21.5433 10.3107 22.3986 10.3107 23.2622H12.0274Z" fill="#4C36F1"/>
<path d="M27.2329 14.9687C26.1438 14.9687 25.0654 15.1832 24.0592 15.6C23.0529 16.0168 22.1387 16.6277 21.3686 17.3978C20.5984 18.1679 19.9875 19.0822 19.5708 20.0884C19.154 21.0946 18.9395 22.1731 18.9395 23.2622L20.6562 23.2622C20.6562 22.3985 20.8263 21.5433 21.1568 20.7454C21.4873 19.9474 21.9717 19.2224 22.5825 18.6117C23.1932 18.001 23.9182 17.5165 24.7161 17.186C25.514 16.8555 26.3693 16.6854 27.2329 16.6854L27.2329 14.9687Z" fill="#4C36F1"/>
<path d="M18.9394 26.0268C18.9394 27.1159 19.1539 28.1944 19.5707 29.2006C19.9875 30.2068 20.5984 31.1211 21.3685 31.8912C22.1386 32.6613 23.0529 33.2722 24.0591 33.689C25.0653 34.1058 26.1438 34.3203 27.2329 34.3203L27.2329 32.6036C26.3692 32.6036 25.514 32.4335 24.7161 32.103C23.9181 31.7725 23.1931 31.288 22.5824 30.6773C21.9717 30.0666 21.4872 29.3416 21.1567 28.5436C20.8262 27.7457 20.6561 26.8905 20.6561 26.0268L18.9394 26.0268Z" fill="#7F70F5"/>
<path d="M3.73386 34.3204C4.82297 34.3204 5.90143 34.1059 6.90764 33.6891C7.91385 33.2723 8.82812 32.6614 9.59824 31.8913C10.3684 31.1211 10.9793 30.2069 11.396 29.2007C11.8128 28.1945 12.0273 27.116 12.0273 26.0269L10.3106 26.0269C10.3106 26.8906 10.1405 27.7458 9.81 28.5437C9.47949 29.3416 8.99505 30.0667 8.38434 30.6774C7.77363 31.2881 7.04861 31.7725 6.25068 32.103C5.45275 32.4335 4.59753 32.6037 3.73386 32.6037L3.73386 34.3204Z" fill="#7F70F5"/>
</g>
<defs>
<clipPath id="clip0_65_10795">
<rect width="23" height="33" fill="white" transform="translate(4 8)"/>
</clipPath>
</defs>
</svg>
