<svg width="40" height="41" viewBox="0 0 40 41" fill="none" xmlns="http://www.w3.org/2000/svg">
<g clip-path="url(#clip0_205_3125)">
<path fill-rule="evenodd" clip-rule="evenodd" d="M2.66699 4.5C2.66699 3.43913 3.08842 2.42172 3.83857 1.67157C4.58871 0.921427 5.60613 0.5 6.66699 0.5L28.5523 0.5L37.3337 9.28133V36.5C37.3337 37.5609 36.9122 38.5783 36.1621 39.3284C35.4119 40.0786 34.3945 40.5 33.3337 40.5H6.66699C5.60613 40.5 4.58871 40.0786 3.83857 39.3284C3.08842 38.5783 2.66699 37.5609 2.66699 36.5V4.5ZM5.33366 16.5H13.3337V19.1667H8.00033V27.1667H13.3337V29.8333H5.33366V16.5ZM24.0003 16.5H16.0003V24.5H21.3337V27.1667H16.0003V29.8333H24.0003V21.8333H18.667V19.1667H24.0003V16.5ZM29.3337 16.5H26.667V26.3853L30.667 30.3853L34.667 26.3853V16.5H32.0003V25.2813L30.667 26.6147L29.3337 25.2813V16.5Z" fill="#00B630"/>
</g>
<defs>
<clipPath id="clip0_205_3125">
<rect width="40" height="40" fill="white" transform="translate(0 0.5)"/>
</clipPath>
</defs>
</svg>
