<svg width="24" height="24" viewBox="0 0 24 24" fill="none" xmlns="http://www.w3.org/2000/svg">
<g clip-path="url(#clip0_52_42953)">
<path d="M11.925 0.75C7.05001 0.75 2.88751 3.9 1.35001 8.25H22.575C21 3.9 16.8375 0.75 11.925 0.75Z" fill="#F2B200"/>
<path d="M11.925 23.25C16.8375 23.25 21 20.1375 22.5375 15.75H1.35001C2.88751 20.1375 7.05001 23.25 11.925 23.25Z" fill="#83BF4F"/>
<path d="M1.34999 8.25C0.937494 9.4125 0.712494 10.6875 0.712494 12C0.712494 13.3125 0.937494 14.5875 1.34999 15.75H22.575C22.9875 14.5875 23.2125 13.3125 23.2125 12C23.2125 10.6875 22.9875 9.4125 22.575 8.25H1.34999Z" fill="white"/>
<path d="M11.925 15C13.5818 15 14.925 13.6569 14.925 12C14.925 10.3431 13.5818 9 11.925 9C10.2681 9 8.92499 10.3431 8.92499 12C8.92499 13.6569 10.2681 15 11.925 15Z" fill="#428BC1"/>
<path d="M11.925 14.625C13.3747 14.625 14.55 13.4497 14.55 12C14.55 10.5503 13.3747 9.375 11.925 9.375C10.4752 9.375 9.29999 10.5503 9.29999 12C9.29999 13.4497 10.4752 14.625 11.925 14.625Z" fill="white"/>
<path d="M10.95 9.75C11.0535 9.75 11.1375 9.66605 11.1375 9.5625C11.1375 9.45895 11.0535 9.375 10.95 9.375C10.8464 9.375 10.7625 9.45895 10.7625 9.5625C10.7625 9.66605 10.8464 9.75 10.95 9.75Z" fill="#428BC1"/>
<path d="M10.35 10.0875C10.4536 10.0875 10.5375 10.0036 10.5375 9.9C10.5375 9.79645 10.4536 9.7125 10.35 9.7125C10.2465 9.7125 10.1625 9.79645 10.1625 9.9C10.1625 10.0036 10.2465 10.0875 10.35 10.0875Z" fill="#428BC1"/>
<path d="M9.86249 10.575C9.96604 10.575 10.05 10.4911 10.05 10.3875C10.05 10.2839 9.96604 10.2 9.86249 10.2C9.75893 10.2 9.67499 10.2839 9.67499 10.3875C9.67499 10.4911 9.75893 10.575 9.86249 10.575Z" fill="#428BC1"/>
<path d="M9.52499 11.175C9.62855 11.175 9.71249 11.0911 9.71249 10.9875C9.71249 10.8839 9.62855 10.8 9.52499 10.8C9.42144 10.8 9.33749 10.8839 9.33749 10.9875C9.33749 11.0911 9.42144 11.175 9.52499 11.175Z" fill="#428BC1"/>
<path d="M9.33749 11.85C9.44105 11.85 9.52499 11.7661 9.52499 11.6625C9.52499 11.5589 9.44105 11.475 9.33749 11.475C9.23394 11.475 9.14999 11.5589 9.14999 11.6625C9.14999 11.7661 9.23394 11.85 9.33749 11.85Z" fill="#428BC1"/>
<path d="M9.33749 12.525C9.44105 12.525 9.52499 12.4411 9.52499 12.3375C9.52499 12.2339 9.44105 12.15 9.33749 12.15C9.23394 12.15 9.14999 12.2339 9.14999 12.3375C9.14999 12.4411 9.23394 12.525 9.33749 12.525Z" fill="#428BC1"/>
<path d="M9.52499 13.2C9.62855 13.2 9.71249 13.1161 9.71249 13.0125C9.71249 12.9089 9.62855 12.825 9.52499 12.825C9.42144 12.825 9.33749 12.9089 9.33749 13.0125C9.33749 13.1161 9.42144 13.2 9.52499 13.2Z" fill="#428BC1"/>
<path d="M9.86249 13.8C9.96604 13.8 10.05 13.7161 10.05 13.6125C10.05 13.5089 9.96604 13.425 9.86249 13.425C9.75893 13.425 9.67499 13.5089 9.67499 13.6125C9.67499 13.7161 9.75893 13.8 9.86249 13.8Z" fill="#428BC1"/>
<path d="M10.35 14.2875C10.4536 14.2875 10.5375 14.2036 10.5375 14.1C10.5375 13.9964 10.4536 13.9125 10.35 13.9125C10.2465 13.9125 10.1625 13.9964 10.1625 14.1C10.1625 14.2036 10.2465 14.2875 10.35 14.2875Z" fill="#428BC1"/>
<path d="M10.95 14.625C11.0535 14.625 11.1375 14.5411 11.1375 14.4375C11.1375 14.3339 11.0535 14.25 10.95 14.25C10.8464 14.25 10.7625 14.3339 10.7625 14.4375C10.7625 14.5411 10.8464 14.625 10.95 14.625Z" fill="#428BC1"/>
<path d="M11.5875 14.775C11.691 14.775 11.775 14.6911 11.775 14.5875C11.775 14.4839 11.691 14.4 11.5875 14.4C11.4839 14.4 11.4 14.4839 11.4 14.5875C11.4 14.6911 11.4839 14.775 11.5875 14.775Z" fill="#428BC1"/>
<path d="M12.1125 14.625C12.1125 14.5125 12.1875 14.4375 12.2625 14.4C12.375 14.4 12.45 14.475 12.4875 14.55C12.4875 14.6625 12.4125 14.7375 12.3375 14.775C12.1875 14.8125 12.1125 14.7375 12.1125 14.625Z" fill="#428BC1"/>
<path d="M12.9375 14.625C13.0411 14.625 13.125 14.5411 13.125 14.4375C13.125 14.3339 13.0411 14.25 12.9375 14.25C12.8339 14.25 12.75 14.3339 12.75 14.4375C12.75 14.5411 12.8339 14.625 12.9375 14.625Z" fill="#428BC1"/>
<path d="M13.5375 14.2875C13.6411 14.2875 13.725 14.2036 13.725 14.1C13.725 13.9964 13.6411 13.9125 13.5375 13.9125C13.434 13.9125 13.35 13.9964 13.35 14.1C13.35 14.2036 13.434 14.2875 13.5375 14.2875Z" fill="#428BC1"/>
<path d="M14.025 13.8C14.1285 13.8 14.2125 13.7161 14.2125 13.6125C14.2125 13.5089 14.1285 13.425 14.025 13.425C13.9214 13.425 13.8375 13.5089 13.8375 13.6125C13.8375 13.7161 13.9214 13.8 14.025 13.8Z" fill="#428BC1"/>
<path d="M14.3625 13.2C14.466 13.2 14.55 13.1161 14.55 13.0125C14.55 12.9089 14.466 12.825 14.3625 12.825C14.2589 12.825 14.175 12.9089 14.175 13.0125C14.175 13.1161 14.2589 13.2 14.3625 13.2Z" fill="#428BC1"/>
<path d="M14.55 12.525C14.6535 12.525 14.7375 12.4411 14.7375 12.3375C14.7375 12.2339 14.6535 12.15 14.55 12.15C14.4464 12.15 14.3625 12.2339 14.3625 12.3375C14.3625 12.4411 14.4464 12.525 14.55 12.525Z" fill="#428BC1"/>
<path d="M14.55 11.85C14.4375 11.85 14.3625 11.775 14.325 11.7C14.325 11.5875 14.4 11.5125 14.475 11.475C14.5875 11.475 14.6625 11.55 14.7 11.625C14.7375 11.7375 14.6625 11.8125 14.55 11.85Z" fill="#428BC1"/>
<path d="M14.3625 11.175C14.466 11.175 14.55 11.0911 14.55 10.9875C14.55 10.8839 14.466 10.8 14.3625 10.8C14.2589 10.8 14.175 10.8839 14.175 10.9875C14.175 11.0911 14.2589 11.175 14.3625 11.175Z" fill="#428BC1"/>
<path d="M14.025 10.575C14.1285 10.575 14.2125 10.4911 14.2125 10.3875C14.2125 10.2839 14.1285 10.2 14.025 10.2C13.9214 10.2 13.8375 10.2839 13.8375 10.3875C13.8375 10.4911 13.9214 10.575 14.025 10.575Z" fill="#428BC1"/>
<path d="M13.5375 10.0875C13.6411 10.0875 13.725 10.0036 13.725 9.9C13.725 9.79645 13.6411 9.7125 13.5375 9.7125C13.434 9.7125 13.35 9.79645 13.35 9.9C13.35 10.0036 13.434 10.0875 13.5375 10.0875Z" fill="#428BC1"/>
<path d="M13.125 9.6375C13.0875 9.75 12.975 9.7875 12.8625 9.75C12.75 9.7125 12.7125 9.6 12.75 9.4875C12.7875 9.375 12.9 9.3375 13.0125 9.375C13.125 9.45 13.1625 9.5625 13.125 9.6375ZM12.45 9.4125C12.45 9.525 12.3375 9.6 12.225 9.5625C12.1125 9.5625 12.0375 9.45 12.075 9.3375C12.075 9.225 12.1875 9.15 12.3 9.1875C12.4125 9.225 12.4875 9.3375 12.45 9.4125ZM11.775 9.375C11.775 9.4875 11.7 9.5625 11.625 9.6C11.5125 9.6 11.4375 9.525 11.4 9.45C11.4 9.3375 11.475 9.2625 11.55 9.225C11.6625 9.1875 11.775 9.2625 11.775 9.375Z" fill="#428BC1"/>
<path d="M11.925 12.5625C12.2356 12.5625 12.4875 12.3107 12.4875 12C12.4875 11.6893 12.2356 11.4375 11.925 11.4375C11.6143 11.4375 11.3625 11.6893 11.3625 12C11.3625 12.3107 11.6143 12.5625 11.925 12.5625Z" fill="#428BC1"/>
<path d="M11.925 9.375L11.85 10.9875L11.925 12L12.0375 10.9875L11.925 9.375ZM11.25 9.45L11.5875 11.0625L11.925 12L11.775 10.9875L11.25 9.45Z" fill="#428BC1"/>
<path d="M10.6125 9.7125L11.3625 11.175L11.925 12L11.5125 11.0625L10.6125 9.7125ZM10.0875 10.125L11.175 11.3625L11.925 12L11.2875 11.2125L10.0875 10.125Z" fill="#428BC1"/>
<path d="M9.67499 10.6875L11.025 11.5875L11.925 12L11.1 11.4L9.67499 10.6875Z" fill="#428BC1"/>
<path d="M9.41249 11.325L10.95 11.8125L11.925 12L10.9875 11.6625L9.41249 11.325ZM9.29999 12L10.95 12.075L11.925 12L10.95 11.925L9.29999 12Z" fill="#428BC1"/>
<path d="M9.41251 12.675L10.9875 12.3375L11.925 12L10.95 12.1875L9.41251 12.675ZM9.67501 13.3125L11.1 12.6L11.925 12L11.025 12.4125L9.67501 13.3125Z" fill="#428BC1"/>
<path d="M10.0875 13.8375L11.2875 12.7875L11.925 12L11.175 12.6375L10.0875 13.8375ZM10.6125 14.2875L11.5125 12.9L11.925 12L11.3625 12.825L10.6125 14.2875Z" fill="#428BC1"/>
<path d="M11.25 14.55L11.775 13.0125L11.925 12L11.5875 12.9375L11.25 14.55ZM11.925 14.625L12.0375 13.0125L11.925 12L11.85 13.0125L11.925 14.625ZM12.6 14.55L12.3 12.9375L11.925 12L12.1125 13.0125L12.6 14.55Z" fill="#428BC1"/>
<path d="M13.2375 14.2875L12.525 12.825L11.925 12L12.375 12.9375L13.2375 14.2875ZM13.8 13.8375L12.7125 12.6375L11.925 12L12.6 12.7875L13.8 13.8375Z" fill="#428BC1"/>
<path d="M14.2125 13.3125L12.8625 12.4125L11.925 12L12.75 12.6L14.2125 13.3125ZM14.475 12.675L12.9375 12.1875L11.925 12L12.9 12.3375L14.475 12.675ZM14.55 12L12.9375 11.8875L11.925 12L12.9375 12.075L14.55 12ZM14.475 11.325L12.9 11.6625L11.925 12L12.9375 11.8125L14.475 11.325Z" fill="#428BC1"/>
<path d="M14.2125 10.6875L12.75 11.4L11.925 12L12.8625 11.5875L14.2125 10.6875ZM13.8 10.1625L12.6 11.2125L11.925 12L12.7125 11.3625L13.8 10.1625Z" fill="#428BC1"/>
<path d="M13.2375 9.7125L12.375 11.1L11.925 12L12.525 11.175L13.2375 9.7125Z" fill="#428BC1"/>
<path d="M12.6375 9.45L12.1125 10.9875L11.925 12L12.3 11.0625L12.6375 9.45Z" fill="#428BC1"/>
</g>
<defs>
<clipPath id="clip0_52_42953">
<rect width="24" height="24" fill="white"/>
</clipPath>
</defs>
</svg>
