<svg width="40" height="40" viewBox="0 0 40 40" fill="none" xmlns="http://www.w3.org/2000/svg">
<g clip-path="url(#clip0_204_1687)">
<path d="M21.6027 18.5603C21.6027 16.6593 21.2283 14.7769 20.5008 13.0206C19.7733 11.2643 18.707 9.66846 17.3628 8.32424C16.0186 6.98003 14.4228 5.91375 12.6665 5.18626C10.9102 4.45878 9.02778 4.08435 7.12678 4.08435V7.0808C8.63429 7.0808 10.127 7.37772 11.5198 7.95462C12.9125 8.53152 14.178 9.37709 15.244 10.4431C16.3099 11.509 17.1555 12.7745 17.7324 14.1673C18.3093 15.56 18.6062 17.0528 18.6062 18.5603H21.6027Z" fill="#4C36F1"/>
<path d="M34.47 4.08433C32.569 4.08433 30.6867 4.45876 28.9304 5.18624C27.1741 5.91372 25.5782 6.98001 24.234 8.32422C22.8898 9.66843 21.8235 11.2642 21.0961 13.0205C20.3686 14.7768 19.9941 16.6592 19.9941 18.5602L22.9906 18.5602C22.9906 17.0527 23.2875 15.56 23.8644 14.1672C24.4413 12.7745 25.2869 11.509 26.3528 10.443C27.4188 9.37706 28.6843 8.53149 30.077 7.9546C31.4698 7.3777 32.9625 7.08077 34.47 7.08077L34.47 4.08433Z" fill="#4C36F1"/>
<path d="M19.994 21.7772C19.994 23.6782 20.3684 25.5605 21.0959 27.3168C21.8234 29.0731 22.8897 30.6689 24.2339 32.0132C25.5781 33.3574 27.1739 34.4237 28.9302 35.1511C30.6865 35.8786 32.5689 36.2531 34.4699 36.2531L34.4699 33.2566C32.9624 33.2566 31.4697 32.9597 30.0769 32.3828C28.6841 31.8059 27.4187 30.9603 26.3527 29.8944C25.2867 28.8284 24.4412 27.5629 23.8643 26.1701C23.2874 24.7774 22.9904 23.2847 22.9904 21.7772L19.994 21.7772Z" fill="#7F70F5"/>
<path d="M7.12664 36.253C9.02764 36.253 10.91 35.8785 12.6663 35.151C14.4226 34.4236 16.0184 33.3573 17.3626 32.0131C18.7069 30.6688 19.7731 29.073 20.5006 27.3167C21.2281 25.5604 21.6025 23.6781 21.6025 21.7771L18.6061 21.7771C18.6061 23.2846 18.3092 24.7773 17.7323 26.17C17.1554 27.5628 16.3098 28.8283 15.2438 29.8943C14.1779 30.9602 12.9124 31.8058 11.5196 32.3827C10.1269 32.9596 8.63414 33.2565 7.12664 33.2565L7.12664 36.253Z" fill="#7F70F5"/>
<path d="M16.7773 18.5603C16.7773 17.2929 16.5277 16.038 16.0427 14.8671C15.5577 13.6963 14.8468 12.6324 13.9507 11.7363C13.0545 10.8401 11.9907 10.1293 10.8198 9.64428C9.64894 9.15929 8.39401 8.90967 7.12668 8.90967V10.9073C8.13168 10.9073 9.12684 11.1052 10.0553 11.4898C10.9838 11.8744 11.8275 12.4382 12.5381 13.1488C13.2488 13.8594 13.8125 14.7031 14.1971 15.6316C14.5817 16.5601 14.7796 17.5553 14.7796 18.5603H16.7773Z" fill="#4C36F1"/>
<path d="M34.4699 8.90961C33.2026 8.90961 31.9477 9.15923 30.7768 9.64422C29.6059 10.1292 28.5421 10.8401 27.6459 11.7362C26.7498 12.6323 26.0389 13.6962 25.5539 14.8671C25.069 16.038 24.8193 17.2929 24.8193 18.5602L26.817 18.5602C26.817 17.5552 27.0149 16.56 27.3995 15.6315C27.7841 14.703 28.3478 13.8594 29.0585 13.1487C29.7691 12.4381 30.6128 11.8744 31.5413 11.4898C32.4698 11.1052 33.4649 10.9072 34.4699 10.9072L34.4699 8.90961Z" fill="#4C36F1"/>
<path d="M24.8194 21.7771C24.8194 23.0445 25.069 24.2994 25.554 25.4703C26.039 26.6411 26.7499 27.705 27.646 28.6011C28.5421 29.4973 29.606 30.2081 30.7769 30.6931C31.9477 31.1781 33.2027 31.4277 34.47 31.4277L34.47 29.4301C33.465 29.4301 32.4698 29.2322 31.5413 28.8476C30.6128 28.463 29.7692 27.8992 29.0585 27.1886C28.3479 26.478 27.7842 25.6343 27.3996 24.7058C27.015 23.7773 26.817 22.7821 26.817 21.7771L24.8194 21.7771Z" fill="#7F70F5"/>
<path d="M7.12674 31.4277C8.39408 31.4277 9.649 31.1781 10.8199 30.6931C11.9907 30.2081 13.0546 29.4972 13.9508 28.6011C14.8469 27.7049 15.5577 26.6411 16.0427 25.4702C16.5277 24.2993 16.7773 23.0444 16.7773 21.7771L14.7797 21.7771C14.7797 22.7821 14.5818 23.7772 14.1972 24.7057C13.8126 25.6342 13.2489 26.4779 12.5382 27.1885C11.8276 27.8992 10.9839 28.4629 10.0554 28.8475C9.12691 29.2321 8.13175 29.43 7.12674 29.43L7.12674 31.4277Z" fill="#7F70F5"/>
</g>
<defs>
<clipPath id="clip0_204_1687">
<rect width="38.6024" height="38.6024" fill="white" transform="translate(0.692871 0.867432)"/>
</clipPath>
</defs>
</svg>
