<svg width="229" height="55" viewBox="0 0 229 55" fill="none" xmlns="http://www.w3.org/2000/svg">
<path d="M54.433 34.8327C52.7927 34.8327 51.4197 34.5009 50.3139 33.8375C49.2173 33.174 48.3879 32.2986 47.8258 31.2112C47.2729 30.1146 46.9965 28.9121 46.9965 27.6035C46.9965 26.3411 47.2545 25.18 47.7705 24.1203C48.2958 23.0513 49.056 22.1989 50.0512 21.5631C51.0557 20.918 52.272 20.5955 53.7004 20.5955C54.9536 20.5955 56.0225 20.8489 56.9072 21.3558C57.7918 21.8626 58.4645 22.5629 58.9253 23.4568C59.3952 24.3414 59.6302 25.3551 59.6302 26.4977C59.6302 26.7557 59.6118 27.0276 59.5749 27.3132C59.5473 27.5897 59.5058 27.8754 59.4505 28.1702H50.1895C50.3185 29.1747 50.5995 29.9718 51.0326 30.5615C51.4657 31.1513 52.0048 31.5798 52.6499 31.847C53.2949 32.105 53.9906 32.2341 54.737 32.2341C55.4742 32.2341 56.1838 32.1465 56.8657 31.9714C57.5568 31.7871 58.1973 31.5383 58.787 31.225L59.022 33.7822C58.4968 34.0402 57.8471 34.2798 57.073 34.5009C56.299 34.7221 55.419 34.8327 54.433 34.8327ZM50.3277 26.0692H56.4787C56.4787 25.5716 56.3819 25.1063 56.1884 24.6732C56.0041 24.2308 55.7046 23.8761 55.2899 23.6088C54.8845 23.3324 54.35 23.1942 53.6865 23.1942C52.719 23.1942 51.9633 23.4568 51.4197 23.982C50.8852 24.5073 50.5212 25.203 50.3277 26.0692Z" fill="#11075F"/>
<path d="M61.6833 34.5562L66.3138 27.7003L61.7247 20.8305H65.3324L68.1798 25.3366L70.7923 20.8305H74.4552L69.9076 27.6312L74.5105 34.5562H70.889L68.0416 30.0639L65.3048 34.5562H61.6833Z" fill="#11075F"/>
<path d="M77.5474 41.2463V20.8305H80.0078L80.6021 23.4153L79.6899 23.0145C80.3073 22.2773 81.003 21.6921 81.7771 21.259C82.5603 20.8167 83.5141 20.5955 84.6383 20.5955C85.956 20.5955 87.0665 20.918 87.9695 21.5631C88.8818 22.2081 89.5729 23.0697 90.0429 24.1479C90.5129 25.2261 90.7478 26.4148 90.7478 27.7141C90.7478 29.0134 90.5175 30.2021 90.0567 31.2803C89.596 32.3585 88.9141 33.2201 88.011 33.8651C87.1079 34.5102 85.9837 34.8327 84.6383 34.8327C83.5602 34.8327 82.6479 34.6576 81.9015 34.3074C81.1643 33.9573 80.5054 33.4136 79.9248 32.6764L80.6298 32.0544V41.2463H77.5474ZM84.1407 32.2341C85.2281 32.2341 86.0758 31.824 86.684 31.0039C87.2922 30.1745 87.5963 29.0779 87.5963 27.7141C87.5963 26.3411 87.2922 25.2445 86.684 24.4244C86.0758 23.6042 85.2281 23.1942 84.1407 23.1942C83.3666 23.1942 82.7032 23.3785 82.1503 23.747C81.6066 24.1064 81.1919 24.6225 80.9062 25.2952C80.6206 25.9679 80.4777 26.7742 80.4777 27.7141C80.4777 28.6725 80.6206 29.488 80.9062 30.1607C81.1919 30.8334 81.6066 31.3494 82.1503 31.7088C82.7032 32.059 83.3666 32.2341 84.1407 32.2341Z" fill="#11075F"/>
<path d="M100.919 34.8327C99.2783 34.8327 97.9053 34.5009 96.7995 33.8375C95.7029 33.174 94.8736 32.2986 94.3114 31.2112C93.7585 30.1146 93.4821 28.9121 93.4821 27.6035C93.4821 26.3411 93.7401 25.18 94.2562 24.1203C94.7814 23.0513 95.5416 22.1989 96.5369 21.5631C97.5413 20.918 98.7577 20.5955 100.186 20.5955C101.439 20.5955 102.508 20.8489 103.393 21.3558C104.277 21.8626 104.95 22.5629 105.411 23.4568C105.881 24.3414 106.116 25.3551 106.116 26.4977C106.116 26.7557 106.097 27.0276 106.061 27.3132C106.033 27.5897 105.991 27.8754 105.936 28.1702H96.6751C96.8041 29.1747 97.0852 29.9718 97.5183 30.5615C97.9514 31.1513 98.4904 31.5798 99.1355 31.847C99.7805 32.105 100.476 32.2341 101.223 32.2341C101.96 32.2341 102.669 32.1465 103.351 31.9714C104.042 31.7871 104.683 31.5383 105.273 31.225L105.508 33.7822C104.982 34.0402 104.333 34.2798 103.559 34.5009C102.785 34.7221 101.905 34.8327 100.919 34.8327ZM96.8133 26.0692H102.964C102.964 25.5716 102.868 25.1063 102.674 24.6732C102.49 24.2308 102.19 23.8761 101.776 23.6088C101.37 23.3324 100.836 23.1942 100.172 23.1942C99.2046 23.1942 98.449 23.4568 97.9053 23.982C97.3708 24.5073 97.0068 25.203 96.8133 26.0692Z" fill="#11075F"/>
<path d="M109.618 34.5562V20.8305H112.368L112.631 23.4153L111.774 22.5998C112.437 21.9455 113.156 21.4479 113.93 21.107C114.714 20.766 115.566 20.5955 116.487 20.5955C118.33 20.5955 119.68 21.1761 120.537 22.3372C121.394 23.4982 121.823 25.0325 121.823 26.94V34.5562H118.741V27.1059C118.741 25.7605 118.506 24.7745 118.036 24.1479C117.566 23.5121 116.792 23.1942 115.713 23.1942C114.875 23.1942 114.161 23.3877 113.571 23.7747C112.981 24.1617 112.52 24.7192 112.189 25.4472L112.7 23.8162V34.5562H109.618Z" fill="#11075F"/>
<path d="M129.956 34.8327C128.942 34.8327 128.057 34.7267 127.302 34.5148C126.546 34.2936 125.878 34.0402 125.298 33.7545L125.602 31.0039C126.155 31.3632 126.786 31.6858 127.495 31.9714C128.205 32.2479 128.988 32.3861 129.845 32.3861C130.601 32.3861 131.177 32.2663 131.573 32.0267C131.969 31.7779 132.167 31.4001 132.167 30.8933C132.167 30.497 132.052 30.1745 131.822 29.9257C131.591 29.6677 131.278 29.4511 130.882 29.276C130.495 29.0917 130.057 28.9167 129.569 28.7508C128.804 28.4928 128.113 28.2025 127.495 27.88C126.878 27.5482 126.385 27.1243 126.016 26.6083C125.657 26.0923 125.477 25.4242 125.477 24.604C125.477 23.8484 125.671 23.1665 126.058 22.5583C126.445 21.9409 127.016 21.4525 127.772 21.0931C128.527 20.7337 129.467 20.5541 130.592 20.5541C131.476 20.5541 132.241 20.6508 132.886 20.8443C133.54 21.0378 134.13 21.2774 134.655 21.5631L134.351 24.2585C133.808 23.8622 133.241 23.5351 132.651 23.2771C132.061 23.0099 131.393 22.8762 130.647 22.8762C129.983 22.8762 129.458 23.0052 129.071 23.2633C128.693 23.5213 128.504 23.9037 128.504 24.4105C128.504 24.9819 128.744 25.4011 129.223 25.6684C129.702 25.9356 130.449 26.2535 131.462 26.6221C131.997 26.8156 132.494 27.0276 132.955 27.258C133.416 27.4883 133.821 27.7602 134.172 28.0735C134.522 28.3868 134.794 28.76 134.987 29.1931C135.181 29.6262 135.277 30.1423 135.277 30.7412C135.277 31.5153 135.093 32.211 134.724 32.8284C134.356 33.4458 133.78 33.9342 132.997 34.2936C132.213 34.653 131.2 34.8327 129.956 34.8327Z" fill="#11075F"/>
<path d="M145.379 34.8327C143.739 34.8327 142.366 34.5009 141.26 33.8375C140.164 33.174 139.334 32.2986 138.772 31.2112C138.219 30.1146 137.943 28.9121 137.943 27.6035C137.943 26.3411 138.201 25.18 138.717 24.1203C139.242 23.0513 140.003 22.1989 140.998 21.5631C142.002 20.918 143.219 20.5955 144.647 20.5955C145.9 20.5955 146.969 20.8489 147.854 21.3558C148.738 21.8626 149.411 22.5629 149.872 23.4568C150.342 24.3414 150.577 25.3551 150.577 26.4977C150.577 26.7557 150.558 27.0276 150.521 27.3132C150.494 27.5897 150.452 27.8754 150.397 28.1702H141.136C141.265 29.1747 141.546 29.9718 141.979 30.5615C142.412 31.1513 142.951 31.5798 143.596 31.847C144.241 32.105 144.937 32.2341 145.684 32.2341C146.421 32.2341 147.13 32.1465 147.812 31.9714C148.503 31.7871 149.144 31.5383 149.734 31.225L149.969 33.7822C149.443 34.0402 148.794 34.2798 148.02 34.5009C147.245 34.7221 146.365 34.8327 145.379 34.8327ZM141.274 26.0692H147.425C147.425 25.5716 147.328 25.1063 147.135 24.6732C146.951 24.2308 146.651 23.8761 146.236 23.6088C145.831 23.3324 145.297 23.1942 144.633 23.1942C143.665 23.1942 142.91 23.4568 142.366 23.982C141.832 24.5073 141.468 25.203 141.274 26.0692Z" fill="#11075F"/>
<path d="M161.073 34.8327C160.059 34.8327 159.147 34.6438 158.336 34.266C157.534 33.8789 156.857 33.3352 156.304 32.6349L157.175 32.0129L156.898 34.5562H154.051V13.8225H157.133V23.2633L156.415 22.7795C156.977 22.116 157.649 21.5861 158.433 21.1899C159.225 20.7936 160.105 20.5955 161.073 20.5955C162.4 20.5955 163.519 20.9227 164.432 21.5769C165.353 22.2312 166.053 23.102 166.533 24.1894C167.012 25.2675 167.251 26.4424 167.251 27.7141C167.251 29.0134 167.003 30.2021 166.505 31.2803C166.007 32.3585 165.298 33.2201 164.376 33.8651C163.455 34.5102 162.354 34.8327 161.073 34.8327ZM160.644 32.2341C161.372 32.2341 161.994 32.0405 162.51 31.6535C163.026 31.2573 163.418 30.7182 163.685 30.0363C163.962 29.3544 164.1 28.5803 164.1 27.7141C164.1 26.8295 163.962 26.0508 163.685 25.3781C163.418 24.6962 163.026 24.1617 162.51 23.7747C161.994 23.3877 161.372 23.1942 160.644 23.1942C159.879 23.1942 159.225 23.3785 158.681 23.747C158.138 24.1064 157.718 24.6225 157.424 25.2952C157.129 25.9679 156.981 26.7742 156.981 27.7141C156.981 28.6725 157.129 29.488 157.424 30.1607C157.718 30.8334 158.138 31.3494 158.681 31.7088C159.225 32.059 159.879 32.2341 160.644 32.2341Z" fill="#11075F"/>
<path d="M176.967 34.8327C175.492 34.8327 174.234 34.5102 173.193 33.8651C172.161 33.2201 171.369 32.3585 170.816 31.2803C170.272 30.2021 170 29.0134 170 27.7141C170 26.4148 170.272 25.2214 170.816 24.1341C171.369 23.0467 172.161 22.1805 173.193 21.5355C174.234 20.8812 175.492 20.5541 176.967 20.5541C178.432 20.5541 179.685 20.8812 180.726 21.5355C181.768 22.1805 182.56 23.0467 183.104 24.1341C183.657 25.2214 183.933 26.4148 183.933 27.7141C183.933 29.0134 183.657 30.2021 183.104 31.2803C182.56 32.3585 181.768 33.2201 180.726 33.8651C179.685 34.5102 178.432 34.8327 176.967 34.8327ZM176.967 32.2341C178.183 32.2341 179.118 31.824 179.773 31.0039C180.436 30.1745 180.768 29.0779 180.768 27.7141C180.768 26.3319 180.436 25.2261 179.773 24.3967C179.118 23.5674 178.183 23.1527 176.967 23.1527C175.75 23.1527 174.81 23.5674 174.147 24.3967C173.483 25.2261 173.152 26.3319 173.152 27.7141C173.152 29.0779 173.483 30.1745 174.147 31.0039C174.81 31.824 175.75 32.2341 176.967 32.2341Z" fill="#11075F"/>
<path d="M193.623 34.8327C192.148 34.8327 190.89 34.5102 189.849 33.8651C188.817 33.2201 188.025 32.3585 187.472 31.2803C186.928 30.2021 186.656 29.0134 186.656 27.7141C186.656 26.4148 186.928 25.2214 187.472 24.1341C188.025 23.0467 188.817 22.1805 189.849 21.5355C190.89 20.8812 192.148 20.5541 193.623 20.5541C195.088 20.5541 196.341 20.8812 197.382 21.5355C198.424 22.1805 199.216 23.0467 199.76 24.1341C200.313 25.2214 200.589 26.4148 200.589 27.7141C200.589 29.0134 200.313 30.2021 199.76 31.2803C199.216 32.3585 198.424 33.2201 197.382 33.8651C196.341 34.5102 195.088 34.8327 193.623 34.8327ZM193.623 32.2341C194.839 32.2341 195.774 31.824 196.429 31.0039C197.092 30.1745 197.424 29.0779 197.424 27.7141C197.424 26.3319 197.092 25.2261 196.429 24.3967C195.774 23.5674 194.839 23.1527 193.623 23.1527C192.406 23.1527 191.466 23.5674 190.803 24.3967C190.139 25.2261 189.808 26.3319 189.808 27.7141C189.808 29.0779 190.139 30.1745 190.803 31.0039C191.466 31.824 192.406 32.2341 193.623 32.2341Z" fill="#11075F"/>
<path d="M204.1 34.5562V13.8225H207.183V26.6636L211.73 20.8305H215.296L210.127 27.3547L215.421 34.5562H211.841L207.183 28.1426V34.5562H204.1Z" fill="#11075F"/>
<g clip-path="url(#clip0_65_9872)">
<path d="M33.1739 26.2627C33.1739 24.6291 32.8521 23.0114 32.227 21.5021C31.6018 19.9928 30.6854 18.6214 29.5303 17.4662C28.3751 16.311 27.0037 15.3946 25.4944 14.7695C23.985 14.1443 22.3674 13.8225 20.7337 13.8225L20.7337 16.3976C22.0292 16.3976 23.312 16.6528 24.5089 17.1485C25.7058 17.6443 26.7933 18.371 27.7094 19.287C28.6255 20.2031 29.3521 21.2906 29.8479 22.4875C30.3437 23.6844 30.5988 24.9672 30.5988 26.2627H33.1739Z" fill="#4C36F1"/>
<path d="M44.232 13.8225C42.5983 13.8225 40.9806 14.1443 39.4713 14.7695C37.962 15.3946 36.5906 16.311 35.4354 17.4662C34.2802 18.6214 33.3639 19.9928 32.7387 21.5021C32.1135 23.0114 31.7917 24.6291 31.7917 26.2627L34.3668 26.2627C34.3668 24.9672 34.622 23.6844 35.1178 22.4875C35.6135 21.2906 36.3402 20.2031 37.2563 19.287C38.1723 18.371 39.2598 17.6443 40.4567 17.1485C41.6536 16.6528 42.9365 16.3976 44.232 16.3976L44.232 13.8225Z" fill="#4C36F1"/>
<path d="M31.7917 29.0273C31.7917 30.6609 32.1134 32.2786 32.7386 33.7879C33.3638 35.2973 34.2801 36.6687 35.4353 37.8238C36.5905 38.979 37.9619 39.8954 39.4712 40.5205C40.9805 41.1457 42.5982 41.4675 44.2319 41.4675L44.2319 38.8924C42.9364 38.8924 41.6536 38.6373 40.4567 38.1415C39.2598 37.6457 38.1722 36.9191 37.2562 36.003C36.3401 35.0869 35.6134 33.9994 35.1177 32.8025C34.6219 31.6056 34.3667 30.3228 34.3667 29.0273L31.7917 29.0273Z" fill="#7F70F5"/>
<path d="M20.7337 41.4674C22.3674 41.4674 23.9851 41.1457 25.4944 40.5205C27.0037 39.8953 28.3751 38.979 29.5303 37.8238C30.6855 36.6686 31.6018 35.2972 32.227 33.7879C32.8522 32.2786 33.174 30.6609 33.174 29.0272L30.5989 29.0272C30.5989 30.3227 30.3437 31.6055 29.8479 32.8024C29.3522 33.9993 28.6255 35.0869 27.7094 36.0029C26.7934 36.919 25.7059 37.6457 24.509 38.1414C23.3121 38.6372 22.0292 38.8924 20.7337 38.8924L20.7337 41.4674Z" fill="#7F70F5"/>
<path d="M29.0273 26.2628C29.0273 25.1737 28.8128 24.0952 28.396 23.089C27.9792 22.0828 27.3683 21.1685 26.5982 20.3984C25.8281 19.6283 24.9138 19.0174 23.9076 18.6006C22.9014 18.1838 21.8229 17.9693 20.7338 17.9693V19.686C21.5975 19.686 22.4527 19.8561 23.2506 20.1866C24.0485 20.5172 24.7736 21.0016 25.3843 21.6123C25.995 22.223 26.4794 22.948 26.8099 23.746C27.1405 24.5439 27.3106 25.3991 27.3106 26.2628H29.0273Z" fill="#4C36F1"/>
<path d="M44.2321 17.9693C43.143 17.9693 42.0645 18.1838 41.0583 18.6006C40.0521 19.0174 39.1378 19.6283 38.3677 20.3984C37.5976 21.1685 36.9867 22.0828 36.5699 23.089C36.1531 24.0952 35.9386 25.1736 35.9386 26.2628L37.6553 26.2628C37.6553 25.3991 37.8254 24.5439 38.1559 23.7459C38.4865 22.948 38.9709 22.223 39.5816 21.6123C40.1923 21.0016 40.9173 20.5171 41.7153 20.1866C42.5132 19.8561 43.3684 19.686 44.2321 19.686L44.2321 17.9693Z" fill="#4C36F1"/>
<path d="M35.9384 29.0273C35.9384 30.1164 36.1529 31.1948 36.5697 32.201C36.9865 33.2072 37.5974 34.1215 38.3675 34.8916C39.1376 35.6618 40.0519 36.2727 41.0581 36.6894C42.0643 37.1062 43.1428 37.3207 44.2319 37.3207L44.2319 35.604C43.3682 35.604 42.513 35.4339 41.7151 35.1034C40.9172 34.7729 40.1921 34.2884 39.5814 33.6777C38.9707 33.067 38.4863 32.342 38.1558 31.5441C37.8252 30.7461 37.6551 29.8909 37.6551 29.0273L35.9384 29.0273Z" fill="#7F70F5"/>
<path d="M20.7337 37.3207C21.8229 37.3207 22.9013 37.1062 23.9075 36.6894C24.9137 36.2726 25.828 35.6618 26.5981 34.8916C27.3682 34.1215 27.9791 33.2072 28.3959 32.201C28.8127 31.1948 29.0272 30.1164 29.0272 29.0273L27.3105 29.0273C27.3105 29.8909 27.1404 30.7461 26.8099 31.5441C26.4794 32.342 25.9949 33.067 25.3842 33.6777C24.7735 34.2884 24.0485 34.7729 23.2506 35.1034C22.4526 35.4339 21.5974 35.604 20.7337 35.604L20.7337 37.3207Z" fill="#7F70F5"/>
</g>
<defs>
<clipPath id="clip0_65_9872">
<rect width="33.174" height="33.174" fill="white" transform="translate(15.2047 11.058)"/>
</clipPath>
</defs>
</svg>
