<svg width="267" height="64" viewBox="0 0 267 64" fill="none" xmlns="http://www.w3.org/2000/svg">
<path d="M63.3401 40.5325C61.4315 40.5325 59.8338 40.1465 58.547 39.3745C57.271 38.6024 56.3059 37.5837 55.6518 36.3184C55.0085 35.0424 54.6868 33.6431 54.6868 32.1204C54.6868 30.6514 54.987 29.3003 55.5875 28.0672C56.1987 26.8233 57.0833 25.8315 58.2414 25.0916C59.4102 24.341 60.8256 23.9657 62.4877 23.9657C63.946 23.9657 65.1898 24.2606 66.2192 24.8503C67.2486 25.4401 68.0314 26.255 68.5676 27.2951C69.1144 28.3245 69.3879 29.5041 69.3879 30.8337C69.3879 31.1339 69.3664 31.4503 69.3235 31.7827C69.2913 32.1044 69.2431 32.4368 69.1788 32.7799H58.4022C58.5524 33.9487 58.8794 34.8762 59.3834 35.5625C59.8874 36.2488 60.5147 36.7474 61.2653 37.0583C62.0159 37.3586 62.8254 37.5087 63.694 37.5087C64.5518 37.5087 65.3775 37.4068 66.171 37.2031C66.9752 36.9886 67.7204 36.6991 68.4067 36.3345L68.6801 39.3101C68.0689 39.6104 67.313 39.8892 66.4123 40.1465C65.5115 40.4039 64.4875 40.5325 63.3401 40.5325ZM58.5631 30.3351H65.7206C65.7206 29.756 65.608 29.2145 65.3829 28.7106C65.1684 28.1959 64.8199 27.783 64.3374 27.4721C63.8656 27.1504 63.2436 26.9895 62.4716 26.9895C61.3457 26.9895 60.4664 27.2951 59.8338 27.9063C59.2118 28.5175 58.7883 29.3271 58.5631 30.3351Z" fill="#11075F"/>
<path d="M71.7769 40.2109L77.1651 32.233L71.8251 24.2391H76.0231L79.3365 29.4826L82.3765 24.2391H86.6388L81.3471 32.1526L86.7031 40.2109H82.489L79.1757 34.9834L75.991 40.2109H71.7769Z" fill="#11075F"/>
<path d="M90.2369 47.9957V24.2391H93.0999L93.7916 27.2469L92.73 26.7804C93.4484 25.9226 94.258 25.2417 95.1587 24.7377C96.0702 24.223 97.18 23.9657 98.4882 23.9657C100.022 23.9657 101.314 24.341 102.365 25.0916C103.426 25.8422 104.23 26.8448 104.777 28.0994C105.324 29.3539 105.597 30.7372 105.597 32.2491C105.597 33.761 105.329 35.1443 104.793 36.3989C104.257 37.6534 103.464 38.656 102.413 39.4066C101.362 40.1572 100.054 40.5325 98.4882 40.5325C97.2336 40.5325 96.172 40.3288 95.3035 39.9213C94.4457 39.5139 93.679 38.8812 93.0034 38.0234L93.8237 37.2996V47.9957H90.2369ZM97.9092 37.5087C99.1745 37.5087 100.161 37.0315 100.869 36.0772C101.576 35.1121 101.93 33.8361 101.93 32.2491C101.93 30.6514 101.576 29.3754 100.869 28.421C100.161 27.4667 99.1745 26.9895 97.9092 26.9895C97.0084 26.9895 96.2364 27.204 95.593 27.6329C94.9604 28.0511 94.4778 28.6516 94.1454 29.4344C93.813 30.2171 93.6468 31.1554 93.6468 32.2491C93.6468 33.3643 93.813 34.3133 94.1454 35.096C94.4778 35.8788 94.9604 36.4793 95.593 36.8975C96.2364 37.305 97.0084 37.5087 97.9092 37.5087Z" fill="#11075F"/>
<path d="M117.433 40.5325C115.524 40.5325 113.926 40.1465 112.639 39.3745C111.363 38.6024 110.398 37.5837 109.744 36.3184C109.101 35.0424 108.779 33.6431 108.779 32.1204C108.779 30.6514 109.079 29.3003 109.68 28.0672C110.291 26.8233 111.176 25.8315 112.334 25.0916C113.503 24.341 114.918 23.9657 116.58 23.9657C118.038 23.9657 119.282 24.2606 120.312 24.8503C121.341 25.4401 122.124 26.255 122.66 27.2951C123.207 28.3245 123.48 29.5041 123.48 30.8337C123.48 31.1339 123.459 31.4503 123.416 31.7827C123.384 32.1044 123.335 32.4368 123.271 32.7799H112.495C112.645 33.9487 112.972 34.8762 113.476 35.5625C113.98 36.2488 114.607 36.7474 115.358 37.0583C116.108 37.3586 116.918 37.5087 117.786 37.5087C118.644 37.5087 119.47 37.4068 120.263 37.2031C121.068 36.9886 121.813 36.6991 122.499 36.3345L122.773 39.3101C122.161 39.6104 121.405 39.8892 120.505 40.1465C119.604 40.4039 118.58 40.5325 117.433 40.5325ZM112.655 30.3351H119.813C119.813 29.756 119.7 29.2145 119.475 28.7106C119.261 28.1959 118.912 27.783 118.43 27.4721C117.958 27.1504 117.336 26.9895 116.564 26.9895C115.438 26.9895 114.559 27.2951 113.926 27.9063C113.304 28.5175 112.881 29.3271 112.655 30.3351Z" fill="#11075F"/>
<path d="M127.555 40.2109V24.2391H130.756L131.061 27.2469L130.064 26.2979C130.836 25.5366 131.673 24.9575 132.573 24.5608C133.485 24.1641 134.477 23.9657 135.549 23.9657C137.694 23.9657 139.264 24.6412 140.262 25.9923C141.259 27.3434 141.758 29.1288 141.758 31.3484V40.2109H138.171V31.5414C138.171 29.9759 137.897 28.8285 137.35 28.0994C136.804 27.3595 135.903 26.9895 134.648 26.9895C133.673 26.9895 132.841 27.2147 132.155 27.6651C131.469 28.1154 130.933 28.7642 130.547 29.6113L131.142 27.7133V40.2109H127.555Z" fill="#11075F"/>
<path d="M151.221 40.5325C150.042 40.5325 149.012 40.4092 148.133 40.1626C147.254 39.9053 146.476 39.6104 145.801 39.278L146.155 36.0772C146.798 36.4954 147.533 36.8707 148.358 37.2031C149.184 37.5248 150.095 37.6856 151.093 37.6856C151.972 37.6856 152.642 37.5462 153.103 37.2674C153.564 36.9779 153.795 36.5383 153.795 35.9485C153.795 35.4874 153.661 35.1121 153.393 34.8226C153.125 34.5224 152.76 34.2704 152.299 34.0666C151.848 33.8522 151.339 33.6484 150.771 33.4554C149.881 33.1552 149.077 32.8174 148.358 32.4421C147.64 32.0561 147.066 31.5628 146.637 30.9624C146.219 30.3619 146.01 29.5845 146.01 28.6301C146.01 27.7509 146.235 26.9574 146.685 26.2497C147.136 25.5312 147.801 24.9629 148.68 24.5447C149.559 24.1265 150.653 23.9174 151.961 23.9174C152.99 23.9174 153.88 24.03 154.631 24.2552C155.392 24.4804 156.079 24.7592 156.69 25.0916L156.336 28.228C155.703 27.7669 155.044 27.3863 154.358 27.086C153.671 26.7751 152.894 26.6196 152.025 26.6196C151.253 26.6196 150.642 26.7697 150.192 27.07C149.752 27.3702 149.532 27.8152 149.532 28.405C149.532 29.0698 149.811 29.5577 150.369 29.8686C150.926 30.1796 151.795 30.5495 152.974 30.9784C153.596 31.2036 154.175 31.4503 154.711 31.7183C155.248 31.9864 155.719 32.3027 156.127 32.6673C156.534 33.0319 156.851 33.4662 157.076 33.9701C157.301 34.4741 157.414 35.0746 157.414 35.7716C157.414 36.6723 157.199 37.4819 156.77 38.2003C156.341 38.9187 155.671 39.4871 154.76 39.9053C153.848 40.3234 152.669 40.5325 151.221 40.5325Z" fill="#11075F"/>
<path d="M169.169 40.5325C167.26 40.5325 165.662 40.1465 164.376 39.3745C163.1 38.6024 162.135 37.5837 161.48 36.3184C160.837 35.0424 160.515 33.6431 160.515 32.1204C160.515 30.6514 160.816 29.3003 161.416 28.0672C162.027 26.8233 162.912 25.8315 164.07 25.0916C165.239 24.341 166.654 23.9657 168.316 23.9657C169.775 23.9657 171.019 24.2606 172.048 24.8503C173.077 25.4401 173.86 26.255 174.396 27.2951C174.943 28.3245 175.217 29.5041 175.217 30.8337C175.217 31.1339 175.195 31.4503 175.152 31.7827C175.12 32.1044 175.072 32.4368 175.007 32.7799H164.231C164.381 33.9487 164.708 34.8762 165.212 35.5625C165.716 36.2488 166.343 36.7474 167.094 37.0583C167.845 37.3586 168.654 37.5087 169.523 37.5087C170.38 37.5087 171.206 37.4068 172 37.2031C172.804 36.9886 173.549 36.6991 174.235 36.3345L174.509 39.3101C173.898 39.6104 173.142 39.8892 172.241 40.1465C171.34 40.4039 170.316 40.5325 169.169 40.5325ZM164.392 30.3351H171.549C171.549 29.756 171.437 29.2145 171.212 28.7106C170.997 28.1959 170.649 27.783 170.166 27.4721C169.694 27.1504 169.072 26.9895 168.3 26.9895C167.174 26.9895 166.295 27.2951 165.662 27.9063C165.04 28.5175 164.617 29.3271 164.392 30.3351Z" fill="#11075F"/>
<path d="M187.43 40.5325C186.251 40.5325 185.189 40.3127 184.245 39.8731C183.312 39.4227 182.524 38.7901 181.881 37.9751L182.894 37.2513L182.573 40.2109H179.259V16.0844H182.846V27.07L182.01 26.507C182.664 25.735 183.446 25.1184 184.358 24.6573C185.28 24.1962 186.304 23.9657 187.43 23.9657C188.974 23.9657 190.277 24.3463 191.339 25.1077C192.411 25.869 193.226 26.8823 193.783 28.1476C194.341 29.4022 194.62 30.7694 194.62 32.2491C194.62 33.761 194.33 35.1443 193.751 36.3989C193.172 37.6534 192.346 38.656 191.274 39.4066C190.202 40.1572 188.921 40.5325 187.43 40.5325ZM186.931 37.5087C187.779 37.5087 188.502 37.2835 189.103 36.8331C189.703 36.3721 190.159 35.7448 190.47 34.9513C190.792 34.1578 190.953 33.2571 190.953 32.2491C190.953 31.2197 190.792 30.3136 190.47 29.5309C190.159 28.7374 189.703 28.1154 189.103 27.6651C188.502 27.2147 187.779 26.9895 186.931 26.9895C186.041 26.9895 185.28 27.204 184.647 27.6329C184.015 28.0511 183.527 28.6516 183.184 29.4344C182.841 30.2171 182.669 31.1554 182.669 32.2491C182.669 33.3643 182.841 34.3133 183.184 35.096C183.527 35.8788 184.015 36.4793 184.647 36.8975C185.28 37.305 186.041 37.5087 186.931 37.5087Z" fill="#11075F"/>
<path d="M205.925 40.5325C204.209 40.5325 202.745 40.1572 201.534 39.4066C200.333 38.656 199.411 37.6534 198.767 36.3989C198.135 35.1443 197.818 33.761 197.818 32.2491C197.818 30.7372 198.135 29.3486 198.767 28.0833C199.411 26.818 200.333 25.81 201.534 25.0594C202.745 24.2981 204.209 23.9174 205.925 23.9174C207.63 23.9174 209.088 24.2981 210.3 25.0594C211.511 25.81 212.434 26.818 213.066 28.0833C213.71 29.3486 214.031 30.7372 214.031 32.2491C214.031 33.761 213.71 35.1443 213.066 36.3989C212.434 37.6534 211.511 38.656 210.3 39.4066C209.088 40.1572 207.63 40.5325 205.925 40.5325ZM205.925 37.5087C207.34 37.5087 208.429 37.0315 209.19 36.0772C209.962 35.1121 210.348 33.8361 210.348 32.2491C210.348 30.6407 209.962 29.3539 209.19 28.3889C208.429 27.4238 207.34 26.9413 205.925 26.9413C204.509 26.9413 203.416 27.4238 202.644 28.3889C201.872 29.3539 201.486 30.6407 201.486 32.2491C201.486 33.8361 201.872 35.1121 202.644 36.0772C203.416 37.0315 204.509 37.5087 205.925 37.5087Z" fill="#11075F"/>
<path d="M225.306 40.5325C223.591 40.5325 222.127 40.1572 220.915 39.4066C219.714 38.656 218.792 37.6534 218.149 36.3989C217.516 35.1443 217.2 33.761 217.2 32.2491C217.2 30.7372 217.516 29.3486 218.149 28.0833C218.792 26.818 219.714 25.81 220.915 25.0594C222.127 24.2981 223.591 23.9174 225.306 23.9174C227.011 23.9174 228.47 24.2981 229.681 25.0594C230.893 25.81 231.815 26.818 232.448 28.0833C233.091 29.3486 233.413 30.7372 233.413 32.2491C233.413 33.761 233.091 35.1443 232.448 36.3989C231.815 37.6534 230.893 38.656 229.681 39.4066C228.47 40.1572 227.011 40.5325 225.306 40.5325ZM225.306 37.5087C226.722 37.5087 227.81 37.0315 228.572 36.0772C229.344 35.1121 229.73 33.8361 229.73 32.2491C229.73 30.6407 229.344 29.3539 228.572 28.3889C227.81 27.4238 226.722 26.9413 225.306 26.9413C223.891 26.9413 222.797 27.4238 222.025 28.3889C221.253 29.3539 220.867 30.6407 220.867 32.2491C220.867 33.8361 221.253 35.1121 222.025 36.0772C222.797 37.0315 223.891 37.5087 225.306 37.5087Z" fill="#11075F"/>
<path d="M237.498 40.2109V16.0844H241.085V31.0267L246.377 24.2391H250.527L244.511 31.8309L250.671 40.2109H246.506L241.085 32.7477V40.2109H237.498Z" fill="#11075F"/>
<g clip-path="url(#clip0_65_9780)">
<path d="M38.6024 30.5603C38.6024 28.6593 38.228 26.7769 37.5005 25.0206C36.773 23.2643 35.7068 21.6685 34.3625 20.3242C33.0183 18.98 31.4225 17.9137 29.6662 17.1863C27.9099 16.4588 26.0275 16.0844 24.1265 16.0844V19.0808C25.634 19.0808 27.1268 19.3777 28.5195 19.9546C29.9123 20.5315 31.1778 21.3771 32.2437 22.4431C33.3097 23.509 34.1553 24.7745 34.7322 26.1673C35.3091 27.56 35.606 29.0528 35.606 30.5603H38.6024Z" fill="#4C36F1"/>
<path d="M51.4698 16.0843C49.5688 16.0843 47.6864 16.4588 45.9301 17.1862C44.1738 17.9137 42.578 18.98 41.2338 20.3242C39.8896 21.6684 38.8233 23.2642 38.0958 25.0205C37.3683 26.7768 36.9939 28.6592 36.9939 30.5602L39.9903 30.5602C39.9903 29.0527 40.2873 27.56 40.8642 26.1672C41.4411 24.7745 42.2866 23.509 43.3526 22.443C44.4186 21.3771 45.684 20.5315 47.0768 19.9546C48.4696 19.3777 49.9623 19.0808 51.4698 19.0808L51.4698 16.0843Z" fill="#4C36F1"/>
<path d="M36.994 33.7772C36.994 35.6782 37.3684 37.5605 38.0959 39.3168C38.8234 41.0731 39.8897 42.6689 41.2339 44.0132C42.5781 45.3574 44.1739 46.4237 45.9302 47.1511C47.6865 47.8786 49.5689 48.2531 51.4699 48.2531L51.4699 45.2566C49.9624 45.2566 48.4697 44.9597 47.0769 44.3828C45.6841 43.8059 44.4187 42.9603 43.3527 41.8944C42.2867 40.8284 41.4412 39.5629 40.8643 38.1701C40.2874 36.7774 39.9904 35.2847 39.9904 33.7772L36.994 33.7772Z" fill="#7F70F5"/>
<path d="M24.1264 48.253C26.0274 48.253 27.9098 47.8785 29.6661 47.151C31.4224 46.4236 33.0182 45.3573 34.3624 44.0131C35.7066 42.6688 36.7729 41.073 37.5004 39.3167C38.2279 37.5604 38.6023 35.6781 38.6023 33.7771L35.6058 33.7771C35.6058 35.2846 35.3089 36.7773 34.732 38.17C34.1551 39.5628 33.3096 40.8283 32.2436 41.8943C31.1776 42.9602 29.9121 43.8058 28.5194 44.3827C27.1266 44.9596 25.6339 45.2565 24.1264 45.2565L24.1264 48.253Z" fill="#7F70F5"/>
<path d="M33.777 30.5603C33.777 29.2929 33.5274 28.038 33.0424 26.8671C32.5574 25.6963 31.8466 24.6324 30.9504 23.7363C30.0543 22.8401 28.9904 22.1293 27.8196 21.6443C26.6487 21.1593 25.3938 20.9097 24.1264 20.9097V22.9073C25.1314 22.9073 26.1266 23.1052 27.0551 23.4898C27.9836 23.8744 28.8273 24.4382 29.5379 25.1488C30.2485 25.8594 30.8123 26.7031 31.1969 27.6316C31.5815 28.5601 31.7794 29.5553 31.7794 30.5603H33.777Z" fill="#4C36F1"/>
<path d="M51.4699 20.9096C50.2026 20.9096 48.9477 21.1592 47.7768 21.6442C46.6059 22.1292 45.5421 22.8401 44.6459 23.7362C43.7498 24.6323 43.0389 25.6962 42.5539 26.8671C42.069 28.038 41.8193 29.2929 41.8193 30.5602L43.817 30.5602C43.817 29.5552 44.0149 28.56 44.3995 27.6315C44.7841 26.703 45.3478 25.8594 46.0585 25.1487C46.7691 24.4381 47.6128 23.8744 48.5413 23.4898C49.4698 23.1052 50.4649 22.9072 51.4699 22.9072L51.4699 20.9096Z" fill="#4C36F1"/>
<path d="M41.8194 33.7771C41.8194 35.0445 42.069 36.2994 42.554 37.4703C43.039 38.6411 43.7499 39.705 44.646 40.6011C45.5421 41.4973 46.606 42.2081 47.7769 42.6931C48.9477 43.1781 50.2027 43.4277 51.47 43.4277L51.47 41.4301C50.465 41.4301 49.4698 41.2322 48.5413 40.8476C47.6128 40.463 46.7692 39.8992 46.0585 39.1886C45.3479 38.478 44.7842 37.6343 44.3996 36.7058C44.015 35.7773 43.817 34.7821 43.817 33.7771L41.8194 33.7771Z" fill="#7F70F5"/>
<path d="M24.1265 43.4277C25.3938 43.4277 26.6488 43.1781 27.8196 42.6931C28.9905 42.2081 30.0544 41.4972 30.9505 40.6011C31.8466 39.7049 32.5575 38.6411 33.0425 37.4702C33.5275 36.2993 33.7771 35.0444 33.7771 33.7771L31.7795 33.7771C31.7795 34.7821 31.5815 35.7772 31.1969 36.7057C30.8123 37.6342 30.2486 38.4779 29.538 39.1885C28.8273 39.8992 27.9837 40.4629 27.0552 40.8475C26.1267 41.2321 25.1315 41.43 24.1265 41.43L24.1265 43.4277Z" fill="#7F70F5"/>
</g>
<defs>
<clipPath id="clip0_65_9780">
<rect width="38.6024" height="38.6024" fill="white" transform="translate(17.6929 12.8674)"/>
</clipPath>
</defs>
</svg>
