<svg width="267" height="64" viewBox="0 0 267 64" fill="none" xmlns="http://www.w3.org/2000/svg">
<path d="M63.3399 40.5325C61.4312 40.5325 59.8335 40.1465 58.5468 39.3745C57.2707 38.6024 56.3057 37.5837 55.6516 36.3184C55.0082 35.0424 54.6865 33.6431 54.6865 32.1204C54.6865 30.6514 54.9868 29.3003 55.5872 28.0672C56.1985 26.8233 57.0831 25.8315 58.2412 25.0916C59.41 24.341 60.8254 23.9657 62.4874 23.9657C63.9457 23.9657 65.1896 24.2606 66.219 24.8503C67.2484 25.4401 68.0312 26.255 68.5673 27.2951C69.1142 28.3245 69.3876 29.5041 69.3876 30.8337C69.3876 31.1339 69.3662 31.4503 69.3233 31.7827C69.2911 32.1044 69.2428 32.4368 69.1785 32.7799H58.402C58.5521 33.9487 58.8792 34.8762 59.3832 35.5625C59.8871 36.2488 60.5144 36.7474 61.265 37.0583C62.0156 37.3586 62.8252 37.5087 63.6938 37.5087C64.5516 37.5087 65.3772 37.4068 66.1707 37.2031C66.975 36.9886 67.7202 36.6991 68.4065 36.3345L68.6799 39.3101C68.0687 39.6104 67.3127 39.8892 66.412 40.1465C65.5113 40.4039 64.4872 40.5325 63.3399 40.5325ZM58.5628 30.3351H65.7204C65.7204 29.756 65.6078 29.2145 65.3826 28.7106C65.1681 28.1959 64.8197 27.783 64.3371 27.4721C63.8653 27.1504 63.2434 26.9895 62.4713 26.9895C61.3454 26.9895 60.4662 27.2951 59.8335 27.9063C59.2116 28.5175 58.788 29.3271 58.5628 30.3351Z" fill="#11075F"/>
<path d="M71.7766 40.2109L77.1649 32.233L71.8249 24.2391H76.0229L79.3363 29.4826L82.3762 24.2391H86.6386L81.3468 32.1526L86.7029 40.2109H82.4888L79.1754 34.9834L75.9907 40.2109H71.7766Z" fill="#11075F"/>
<path d="M90.2367 47.9957V24.2391H93.0997L93.7913 27.2469L92.7298 26.7804C93.4482 25.9226 94.2578 25.2417 95.1585 24.7377C96.0699 24.223 97.1797 23.9657 98.4879 23.9657C100.021 23.9657 101.313 24.341 102.364 25.0916C103.426 25.8422 104.23 26.8448 104.777 28.0994C105.324 29.3539 105.597 30.7372 105.597 32.2491C105.597 33.761 105.329 35.1443 104.793 36.3989C104.257 37.6534 103.463 38.656 102.413 39.4066C101.362 40.1572 100.053 40.5325 98.4879 40.5325C97.2334 40.5325 96.1718 40.3288 95.3032 39.9213C94.4454 39.5139 93.6787 38.8812 93.0032 38.0234L93.8235 37.2996V47.9957H90.2367ZM97.9089 37.5087C99.1742 37.5087 100.161 37.0315 100.868 36.0772C101.576 35.1121 101.93 33.8361 101.93 32.2491C101.93 30.6514 101.576 29.3754 100.868 28.421C100.161 27.4667 99.1742 26.9895 97.9089 26.9895C97.0082 26.9895 96.2361 27.204 95.5928 27.6329C94.9601 28.0511 94.4776 28.6516 94.1452 29.4344C93.8128 30.2171 93.6466 31.1554 93.6466 32.2491C93.6466 33.3643 93.8128 34.3133 94.1452 35.096C94.4776 35.8788 94.9601 36.4793 95.5928 36.8975C96.2361 37.305 97.0082 37.5087 97.9089 37.5087Z" fill="#11075F"/>
<path d="M117.432 40.5325C115.524 40.5325 113.926 40.1465 112.639 39.3745C111.363 38.6024 110.398 37.5837 109.744 36.3184C109.101 35.0424 108.779 33.6431 108.779 32.1204C108.779 30.6514 109.079 29.3003 109.68 28.0672C110.291 26.8233 111.175 25.8315 112.334 25.0916C113.502 24.341 114.918 23.9657 116.58 23.9657C118.038 23.9657 119.282 24.2606 120.311 24.8503C121.341 25.4401 122.124 26.255 122.66 27.2951C123.207 28.3245 123.48 29.5041 123.48 30.8337C123.48 31.1339 123.459 31.4503 123.416 31.7827C123.383 32.1044 123.335 32.4368 123.271 32.7799H112.494C112.645 33.9487 112.972 34.8762 113.476 35.5625C113.98 36.2488 114.607 36.7474 115.357 37.0583C116.108 37.3586 116.918 37.5087 117.786 37.5087C118.644 37.5087 119.47 37.4068 120.263 37.2031C121.067 36.9886 121.813 36.6991 122.499 36.3345L122.772 39.3101C122.161 39.6104 121.405 39.8892 120.504 40.1465C119.604 40.4039 118.58 40.5325 117.432 40.5325ZM112.655 30.3351H119.813C119.813 29.756 119.7 29.2145 119.475 28.7106C119.261 28.1959 118.912 27.783 118.43 27.4721C117.958 27.1504 117.336 26.9895 116.564 26.9895C115.438 26.9895 114.559 27.2951 113.926 27.9063C113.304 28.5175 112.88 29.3271 112.655 30.3351Z" fill="#11075F"/>
<path d="M127.555 40.2109V24.2391H130.756L131.061 27.2469L130.064 26.2979C130.836 25.5366 131.672 24.9575 132.573 24.5608C133.485 24.1641 134.476 23.9657 135.549 23.9657C137.693 23.9657 139.264 24.6412 140.261 25.9923C141.259 27.3434 141.757 29.1288 141.757 31.3484V40.2109H138.171V31.5414C138.171 29.9759 137.897 28.8285 137.35 28.0994C136.803 27.3595 135.903 26.9895 134.648 26.9895C133.672 26.9895 132.841 27.2147 132.155 27.6651C131.469 28.1154 130.933 28.7642 130.547 29.6113L131.142 27.7133V40.2109H127.555Z" fill="#11075F"/>
<path d="M151.221 40.5325C150.041 40.5325 149.012 40.4092 148.133 40.1626C147.253 39.9053 146.476 39.6104 145.801 39.278L146.154 36.0772C146.798 36.4954 147.532 36.8707 148.358 37.2031C149.184 37.5248 150.095 37.6856 151.092 37.6856C151.972 37.6856 152.642 37.5462 153.103 37.2674C153.564 36.9779 153.794 36.5383 153.794 35.9485C153.794 35.4874 153.66 35.1121 153.392 34.8226C153.124 34.5224 152.76 34.2704 152.299 34.0666C151.848 33.8522 151.339 33.6484 150.771 33.4554C149.881 33.1552 149.076 32.8174 148.358 32.4421C147.639 32.0561 147.066 31.5628 146.637 30.9624C146.219 30.3619 146.01 29.5845 146.01 28.6301C146.01 27.7509 146.235 26.9574 146.685 26.2497C147.136 25.5312 147.8 24.9629 148.68 24.5447C149.559 24.1265 150.653 23.9174 151.961 23.9174C152.99 23.9174 153.88 24.03 154.631 24.2552C155.392 24.4804 156.078 24.7592 156.69 25.0916L156.336 28.228C155.703 27.7669 155.044 27.3863 154.357 27.086C153.671 26.7751 152.894 26.6196 152.025 26.6196C151.253 26.6196 150.642 26.7697 150.192 27.07C149.752 27.3702 149.532 27.8152 149.532 28.405C149.532 29.0698 149.811 29.5577 150.368 29.8686C150.926 30.1796 151.795 30.5495 152.974 30.9784C153.596 31.2036 154.175 31.4503 154.711 31.7183C155.247 31.9864 155.719 32.3027 156.127 32.6673C156.534 33.0319 156.85 33.4662 157.076 33.9701C157.301 34.4741 157.413 35.0746 157.413 35.7716C157.413 36.6723 157.199 37.4819 156.77 38.2003C156.341 38.9187 155.671 39.4871 154.759 39.9053C153.848 40.3234 152.669 40.5325 151.221 40.5325Z" fill="#11075F"/>
<path d="M169.169 40.5325C167.26 40.5325 165.662 40.1465 164.375 39.3745C163.099 38.6024 162.134 37.5837 161.48 36.3184C160.837 35.0424 160.515 33.6431 160.515 32.1204C160.515 30.6514 160.815 29.3003 161.416 28.0672C162.027 26.8233 162.912 25.8315 164.07 25.0916C165.239 24.341 166.654 23.9657 168.316 23.9657C169.774 23.9657 171.018 24.2606 172.048 24.8503C173.077 25.4401 173.86 26.255 174.396 27.2951C174.943 28.3245 175.216 29.5041 175.216 30.8337C175.216 31.1339 175.195 31.4503 175.152 31.7827C175.12 32.1044 175.072 32.4368 175.007 32.7799H164.231C164.381 33.9487 164.708 34.8762 165.212 35.5625C165.716 36.2488 166.343 36.7474 167.094 37.0583C167.844 37.3586 168.654 37.5087 169.522 37.5087C170.38 37.5087 171.206 37.4068 171.999 37.2031C172.804 36.9886 173.549 36.6991 174.235 36.3345L174.509 39.3101C173.897 39.6104 173.141 39.8892 172.241 40.1465C171.34 40.4039 170.316 40.5325 169.169 40.5325ZM164.392 30.3351H171.549C171.549 29.756 171.436 29.2145 171.211 28.7106C170.997 28.1959 170.648 27.783 170.166 27.4721C169.694 27.1504 169.072 26.9895 168.3 26.9895C167.174 26.9895 166.295 27.2951 165.662 27.9063C165.04 28.5175 164.617 29.3271 164.392 30.3351Z" fill="#11075F"/>
<path d="M187.43 40.5325C186.25 40.5325 185.189 40.3127 184.245 39.8731C183.312 39.4227 182.524 38.7901 181.881 37.9751L182.894 37.2513L182.572 40.2109H179.259V16.0844H182.846V27.07L182.009 26.507C182.663 25.735 183.446 25.1184 184.358 24.6573C185.28 24.1962 186.304 23.9657 187.43 23.9657C188.974 23.9657 190.277 24.3463 191.338 25.1077C192.411 25.869 193.226 26.8823 193.783 28.1476C194.341 29.4022 194.619 30.7694 194.619 32.2491C194.619 33.761 194.33 35.1443 193.751 36.3989C193.172 37.6534 192.346 38.656 191.274 39.4066C190.202 40.1572 188.92 40.5325 187.43 40.5325ZM186.931 37.5087C187.778 37.5087 188.502 37.2835 189.103 36.8331C189.703 36.3721 190.159 35.7448 190.47 34.9513C190.791 34.1578 190.952 33.2571 190.952 32.2491C190.952 31.2197 190.791 30.3136 190.47 29.5309C190.159 28.7374 189.703 28.1154 189.103 27.6651C188.502 27.2147 187.778 26.9895 186.931 26.9895C186.041 26.9895 185.28 27.204 184.647 27.6329C184.015 28.0511 183.527 28.6516 183.184 29.4344C182.84 30.2171 182.669 31.1554 182.669 32.2491C182.669 33.3643 182.84 34.3133 183.184 35.096C183.527 35.8788 184.015 36.4793 184.647 36.8975C185.28 37.305 186.041 37.5087 186.931 37.5087Z" fill="#11075F"/>
<path d="M205.925 40.5325C204.209 40.5325 202.745 40.1572 201.534 39.4066C200.333 38.656 199.41 37.6534 198.767 36.3989C198.134 35.1443 197.818 33.761 197.818 32.2491C197.818 30.7372 198.134 29.3486 198.767 28.0833C199.41 26.818 200.333 25.81 201.534 25.0594C202.745 24.2981 204.209 23.9174 205.925 23.9174C207.629 23.9174 209.088 24.2981 210.299 25.0594C211.511 25.81 212.433 26.818 213.066 28.0833C213.709 29.3486 214.031 30.7372 214.031 32.2491C214.031 33.761 213.709 35.1443 213.066 36.3989C212.433 37.6534 211.511 38.656 210.299 39.4066C209.088 40.1572 207.629 40.5325 205.925 40.5325ZM205.925 37.5087C207.34 37.5087 208.428 37.0315 209.19 36.0772C209.962 35.1121 210.348 33.8361 210.348 32.2491C210.348 30.6407 209.962 29.3539 209.19 28.3889C208.428 27.4238 207.34 26.9413 205.925 26.9413C204.509 26.9413 203.415 27.4238 202.643 28.3889C201.871 29.3539 201.485 30.6407 201.485 32.2491C201.485 33.8361 201.871 35.1121 202.643 36.0772C203.415 37.0315 204.509 37.5087 205.925 37.5087Z" fill="#11075F"/>
<path d="M225.306 40.5325C223.59 40.5325 222.127 40.1572 220.915 39.4066C219.714 38.656 218.792 37.6534 218.149 36.3989C217.516 35.1443 217.2 33.761 217.2 32.2491C217.2 30.7372 217.516 29.3486 218.149 28.0833C218.792 26.818 219.714 25.81 220.915 25.0594C222.127 24.2981 223.59 23.9174 225.306 23.9174C227.011 23.9174 228.469 24.2981 229.681 25.0594C230.893 25.81 231.815 26.818 232.448 28.0833C233.091 29.3486 233.413 30.7372 233.413 32.2491C233.413 33.761 233.091 35.1443 232.448 36.3989C231.815 37.6534 230.893 38.656 229.681 39.4066C228.469 40.1572 227.011 40.5325 225.306 40.5325ZM225.306 37.5087C226.722 37.5087 227.81 37.0315 228.571 36.0772C229.343 35.1121 229.729 33.8361 229.729 32.2491C229.729 30.6407 229.343 29.3539 228.571 28.3889C227.81 27.4238 226.722 26.9413 225.306 26.9413C223.891 26.9413 222.797 27.4238 222.025 28.3889C221.253 29.3539 220.867 30.6407 220.867 32.2491C220.867 33.8361 221.253 35.1121 222.025 36.0772C222.797 37.0315 223.891 37.5087 225.306 37.5087Z" fill="#11075F"/>
<path d="M237.498 40.2109V16.0844H241.085V31.0267L246.377 24.2391H250.526L244.511 31.8309L250.671 40.2109H246.505L241.085 32.7477V40.2109H237.498Z" fill="#11075F"/>
<g clip-path="url(#clip0_204_2752)">
<path d="M38.6022 30.5603C38.6022 28.6593 38.2278 26.7769 37.5003 25.0206C36.7728 23.2643 35.7065 21.6685 34.3623 20.3242C33.0181 18.98 31.4223 17.9137 29.666 17.1863C27.9097 16.4588 26.0273 16.0844 24.1263 16.0844V19.0808C25.6338 19.0808 27.1265 19.3777 28.5193 19.9546C29.912 20.5315 31.1775 21.3771 32.2435 22.4431C33.3095 23.509 34.155 24.7745 34.7319 26.1673C35.3088 27.56 35.6058 29.0528 35.6058 30.5603H38.6022Z" fill="#4C36F1"/>
<path d="M51.47 16.0843C49.569 16.0843 47.6867 16.4588 45.9304 17.1862C44.1741 17.9137 42.5782 18.98 41.234 20.3242C39.8898 21.6684 38.8235 23.2642 38.0961 25.0205C37.3686 26.7768 36.9941 28.6592 36.9941 30.5602L39.9906 30.5602C39.9906 29.0527 40.2875 27.56 40.8644 26.1672C41.4413 24.7745 42.2869 23.509 43.3528 22.443C44.4188 21.3771 45.6843 20.5315 47.077 19.9546C48.4698 19.3777 49.9625 19.0808 51.47 19.0808L51.47 16.0843Z" fill="#4C36F1"/>
<path d="M36.9935 33.7772C36.9935 35.6782 37.3679 37.5605 38.0954 39.3168C38.8229 41.0731 39.8892 42.6689 41.2334 44.0132C42.5776 45.3574 44.1734 46.4237 45.9297 47.1511C47.686 47.8786 49.5684 48.2531 51.4694 48.2531L51.4694 45.2566C49.9619 45.2566 48.4692 44.9597 47.0764 44.3828C45.6837 43.8059 44.4182 42.9603 43.3522 41.8944C42.2862 40.8284 41.4407 39.5629 40.8638 38.1701C40.2869 36.7774 39.99 35.2847 39.99 33.7772L36.9935 33.7772Z" fill="#7F70F5"/>
<path d="M24.1266 48.253C26.0276 48.253 27.91 47.8785 29.6663 47.151C31.4226 46.4236 33.0184 45.3573 34.3626 44.0131C35.7069 42.6688 36.7731 41.073 37.5006 39.3167C38.2281 37.5604 38.6025 35.6781 38.6025 33.7771L35.6061 33.7771C35.6061 35.2846 35.3092 36.7773 34.7323 38.17C34.1554 39.5628 33.3098 40.8283 32.2438 41.8943C31.1779 42.9602 29.9124 43.8058 28.5196 44.3827C27.1269 44.9596 25.6341 45.2565 24.1266 45.2565L24.1266 48.253Z" fill="#7F70F5"/>
<path d="M33.7768 30.5603C33.7768 29.2929 33.5272 28.038 33.0422 26.8671C32.5572 25.6963 31.8463 24.6324 30.9502 23.7363C30.0541 22.8401 28.9902 22.1293 27.8193 21.6443C26.6484 21.1593 25.3935 20.9097 24.1262 20.9097V22.9073C25.1312 22.9073 26.1264 23.1052 27.0549 23.4898C27.9834 23.8744 28.827 24.4382 29.5377 25.1488C30.2483 25.8594 30.812 26.7031 31.1966 27.6316C31.5812 28.5601 31.7792 29.5553 31.7792 30.5603H33.7768Z" fill="#4C36F1"/>
<path d="M51.4699 20.9096C50.2026 20.9096 48.9477 21.1592 47.7768 21.6442C46.6059 22.1292 45.5421 22.8401 44.6459 23.7362C43.7498 24.6323 43.0389 25.6962 42.5539 26.8671C42.069 28.038 41.8193 29.2929 41.8193 30.5602L43.817 30.5602C43.817 29.5552 44.0149 28.56 44.3995 27.6315C44.7841 26.703 45.3478 25.8594 46.0585 25.1487C46.7691 24.4381 47.6128 23.8744 48.5413 23.4898C49.4698 23.1052 50.4649 22.9072 51.4699 22.9072L51.4699 20.9096Z" fill="#4C36F1"/>
<path d="M41.8189 33.7771C41.8189 35.0445 42.0685 36.2994 42.5535 37.4703C43.0385 38.6411 43.7494 39.705 44.6455 40.6011C45.5416 41.4973 46.6055 42.2081 47.7764 42.6931C48.9473 43.1781 50.2022 43.4277 51.4695 43.4277L51.4695 41.4301C50.4645 41.4301 49.4694 41.2322 48.5408 40.8476C47.6123 40.463 46.7687 39.8992 46.058 39.1886C45.3474 38.478 44.7837 37.6343 44.3991 36.7058C44.0145 35.7773 43.8165 34.7821 43.8165 33.7771L41.8189 33.7771Z" fill="#7F70F5"/>
<path d="M24.1267 43.4277C25.3941 43.4277 26.649 43.1781 27.8199 42.6931C28.9907 42.2081 30.0546 41.4972 30.9508 40.6011C31.8469 39.7049 32.5577 38.6411 33.0427 37.4702C33.5277 36.2993 33.7773 35.0444 33.7773 33.7771L31.7797 33.7771C31.7797 34.7821 31.5818 35.7772 31.1972 36.7057C30.8126 37.6342 30.2489 38.4779 29.5382 39.1885C28.8276 39.8992 27.9839 40.4629 27.0554 40.8475C26.1269 41.2321 25.1317 41.43 24.1267 41.43L24.1267 43.4277Z" fill="#7F70F5"/>
</g>
<defs>
<clipPath id="clip0_204_2752">
<rect width="38.6024" height="38.6024" fill="white" transform="translate(17.6924 12.8674)"/>
</clipPath>
</defs>
</svg>
