<svg width="16" height="16" viewBox="0 0 16 16" fill="none" xmlns="http://www.w3.org/2000/svg">
<g id="airplay">
<path id="Vector" d="M2.19163 11.901H13.8082V12.6663H2.19163V11.901ZM12.8326 4.44336C12.2666 4.28755 11.6649 4.2986 11.1384 4.47445L11.1167 4.48162L9.54122 5.22157L4.94344 3.41528C4.74273 3.33559 4.5234 3.31321 4.31044 3.35068C4.09749 3.38815 3.89946 3.48397 3.73892 3.62722L3.12338 4.17245C3.05845 4.22997 3.00745 4.30122 2.97419 4.38088C2.94092 4.46055 2.92624 4.54659 2.93123 4.63263C2.93621 4.71867 2.96074 4.8025 3.003 4.87789C3.04525 4.95328 3.10414 5.0183 3.17529 5.06813L6.0254 7.06406L4.93216 7.62997L4.06636 6.84825C3.90082 6.69907 3.69521 6.60031 3.47424 6.56383C3.25327 6.52734 3.02634 6.55469 2.82072 6.64257L2.34989 6.8443C2.27629 6.87581 2.21011 6.92205 2.15549 6.98008C2.10087 7.03812 2.05901 7.10671 2.03254 7.18153C2.00607 7.25634 1.99557 7.33576 2.0017 7.41479C2.00782 7.49381 2.03044 7.57072 2.06813 7.64068L3.83049 10.913L13.4283 6.23812C14.003 5.97081 14.073 5.54349 13.9466 5.23226C13.8066 4.88721 13.4005 4.59967 12.8326 4.44336ZM13.0964 5.54665L13.0928 5.54832L4.16147 9.89854L2.85034 7.46395L3.12866 7.34468C3.1972 7.31538 3.27285 7.30627 3.34651 7.31843C3.42016 7.33059 3.4887 7.36352 3.54388 7.41325L4.81048 8.55686L7.50478 7.16216L3.82091 4.58231L4.25583 4.19708C4.30935 4.14933 4.37536 4.1174 4.44634 4.10491C4.51732 4.09242 4.59043 4.09988 4.65733 4.12643L9.56881 6.05595L11.4069 5.19273C11.7809 5.07293 12.2264 5.0692 12.633 5.18285C12.9678 5.27645 13.1456 5.41244 13.2059 5.48375C13.1718 5.50858 13.1351 5.5297 13.0965 5.54672L13.0964 5.54665Z" fill="#4C36F1"/>
</g>
</svg>
