<svg width="16" height="16" viewBox="0 0 16 16" fill="none" xmlns="http://www.w3.org/2000/svg">
<g id="check-circle" clip-path="url(#clip0_58_44334)">
<path id="Vector" d="M14.6667 7.38666V8C14.6659 9.43761 14.2004 10.8364 13.3396 11.9879C12.4788 13.1393 11.2689 13.9816 9.89028 14.3893C8.51166 14.7969 7.03821 14.7479 5.68969 14.2497C4.34116 13.7515 3.18981 12.8307 2.40735 11.6247C1.62488 10.4187 1.25323 8.99204 1.34783 7.55754C1.44242 6.12304 1.99818 4.75755 2.93223 3.66471C3.86628 2.57188 5.12856 1.81025 6.53083 1.49343C7.9331 1.1766 9.40022 1.32155 10.7134 1.90666" stroke="#4C36F1" stroke-linecap="round" stroke-linejoin="round"/>
<path id="Vector_2" d="M14.6667 2.66666L8 9.34L6 7.34" stroke="#4C36F1" stroke-linecap="round" stroke-linejoin="round"/>
</g>
<defs>
<clipPath id="clip0_58_44334">
<rect width="16" height="16" fill="white"/>
</clipPath>
</defs>
</svg>
