<svg width="128" height="128" viewBox="0 0 128 128" fill="none" xmlns="http://www.w3.org/2000/svg">
<path d="M114.512 112.775H117.966" stroke="#AAA0F8" stroke-linecap="round" stroke-linejoin="round"/>
<path d="M9.91211 112.775H112.46" stroke="#AAA0F8" stroke-linecap="round" stroke-linejoin="round"/>
<path opacity="0.3" d="M105.026 92.8076C102.786 92.8076 100.97 94.6234 100.97 96.8634C100.97 99.1033 105.026 103.188 105.026 103.188C105.026 103.188 109.081 99.1033 109.081 96.8634C109.081 94.6234 107.265 92.8076 105.026 92.8076ZM105.026 98.3009C104.232 98.3009 103.588 97.6573 103.588 96.8634C103.588 96.0695 104.232 95.4258 105.026 95.4258C105.819 95.4258 106.463 96.0695 106.463 96.8634C106.463 97.6573 105.819 98.3009 105.026 98.3009Z" stroke="#32333B" stroke-linecap="round" stroke-linejoin="round"/>
<path opacity="0.3" d="M109.909 17.9678C107.669 17.9678 105.854 19.7836 105.854 22.0235C105.854 24.2634 109.909 28.3482 109.909 28.3482C109.909 28.3482 113.965 24.2635 113.965 22.0235C113.965 19.7836 112.149 17.9678 109.909 17.9678ZM109.909 23.4611C109.115 23.4611 108.472 22.8175 108.472 22.0235C108.472 21.2296 109.115 20.586 109.909 20.586C110.703 20.586 111.347 21.2296 111.347 22.0235C111.347 22.8175 110.703 23.4611 109.909 23.4611Z" stroke="#32333B" stroke-linecap="round" stroke-linejoin="round"/>
<path d="M90.2392 17.6309H30.1154C28.8128 17.6309 27.7568 18.6868 27.7568 19.9894V101.105C27.7568 102.407 28.8128 103.463 30.1154 103.463H90.2392C91.5418 103.463 92.5977 102.407 92.5977 101.105V19.9894C92.5977 18.6868 91.5418 17.6309 90.2392 17.6309Z" fill="#AAA0F8"/>
<path d="M88.5257 23.0205H31.8281V98.0735H88.5257V23.0205Z" fill="white" stroke="#AAA0F8" stroke-linecap="round" stroke-linejoin="round"/>
<path d="M86.7051 69.5283H33.9023V71.9609H86.7051V69.5283Z" fill="#EAE7FD"/>
<path d="M33.9023 71.9609H86.4942" stroke="#AAA0F8" stroke-linecap="round" stroke-linejoin="round"/>
<path d="M34.0186 69.509H86.5912" stroke="#AAA0F8" stroke-linecap="round" stroke-linejoin="round"/>
<path d="M86.5912 65.592H34.0186" stroke="#AAA0F8" stroke-linecap="round" stroke-linejoin="round"/>
<path d="M86.5912 75.6042H34.0186" stroke="#AAA0F8" stroke-linecap="round" stroke-linejoin="round"/>
<path d="M86.5912 80.2969H34.0186" stroke="#AAA0F8" stroke-linecap="round" stroke-linejoin="round"/>
<path d="M86.7051 47.5527H33.9023V49.9853H86.7051V47.5527Z" fill="#EAE7FD"/>
<path d="M86.7051 34.0029H33.9023V36.4355H86.7051V34.0029Z" fill="#EAE7FD"/>
<path d="M86.6364 34.0029H33.9023V85.3778H86.6364V34.0029Z" stroke="#AAA0F8" stroke-linecap="round" stroke-linejoin="round"/>
<path d="M33.9023 36.4355H86.4942" stroke="#AAA0F8" stroke-linecap="round" stroke-linejoin="round"/>
<path d="M33.9023 49.9854H86.4942" stroke="#AAA0F8" stroke-linecap="round" stroke-linejoin="round"/>
<path d="M34.0186 40.5481H86.5912" stroke="#AAA0F8" stroke-linecap="round" stroke-linejoin="round"/>
<path d="M59.1875 40.4505V36.5361" stroke="#AAA0F8" stroke-linecap="round" stroke-linejoin="round"/>
<path d="M34.0186 44.3096H86.5912" stroke="#AAA0F8" stroke-linecap="round" stroke-linejoin="round"/>
<path d="M34.0186 47.5334H86.5912" stroke="#AAA0F8" stroke-linecap="round" stroke-linejoin="round"/>
<path d="M48.7021 44.2128V40.6184" stroke="#AAA0F8" stroke-linecap="round" stroke-linejoin="round"/>
<path d="M51.5039 44.2128V40.6184" stroke="#AAA0F8" stroke-linecap="round" stroke-linejoin="round"/>
<path d="M54.3047 44.2128V40.6184" stroke="#AAA0F8" stroke-linecap="round" stroke-linejoin="round"/>
<path d="M81.998 44.2128V40.6184" stroke="#AAA0F8" stroke-linecap="round" stroke-linejoin="round"/>
<path d="M74.0615 40.4505V36.5361" stroke="#AAA0F8" stroke-linecap="round" stroke-linejoin="round"/>
<path d="M86.5912 54.0342H34.0186" stroke="#AAA0F8" stroke-linecap="round" stroke-linejoin="round"/>
<path d="M61.4229 53.9378V50.0234" stroke="#AAA0F8" stroke-linecap="round" stroke-linejoin="round"/>
<path d="M65.6572 69.3889V65.4746" stroke="#AAA0F8" stroke-linecap="round" stroke-linejoin="round"/>
<path d="M86.5912 57.7959H34.0186" stroke="#AAA0F8" stroke-linecap="round" stroke-linejoin="round"/>
<path d="M86.5912 61.6941H34.0186" stroke="#AAA0F8" stroke-linecap="round" stroke-linejoin="round"/>
<path d="M71.9072 57.6989V54.1045" stroke="#AAA0F8" stroke-linecap="round" stroke-linejoin="round"/>
<path d="M69.1064 57.6989V54.1045" stroke="#AAA0F8" stroke-linecap="round" stroke-linejoin="round"/>
<path d="M66.3047 57.6989V54.1045" stroke="#AAA0F8" stroke-linecap="round" stroke-linejoin="round"/>
<path d="M38.6113 57.6989V54.1045" stroke="#AAA0F8" stroke-linecap="round" stroke-linejoin="round"/>
<path d="M61.0137 65.5681V61.6135" stroke="#AAA0F8" stroke-linecap="round" stroke-linejoin="round"/>
<path d="M58.2119 65.5681V61.6135" stroke="#AAA0F8" stroke-linecap="round" stroke-linejoin="round"/>
<path d="M55.4102 65.5681V61.6135" stroke="#AAA0F8" stroke-linecap="round" stroke-linejoin="round"/>
<path d="M37.2646 65.5681V61.6135" stroke="#AAA0F8" stroke-linecap="round" stroke-linejoin="round"/>
<path d="M46.5488 53.9378V50.0234" stroke="#AAA0F8" stroke-linecap="round" stroke-linejoin="round"/>
<path d="M88.5257 23.0205H31.8281V31.3405H88.5257V23.0205Z" fill="#D4CFFC" stroke="#AAA0F8" stroke-linecap="round" stroke-linejoin="round"/>
<path opacity="0.2" d="M27.7568 30.7891V54.8034L64.9294 17.6309H40.915L27.7568 30.7891Z" fill="white"/>
<path opacity="0.2" d="M92.5977 20.4785V19.726C92.5977 18.5689 91.6597 17.6309 90.5025 17.6309H89.3197L27.7568 79.1938V85.3195L92.5977 20.4785Z" fill="white"/>
<path opacity="0.2" d="M92.598 99.068V75.0537L64.1885 103.463H88.2028L92.598 99.068Z" fill="white"/>
<path d="M95.4594 114.15C95.1481 113.691 94.5234 113.571 94.0641 113.882C93.6048 114.194 93.4849 114.818 93.7962 115.278C94.1075 115.737 94.7322 115.857 95.1915 115.546C95.6507 115.234 95.7707 114.61 95.4594 114.15Z" fill="#AAA0F8" stroke="#AAA0F8" stroke-linecap="round" stroke-linejoin="round"/>
<path d="M93.9395 112.945L94.4837 115.067L94.9088 115.034L95.1271 112.906L93.9395 112.945Z" fill="white" stroke="#AAA0F8" stroke-linecap="round" stroke-linejoin="round"/>
<path d="M89.5492 114.15C89.2379 113.691 88.6132 113.571 88.1539 113.882C87.6946 114.194 87.5747 114.818 87.886 115.278C88.1974 115.737 88.822 115.857 89.2813 115.546C89.7406 115.234 89.8606 114.61 89.5492 114.15Z" fill="#AAA0F8" stroke="#AAA0F8" stroke-linecap="round" stroke-linejoin="round"/>
<path d="M88.0293 112.945L88.5736 115.067L88.9986 115.034L89.2169 112.906L88.0293 112.945Z" fill="white" stroke="#AAA0F8" stroke-linecap="round" stroke-linejoin="round"/>
<path d="M95.592 89.3984L95.5742 113.753" stroke="#AAA0F8" stroke-width="2" stroke-linecap="round" stroke-linejoin="round"/>
<path d="M95.6209 85.2188L95.5918 89.3989" stroke="#AAA0F8" stroke-width="4" stroke-linecap="round" stroke-linejoin="round"/>
<path d="M94.046 98.4195L88.3501 98.3616C87.9081 98.3572 87.5462 98.7118 87.5417 99.1538L87.4018 112.939C87.3973 113.381 87.752 113.743 88.194 113.748L93.8899 113.806C94.3319 113.81 94.6938 113.455 94.6983 113.013L94.8382 99.2279C94.8427 98.7859 94.488 98.4239 94.046 98.4195Z" fill="#AAA0F8" stroke="#AAA0F8" stroke-linecap="round" stroke-linejoin="round"/>
<path d="M86.5565 112.974L88.1942 113.008L88.3149 101.111L86.3143 101.074C85.7439 101.068 85.2768 101.526 85.271 102.097L85.1749 111.565C85.167 112.335 85.7856 112.967 86.5565 112.974Z" fill="#AAA0F8" stroke="#AAA0F8" stroke-linecap="round" stroke-linejoin="round"/>
<path d="M87.2967 112.982L88.9344 113.015L89.0552 101.119L87.0546 101.082C86.4841 101.076 86.017 101.534 86.0112 102.104L85.9151 111.572C85.9073 112.343 86.5259 112.974 87.2967 112.982Z" fill="#7F70F5" stroke="#AAA0F8" stroke-linecap="round" stroke-linejoin="round"/>
<path d="M94.8917 98.4282L89.1959 98.3704C88.7538 98.3659 88.3919 98.7206 88.3874 99.1627L88.2475 112.948C88.243 113.39 88.5977 113.752 89.0397 113.757L94.7355 113.814C95.1775 113.819 95.5395 113.464 95.544 113.022L95.6839 99.2367C95.6884 98.7947 95.3337 98.4327 94.8917 98.4282Z" fill="#7F70F5" stroke="#AAA0F8" stroke-linecap="round" stroke-linejoin="round"/>
<path d="M91.2594 98.3916L91.0014 104.099C90.9924 104.298 91.1462 104.466 91.3451 104.475L92.2258 104.515C92.4246 104.524 92.5931 104.37 92.6021 104.171L92.8627 98.4079L91.2594 98.3916Z" fill="#AAA0F8"/>
<path d="M89.908 106.419L93.8757 106.525C94.262 106.535 94.5673 106.857 94.557 107.243L94.4452 111.449C94.4349 111.836 94.1129 112.141 93.7266 112.131L89.7589 112.025C89.3726 112.015 89.0673 111.693 89.0775 111.307L89.1894 107.1C89.1997 106.714 89.5217 106.409 89.908 106.419Z" fill="#AAA0F8" stroke="#AAA0F8" stroke-linecap="round" stroke-linejoin="round"/>
<path d="M90.3709 106.508L94.3386 106.613C94.7249 106.624 95.0302 106.946 95.0199 107.332L94.908 111.538C94.8978 111.925 94.5758 112.23 94.1895 112.22L90.2218 112.114C89.8354 112.104 89.5301 111.782 89.5404 111.395L89.6523 107.189C89.6626 106.803 89.9846 106.498 90.3709 106.508Z" fill="#7F70F5" stroke="#AAA0F8" stroke-linecap="round" stroke-linejoin="round"/>
<path d="M73.9927 64.1852C73.9927 64.1852 73.7675 65.9583 73.8519 66.2116C73.9364 66.4649 74.443 67.478 74.4711 67.5625C74.4993 67.6469 73.8801 68.1817 73.9927 68.435C74.1052 68.6882 74.7244 68.9979 74.7244 68.9979C74.7244 68.9979 76.2442 70.7428 76.4412 70.7146C76.6382 70.6865 77.3699 70.2925 77.3699 70.2925L77.7921 71.2775L81.9856 69.5044L80.7191 67.4218C80.7191 67.4218 79.3963 64.0726 78.158 63.0031C76.9196 61.9337 74.4993 62.975 73.9927 64.1852Z" fill="white" stroke="#AAA0F8" stroke-linecap="round" stroke-linejoin="round"/>
<path d="M76.4414 70.7151L77.5041 69.5725L77.3701 70.2929L76.4414 70.7151Z" fill="#AAA0F8" stroke="#AAA0F8" stroke-linecap="round" stroke-linejoin="round"/>
<path d="M75.1182 68.8853C75.1182 68.8853 75.5403 68.6883 75.3715 68.1536" stroke="#AAA0F8" stroke-linecap="round" stroke-linejoin="round"/>
<path d="M74.1338 66.3521C74.1338 66.3521 74.1338 65.9863 74.5559 66.1551" stroke="#AAA0F8" stroke-linecap="round" stroke-linejoin="round"/>
<path d="M74.5557 67.1682L74.8934 67.7592" stroke="#AAA0F8" stroke-linecap="round" stroke-linejoin="round"/>
<path d="M79.3407 61.2016C78.3557 60.5824 76.8922 60.7232 76.1886 61.2016C75.5303 61.6492 74.4045 62.7862 74.262 62.9309C74.2627 62.9292 74.2631 62.9264 74.2637 62.9243C74.2578 62.9313 74.2529 62.9401 74.2466 62.9466C74.2466 62.9466 73.8523 63.927 73.9934 64.1849C74.2748 64.1567 75.1754 63.5939 75.1191 63.9316C75.0628 64.2693 74.697 64.8603 74.9221 64.9729C75.1473 65.0855 75.694 65.5866 75.694 65.5866C75.694 65.5866 75.7946 66.1268 76.1323 66.0706C76.47 66.0143 76.7233 65.4795 76.9766 65.8172C77.2299 66.155 78.9749 67.8718 79.0874 67.8718C79.2 67.8718 80.7198 67.4215 80.7198 67.4215C80.7198 67.4215 80.8324 65.6765 80.9168 64.5226C81.0012 63.3687 80.3258 61.8208 79.3407 61.2016Z" fill="#AAA0F8" stroke="#AAA0F8" stroke-linecap="round" stroke-linejoin="round"/>
<path d="M76.3013 66.6052C76.3013 66.6052 76.0762 65.0009 76.639 65.2824C77.2019 65.5638 77.6522 67.0555 77.5115 67.3932C77.3708 67.7309 77.0331 67.5058 77.0331 67.5058" fill="white"/>
<path d="M76.3013 66.6052C76.3013 66.6052 76.0762 65.0009 76.639 65.2824C77.2019 65.5638 77.6522 67.0555 77.5115 67.3932C77.3708 67.7309 77.0331 67.5058 77.0331 67.5058" stroke="#AAA0F8" stroke-linecap="round" stroke-linejoin="round"/>
<path d="M77.2646 71.149L76.6475 72.8975C76.6475 72.8975 78.533 71.869 80.35 71.2519C82.167 70.6348 83.3669 70.4633 83.3669 70.4633L82.4413 69.092C82.4413 69.092 78.6359 69.4691 77.2646 71.149Z" fill="#7F70F5" stroke="#AAA0F8" stroke-linecap="round" stroke-linejoin="round"/>
<path d="M67.6033 75.241L71.4904 81.7634C71.5195 81.8121 71.577 81.8362 71.6321 81.8227L75.2807 80.9265C75.3642 80.906 75.4047 80.8111 75.3618 80.7366L71.9903 74.8862C71.966 74.844 71.9201 74.8191 71.8715 74.8217L67.7073 75.046C67.6103 75.0512 67.5536 75.1576 67.6033 75.241Z" fill="#AAA0F8" stroke="#AAA0F8" stroke-linecap="round" stroke-linejoin="round"/>
<path d="M68.0332 75.4988L71.5311 81.368L74.9103 80.538L71.8868 75.2913L68.0332 75.4988Z" fill="#878787" stroke="#AAA0F8" stroke-linecap="round" stroke-linejoin="round"/>
<path d="M74.4189 76.5654C74.4189 76.5654 73.3904 77.1139 73.0133 77.2854C72.6362 77.4568 72.4305 77.5939 72.6704 77.7996C72.9104 78.0053 73.7332 77.5254 73.7332 77.5254L74.3846 77.2511L74.4189 76.5654Z" fill="white" stroke="#AAA0F8" stroke-linecap="round" stroke-linejoin="round"/>
<path d="M82.7817 113.433L83.0142 115.215C83.0142 115.215 82.7817 115.603 82.0454 115.68C81.3091 115.758 80.7666 115.874 80.7666 115.874L80.9688 114.141L82.7817 113.433Z" fill="white" stroke="#AAA0F8" stroke-linecap="round" stroke-linejoin="round"/>
<path d="M83.0142 115.216L82.9806 114.957C82.2872 115.227 81.4483 115.314 80.8293 115.337L80.7666 115.874C80.7666 115.874 81.3092 115.758 82.0454 115.681C82.7817 115.603 83.0142 115.216 83.0142 115.216Z" fill="white" stroke="#AAA0F8" stroke-linecap="round" stroke-linejoin="round"/>
<path d="M77.5112 112.697L75.4961 113.937C75.4961 113.937 74.6048 114.169 74.101 114.208C73.5972 114.247 73.5972 114.789 73.8298 114.983C74.0623 115.177 74.8331 115.505 75.8061 115.719C77.7437 116.145 80.5339 115.99 80.7664 115.874C80.9989 115.758 81.1927 115.564 81.2315 115.409C81.2702 115.254 81.2315 113.743 81.2315 113.743C81.2315 113.743 78.2863 113.394 77.5112 112.697Z" fill="white" stroke="#AAA0F8" stroke-linecap="round" stroke-linejoin="round"/>
<path d="M75.5351 115.215C74.399 114.87 73.9325 114.589 73.7455 114.4C73.6275 114.586 73.6795 114.857 73.83 114.983C74.0625 115.176 74.8333 115.505 75.8064 115.719C77.744 116.145 80.5342 115.99 80.7667 115.874C80.9842 115.765 81.166 115.589 81.2205 115.44C79.9247 115.551 77.1567 115.707 75.5351 115.215Z" fill="white" stroke="#AAA0F8" stroke-linecap="round" stroke-linejoin="round"/>
<path d="M83.8356 88.1318C83.8356 88.1318 83.8356 90.0427 83.1986 91.0689C82.5617 92.0951 81.677 93.0151 81.677 93.1567C81.677 93.2982 80.8278 99.9154 80.8278 100.269C80.8278 100.623 80.7924 101.649 81.0047 102.18C81.217 102.711 82.0309 106.073 82.5263 109.08C83.0217 112.088 82.8094 112.831 82.8094 112.831C82.8094 112.831 83.0217 113.362 83.0217 113.504C83.0217 113.645 82.9156 114.034 82.9156 114.034C82.9156 114.034 82.3494 114.211 81.8186 114.211C81.2878 114.211 80.9693 114.141 80.9693 114.141C80.9693 114.141 80.934 113.574 81.0401 113.291C81.1462 113.008 81.0755 112.23 81.0755 112.053C81.0755 111.876 79.7308 102.711 79.7308 102.003C79.7308 101.295 79.6954 93.7936 79.6954 93.7936L79.377 88.5919C79.377 88.5919 81.217 88.5211 83.8356 88.1318Z" fill="#7F70F5" stroke="#AAA0F8" stroke-linecap="round" stroke-linejoin="round"/>
<path d="M81.3227 92.1308C81.3227 92.1308 80.4735 93.6878 80.4027 93.8293C80.3319 93.9709 80.3319 95.2094 80.3319 95.4925C80.3319 95.7756 80.155 101.154 80.1904 101.897C80.2258 102.64 80.792 104.941 80.9689 106.321C81.1458 107.701 81.4643 111.735 81.4997 111.841C81.5351 111.947 81.6766 112.442 81.6058 112.761C81.5351 113.079 81.3581 113.433 81.3581 113.433C81.3581 113.433 81.4643 114.035 81.3935 114.212C81.3227 114.389 80.3673 114.566 79.0227 114.176C77.678 113.787 77.1118 112.938 77.1118 112.938C77.1118 112.938 77.1826 112.761 77.1826 112.407C77.1826 112.053 77.5364 111.982 77.5364 111.982L76.8641 107.241C76.8641 107.241 76.2272 105.754 76.1918 105.507C76.1564 105.259 76.3333 104.657 76.2979 104.41C76.2626 104.162 75.8379 103.631 75.8025 103.384C75.7671 103.136 74.5994 99.1726 74.5287 95.6694C74.4579 92.1662 74.5901 88.9076 74.5901 88.9076C74.5901 88.9076 75.484 89.3707 78.2442 89.1938C81.0043 89.0169 82.1012 88.9815 83.4105 88.4153" fill="#7F70F5"/>
<path d="M81.3227 92.1308C81.3227 92.1308 80.4735 93.6878 80.4027 93.8293C80.3319 93.9709 80.3319 95.2094 80.3319 95.4925C80.3319 95.7756 80.155 101.154 80.1904 101.897C80.2258 102.64 80.792 104.941 80.9689 106.321C81.1458 107.701 81.4643 111.735 81.4997 111.841C81.5351 111.947 81.6766 112.442 81.6058 112.761C81.5351 113.079 81.3581 113.433 81.3581 113.433C81.3581 113.433 81.4643 114.035 81.3935 114.212C81.3227 114.389 80.3673 114.566 79.0227 114.176C77.678 113.787 77.1118 112.938 77.1118 112.938C77.1118 112.938 77.1826 112.761 77.1826 112.407C77.1826 112.053 77.5364 111.982 77.5364 111.982L76.8641 107.241C76.8641 107.241 76.2272 105.754 76.1918 105.507C76.1564 105.259 76.3333 104.657 76.2979 104.41C76.2626 104.162 75.8379 103.631 75.8025 103.384C75.7671 103.136 74.5994 99.1726 74.5287 95.6694C74.4579 92.1662 74.5901 88.9076 74.5901 88.9076C74.5901 88.9076 75.484 89.3707 78.2442 89.1938C81.0043 89.0169 82.1012 88.9815 83.4105 88.4153" stroke="#AAA0F8" stroke-linecap="round" stroke-linejoin="round"/>
<path d="M78.4092 109.796L78.6356 112.154C78.6356 112.154 78.3256 112.347 78.4419 112.735C78.5581 113.123 78.6356 113.355 78.6356 113.355" stroke="#AAA0F8" stroke-linecap="round" stroke-linejoin="round"/>
<path d="M76.3779 97.9756C76.4047 98.1468 76.4337 98.3133 76.465 98.4741C77.0851 101.652 77.7826 104.054 77.8214 104.171C77.8601 104.287 77.3563 104.713 77.5501 104.946C77.7438 105.178 77.9764 105.295 77.9764 105.295L78.3325 109.002" stroke="#AAA0F8" stroke-linecap="round" stroke-linejoin="round"/>
<path d="M76.1556 89.8711C76.1556 89.8711 75.9302 93.8152 76.2481 96.9474" stroke="#AAA0F8" stroke-linecap="round" stroke-linejoin="round"/>
<path d="M75.264 89.7939C75.264 89.7939 75.1478 91.189 75.9228 91.8866" stroke="#AAA0F8" stroke-linecap="round" stroke-linejoin="round"/>
<path d="M81.1932 89.9873C80.3019 90.3748 78.3643 90.4136 78.3643 90.4136L78.5968 90.9949C78.5968 90.9949 79.9531 90.9174 80.4957 90.7236" stroke="#AAA0F8" stroke-linecap="round" stroke-linejoin="round"/>
<path d="M74.5898 88.907C74.5898 88.907 75.0698 89.7984 78.8066 89.5927C82.5435 89.387 83.9834 88.7699 84.0177 88.4614C84.0519 88.1528 83.9491 87.4329 83.9491 87.4329C83.9491 87.4329 76.8868 87.9471 74.5898 88.907Z" fill="#AAA0F8" stroke="#AAA0F8" stroke-linecap="round" stroke-linejoin="round"/>
<path d="M76.6468 72.8972C76.6468 72.8972 74.5555 73.8571 74.5212 74.1657C74.4869 74.4742 73.3899 82.7707 73.3899 82.7707L71.7443 80.8508C71.7443 80.8508 71.7786 80.1652 71.6757 79.8909C71.5729 79.6167 71.5386 79.411 71.2986 79.3081C71.0586 79.2053 70.2701 78.9996 70.0645 78.8282C69.8587 78.6568 69.2759 78.1082 69.1388 78.3139C69.0017 78.5196 68.7274 78.8624 68.796 79.1024C68.8645 79.3424 69.1388 79.8224 69.1388 79.9595C69.1388 80.0966 69.1388 81.1251 69.5845 81.6051C70.0301 82.085 70.6815 82.2907 70.6815 82.2907C70.6815 82.2907 71.7443 85.1019 72.1214 85.6505C72.4985 86.199 74.0755 87.4675 74.0755 87.4675C74.0755 87.4675 73.6984 88.3588 73.8013 88.4274C73.9041 88.4959 74.3841 89.2159 74.5212 89.2159C74.6584 89.2159 78.7723 88.5302 79.0808 88.4959C79.3894 88.4617 82.4749 88.4959 82.7148 88.3931C82.9548 88.2902 83.7433 87.9474 83.9147 87.8103C84.0861 87.6731 84.3604 87.4332 84.2233 86.8846C84.0861 86.3361 83.949 82.4621 83.949 82.1193C83.949 81.7765 84.7954 79.1021 84.9432 78.0054C85.4757 74.054 85.4175 73.822 85.429 73.3067C85.4562 72.0905 84.4919 71.4604 84.3548 71.3918C84.2176 71.3232 83.3662 70.4631 83.3662 70.4631C83.3662 70.4631 80.315 70.7031 76.6468 72.8972Z" fill="#AAA0F8" stroke="#AAA0F8" stroke-linecap="round" stroke-linejoin="round"/>
<path d="M74.0752 87.4675C74.0752 87.4675 75.2751 87.2618 75.4808 87.0904C75.6865 86.919 77.5035 81.6052 77.572 81.2966C77.6406 80.9881 77.7435 77.2512 77.7435 77.2512" stroke="#AAA0F8" stroke-linecap="round" stroke-linejoin="round"/>
<path d="M77.71 79.5827L78.2928 77.4915" stroke="#AAA0F8" stroke-linecap="round" stroke-linejoin="round"/>
<path d="M73.2532 84.8277C73.1503 84.2449 73.3903 82.7708 73.3903 82.7708C73.3903 82.7708 73.6303 84.2106 74.076 84.7934" stroke="#AAA0F8" stroke-linecap="round" stroke-linejoin="round"/>
<path d="M71.7443 80.8512C71.7443 80.8512 71.7786 80.1656 71.6757 79.8913C71.5729 79.6171 71.5386 79.4114 71.2986 79.3085C71.0586 79.2057 70.2701 79 70.0645 78.8285C69.8587 78.6571 69.2759 78.1086 69.1388 78.3143C69.0017 78.52 68.7274 78.8628 68.796 79.1028C68.8645 79.3428 69.1388 79.8227 69.1388 79.9599C69.1388 80.097 69.1388 81.1255 69.5845 81.6055C70.0301 82.0854 70.6815 82.2911 70.6815 82.2911C70.6815 82.2911 70.7411 82.4485 70.8363 82.6945C71.0451 82.1898 71.4691 81.5692 72.2974 81.4965L71.7443 80.8512Z" fill="white" stroke="#AAA0F8" stroke-linecap="round" stroke-linejoin="round"/>
<path d="M71.1963 83.3535C71.1963 83.3535 71.4363 82.4964 72.4305 82.1536" stroke="#AAA0F8" stroke-linecap="round" stroke-linejoin="round"/>
<path d="M79.0811 88.4955L82.5436 87.467" stroke="#AAA0F8" stroke-linecap="round" stroke-linejoin="round"/>
<path d="M83.1942 79.4006C83.1942 79.4006 81.0026 81.77 79.2256 83.0731" stroke="#AAA0F8" stroke-linecap="round" stroke-linejoin="round"/>
<path d="M82.0686 81.178C82.0686 81.178 80.41 82.8365 79.6992 83.3696" stroke="#AAA0F8" stroke-linecap="round" stroke-linejoin="round"/>
<path d="M83.3672 70.4631C83.3672 70.4631 84.989 72.5833 85.0649 73.2283C85.1408 73.8733 85.2167 74.2527 85.2167 74.2527L86.1652 73.5698C86.1652 73.5698 85.7099 71.9383 85.1787 71.4071C84.6476 70.8759 83.3672 70.4631 83.3672 70.4631Z" fill="#AAA0F8" stroke="#AAA0F8" stroke-linecap="round" stroke-linejoin="round"/>
<path d="M86.052 72.8304C86.052 72.8304 84.6985 72.7628 83.8187 73.4395C82.9389 74.1163 82.5329 76.3495 82.3299 77.5677C82.1268 78.7858 81.9238 84.2674 81.9238 85.1472C81.9238 86.027 82.7359 86.433 83.0743 86.5684C83.4127 86.7037 85.3752 86.23 85.6459 86.1623C85.9166 86.0947 87.8792 86.0947 88.4206 84.8765C88.962 83.6584 89.0297 81.4928 88.962 80.6807C88.8943 79.8686 88.2852 78.6504 88.2852 78.6504C88.2852 78.6504 88.4206 75.4698 88.1499 74.3869C87.8792 73.3042 86.6611 72.6951 86.052 72.8304Z" fill="#AAA0F8" stroke="#AAA0F8" stroke-linecap="round" stroke-linejoin="round"/>
<path d="M88.2849 78.6506C88.2849 78.6506 83.3547 79.7415 83.4702 80.2031C83.5856 80.6648 83.4124 81.6457 83.4702 81.8188C83.5279 81.9919 88.9616 80.6809 88.9616 80.6809C88.9616 80.6809 88.8297 78.8869 88.2849 78.6506Z" fill="#878787" stroke="#878787" stroke-linecap="round" stroke-linejoin="round"/>
<path d="M87.5679 73.5676C87.5679 73.5676 85.0867 73.7408 84.2789 74.4909C83.4711 75.241 83.2854 78.005 83.2402 78.7032" stroke="#878787" stroke-linecap="round" stroke-linejoin="round"/>
<path d="M83.4705 82.6838C83.4705 82.6838 83.2974 85.165 83.4705 85.7421C83.6436 86.3191 86.368 86.0309 87.3943 85.4536" stroke="#878787" stroke-linecap="round" stroke-linejoin="round"/>
<path d="M39.2133 106.477C39.2133 106.477 38.5905 112.349 38.5015 112.571C38.4126 112.794 36.7666 112.794 36.6776 113.461C36.5886 114.128 36.8556 114.395 37.1225 114.528C37.3894 114.662 38.4126 115.151 38.7239 115.24C39.0354 115.329 39.8806 115.418 40.103 115.018C40.3254 114.617 40.1475 113.194 40.1475 113.194L41.749 106.566L39.2133 106.477Z" fill="white" stroke="#AAA0F8" stroke-linecap="round" stroke-linejoin="round"/>
<path d="M47.0234 105.425C47.0234 105.425 46.739 112.599 46.5611 113.31C46.3831 114.022 46.3387 114.556 46.5166 114.956C46.6945 115.357 47.3618 115.357 47.6287 115.268C47.8957 115.179 49.6751 114.334 49.853 114.067C50.031 113.8 49.4971 113.533 49.2747 113.444C49.0523 113.355 48.3405 112.688 48.296 112.554C48.2515 112.421 49.2477 106.492 49.2477 106.492L47.0234 105.425Z" fill="white" stroke="#AAA0F8" stroke-linecap="round" stroke-linejoin="round"/>
<path d="M47.6287 115.268C47.8957 115.179 49.6751 114.334 49.853 114.067C50.031 113.8 49.4971 113.533 49.2747 113.444C49.0523 113.355 48.3405 112.688 48.296 112.554C48.285 112.521 48.3835 112.141 48.5375 111.588L46.691 111.522C46.5518 112.405 46.6104 113.114 46.5611 113.311C46.3831 114.022 46.3387 114.556 46.5166 114.957C46.6946 115.357 47.3618 115.357 47.6287 115.268Z" fill="#7F70F5" stroke="#AAA0F8" stroke-linecap="round" stroke-linejoin="round"/>
<path d="M38.7367 110.797C38.6264 111.745 38.5322 112.494 38.5015 112.571C38.4126 112.793 36.7666 112.793 36.6776 113.461C36.5886 114.128 36.8556 114.395 37.1225 114.528C37.3894 114.662 38.4126 115.151 38.7239 115.24C39.0354 115.329 39.8806 115.418 40.103 115.018C40.3254 114.617 40.1475 113.194 40.1475 113.194L40.69 110.949L38.7367 110.797Z" fill="#7F70F5" stroke="#AAA0F8" stroke-linecap="round" stroke-linejoin="round"/>
<path d="M40.1717 114.807C39.8177 114.876 39.2632 114.922 38.7238 114.706C38.1103 114.461 37.1799 113.983 36.6611 113.71C36.6621 114.197 36.8917 114.413 37.1223 114.528C37.3893 114.662 38.4124 115.151 38.7238 115.24C39.0352 115.329 39.8804 115.418 40.1029 115.018C40.1327 114.964 40.1549 114.891 40.1717 114.807Z" fill="white" stroke="#AAA0F8" stroke-linecap="round" stroke-linejoin="round"/>
<path d="M49.8536 114.067C49.9595 113.908 49.8129 113.749 49.6302 113.628C49.1155 113.991 48.2945 114.557 47.9407 114.734C47.5744 114.917 46.8729 114.87 46.4688 114.822C46.4828 114.868 46.4981 114.914 46.5172 114.957C46.6951 115.357 47.3624 115.357 47.6293 115.268C47.8963 115.179 49.6757 114.334 49.8536 114.067Z" fill="white" stroke="#AAA0F8" stroke-linecap="round" stroke-linejoin="round"/>
<path d="M41.9308 85.7467C41.9308 85.7467 41.397 86.9478 41.1301 90.5066C40.8632 94.0655 40.6852 98.2916 40.2404 100.027C39.7955 101.761 38.8613 106.477 38.8613 106.477L42.0643 107.055L43.6213 100.16L47.2246 88.4603L46.4041 107.539L49.4736 107.806L51.5397 94.5103C51.5397 94.5103 53.0078 89.2165 53.0522 87.3926C53.0967 85.5687 52.5629 85.0794 52.5629 85.0794L47.2246 84.0117L41.9308 85.7467Z" fill="#AAA0F8" stroke="#AAA0F8" stroke-linecap="round" stroke-linejoin="round"/>
<path d="M42.2402 84.5766L41.9316 85.7463C41.9316 85.7463 46.0688 85.1235 47.8482 84.99C49.6277 84.8566 52.7861 85.4349 52.7861 85.4349L52.1475 83.9938C52.1475 83.9938 50.206 83.4775 48.0262 83.433C45.8464 83.3885 44.0669 83.7 43.7111 83.7889C43.3552 83.8779 42.2402 84.5766 42.2402 84.5766Z" fill="white" stroke="#AAA0F8" stroke-linecap="round" stroke-linejoin="round"/>
<path d="M43.0817 69.4893C43.0817 69.4893 39.7793 71.0433 39.067 72.2089C38.3547 73.3745 35.2465 80.2384 35.5055 80.8859C35.7645 81.5335 37.2539 82.9581 37.2539 82.9581L38.9375 81.922L38.4842 79.9794L40.6211 75.4466C40.6211 75.4466 41.7219 80.5622 41.7866 81.145C41.8514 81.7278 41.4629 83.4761 41.6571 83.9941C41.8514 84.5122 42.0457 84.6417 42.2399 84.5769C42.4342 84.5122 45.1539 83.7351 46.3194 83.7351C47.485 83.7351 51.7588 84.4474 52.1473 83.9941C52.5358 83.5409 52.2768 83.1523 52.1473 82.9581C52.0178 82.7638 50.3989 77.0007 50.3989 77.0007C50.3989 77.0007 51.2407 72.0794 50.8522 71.5614C50.4637 71.0433 46.8375 69.6835 46.8375 69.6835L43.0817 69.4893Z" fill="#7F70F5" stroke="#AAA0F8" stroke-linecap="round" stroke-linejoin="round"/>
<path d="M44.8447 81.5631L48.3528 80.2656" stroke="#AAA0F8" stroke-linecap="round" stroke-linejoin="round"/>
<path d="M43.6855 81.9922L44.3931 81.7305" stroke="#AAA0F8" stroke-linecap="round" stroke-linejoin="round"/>
<path d="M42.9189 81.6725L45.0928 80.7773" stroke="#AAA0F8" stroke-linecap="round" stroke-linejoin="round"/>
<path d="M39.5273 73.3193L40.6213 75.4463L39.5625 74.4812" stroke="#AAA0F8" stroke-linecap="round" stroke-linejoin="round"/>
<path d="M50.8516 71.5615L53.7008 80.6271L55.0607 81.7279L53.7008 83.4762C53.7008 83.4762 51.4992 81.6631 51.1754 81.3394C50.8516 81.0156 49.3623 75.9648 49.3623 75.9648" fill="#7F70F5"/>
<path d="M50.8516 71.5615L53.7008 80.6271L55.0607 81.7279L53.7008 83.4762C53.7008 83.4762 51.4992 81.6631 51.1754 81.3394C50.8516 81.0156 49.3623 75.9648 49.3623 75.9648" stroke="#AAA0F8" stroke-linecap="round" stroke-linejoin="round"/>
<path d="M61.0159 85.8805V84.5459H56.5674V85.747" stroke="#AAA0F8" stroke-width="3" stroke-miterlimit="10"/>
<path d="M56.5674 85.7471V98.0251H61.0159V85.8805" stroke="#AAA0F8" stroke-width="2" stroke-miterlimit="10"/>
<path d="M55.061 81.7278L58.6813 83.2004C58.6813 83.2004 59.3171 83.4316 59.4327 83.5183C59.5483 83.605 59.8951 83.9229 59.8951 83.9229H59.5772C59.5772 83.9229 60.3864 84.9922 60.2997 85.1078C60.213 85.2234 60.2708 85.2812 60.0107 85.2812C59.7506 85.2812 59.5194 85.1367 59.5194 85.1367C59.5194 85.1367 59.057 85.2234 58.6524 85.1078C58.2479 84.9922 57.2942 84.0674 57.2942 84.0674L53.7012 83.4761L55.061 81.7278Z" fill="white" stroke="#AAA0F8" stroke-linecap="round" stroke-linejoin="round"/>
<path d="M55.6937 112.349H55.3531C55.2449 112.349 55.1572 112.436 55.1572 112.545V113.77C55.1572 113.878 55.2449 113.966 55.3531 113.966H55.6937C55.8019 113.966 55.8896 113.878 55.8896 113.77V112.545C55.8896 112.436 55.8019 112.349 55.6937 112.349Z" fill="#AAA0F8" stroke="#AAA0F8" stroke-linecap="round" stroke-linejoin="round"/>
<path d="M55.9066 111.481H55.1504V113.261H55.9066V111.481Z" fill="white" stroke="#AAA0F8" stroke-linecap="round" stroke-linejoin="round"/>
<path d="M62.1022 113.967H62.4428C62.551 113.967 62.6387 113.879 62.6387 113.771V112.545C62.6387 112.437 62.551 112.349 62.4428 112.349H62.1022C61.994 112.349 61.9063 112.437 61.9063 112.545V113.771C61.9063 113.879 61.994 113.967 62.1022 113.967Z" fill="#AAA0F8" stroke="#AAA0F8" stroke-linecap="round" stroke-linejoin="round"/>
<path d="M61.8697 113.238H62.626V111.459H61.8697V113.238Z" fill="white" stroke="#AAA0F8" stroke-linecap="round" stroke-linejoin="round"/>
<path d="M61.9237 97.7578H55.7917C54.9176 97.7578 54.209 98.4664 54.209 99.3406V110.499C54.209 111.374 54.9176 112.082 55.7917 112.082H61.9237C62.7979 112.082 63.5065 111.374 63.5065 110.499V99.3406C63.5065 98.4664 62.7979 97.7578 61.9237 97.7578Z" fill="#C2C2C2" stroke="#AAA0F8" stroke-linecap="round" stroke-linejoin="round"/>
<path d="M61.7669 98.7188H55.9486C54.9878 98.7188 54.209 99.4976 54.209 100.458V110.342C54.209 111.303 54.9878 112.082 55.9486 112.082H61.7669C62.7276 112.082 63.5065 111.303 63.5065 110.342V100.458C63.5065 99.4976 62.7276 98.7188 61.7669 98.7188Z" fill="#5540F2" stroke="#AAA0F8" stroke-linecap="round" stroke-linejoin="round"/>
<path d="M55.3799 100.688V110.107" stroke="#AAA0F8" stroke-linecap="round" stroke-linejoin="round"/>
<path d="M57.1191 100.688V110.107" stroke="#AAA0F8" stroke-linecap="round" stroke-linejoin="round"/>
<path d="M58.8584 100.688V110.107" stroke="#AAA0F8" stroke-linecap="round" stroke-linejoin="round"/>
<path d="M60.5977 100.688V110.107" stroke="#AAA0F8" stroke-linecap="round" stroke-linejoin="round"/>
<path d="M62.3369 100.688V110.107" stroke="#AAA0F8" stroke-linecap="round" stroke-linejoin="round"/>
<path d="M38.9375 81.9219L41.2479 85.7002L41.781 85.9371L41.4552 87.4178C41.4552 87.4178 40.3891 86.8848 40.2411 86.5886C40.093 86.2925 37.2539 82.9579 37.2539 82.9579L38.9375 81.9219Z" fill="white" stroke="#AAA0F8" stroke-linecap="round" stroke-linejoin="round"/>
<path d="M42.5986 68.9738L41.3574 76.0073C41.3574 76.0073 42.8469 77.9932 45.3293 77.9932C47.8117 77.9932 49.0529 76.752 49.0529 76.752L47.9772 68.4773L42.5986 68.9738Z" fill="#AAA0F8" stroke="#AAA0F8" stroke-linecap="round" stroke-linejoin="round"/>
<path d="M45.5331 70.8196C48.4055 70.8196 50.7341 68.4524 50.7341 65.5323C50.7341 62.6123 48.4055 60.2451 45.5331 60.2451C42.6606 60.2451 40.332 62.6123 40.332 65.5323C40.332 68.4524 42.6606 70.8196 45.5331 70.8196Z" fill="white" stroke="#AAA0F8" stroke-linecap="round" stroke-linejoin="round"/>
<path d="M45.5044 67.314C46.8692 67.314 47.9756 66.2334 47.9756 64.9003C47.9756 63.5672 46.8692 62.4866 45.5044 62.4866C44.1396 62.4866 43.0332 63.5672 43.0332 64.9003C43.0332 66.2334 44.1396 67.314 45.5044 67.314Z" fill="#7F70F5" stroke="#AAA0F8" stroke-linecap="round" stroke-linejoin="round"/>
<path d="M45.2469 66.8975L44.9316 69.7346L45.6071 69.8247L45.2469 66.8975Z" fill="#7F70F5" stroke="#AAA0F8" stroke-linecap="round" stroke-linejoin="round"/>
<path d="M45.5041 66.9083L46.0117 69.014L45.6064 68.969L45.2461 66.8975L45.5041 66.9083Z" fill="#7F70F5" stroke="#AAA0F8" stroke-linecap="round" stroke-linejoin="round"/>
<path d="M45.5044 66.9087C46.8692 66.9087 47.9756 65.8281 47.9756 64.495C47.9756 63.162 46.8692 62.0813 45.5044 62.0813C44.1396 62.0813 43.0332 63.162 43.0332 64.495C43.0332 65.8281 44.1396 66.9087 45.5044 66.9087Z" fill="white" stroke="#AAA0F8" stroke-linecap="round" stroke-linejoin="round"/>
<path d="M84.4813 37.7132L81.9736 42.2269L83.0324 42.1712L86.5988 38.3262L85.6515 37.4346L84.4813 37.7132Z" fill="#AAA0F8" stroke="#AAA0F8" stroke-linecap="round" stroke-linejoin="round"/>
<path d="M118.083 30.3018L115.548 30.127C115.086 30.0951 114.622 30.1339 114.172 30.2421L87.9361 36.543L82.5865 34.6483L81.1377 35.0941L85.7628 38.6605L92.1712 38.3262L116.177 32.9328C117.032 32.7408 117.843 32.3905 118.569 31.9001L119.209 31.4674C119.404 31.3355 119.5 31.0983 119.45 30.8679C119.399 30.6288 119.203 30.4479 118.96 30.4162L118.083 30.3018Z" fill="white" stroke="#AAA0F8" stroke-linecap="round" stroke-linejoin="round"/>
<path d="M90.9478 38.3901C92.1168 37.3303 93.7817 35.8939 95.4009 34.7503L87.9361 36.5431L82.5865 34.6484L81.1377 35.0942L85.7628 38.6606L90.9478 38.3901Z" fill="#7F70F5" stroke="#AAA0F8" stroke-linecap="round" stroke-linejoin="round"/>
<path d="M84.4808 37.7137L83.3105 33.4229H84.3693L87.0441 37.5465L84.4808 37.7137Z" fill="#AAA0F8" stroke="#AAA0F8" stroke-linecap="round" stroke-linejoin="round"/>
<path d="M84.481 37.7139L83.4443 37.8124L83.5235 38.4258L85.7626 38.6612L84.481 37.7139Z" fill="white" stroke="#AAA0F8" stroke-linecap="round" stroke-linejoin="round"/>
<path d="M100.279 34.7732L99.9693 31.9458L96.832 22.1465L98.8074 22.8824L106.438 33.5725L100.279 34.7732Z" fill="#AAA0F8" stroke="#AAA0F8" stroke-linecap="round" stroke-linejoin="round"/>
<path d="M102.453 28.3219C102.167 28.1016 102.08 27.3186 102.31 27.0406C102.646 26.6363 104.242 26.4913 104.702 26.7735C105.018 26.9676 105.11 27.7959 104.845 28.0548C104.459 28.4315 102.87 28.6423 102.453 28.3219Z" fill="white" stroke="#AAA0F8" stroke-linecap="round" stroke-linejoin="round"/>
<path d="M102.184 27.1855L100.969 27.5202L101.145 28.2247H102.29C102.29 28.2247 102.131 27.7315 102.184 27.1855Z" fill="white" stroke="#AAA0F8" stroke-linecap="round" stroke-linejoin="round"/>
<path d="M105.307 31.8092C105.021 31.5889 104.933 30.8059 105.164 30.5279C105.499 30.1235 107.096 29.9786 107.555 30.2609C107.871 30.4549 107.964 31.2832 107.698 31.5422C107.312 31.9188 105.723 32.1296 105.307 31.8092Z" fill="white" stroke="#AAA0F8" stroke-linecap="round" stroke-linejoin="round"/>
<path d="M105.036 30.6729L103.821 31.0075L103.997 31.712H105.142C105.142 31.712 104.984 31.2188 105.036 30.6729Z" fill="white" stroke="#AAA0F8" stroke-linecap="round" stroke-linejoin="round"/>
<path d="M97.1715 37.2734L99.8342 37.6104L92.9247 46.34L92.082 46.4412L93.9358 46.6434L105.834 35.7566L107.182 34.9814L97.1715 37.2734Z" fill="#AAA0F8" stroke="#AAA0F8" stroke-linecap="round" stroke-linejoin="round"/>
<path d="M103.408 39.2868C103.121 39.0664 103.034 38.2834 103.264 38.0054C103.6 37.6011 105.196 37.4561 105.656 37.7384C105.972 37.9324 106.064 38.7607 105.799 39.0197C105.413 39.3964 103.824 39.6072 103.408 39.2868Z" fill="white" stroke="#AAA0F8" stroke-linecap="round" stroke-linejoin="round"/>
<path d="M103.138 38.1504L101.923 38.485L102.099 39.1895H103.244C103.244 39.1895 103.085 38.6964 103.138 38.1504Z" fill="white" stroke="#AAA0F8" stroke-linecap="round" stroke-linejoin="round"/>
<path d="M98.5882 43.3649C98.3021 43.1446 98.2147 42.3616 98.4452 42.0836C98.7804 41.6792 100.377 41.5343 100.836 41.8165C101.152 42.0106 101.245 42.8388 100.98 43.0978C100.594 43.4745 99.0045 43.6853 98.5882 43.3649Z" fill="white" stroke="#AAA0F8" stroke-linecap="round" stroke-linejoin="round"/>
<path d="M98.3178 42.2275L97.1025 42.5622L97.2787 43.2666H98.4234C98.4234 43.2666 98.2649 42.7735 98.3178 42.2275Z" fill="white" stroke="#AAA0F8" stroke-linecap="round" stroke-linejoin="round"/>
<path d="M81.9566 38.5198C81.9566 38.5198 37.5952 45.8763 15.9515 57.8459C-5.69215 69.8155 32.3482 62.109 32.3482 62.109" stroke="#AAA0F8" stroke-linecap="round" stroke-linejoin="round"/>
</svg>
