<svg width="129" height="128" viewBox="0 0 129 128" fill="none" xmlns="http://www.w3.org/2000/svg">
<g id="Frame 259">
<g id="travel-insurance/bro">
<g id="Floor">
<g id="Group">
<path id="Vector" d="M115.012 112.775H118.466" stroke="#AAA0F8" stroke-linecap="round" stroke-linejoin="round"/>
<path id="Vector_2" d="M10.4121 112.775H112.96" stroke="#AAA0F8" stroke-linecap="round" stroke-linejoin="round"/>
</g>
</g>
<g id="Locators">
<path id="Vector_3" opacity="0.3" d="M105.526 92.8076C103.286 92.8076 101.47 94.6234 101.47 96.8634C101.47 99.1033 105.526 103.188 105.526 103.188C105.526 103.188 109.581 99.1033 109.581 96.8634C109.581 94.6234 107.765 92.8076 105.526 92.8076ZM105.526 98.3009C104.732 98.3009 104.088 97.6573 104.088 96.8634C104.088 96.0695 104.732 95.4258 105.526 95.4258C106.319 95.4258 106.963 96.0695 106.963 96.8634C106.963 97.6573 106.319 98.3009 105.526 98.3009Z" stroke="#32333B" stroke-linecap="round" stroke-linejoin="round"/>
<path id="Vector_4" opacity="0.3" d="M110.409 17.9678C108.169 17.9678 106.354 19.7836 106.354 22.0235C106.354 24.2634 110.409 28.3482 110.409 28.3482C110.409 28.3482 114.465 24.2635 114.465 22.0235C114.465 19.7836 112.649 17.9678 110.409 17.9678ZM110.409 23.4611C109.615 23.4611 108.972 22.8175 108.972 22.0235C108.972 21.2296 109.615 20.586 110.409 20.586C111.203 20.586 111.847 21.2296 111.847 22.0235C111.847 22.8175 111.203 23.4611 110.409 23.4611Z" stroke="#32333B" stroke-linecap="round" stroke-linejoin="round"/>
</g>
<g id="Device">
<g id="Group_2">
<path id="Vector_5" d="M90.7392 17.6309H30.6154C29.3128 17.6309 28.2568 18.6868 28.2568 19.9894V101.105C28.2568 102.407 29.3128 103.463 30.6154 103.463H90.7392C92.0418 103.463 93.0977 102.407 93.0977 101.105V19.9894C93.0977 18.6868 92.0418 17.6309 90.7392 17.6309Z" fill="#AAA0F8"/>
<path id="Vector_6" d="M89.0257 23.0205H32.3281V98.0735H89.0257V23.0205Z" fill="white" stroke="#AAA0F8" stroke-linecap="round" stroke-linejoin="round"/>
<g id="Group_3">
<path id="Vector_7" d="M87.2051 69.5283H34.4023V71.9609H87.2051V69.5283Z" fill="#EAE7FD"/>
<path id="Vector_8" d="M34.4023 71.9609H86.9942" stroke="#AAA0F8" stroke-linecap="round" stroke-linejoin="round"/>
<path id="Vector_9" d="M34.5186 69.5088H87.0912" stroke="#AAA0F8" stroke-linecap="round" stroke-linejoin="round"/>
<path id="Vector_10" d="M87.0912 65.5918H34.5186" stroke="#AAA0F8" stroke-linecap="round" stroke-linejoin="round"/>
<path id="Vector_11" d="M87.0912 75.6045H34.5186" stroke="#AAA0F8" stroke-linecap="round" stroke-linejoin="round"/>
<path id="Vector_12" d="M87.0912 80.2969H34.5186" stroke="#AAA0F8" stroke-linecap="round" stroke-linejoin="round"/>
<path id="Vector_13" d="M87.2051 47.5527H34.4023V49.9853H87.2051V47.5527Z" fill="#EAE7FD"/>
<path id="Vector_14" d="M87.2051 34.0029H34.4023V36.4355H87.2051V34.0029Z" fill="#EAE7FD"/>
<path id="Vector_15" d="M87.1364 34.0029H34.4023V85.3778H87.1364V34.0029Z" stroke="#AAA0F8" stroke-linecap="round" stroke-linejoin="round"/>
<path id="Vector_16" d="M34.4023 36.4355H86.9942" stroke="#AAA0F8" stroke-linecap="round" stroke-linejoin="round"/>
<path id="Vector_17" d="M34.4023 49.9854H86.9942" stroke="#AAA0F8" stroke-linecap="round" stroke-linejoin="round"/>
<path id="Vector_18" d="M34.5186 40.5479H87.0912" stroke="#AAA0F8" stroke-linecap="round" stroke-linejoin="round"/>
<path id="Vector_19" d="M59.6875 40.4505V36.5361" stroke="#AAA0F8" stroke-linecap="round" stroke-linejoin="round"/>
<path id="Vector_20" d="M34.5186 44.3096H87.0912" stroke="#AAA0F8" stroke-linecap="round" stroke-linejoin="round"/>
<path id="Vector_21" d="M34.5186 47.5332H87.0912" stroke="#AAA0F8" stroke-linecap="round" stroke-linejoin="round"/>
<g id="Group_4">
<path id="Vector_22" d="M49.2021 44.2125V40.6182" stroke="#AAA0F8" stroke-linecap="round" stroke-linejoin="round"/>
<path id="Vector_23" d="M52.0039 44.2125V40.6182" stroke="#AAA0F8" stroke-linecap="round" stroke-linejoin="round"/>
<path id="Vector_24" d="M54.8047 44.2125V40.6182" stroke="#AAA0F8" stroke-linecap="round" stroke-linejoin="round"/>
<path id="Vector_25" d="M82.498 44.2125V40.6182" stroke="#AAA0F8" stroke-linecap="round" stroke-linejoin="round"/>
</g>
<path id="Vector_26" d="M74.5615 40.4505V36.5361" stroke="#AAA0F8" stroke-linecap="round" stroke-linejoin="round"/>
<path id="Vector_27" d="M87.0912 54.0342H34.5186" stroke="#AAA0F8" stroke-linecap="round" stroke-linejoin="round"/>
<path id="Vector_28" d="M61.9229 53.9378V50.0234" stroke="#AAA0F8" stroke-linecap="round" stroke-linejoin="round"/>
<path id="Vector_29" d="M66.1572 69.3889V65.4746" stroke="#AAA0F8" stroke-linecap="round" stroke-linejoin="round"/>
<path id="Vector_30" d="M87.0912 57.7959H34.5186" stroke="#AAA0F8" stroke-linecap="round" stroke-linejoin="round"/>
<path id="Vector_31" d="M87.0912 61.6943H34.5186" stroke="#AAA0F8" stroke-linecap="round" stroke-linejoin="round"/>
<g id="Group_5">
<path id="Vector_32" d="M72.4072 57.6989V54.1045" stroke="#AAA0F8" stroke-linecap="round" stroke-linejoin="round"/>
<path id="Vector_33" d="M69.6064 57.6989V54.1045" stroke="#AAA0F8" stroke-linecap="round" stroke-linejoin="round"/>
<path id="Vector_34" d="M66.8047 57.6989V54.1045" stroke="#AAA0F8" stroke-linecap="round" stroke-linejoin="round"/>
<path id="Vector_35" d="M39.1113 57.6989V54.1045" stroke="#AAA0F8" stroke-linecap="round" stroke-linejoin="round"/>
</g>
<g id="Group_6">
<path id="Vector_36" d="M61.5137 65.5679V61.6133" stroke="#AAA0F8" stroke-linecap="round" stroke-linejoin="round"/>
<path id="Vector_37" d="M58.7119 65.5679V61.6133" stroke="#AAA0F8" stroke-linecap="round" stroke-linejoin="round"/>
<path id="Vector_38" d="M55.9102 65.5679V61.6133" stroke="#AAA0F8" stroke-linecap="round" stroke-linejoin="round"/>
<path id="Vector_39" d="M37.7646 65.5679V61.6133" stroke="#AAA0F8" stroke-linecap="round" stroke-linejoin="round"/>
</g>
<path id="Vector_40" d="M47.0488 53.9378V50.0234" stroke="#AAA0F8" stroke-linecap="round" stroke-linejoin="round"/>
</g>
<path id="Vector_41" d="M89.0257 23.0205H32.3281V31.3405H89.0257V23.0205Z" fill="#D4CFFC" stroke="#AAA0F8" stroke-linecap="round" stroke-linejoin="round"/>
<g id="Group_7">
<path id="Vector_42" opacity="0.2" d="M28.2568 30.7891V54.8034L65.4294 17.6309H41.415L28.2568 30.7891Z" fill="white"/>
<path id="Vector_43" opacity="0.2" d="M93.0977 20.4785V19.726C93.0977 18.5689 92.1597 17.6309 91.0025 17.6309H89.8197L28.2568 79.1938V85.3195L93.0977 20.4785Z" fill="white"/>
<path id="Vector_44" opacity="0.2" d="M93.098 99.068V75.0537L64.6885 103.463H88.7028L93.098 99.068Z" fill="white"/>
</g>
</g>
</g>
<g id="Suitcase">
<g id="Group_8">
<g id="Group_9">
<path id="Vector_45" d="M95.9594 114.15C95.6481 113.691 95.0234 113.571 94.5641 113.882C94.1048 114.193 93.9849 114.818 94.2962 115.277C94.6075 115.737 95.2322 115.857 95.6915 115.545C96.1507 115.234 96.2707 114.609 95.9594 114.15Z" fill="#AAA0F8" stroke="#AAA0F8" stroke-linecap="round" stroke-linejoin="round"/>
<path id="Vector_46" d="M94.4395 112.945L94.9837 115.067L95.4088 115.034L95.6271 112.906L94.4395 112.945Z" fill="white" stroke="#AAA0F8" stroke-linecap="round" stroke-linejoin="round"/>
</g>
<g id="Group_10">
<path id="Vector_47" d="M90.0492 114.15C89.7379 113.691 89.1132 113.571 88.6539 113.882C88.1946 114.193 88.0747 114.818 88.386 115.277C88.6974 115.737 89.322 115.857 89.7813 115.545C90.2406 115.234 90.3606 114.609 90.0492 114.15Z" fill="#AAA0F8" stroke="#AAA0F8" stroke-linecap="round" stroke-linejoin="round"/>
<path id="Vector_48" d="M88.5293 112.945L89.0736 115.067L89.4986 115.034L89.7169 112.906L88.5293 112.945Z" fill="white" stroke="#AAA0F8" stroke-linecap="round" stroke-linejoin="round"/>
</g>
<path id="Vector_49" d="M96.092 89.3984L96.0742 113.753" stroke="#AAA0F8" stroke-width="2" stroke-linecap="round" stroke-linejoin="round"/>
<path id="Vector_50" d="M96.1209 85.2188L96.0918 89.3989" stroke="#AAA0F8" stroke-width="4" stroke-linecap="round" stroke-linejoin="round"/>
<g id="Group_11">
<path id="Vector_51" d="M94.546 98.4195L88.8501 98.3616C88.4081 98.3572 88.0462 98.7118 88.0417 99.1538L87.9018 112.939C87.8973 113.381 88.252 113.743 88.694 113.748L94.3899 113.806C94.8319 113.81 95.1938 113.455 95.1983 113.013L95.3382 99.2279C95.3427 98.7859 94.988 98.4239 94.546 98.4195Z" fill="#AAA0F8" stroke="#AAA0F8" stroke-linecap="round" stroke-linejoin="round"/>
<path id="Vector_52" d="M87.0565 112.974L88.6942 113.008L88.8149 101.111L86.8143 101.074C86.2439 101.068 85.7768 101.526 85.771 102.097L85.6749 111.565C85.667 112.335 86.2856 112.967 87.0565 112.974Z" fill="#AAA0F8" stroke="#AAA0F8" stroke-linecap="round" stroke-linejoin="round"/>
<path id="Vector_53" d="M87.7967 112.982L89.4344 113.015L89.5552 101.119L87.5546 101.082C86.9841 101.076 86.517 101.534 86.5112 102.104L86.4151 111.572C86.4073 112.343 87.0259 112.974 87.7967 112.982Z" fill="#7F70F5" stroke="#AAA0F8" stroke-linecap="round" stroke-linejoin="round"/>
<path id="Vector_54" d="M95.3917 98.4282L89.6959 98.3704C89.2538 98.3659 88.8919 98.7206 88.8874 99.1627L88.7475 112.948C88.743 113.39 89.0977 113.752 89.5397 113.757L95.2355 113.814C95.6775 113.819 96.0395 113.464 96.044 113.022L96.1839 99.2367C96.1884 98.7947 95.8337 98.4327 95.3917 98.4282Z" fill="#7F70F5" stroke="#AAA0F8" stroke-linecap="round" stroke-linejoin="round"/>
<path id="Vector_55" d="M91.7594 98.3916L91.5014 104.099C91.4924 104.298 91.6462 104.466 91.8451 104.475L92.7258 104.515C92.9246 104.524 93.0931 104.37 93.1021 104.171L93.3627 98.4079L91.7594 98.3916Z" fill="#AAA0F8"/>
<path id="Vector_56" d="M90.408 106.419L94.3757 106.525C94.762 106.535 95.0673 106.857 95.057 107.243L94.9452 111.449C94.9349 111.836 94.6129 112.141 94.2266 112.131L90.2589 112.025C89.8726 112.015 89.5673 111.693 89.5775 111.307L89.6894 107.1C89.6997 106.714 90.0217 106.409 90.408 106.419Z" fill="#AAA0F8" stroke="#AAA0F8" stroke-linecap="round" stroke-linejoin="round"/>
<path id="Vector_57" d="M90.8709 106.508L94.8386 106.613C95.2249 106.624 95.5302 106.946 95.5199 107.332L95.408 111.538C95.3978 111.925 95.0758 112.23 94.6895 112.22L90.7218 112.114C90.3354 112.104 90.0301 111.782 90.0404 111.395L90.1523 107.189C90.1626 106.803 90.4846 106.498 90.8709 106.508Z" fill="#7F70F5" stroke="#AAA0F8" stroke-linecap="round" stroke-linejoin="round"/>
</g>
</g>
</g>
<g id="Character_2">
<g id="Group_12">
<g id="Group_13">
<path id="Vector_58" d="M74.4927 64.185C74.4927 64.185 74.2675 65.958 74.3519 66.2113C74.4364 66.4646 74.943 67.4778 74.9711 67.5622C74.9993 67.6467 74.3801 68.1814 74.4927 68.4347C74.6052 68.688 75.2244 68.9976 75.2244 68.9976C75.2244 68.9976 76.7442 70.7425 76.9412 70.7144C77.1382 70.6862 77.8699 70.2922 77.8699 70.2922L78.2921 71.2773L82.4856 69.5042L81.2191 67.4215C81.2191 67.4215 79.8963 64.0724 78.658 63.0029C77.4196 61.9334 74.9993 62.9748 74.4927 64.185Z" fill="white" stroke="#AAA0F8" stroke-linecap="round" stroke-linejoin="round"/>
<path id="Vector_59" d="M76.9414 70.7148L78.0041 69.5723L77.8701 70.2927L76.9414 70.7148Z" fill="#AAA0F8" stroke="#AAA0F8" stroke-linecap="round" stroke-linejoin="round"/>
<path id="Vector_60" d="M75.6182 68.8851C75.6182 68.8851 76.0403 68.688 75.8715 68.1533" stroke="#AAA0F8" stroke-linecap="round" stroke-linejoin="round"/>
<path id="Vector_61" d="M74.6338 66.3519C74.6338 66.3519 74.6338 65.986 75.0559 66.1549" stroke="#AAA0F8" stroke-linecap="round" stroke-linejoin="round"/>
<path id="Vector_62" d="M75.0557 67.168L75.3934 67.759" stroke="#AAA0F8" stroke-linecap="round" stroke-linejoin="round"/>
</g>
<path id="Vector_63" d="M79.8407 61.2014C78.8557 60.5822 77.3922 60.7229 76.6886 61.2014C76.0303 61.649 74.9045 62.7859 74.762 62.9307C74.7627 62.9289 74.7631 62.9262 74.7637 62.9241C74.7578 62.931 74.7529 62.9399 74.7466 62.9463C74.7466 62.9463 74.3523 63.9268 74.4934 64.1847C74.7748 64.1565 75.6754 63.5936 75.6191 63.9313C75.5628 64.2691 75.197 64.8601 75.4221 64.9727C75.6473 65.0853 76.194 65.5863 76.194 65.5863C76.194 65.5863 76.2946 66.1266 76.6323 66.0703C76.97 66.014 77.2233 65.4793 77.4766 65.817C77.7299 66.1547 79.4749 67.8715 79.5874 67.8715C79.7 67.8715 81.2198 67.4212 81.2198 67.4212C81.2198 67.4212 81.3324 65.6763 81.4168 64.5224C81.5012 63.3685 80.8258 61.8206 79.8407 61.2014Z" fill="#AAA0F8" stroke="#AAA0F8" stroke-linecap="round" stroke-linejoin="round"/>
<g id="Vector_64">
<path d="M76.8013 66.6049C76.8013 66.6049 76.5762 65.0007 77.139 65.2822C77.7019 65.5636 78.1522 67.0552 78.0115 67.393C77.8708 67.7307 77.5331 67.5055 77.5331 67.5055" fill="white"/>
<path d="M76.8013 66.6049C76.8013 66.6049 76.5762 65.0007 77.139 65.2822C77.7019 65.5636 78.1522 67.0552 78.0115 67.393C77.8708 67.7307 77.5331 67.5055 77.5331 67.5055" stroke="#AAA0F8" stroke-linecap="round" stroke-linejoin="round"/>
</g>
<path id="Vector_65" d="M77.7646 71.1488L77.1475 72.8972C77.1475 72.8972 79.033 71.8687 80.85 71.2516C82.667 70.6345 83.8669 70.4631 83.8669 70.4631L82.9413 69.0918C82.9413 69.0918 79.1359 69.4689 77.7646 71.1488Z" fill="#7F70F5" stroke="#AAA0F8" stroke-linecap="round" stroke-linejoin="round"/>
<path id="Vector_66" d="M68.1033 75.2408L71.9904 81.7631C72.0195 81.8119 72.077 81.8359 72.1321 81.8224L75.7807 80.9263C75.8642 80.9058 75.9047 80.8109 75.8618 80.7364L72.4903 74.8859C72.466 74.8438 72.4201 74.8189 72.3715 74.8215L68.2073 75.0457C68.1103 75.0509 68.0536 75.1573 68.1033 75.2408Z" fill="#AAA0F8" stroke="#AAA0F8" stroke-linecap="round" stroke-linejoin="round"/>
<path id="Vector_67" d="M68.5332 75.4985L72.0311 81.3678L75.4103 80.5378L72.3868 75.291L68.5332 75.4985Z" fill="#878787" stroke="#AAA0F8" stroke-linecap="round" stroke-linejoin="round"/>
<path id="Vector_68" d="M74.9189 76.5654C74.9189 76.5654 73.8904 77.1139 73.5133 77.2854C73.1362 77.4568 72.9305 77.5939 73.1704 77.7996C73.4104 78.0053 74.2332 77.5254 74.2332 77.5254L74.8846 77.2511L74.9189 76.5654Z" fill="white" stroke="#AAA0F8" stroke-linecap="round" stroke-linejoin="round"/>
<g id="Group_14">
<path id="Vector_69" d="M83.2817 113.433L83.5142 115.215C83.5142 115.215 83.2817 115.603 82.5454 115.68C81.8091 115.758 81.2666 115.874 81.2666 115.874L81.4688 114.141L83.2817 113.433Z" fill="white" stroke="#AAA0F8" stroke-linecap="round" stroke-linejoin="round"/>
<path id="Vector_70" d="M83.5142 115.215L83.4806 114.957C82.7872 115.227 81.9483 115.313 81.3293 115.337L81.2666 115.874C81.2666 115.874 81.8092 115.758 82.5454 115.68C83.2817 115.603 83.5142 115.215 83.5142 115.215Z" fill="white" stroke="#AAA0F8" stroke-linecap="round" stroke-linejoin="round"/>
</g>
<g id="Group_15">
<path id="Vector_71" d="M78.0112 112.696L75.9961 113.936C75.9961 113.936 75.1048 114.169 74.601 114.208C74.0972 114.246 74.0972 114.789 74.3298 114.983C74.5623 115.176 75.3331 115.505 76.3061 115.719C78.2437 116.145 81.0339 115.99 81.2664 115.874C81.4989 115.758 81.6927 115.564 81.7315 115.409C81.7702 115.254 81.7315 113.743 81.7315 113.743C81.7315 113.743 78.7863 113.394 78.0112 112.696Z" fill="white" stroke="#AAA0F8" stroke-linecap="round" stroke-linejoin="round"/>
<path id="Vector_72" d="M76.0351 115.215C74.899 114.87 74.4325 114.589 74.2455 114.399C74.1275 114.586 74.1795 114.857 74.33 114.982C74.5625 115.176 75.3333 115.505 76.3064 115.719C78.244 116.145 81.0342 115.99 81.2667 115.874C81.4842 115.765 81.666 115.589 81.7205 115.44C80.4247 115.55 77.6567 115.707 76.0351 115.215Z" fill="white" stroke="#AAA0F8" stroke-linecap="round" stroke-linejoin="round"/>
</g>
<path id="Vector_73" d="M84.3356 88.1318C84.3356 88.1318 84.3356 90.0427 83.6986 91.0689C83.0617 92.0951 82.177 93.0151 82.177 93.1567C82.177 93.2982 81.3278 99.9154 81.3278 100.269C81.3278 100.623 81.2924 101.649 81.5047 102.18C81.717 102.711 82.5309 106.073 83.0263 109.08C83.5217 112.088 83.3094 112.831 83.3094 112.831C83.3094 112.831 83.5217 113.362 83.5217 113.504C83.5217 113.645 83.4156 114.034 83.4156 114.034C83.4156 114.034 82.8494 114.211 82.3186 114.211C81.7878 114.211 81.4693 114.141 81.4693 114.141C81.4693 114.141 81.434 113.574 81.5401 113.291C81.6462 113.008 81.5755 112.23 81.5755 112.053C81.5755 111.876 80.2308 102.711 80.2308 102.003C80.2308 101.295 80.1954 93.7936 80.1954 93.7936L79.877 88.5919C79.877 88.5919 81.717 88.5211 84.3356 88.1318Z" fill="#7F70F5" stroke="#AAA0F8" stroke-linecap="round" stroke-linejoin="round"/>
<g id="Group_16">
<g id="Vector_74">
<path d="M81.8227 92.1306C81.8227 92.1306 80.9735 93.6875 80.9027 93.8291C80.8319 93.9706 80.8319 95.2092 80.8319 95.4922C80.8319 95.7753 80.655 101.154 80.6904 101.897C80.7258 102.64 81.292 104.94 81.4689 106.32C81.6458 107.7 81.9643 111.734 81.9997 111.841C82.0351 111.947 82.1766 112.442 82.1058 112.761C82.0351 113.079 81.8581 113.433 81.8581 113.433C81.8581 113.433 81.9643 114.034 81.8935 114.211C81.8227 114.388 80.8673 114.565 79.5227 114.176C78.178 113.787 77.6118 112.938 77.6118 112.938C77.6118 112.938 77.6826 112.761 77.6826 112.407C77.6826 112.053 78.0364 111.982 78.0364 111.982L77.3641 107.24C77.3641 107.24 76.7272 105.754 76.6918 105.506C76.6564 105.259 76.8333 104.657 76.7979 104.41C76.7626 104.162 76.3379 103.631 76.3025 103.383C76.2671 103.136 75.0994 99.1724 75.0287 95.6692C74.9579 92.166 75.0901 88.9074 75.0901 88.9074C75.0901 88.9074 75.984 89.3705 78.7442 89.1935C81.5043 89.0166 82.6012 88.9812 83.9105 88.415" fill="#7F70F5"/>
<path d="M81.8227 92.1306C81.8227 92.1306 80.9735 93.6875 80.9027 93.8291C80.8319 93.9706 80.8319 95.2092 80.8319 95.4922C80.8319 95.7753 80.655 101.154 80.6904 101.897C80.7258 102.64 81.292 104.94 81.4689 106.32C81.6458 107.7 81.9643 111.734 81.9997 111.841C82.0351 111.947 82.1766 112.442 82.1058 112.761C82.0351 113.079 81.8581 113.433 81.8581 113.433C81.8581 113.433 81.9643 114.034 81.8935 114.211C81.8227 114.388 80.8673 114.565 79.5227 114.176C78.178 113.787 77.6118 112.938 77.6118 112.938C77.6118 112.938 77.6826 112.761 77.6826 112.407C77.6826 112.053 78.0364 111.982 78.0364 111.982L77.3641 107.24C77.3641 107.24 76.7272 105.754 76.6918 105.506C76.6564 105.259 76.8333 104.657 76.7979 104.41C76.7626 104.162 76.3379 103.631 76.3025 103.383C76.2671 103.136 75.0994 99.1724 75.0287 95.6692C74.9579 92.166 75.0901 88.9074 75.0901 88.9074C75.0901 88.9074 75.984 89.3705 78.7442 89.1935C81.5043 89.0166 82.6012 88.9812 83.9105 88.415" stroke="#AAA0F8" stroke-linecap="round" stroke-linejoin="round"/>
</g>
<g id="Group_17">
<path id="Vector_75" d="M78.9092 109.796L79.1356 112.154C79.1356 112.154 78.8256 112.347 78.9419 112.735C79.0581 113.123 79.1356 113.355 79.1356 113.355" stroke="#AAA0F8" stroke-linecap="round" stroke-linejoin="round"/>
<path id="Vector_76" d="M76.8779 97.9756C76.9047 98.1468 76.9337 98.3133 76.965 98.4741C77.5851 101.652 78.2826 104.054 78.3214 104.171C78.3601 104.287 77.8563 104.713 78.0501 104.946C78.2438 105.178 78.4764 105.295 78.4764 105.295L78.8325 109.002" stroke="#AAA0F8" stroke-linecap="round" stroke-linejoin="round"/>
<path id="Vector_77" d="M76.6556 89.8711C76.6556 89.8711 76.4302 93.8152 76.7481 96.9474" stroke="#AAA0F8" stroke-linecap="round" stroke-linejoin="round"/>
<path id="Vector_78" d="M75.764 89.7939C75.764 89.7939 75.6478 91.189 76.4228 91.8866" stroke="#AAA0F8" stroke-linecap="round" stroke-linejoin="round"/>
<path id="Vector_79" d="M81.6932 89.9873C80.8019 90.3748 78.8643 90.4136 78.8643 90.4136L79.0968 90.9949C79.0968 90.9949 80.4531 90.9174 80.9957 90.7236" stroke="#AAA0F8" stroke-linecap="round" stroke-linejoin="round"/>
</g>
</g>
<g id="Group_18">
<g id="Group_19">
<path id="Vector_80" d="M75.0898 88.9068C75.0898 88.9068 75.5698 89.7981 79.3066 89.5925C83.0435 89.3868 84.4834 88.7697 84.5177 88.4611C84.5519 88.1526 84.4491 87.4326 84.4491 87.4326C84.4491 87.4326 77.3868 87.9469 75.0898 88.9068Z" fill="#AAA0F8" stroke="#AAA0F8" stroke-linecap="round" stroke-linejoin="round"/>
<path id="Vector_81" d="M77.1468 72.897C77.1468 72.897 75.0555 73.8569 75.0212 74.1654C74.9869 74.474 73.8899 82.7705 73.8899 82.7705L72.2443 80.8506C72.2443 80.8506 72.2786 80.165 72.1757 79.8907C72.0729 79.6164 72.0386 79.4107 71.7986 79.3079C71.5586 79.205 70.7701 78.9993 70.5645 78.8279C70.3587 78.6565 69.7759 78.108 69.6388 78.3137C69.5017 78.5194 69.2274 78.8622 69.296 79.1022C69.3645 79.3422 69.6388 79.8221 69.6388 79.9593C69.6388 80.0964 69.6388 81.1249 70.0845 81.6048C70.5301 82.0848 71.1815 82.2905 71.1815 82.2905C71.1815 82.2905 72.2443 85.1017 72.6214 85.6502C72.9985 86.1987 74.5755 87.4672 74.5755 87.4672C74.5755 87.4672 74.1984 88.3586 74.3013 88.4271C74.4041 88.4957 74.8841 89.2156 75.0212 89.2156C75.1584 89.2156 79.2723 88.53 79.5808 88.4957C79.8894 88.4614 82.9749 88.4957 83.2148 88.3929C83.4548 88.29 84.2433 87.9472 84.4147 87.81C84.5861 87.6729 84.8604 87.4329 84.7233 86.8844C84.5861 86.3359 84.449 82.4619 84.449 82.1191C84.449 81.7763 85.2954 79.1019 85.4432 78.0051C85.9757 74.0538 85.9175 73.8217 85.929 73.3065C85.9562 72.0902 84.9919 71.4601 84.8548 71.3916C84.7176 71.323 83.8662 70.4629 83.8662 70.4629C83.8662 70.4629 80.815 70.7029 77.1468 72.897Z" fill="#AAA0F8" stroke="#AAA0F8" stroke-linecap="round" stroke-linejoin="round"/>
<path id="Vector_82" d="M74.5752 87.4673C74.5752 87.4673 75.7751 87.2616 75.9808 87.0902C76.1865 86.9188 78.0035 81.6049 78.072 81.2964C78.1406 80.9878 78.2435 77.251 78.2435 77.251" stroke="#AAA0F8" stroke-linecap="round" stroke-linejoin="round"/>
<path id="Vector_83" d="M78.21 79.5825L78.7928 77.4912" stroke="#AAA0F8" stroke-linecap="round" stroke-linejoin="round"/>
<path id="Vector_84" d="M73.7532 84.8275C73.6503 84.2447 73.8903 82.7705 73.8903 82.7705C73.8903 82.7705 74.1303 84.2104 74.576 84.7932" stroke="#AAA0F8" stroke-linecap="round" stroke-linejoin="round"/>
<path id="Vector_85" d="M72.2443 80.851C72.2443 80.851 72.2786 80.1653 72.1757 79.8911C72.0729 79.6168 72.0386 79.4111 71.7986 79.3083C71.5586 79.2054 70.7701 78.9997 70.5645 78.8283C70.3587 78.6569 69.7759 78.1083 69.6388 78.3141C69.5017 78.5197 69.2274 78.8626 69.296 79.1026C69.3645 79.3425 69.6388 79.8225 69.6388 79.9596C69.6388 80.0968 69.6388 81.1253 70.0845 81.6052C70.5301 82.0852 71.1815 82.2909 71.1815 82.2909C71.1815 82.2909 71.2411 82.4483 71.3363 82.6942C71.5451 82.1895 71.9691 81.569 72.7974 81.4963L72.2443 80.851Z" fill="white" stroke="#AAA0F8" stroke-linecap="round" stroke-linejoin="round"/>
<path id="Vector_86" d="M71.6963 83.3532C71.6963 83.3532 71.9363 82.4962 72.9305 82.1533" stroke="#AAA0F8" stroke-linecap="round" stroke-linejoin="round"/>
<path id="Vector_87" d="M79.5811 88.4953L83.0436 87.4668" stroke="#AAA0F8" stroke-linecap="round" stroke-linejoin="round"/>
</g>
<path id="Vector_88" d="M83.6942 79.4004C83.6942 79.4004 81.5026 81.7697 79.7256 83.0729" stroke="#AAA0F8" stroke-linecap="round" stroke-linejoin="round"/>
<path id="Vector_89" d="M82.5686 81.1777C82.5686 81.1777 80.91 82.8363 80.1992 83.3694" stroke="#AAA0F8" stroke-linecap="round" stroke-linejoin="round"/>
</g>
<g id="Group_20">
<path id="Vector_90" d="M83.8672 70.4629C83.8672 70.4629 85.489 72.5831 85.5649 73.2281C85.6408 73.8731 85.7167 74.2525 85.7167 74.2525L86.6652 73.5695C86.6652 73.5695 86.2099 71.9381 85.6787 71.4069C85.1476 70.8757 83.8672 70.4629 83.8672 70.4629Z" fill="#AAA0F8" stroke="#AAA0F8" stroke-linecap="round" stroke-linejoin="round"/>
<path id="Vector_91" d="M86.552 72.8302C86.552 72.8302 85.1985 72.7625 84.3187 73.4393C83.4389 74.116 83.0329 76.3493 82.8299 77.5674C82.6268 78.7856 82.4238 84.2672 82.4238 85.147C82.4238 86.0267 83.2359 86.4328 83.5743 86.5681C83.9127 86.7035 85.8752 86.2298 86.1459 86.1621C86.4166 86.0944 88.3792 86.0944 88.9206 84.8763C89.462 83.6581 89.5297 81.4926 89.462 80.6804C89.3943 79.8683 88.7852 78.6502 88.7852 78.6502C88.7852 78.6502 88.9206 75.4695 88.6499 74.3867C88.3792 73.3039 87.1611 72.6948 86.552 72.8302Z" fill="#AAA0F8" stroke="#AAA0F8" stroke-linecap="round" stroke-linejoin="round"/>
<path id="Vector_92" d="M88.7849 78.6504C88.7849 78.6504 83.8547 79.7413 83.9702 80.2029C84.0856 80.6645 83.9124 81.6454 83.9702 81.8186C84.0279 81.9917 89.4616 80.6806 89.4616 80.6806C89.4616 80.6806 89.3297 78.8867 88.7849 78.6504Z" fill="#878787" stroke="#878787" stroke-linecap="round" stroke-linejoin="round"/>
<path id="Vector_93" d="M88.0679 73.5674C88.0679 73.5674 85.5867 73.7405 84.7789 74.4906C83.9711 75.2408 83.7854 78.0047 83.7402 78.7029" stroke="#878787" stroke-linecap="round" stroke-linejoin="round"/>
<path id="Vector_94" d="M83.9705 82.6836C83.9705 82.6836 83.7974 85.1648 83.9705 85.7418C84.1436 86.3189 86.868 86.0307 87.8943 85.4533" stroke="#878787" stroke-linecap="round" stroke-linejoin="round"/>
</g>
</g>
</g>
<g id="Character_1">
<g id="Group_21">
<path id="Vector_95" d="M39.7133 106.477C39.7133 106.477 39.0905 112.349 39.0015 112.571C38.9126 112.794 37.2666 112.794 37.1776 113.461C37.0886 114.128 37.3556 114.395 37.6225 114.528C37.8894 114.662 38.9126 115.151 39.2239 115.24C39.5354 115.329 40.3806 115.418 40.603 115.018C40.8254 114.617 40.6475 113.194 40.6475 113.194L42.249 106.566L39.7133 106.477Z" fill="white" stroke="#AAA0F8" stroke-linecap="round" stroke-linejoin="round"/>
<path id="Vector_96" d="M47.5234 105.425C47.5234 105.425 47.239 112.599 47.0611 113.31C46.8831 114.022 46.8387 114.556 47.0166 114.956C47.1945 115.357 47.8618 115.357 48.1287 115.268C48.3957 115.179 50.1751 114.334 50.353 114.067C50.531 113.8 49.9971 113.533 49.7747 113.444C49.5523 113.355 48.8405 112.688 48.796 112.554C48.7515 112.421 49.7477 106.492 49.7477 106.492L47.5234 105.425Z" fill="white" stroke="#AAA0F8" stroke-linecap="round" stroke-linejoin="round"/>
<path id="Vector_97" d="M48.1287 115.268C48.3957 115.179 50.1751 114.334 50.353 114.067C50.531 113.8 49.9971 113.533 49.7747 113.444C49.5523 113.355 48.8405 112.688 48.796 112.554C48.785 112.521 48.8835 112.141 49.0375 111.588L47.191 111.522C47.0518 112.405 47.1104 113.114 47.0611 113.311C46.8831 114.022 46.8387 114.556 47.0166 114.957C47.1946 115.357 47.8618 115.357 48.1287 115.268Z" fill="#7F70F5" stroke="#AAA0F8" stroke-linecap="round" stroke-linejoin="round"/>
<path id="Vector_98" d="M39.2367 110.797C39.1264 111.745 39.0322 112.494 39.0015 112.571C38.9126 112.793 37.2666 112.793 37.1776 113.461C37.0886 114.128 37.3556 114.395 37.6225 114.528C37.8894 114.662 38.9126 115.151 39.2239 115.24C39.5354 115.329 40.3806 115.418 40.603 115.018C40.8254 114.617 40.6475 113.194 40.6475 113.194L41.19 110.949L39.2367 110.797Z" fill="#7F70F5" stroke="#AAA0F8" stroke-linecap="round" stroke-linejoin="round"/>
<path id="Vector_99" d="M40.6717 114.807C40.3177 114.876 39.7632 114.922 39.2238 114.706C38.6103 114.461 37.6799 113.983 37.1611 113.71C37.1621 114.197 37.3917 114.413 37.6223 114.528C37.8893 114.662 38.9124 115.151 39.2238 115.24C39.5352 115.329 40.3804 115.418 40.6029 115.018C40.6327 114.964 40.6549 114.891 40.6717 114.807Z" fill="white" stroke="#AAA0F8" stroke-linecap="round" stroke-linejoin="round"/>
<path id="Vector_100" d="M50.3536 114.067C50.4595 113.908 50.3129 113.749 50.1302 113.628C49.6155 113.991 48.7945 114.557 48.4407 114.734C48.0744 114.917 47.3729 114.87 46.9688 114.822C46.9828 114.868 46.9981 114.914 47.0172 114.957C47.1951 115.357 47.8624 115.357 48.1293 115.268C48.3963 115.179 50.1757 114.334 50.3536 114.067Z" fill="white" stroke="#AAA0F8" stroke-linecap="round" stroke-linejoin="round"/>
<path id="Vector_101" d="M42.4308 85.7467C42.4308 85.7467 41.897 86.9478 41.6301 90.5066C41.3632 94.0655 41.1852 98.2916 40.7404 100.027C40.2955 101.761 39.3613 106.477 39.3613 106.477L42.5643 107.055L44.1213 100.16L47.7246 88.4603L46.9041 107.539L49.9736 107.806L52.0397 94.5103C52.0397 94.5103 53.5078 89.2165 53.5522 87.3926C53.5967 85.5687 53.0629 85.0794 53.0629 85.0794L47.7246 84.0117L42.4308 85.7467Z" fill="#AAA0F8" stroke="#AAA0F8" stroke-linecap="round" stroke-linejoin="round"/>
<path id="Vector_102" d="M42.7402 84.5766L42.4316 85.7463C42.4316 85.7463 46.5688 85.1235 48.3482 84.99C50.1277 84.8566 53.2861 85.4349 53.2861 85.4349L52.6475 83.9938C52.6475 83.9938 50.706 83.4775 48.5262 83.433C46.3464 83.3885 44.5669 83.7 44.2111 83.7889C43.8552 83.8779 42.7402 84.5766 42.7402 84.5766Z" fill="white" stroke="#AAA0F8" stroke-linecap="round" stroke-linejoin="round"/>
<g id="Group_22">
<path id="Vector_103" d="M43.5817 69.4893C43.5817 69.4893 40.2793 71.0433 39.567 72.2089C38.8547 73.3745 35.7465 80.2384 36.0055 80.8859C36.2645 81.5335 37.7539 82.9581 37.7539 82.9581L39.4375 81.922L38.9842 79.9794L41.1211 75.4466C41.1211 75.4466 42.2219 80.5622 42.2866 81.145C42.3514 81.7278 41.9629 83.4761 42.1571 83.9941C42.3514 84.5122 42.5457 84.6417 42.7399 84.5769C42.9342 84.5122 45.6539 83.7351 46.8194 83.7351C47.985 83.7351 52.2588 84.4474 52.6473 83.9941C53.0358 83.5409 52.7768 83.1523 52.6473 82.9581C52.5178 82.7638 50.8989 77.0007 50.8989 77.0007C50.8989 77.0007 51.7407 72.0794 51.3522 71.5614C50.9637 71.0433 47.3375 69.6835 47.3375 69.6835L43.5817 69.4893Z" fill="#7F70F5" stroke="#AAA0F8" stroke-linecap="round" stroke-linejoin="round"/>
<path id="Vector_104" d="M45.3447 81.5631L48.8528 80.2656" stroke="#AAA0F8" stroke-linecap="round" stroke-linejoin="round"/>
<path id="Vector_105" d="M44.1855 81.9922L44.8931 81.7305" stroke="#AAA0F8" stroke-linecap="round" stroke-linejoin="round"/>
<path id="Vector_106" d="M43.4189 81.6725L45.5928 80.7773" stroke="#AAA0F8" stroke-linecap="round" stroke-linejoin="round"/>
<path id="Vector_107" d="M40.0273 73.3193L41.1213 75.4463L40.0625 74.4812" stroke="#AAA0F8" stroke-linecap="round" stroke-linejoin="round"/>
</g>
<g id="Vector_108">
<path d="M51.3516 71.5615L54.2008 80.6271L55.5607 81.7279L54.2008 83.4762C54.2008 83.4762 51.9992 81.6631 51.6754 81.3394C51.3516 81.0156 49.8623 75.9648 49.8623 75.9648" fill="#7F70F5"/>
<path d="M51.3516 71.5615L54.2008 80.6271L55.5607 81.7279L54.2008 83.4762C54.2008 83.4762 51.9992 81.6631 51.6754 81.3394C51.3516 81.0156 49.8623 75.9648 49.8623 75.9648" stroke="#AAA0F8" stroke-linecap="round" stroke-linejoin="round"/>
</g>
<path id="Vector_109" d="M61.5159 85.8805V84.5459H57.0674V85.747" stroke="#AAA0F8" stroke-width="3" stroke-miterlimit="10"/>
<path id="Vector_110" d="M57.0674 85.7471V98.0251H61.5159V85.8805" stroke="#AAA0F8" stroke-width="2" stroke-miterlimit="10"/>
<path id="Vector_111" d="M55.561 81.7275L59.1813 83.2002C59.1813 83.2002 59.8171 83.4314 59.9327 83.5181C60.0483 83.6048 60.3951 83.9227 60.3951 83.9227H60.0772C60.0772 83.9227 60.8864 84.992 60.7997 85.1076C60.713 85.2232 60.7708 85.281 60.5107 85.281C60.2506 85.281 60.0194 85.1365 60.0194 85.1365C60.0194 85.1365 59.557 85.2232 59.1524 85.1076C58.7479 84.992 57.7942 84.0672 57.7942 84.0672L54.2012 83.4759L55.561 81.7275Z" fill="white" stroke="#AAA0F8" stroke-linecap="round" stroke-linejoin="round"/>
<path id="Vector_112" d="M56.1937 112.349H55.8531C55.7449 112.349 55.6572 112.436 55.6572 112.545V113.77C55.6572 113.878 55.7449 113.966 55.8531 113.966H56.1937C56.3019 113.966 56.3896 113.878 56.3896 113.77V112.545C56.3896 112.436 56.3019 112.349 56.1937 112.349Z" fill="#AAA0F8" stroke="#AAA0F8" stroke-linecap="round" stroke-linejoin="round"/>
<path id="Vector_113" d="M56.4066 111.481H55.6504V113.261H56.4066V111.481Z" fill="white" stroke="#AAA0F8" stroke-linecap="round" stroke-linejoin="round"/>
<path id="Vector_114" d="M62.6022 113.967H62.9428C63.051 113.967 63.1387 113.879 63.1387 113.771V112.545C63.1387 112.437 63.051 112.349 62.9428 112.349H62.6022C62.494 112.349 62.4063 112.437 62.4063 112.545V113.771C62.4063 113.879 62.494 113.967 62.6022 113.967Z" fill="#AAA0F8" stroke="#AAA0F8" stroke-linecap="round" stroke-linejoin="round"/>
<path id="Vector_115" d="M62.3697 113.238H63.126V111.459H62.3697V113.238Z" fill="white" stroke="#AAA0F8" stroke-linecap="round" stroke-linejoin="round"/>
<path id="Vector_116" d="M62.4237 97.7578H56.2917C55.4176 97.7578 54.709 98.4664 54.709 99.3406V110.499C54.709 111.374 55.4176 112.082 56.2917 112.082H62.4237C63.2979 112.082 64.0065 111.374 64.0065 110.499V99.3406C64.0065 98.4664 63.2979 97.7578 62.4237 97.7578Z" fill="#C2C2C2" stroke="#AAA0F8" stroke-linecap="round" stroke-linejoin="round"/>
<path id="Vector_117" d="M62.2669 98.7188H56.4486C55.4878 98.7188 54.709 99.4976 54.709 100.458V110.342C54.709 111.303 55.4878 112.082 56.4486 112.082H62.2669C63.2276 112.082 64.0065 111.303 64.0065 110.342V100.458C64.0065 99.4976 63.2276 98.7188 62.2669 98.7188Z" fill="#5540F2" stroke="#AAA0F8" stroke-linecap="round" stroke-linejoin="round"/>
<g id="Group_23">
<path id="Vector_118" d="M55.8799 100.688V110.107" stroke="#AAA0F8" stroke-linecap="round" stroke-linejoin="round"/>
<path id="Vector_119" d="M57.6191 100.688V110.107" stroke="#AAA0F8" stroke-linecap="round" stroke-linejoin="round"/>
<path id="Vector_120" d="M59.3584 100.688V110.107" stroke="#AAA0F8" stroke-linecap="round" stroke-linejoin="round"/>
<path id="Vector_121" d="M61.0977 100.688V110.107" stroke="#AAA0F8" stroke-linecap="round" stroke-linejoin="round"/>
<path id="Vector_122" d="M62.8369 100.688V110.107" stroke="#AAA0F8" stroke-linecap="round" stroke-linejoin="round"/>
</g>
<path id="Vector_123" d="M39.4375 81.9219L41.7479 85.7002L42.281 85.9371L41.9552 87.4178C41.9552 87.4178 40.8891 86.8848 40.7411 86.5886C40.593 86.2925 37.7539 82.9579 37.7539 82.9579L39.4375 81.9219Z" fill="white" stroke="#AAA0F8" stroke-linecap="round" stroke-linejoin="round"/>
<g id="Group_24">
<path id="Vector_124" d="M43.0986 68.974L41.8574 76.0075C41.8574 76.0075 43.3469 77.9934 45.8293 77.9934C48.3117 77.9934 49.5529 76.7522 49.5529 76.7522L48.4772 68.4775L43.0986 68.974Z" fill="#AAA0F8" stroke="#AAA0F8" stroke-linecap="round" stroke-linejoin="round"/>
<g id="Group_25">
<path id="Vector_125" d="M46.0331 70.8196C48.9055 70.8196 51.2341 68.4524 51.2341 65.5323C51.2341 62.6123 48.9055 60.2451 46.0331 60.2451C43.1606 60.2451 40.832 62.6123 40.832 65.5323C40.832 68.4524 43.1606 70.8196 46.0331 70.8196Z" fill="white" stroke="#AAA0F8" stroke-linecap="round" stroke-linejoin="round"/>
<path id="Vector_126" d="M46.0044 67.3138C47.3692 67.3138 48.4756 66.2331 48.4756 64.9001C48.4756 63.567 47.3692 62.4863 46.0044 62.4863C44.6396 62.4863 43.5332 63.567 43.5332 64.9001C43.5332 66.2331 44.6396 67.3138 46.0044 67.3138Z" fill="#7F70F5" stroke="#AAA0F8" stroke-linecap="round" stroke-linejoin="round"/>
<path id="Vector_127" d="M45.7469 66.8975L45.4316 69.7346L46.1071 69.8247L45.7469 66.8975Z" fill="#7F70F5" stroke="#AAA0F8" stroke-linecap="round" stroke-linejoin="round"/>
<path id="Vector_128" d="M46.0041 66.9083L46.5117 69.014L46.1064 68.969L45.7461 66.8975L46.0041 66.9083Z" fill="#7F70F5" stroke="#AAA0F8" stroke-linecap="round" stroke-linejoin="round"/>
<path id="Vector_129" d="M46.0044 66.9085C47.3692 66.9085 48.4756 65.8278 48.4756 64.4948C48.4756 63.1617 47.3692 62.0811 46.0044 62.0811C44.6396 62.0811 43.5332 63.1617 43.5332 64.4948C43.5332 65.8278 44.6396 66.9085 46.0044 66.9085Z" fill="white" stroke="#AAA0F8" stroke-linecap="round" stroke-linejoin="round"/>
</g>
</g>
</g>
</g>
<g id="Airplane">
<g id="Group_26">
<path id="Vector_130" d="M84.9813 37.7132L82.4736 42.2269L83.5324 42.1712L87.0988 38.3262L86.1515 37.4346L84.9813 37.7132Z" fill="#AAA0F8" stroke="#AAA0F8" stroke-linecap="round" stroke-linejoin="round"/>
<path id="Vector_131" d="M118.583 30.3018L116.048 30.127C115.586 30.0951 115.122 30.1339 114.672 30.2421L88.4361 36.543L83.0865 34.6483L81.6377 35.0941L86.2628 38.6605L92.6712 38.3262L116.677 32.9328C117.532 32.7408 118.343 32.3905 119.069 31.9001L119.709 31.4674C119.904 31.3355 120 31.0983 119.95 30.8679C119.899 30.6288 119.703 30.4479 119.46 30.4162L118.583 30.3018Z" fill="white" stroke="#AAA0F8" stroke-linecap="round" stroke-linejoin="round"/>
<path id="Vector_132" d="M91.4478 38.3901C92.6168 37.3303 94.2817 35.8939 95.9009 34.7503L88.4361 36.5431L83.0865 34.6484L81.6377 35.0942L86.2628 38.6606L91.4478 38.3901Z" fill="#7F70F5" stroke="#AAA0F8" stroke-linecap="round" stroke-linejoin="round"/>
<path id="Vector_133" d="M84.9808 37.7137L83.8105 33.4229H84.8693L87.5441 37.5465L84.9808 37.7137Z" fill="#AAA0F8" stroke="#AAA0F8" stroke-linecap="round" stroke-linejoin="round"/>
<path id="Vector_134" d="M84.981 37.7139L83.9443 37.8124L84.0235 38.4258L86.2626 38.6612L84.981 37.7139Z" fill="white" stroke="#AAA0F8" stroke-linecap="round" stroke-linejoin="round"/>
<path id="Vector_135" d="M100.779 34.7732L100.469 31.9458L97.332 22.1465L99.3074 22.8824L106.938 33.5725L100.779 34.7732Z" fill="#AAA0F8" stroke="#AAA0F8" stroke-linecap="round" stroke-linejoin="round"/>
<g id="Group_27">
<path id="Vector_136" d="M102.953 28.3219C102.667 28.1016 102.58 27.3186 102.81 27.0406C103.146 26.6363 104.742 26.4913 105.202 26.7735C105.518 26.9676 105.61 27.7959 105.345 28.0548C104.959 28.4315 103.37 28.6423 102.953 28.3219Z" fill="white" stroke="#AAA0F8" stroke-linecap="round" stroke-linejoin="round"/>
<path id="Vector_137" d="M102.684 27.1855L101.469 27.5202L101.645 28.2247H102.79C102.79 28.2247 102.631 27.7315 102.684 27.1855Z" fill="white" stroke="#AAA0F8" stroke-linecap="round" stroke-linejoin="round"/>
</g>
<g id="Group_28">
<path id="Vector_138" d="M105.807 31.8092C105.521 31.5889 105.433 30.8059 105.664 30.5279C105.999 30.1235 107.596 29.9786 108.055 30.2609C108.371 30.4549 108.464 31.2832 108.198 31.5422C107.812 31.9188 106.223 32.1296 105.807 31.8092Z" fill="white" stroke="#AAA0F8" stroke-linecap="round" stroke-linejoin="round"/>
<path id="Vector_139" d="M105.536 30.6729L104.321 31.0075L104.497 31.712H105.642C105.642 31.712 105.484 31.2188 105.536 30.6729Z" fill="white" stroke="#AAA0F8" stroke-linecap="round" stroke-linejoin="round"/>
</g>
<path id="Vector_140" d="M97.6715 37.2734L100.334 37.6104L93.4247 46.34L92.582 46.4412L94.4358 46.6434L106.334 35.7566L107.682 34.9814L97.6715 37.2734Z" fill="#AAA0F8" stroke="#AAA0F8" stroke-linecap="round" stroke-linejoin="round"/>
<g id="Group_29">
<path id="Vector_141" d="M103.908 39.2868C103.621 39.0664 103.534 38.2834 103.764 38.0054C104.1 37.6011 105.696 37.4561 106.156 37.7384C106.472 37.9324 106.564 38.7607 106.299 39.0197C105.913 39.3964 104.324 39.6072 103.908 39.2868Z" fill="white" stroke="#AAA0F8" stroke-linecap="round" stroke-linejoin="round"/>
<path id="Vector_142" d="M103.638 38.1504L102.423 38.485L102.599 39.1895H103.744C103.744 39.1895 103.585 38.6964 103.638 38.1504Z" fill="white" stroke="#AAA0F8" stroke-linecap="round" stroke-linejoin="round"/>
</g>
<g id="Group_30">
<path id="Vector_143" d="M99.0882 43.3649C98.8021 43.1446 98.7147 42.3616 98.9452 42.0836C99.2804 41.6792 100.877 41.5343 101.336 41.8165C101.652 42.0106 101.745 42.8388 101.48 43.0978C101.094 43.4745 99.5045 43.6853 99.0882 43.3649Z" fill="white" stroke="#AAA0F8" stroke-linecap="round" stroke-linejoin="round"/>
<path id="Vector_144" d="M98.8178 42.2275L97.6025 42.5622L97.7787 43.2666H98.9234C98.9234 43.2666 98.7649 42.7735 98.8178 42.2275Z" fill="white" stroke="#AAA0F8" stroke-linecap="round" stroke-linejoin="round"/>
</g>
</g>
<path id="Vector_145" d="M82.4566 38.5195C82.4566 38.5195 38.0952 45.876 16.4515 57.8456C-5.19215 69.8152 32.8482 62.1088 32.8482 62.1088" stroke="#AAA0F8" stroke-linecap="round" stroke-linejoin="round"/>
</g>
</g>
</g>
</svg>
