<svg width="16" height="17" viewBox="0 0 16 17" fill="none" xmlns="http://www.w3.org/2000/svg">
<g id="Receipt" opacity="0.5">
<path id="Vector" d="M11.375 7C11.375 7.09946 11.3355 7.19484 11.2652 7.26516C11.1948 7.33549 11.0995 7.375 11 7.375H5C4.90054 7.375 4.80516 7.33549 4.73484 7.26516C4.66451 7.19484 4.625 7.09946 4.625 7C4.625 6.90054 4.66451 6.80516 4.73484 6.73484C4.80516 6.66451 4.90054 6.625 5 6.625H11C11.0995 6.625 11.1948 6.66451 11.2652 6.73484C11.3355 6.80516 11.375 6.90054 11.375 7ZM11 8.625H5C4.90054 8.625 4.80516 8.66451 4.73484 8.73483C4.66451 8.80516 4.625 8.90054 4.625 9C4.625 9.09946 4.66451 9.19484 4.73484 9.26517C4.80516 9.33549 4.90054 9.375 5 9.375H11C11.0995 9.375 11.1948 9.33549 11.2652 9.26517C11.3355 9.19484 11.375 9.09946 11.375 9C11.375 8.90054 11.3355 8.80516 11.2652 8.73483C11.1948 8.66451 11.0995 8.625 11 8.625ZM14.375 4V13.5C14.3749 13.5639 14.3585 13.6267 14.3274 13.6825C14.2962 13.7383 14.2513 13.7852 14.1969 13.8188C14.1378 13.8556 14.0696 13.8751 14 13.875C13.9419 13.875 13.8845 13.8616 13.8325 13.8356L12 12.9194L10.1675 13.8356C10.1155 13.8616 10.0581 13.8751 10 13.8751C9.94186 13.8751 9.88452 13.8616 9.8325 13.8356L8 12.9194L6.1675 13.8356C6.11548 13.8616 6.05814 13.8751 6 13.8751C5.94186 13.8751 5.88452 13.8616 5.8325 13.8356L4 12.9194L2.1675 13.8356C2.11032 13.8642 2.04679 13.8776 1.98294 13.8747C1.9191 13.8718 1.85706 13.8526 1.80271 13.819C1.74835 13.7854 1.7035 13.7384 1.6724 13.6826C1.6413 13.6268 1.62498 13.5639 1.625 13.5V4C1.625 3.76794 1.71719 3.54538 1.88128 3.38128C2.04538 3.21719 2.26794 3.125 2.5 3.125H13.5C13.7321 3.125 13.9546 3.21719 14.1187 3.38128C14.2828 3.54538 14.375 3.76794 14.375 4ZM13.625 4C13.625 3.96685 13.6118 3.93505 13.5884 3.91161C13.5649 3.88817 13.5332 3.875 13.5 3.875H2.5C2.46685 3.875 2.43505 3.88817 2.41161 3.91161C2.38817 3.93505 2.375 3.96685 2.375 4V12.8931L3.8325 12.1644C3.88452 12.1384 3.94186 12.1249 4 12.1249C4.05814 12.1249 4.11548 12.1384 4.1675 12.1644L6 13.0806L7.8325 12.1644C7.88452 12.1384 7.94186 12.1249 8 12.1249C8.05814 12.1249 8.11548 12.1384 8.1675 12.1644L10 13.0806L11.8325 12.1644C11.8845 12.1384 11.9419 12.1249 12 12.1249C12.0581 12.1249 12.1155 12.1384 12.1675 12.1644L13.625 12.8931V4Z" fill="#222222"/>
</g>
</svg>
