<svg width="20" height="19" viewBox="0 0 20 19" fill="none" xmlns="http://www.w3.org/2000/svg">
<g id="Frame 484644">
<path id="Vector" d="M10.0008 4.49858C11.174 4.49858 12.125 3.5475 12.125 2.37429C12.125 1.20108 11.174 0.25 10.0008 0.25C8.82754 0.25 7.87646 1.20108 7.87646 2.37429C7.87646 3.5475 8.82754 4.49858 10.0008 4.49858Z" fill="#FCB428"/>
<path id="Vector_2" d="M10.0002 5.45961C10.0002 5.45961 6.39819 5.23819 6.39819 8.89579H10.0002H13.6022C13.6022 5.23819 10.0002 5.45961 10.0002 5.45961Z" fill="#FCB428"/>
<path id="Vector_3" d="M3.18098 14.8632C4.21683 14.8632 5.05654 14.0235 5.05654 12.9876C5.05654 11.9518 4.21683 11.1121 3.18098 11.1121C2.14514 11.1121 1.30542 11.9518 1.30542 12.9876C1.30542 14.0235 2.14514 14.8632 3.18098 14.8632Z" fill="#FCB428"/>
<path id="Vector_4" d="M3.18087 15.7115C3.18087 15.7115 0 15.5159 0 18.7458H3.18087H6.36124C6.36124 15.5159 3.18087 15.7115 3.18087 15.7115Z" fill="#FCB428"/>
<path id="Vector_5" d="M16.8197 14.8632C17.8555 14.8632 18.6952 14.0235 18.6952 12.9876C18.6952 11.9518 17.8555 11.1121 16.8197 11.1121C15.7838 11.1121 14.9441 11.9518 14.9441 12.9876C14.9441 14.0235 15.7838 14.8632 16.8197 14.8632Z" fill="#FCB428"/>
<path id="Vector_6" d="M16.8198 15.7115C16.8198 15.7115 13.6399 15.5159 13.6399 18.7458H16.8198H20.0001C20.0001 15.5159 16.8198 15.7115 16.8198 15.7115Z" fill="#FCB428"/>
<path id="Vector_7" d="M10.5056 13.7298V10.3007C10.5056 10.0211 10.2796 9.79517 10.0001 9.79517C9.721 9.79517 9.49451 10.0211 9.49451 10.3007V13.7298L7.22918 15.2929C6.99916 15.4517 6.94152 15.7671 7.09976 15.9961C7.19783 16.1382 7.35607 16.2156 7.51633 16.2156C7.61541 16.2156 7.71551 16.1857 7.80297 16.1256L10.0001 14.6094L12.1976 16.1251C12.2851 16.1852 12.3852 16.215 12.4838 16.215C12.6445 16.215 12.8023 16.1382 12.9004 15.9956C13.0586 15.7666 13.001 15.4517 12.7714 15.2924L10.5056 13.7298Z" fill="#FCB428"/>
</g>
</svg>
