<svg width="20" height="20" viewBox="0 0 20 20" fill="none" xmlns="http://www.w3.org/2000/svg">
<g id="encrypted_FILL0_wght400_GRAD0_opsz24 1">
<path id="Vector" d="M8.75004 12.5H11.25L10.7709 9.81246C11.0487 9.67357 11.2674 9.47218 11.4271 9.20829C11.5868 8.9444 11.6667 8.65274 11.6667 8.33329C11.6667 7.87496 11.5035 7.4826 11.1771 7.15621C10.8507 6.82982 10.4584 6.66663 10 6.66663C9.54171 6.66663 9.14935 6.82982 8.82296 7.15621C8.49657 7.4826 8.33337 7.87496 8.33337 8.33329C8.33337 8.65274 8.41323 8.9444 8.57296 9.20829C8.73268 9.47218 8.95143 9.67357 9.22921 9.81246L8.75004 12.5ZM10 18.3333C8.06948 17.8472 6.47573 16.7395 5.21879 15.0104C3.96185 13.2812 3.33337 11.3611 3.33337 9.24996V4.16663L10 1.66663L16.6667 4.16663V9.24996C16.6667 11.3611 16.0382 13.2812 14.7813 15.0104C13.5243 16.7395 11.9306 17.8472 10 18.3333ZM10 16.5833C11.4445 16.125 12.6389 15.2083 13.5834 13.8333C14.5278 12.4583 15 10.9305 15 9.24996V5.31246L10 3.43746L5.00004 5.31246V9.24996C5.00004 10.9305 5.47226 12.4583 6.41671 13.8333C7.36115 15.2083 8.5556 16.125 10 16.5833Z" fill="#365EEE"/>
</g>
</svg>
